<?xml version="1.0" standalone="no"?>
<!DOCTYPE svg PUBLIC "-//W3C//DTD SVG 1.1//EN" "http://www.w3.org/Graphics/SVG/1.1/DTD/svg11.dtd" >
<svg>
<metadata>
Created by FontForge 20120731 at Tue Jul 30 00:37:55 2019
 By www
Copyright Copr.1992 Image Club Graphics, Inc.
</metadata>
<defs>
<font id="FranklinBook" horiz-adv-x="631" >
  <font-face 
    font-family="Franklin"
    font-weight="500"
    font-stretch="normal"
    units-per-em="1000"
    panose-1="0 0 0 0 0 0 0 0 0 0"
    ascent="804"
    descent="-196"
    x-height="598"
    cap-height="804"
    bbox="-83 -253.019 1131 1038"
    underline-thickness="10"
    underline-position="-67"
    stemh="77"
    stemv="91"
    unicode-range="U+0020-25CA"
  />
<missing-glyph horiz-adv-x="500" 
 />
    <glyph glyph-name=".notdef" horiz-adv-x="500" 
 />
    <glyph glyph-name="space" unicode=" " horiz-adv-x="255" 
 />
    <glyph glyph-name="exclam" unicode="!" horiz-adv-x="238" 
d="M190 804l-43 -601h-49l-40 601h132zM188 -2h-122v127h122v-127z" />
    <glyph glyph-name="quotedbl" unicode="&#x22;" horiz-adv-x="330" 
d="M345 665l-33 -148h-41l-34 149v138h108v-139zM162 665l-32 -148h-42l-34 149v138h108v-139z" />
    <glyph glyph-name="numbersign" unicode="#" horiz-adv-x="705" 
d="M656 505h-135l-32 -187h128v-74h-143l-47 -246h-80l46 247h-155l-44 -247h-79l44 247h-126v73h141l31 185h-127v76h143l45 229h75l-41 -229h158l39 228h84l-42 -229h117v-73zM441 504h-157l-28 -185h154z" />
    <glyph glyph-name="dollar" unicode="$" horiz-adv-x="637" 
d="M601 233c-2 -118 -102 -206 -220 -212l-21 -1v-113h-76v113l-27 3c-45 7 -73 16 -111 39c-60 37 -91 74 -115 140l80 34c16 -45 37 -72 76 -99c33 -22 59 -31 98 -34v272l-34 8c-102 27 -183 75 -186 197c-2 112 91 188 202 207l16 2v110h71v-109l17 -2
c48 -8 78 -13 118 -39c47 -30 73 -60 94 -112l-76 -31c-12 36 -28 56 -59 77c-25 16 -43 20 -73 24l-15 3v-252l28 -7c116 -26 214 -87 213 -218zM282 468v242l-15 -1c-65 -6 -118 -57 -116 -122c1 -63 52 -102 114 -115zM508 253c-12 61 -65 88 -127 101l-24 5v-256h23
c76 0 143 75 128 150z" />
    <glyph glyph-name="percent" unicode="%" horiz-adv-x="837" 
d="M795 196c-2 -103 -48 -206 -168 -205c-103 0 -165 106 -165 210c0 102 50 206 162 209c106 3 173 -108 171 -214zM694 808l-482 -808h-84l479 808h87zM367 603c-1 -102 -48 -206 -168 -205c-103 0 -164 107 -164 210c0 102 50 207 161 210c107 3 173 -109 171 -215z
M723 196c1 71 -29 158 -101 154c-66 -4 -88 -80 -90 -146c-1 -70 22 -155 92 -156c80 -1 99 79 99 148zM296 603c1 72 -30 159 -101 154c-67 -4 -89 -80 -90 -146c-1 -70 21 -155 91 -156c80 -1 99 79 100 148z" />
    <glyph glyph-name="ampersand" unicode="&#x26;" horiz-adv-x="776" 
d="M737 3l-67 -7c-25 -3 -43 -5 -67 2c-29 9 -42 23 -65 43l-23 22l-28 -19c-65 -46 -121 -66 -194 -62c-127 6 -241 72 -262 197c-22 123 54 223 169 272l31 14l-30 46c-29 46 -46 82 -47 132c-2 106 102 192 211 175c97 -14 154 -83 158 -174c3 -81 -42 -138 -112 -177
l-55 -31l169 -253c33 42 50 70 70 119c22 50 31 82 39 136l86 -18c-13 -63 -26 -100 -54 -158c-29 -58 -50 -91 -93 -140c14 -19 28 -30 50 -38c19 -6 32 -6 53 -4l61 5v-82zM445 662c-12 55 -70 87 -125 75c-37 -7 -63 -27 -75 -63c-13 -39 8 -79 32 -120l36 -60l64 36
c49 29 77 83 68 132zM468 124l-198 281l-55 -31c-83 -47 -116 -157 -65 -238c41 -66 109 -82 186 -74c44 4 73 13 107 42z" />
    <glyph glyph-name="quoteright" unicode="&#x2019;" horiz-adv-x="252" 
d="M208 676l-107 -177l-50 2l79 167h-56v136h134v-128z" />
    <glyph glyph-name="parenleft" unicode="(" horiz-adv-x="309" 
d="M269 -139h-62c-132 175 -179 320 -171 540c6 195 51 320 168 476h60c-110 -167 -149 -339 -151 -492c-2 -170 38 -348 156 -524z" />
    <glyph glyph-name="parenright" unicode=")" horiz-adv-x="306" 
d="M266 418c8 -219 -39 -365 -171 -539h-62c118 176 158 353 156 524c-2 152 -42 325 -151 492h60c117 -157 162 -282 168 -477z" />
    <glyph glyph-name="asterisk" unicode="*" horiz-adv-x="465" 
d="M424 601l-27 -49l-44 26l-97 62l3 -113v-54h-55v54l3 113l-97 -62l-44 -26l-28 49l47 27l100 50l-100 50l-47 27l28 49l44 -25l97 -62l-3 113v54h55v-54l-3 -113l97 62l44 25l27 -49l-46 -27l-100 -50l100 -50z" />
    <glyph glyph-name="plus" unicode="+" horiz-adv-x="702" 
d="M657 262h-269v-268h-78v265h-259v81h262v264h75v-267h269v-75z" />
    <glyph glyph-name="comma" unicode="," horiz-adv-x="194" 
d="M163 15l-87 -164h-50l70 150h-58v135h125v-121z" />
    <glyph glyph-name="hyphen" unicode="-" horiz-adv-x="333" 
d="M298 258h-249v76h249v-76z" />
    <glyph glyph-name="period" unicode="." horiz-adv-x="221" 
d="M178 -2h-127v133h127v-133z" />
    <glyph glyph-name="slash" unicode="/" horiz-adv-x="630" 
d="M603 831l-412 -871h-77l411 871h78z" />
    <glyph glyph-name="zero" unicode="0" horiz-adv-x="688" 
d="M642 397c0 -198 -105 -410 -303 -412c-208 -1 -305 213 -307 412c-2 197 93 408 290 417c215 10 320 -213 320 -417zM537 387c1 158 -52 359 -210 351c-149 -8 -195 -182 -196 -331c-1 -159 61 -362 219 -348c146 14 185 181 187 328z" />
    <glyph glyph-name="one" unicode="1" horiz-adv-x="661" 
d="M618 -2h-569v71h242v613c-31 -33 -51 -51 -87 -80c-49 -41 -81 -63 -136 -94v103c52 23 82 41 127 76c50 38 77 66 115 117h74v-735h234v-71z" />
    <glyph glyph-name="two" unicode="2" horiz-adv-x="661" 
d="M617 0h-565v84l306 244c89 70 158 144 158 246c1 75 -56 167 -186 166c-83 -1 -168 -64 -180 -155l-4 -28l-92 30l9 30c38 125 138 204 269 204c145 1 282 -86 281 -246s-114 -240 -240 -339l-191 -149h435v-87z" />
    <glyph glyph-name="three" unicode="3" horiz-adv-x="698" 
d="M653 222c-1 -162 -152 -237 -304 -237c-113 1 -237 48 -290 165l-14 31l88 29l8 -19c40 -86 113 -130 207 -126c98 4 198 41 199 155c2 111 -107 158 -209 158h-99v78h120c85 0 162 57 160 149c-2 83 -84 137 -168 135c-83 -3 -142 -40 -182 -114l-9 -17l-88 26l6 13
c57 114 148 164 276 171c125 6 270 -81 269 -218c0 -93 -68 -159 -158 -180c105 -17 189 -86 188 -199z" />
    <glyph glyph-name="four" unicode="4" horiz-adv-x="718" 
d="M676 188h-129v-188h-99v189h-397v70l369 546h125v-537h131v-80zM446 267v463l-293 -463h293z" />
    <glyph glyph-name="five" unicode="5" horiz-adv-x="684" 
d="M634 269c1 -152 -125 -265 -277 -281c-107 -11 -274 42 -313 175l-5 13l81 30l7 -14c44 -80 112 -127 196 -127c114 0 211 72 211 203c1 67 -19 115 -71 157c-85 70 -228 46 -297 -48l-14 -19l-80 12l24 436h476l-4 -86h-396l-14 -256c53 54 123 78 179 82
c166 10 296 -120 297 -277z" />
    <glyph glyph-name="six" unicode="6" horiz-adv-x="678" 
d="M637 266c1 -164 -122 -275 -281 -281c-182 -6 -309 161 -309 356v65c0 207 95 416 312 413c126 -2 215 -55 263 -166l3 -9l-89 -27l-5 10c-36 72 -82 111 -173 110c-153 -2 -221 -172 -221 -324v-50c41 104 126 163 237 164c158 3 262 -119 263 -261zM547 256
c0 98 -69 183 -166 191c-123 10 -236 -92 -223 -210c11 -100 96 -170 197 -168c104 1 191 84 192 187z" />
    <glyph glyph-name="seven" unicode="7" horiz-adv-x="637" 
d="M597 750c-48 -56 -77 -90 -113 -154c-100 -176 -162 -322 -169 -505l-5 -93h-104l3 59c10 151 32 227 88 358c56 129 103 201 197 304h-443l12 86h531z" />
    <glyph glyph-name="eight" unicode="8" horiz-adv-x="711" 
d="M673 215c9 -152 -155 -225 -303 -230c-150 -4 -317 71 -319 222c-2 94 68 157 158 197l28 13l-26 12c-77 35 -118 96 -123 180c-7 136 130 204 281 209c133 3 267 -72 266 -201c-1 -84 -50 -145 -128 -177l-26 -10l24 -10c94 -40 161 -103 168 -205zM546 630
c-9 87 -95 110 -176 111c-82 0 -174 -32 -179 -114c-4 -59 41 -117 104 -138l68 -24l70 25c65 23 120 60 113 140zM573 201c2 82 -81 131 -166 157l-56 17l-54 -15c-80 -21 -148 -83 -150 -150c-5 -111 117 -151 220 -149c96 2 203 40 206 140z" />
    <glyph glyph-name="nine" unicode="9" horiz-adv-x="681" 
d="M641 401c0 -207 -95 -417 -311 -413c-127 2 -216 54 -264 165l-3 10l89 27l5 -11c36 -72 82 -111 174 -110c152 3 220 172 220 324v51c-41 -104 -126 -163 -237 -165c-158 -2 -262 119 -263 262c-1 164 123 274 281 280c183 6 309 -160 309 -355v-65zM530 569
c-11 100 -96 170 -197 169c-103 -2 -191 -84 -192 -188c0 -98 69 -183 166 -190c124 -10 237 91 223 209z" />
    <glyph glyph-name="colon" unicode=":" horiz-adv-x="221" 
d="M187 463h-128v132h128v-132zM187 -2h-128v133h128v-133z" />
    <glyph glyph-name="semicolon" unicode=";" horiz-adv-x="226" 
d="M183 470h-123v128h123v-128zM183 15l-85 -159h-48l68 146h-55v131h120v-118z" />
    <glyph glyph-name="less" unicode="&#x3c;" horiz-adv-x="561" 
d="M519 41l-468 209v58l463 227l3 -60l-406 -199l408 -179v-56z" />
    <glyph glyph-name="equal" unicode="=" horiz-adv-x="607" 
d="M562 371h-508v62h508v-62zM562 184h-508v63h508v-63z" />
    <glyph glyph-name="greater" unicode="&#x3e;" horiz-adv-x="569" 
d="M522 262l-482 -215v57l420 184l-417 204l3 62l476 -233v-59z" />
    <glyph glyph-name="question" unicode="?" horiz-adv-x="630" 
d="M590 592c0 -107 -71 -172 -166 -222l-35 -18c-15 -7 -24 -15 -34 -29c-11 -19 -13 -34 -13 -56v-65h-82v86c0 43 4 67 30 97c25 29 48 36 81 55l31 19c54 31 87 76 85 138c-4 83 -76 141 -164 140c-102 -1 -160 -69 -180 -160l-3 -12l-90 19l5 17c39 126 99 215 259 220
c159 6 277 -90 276 -229zM365 0h-118v117h118v-117z" />
    <glyph glyph-name="at" unicode="@" horiz-adv-x="780" 
d="M756 436c0 -146 -108 -288 -239 -288c-67 0 -75 82 -75 82l-30 -34c-25 -30 -54 -44 -95 -44c-81 -1 -135 77 -135 157c0 133 135 225 223 225c35 0 67 -13 78 -46l10 -28l19 62l86 2l-77 -288c-6 -23 -6 -60 16 -60c83 0 166 135 166 252c0 163 -145 248 -292 248
c-171 0 -310 -139 -310 -310c0 -177 140 -324 318 -324c217 0 268 144 268 144h66s-77 -195 -336 -195c-205 0 -371 167 -370 371c1 201 163 366 364 366c176 0 345 -116 345 -292zM474 420c0 50 -20 88 -59 88c-67 0 -143 -142 -143 -244c0 -40 18 -83 68 -83
c71 0 134 162 134 239z" />
    <glyph glyph-name="A" unicode="A" horiz-adv-x="681" 
d="M664 0h-104l-82 233h-297l-70 -233h-92l264 804h115zM454 310l-122 381l-126 -381h248z" />
    <glyph glyph-name="B" unicode="B" horiz-adv-x="671" 
d="M644 219c1 -154 -118 -219 -245 -219h-334v804h339c114 0 219 -80 216 -194c-2 -89 -58 -159 -144 -182c101 -23 166 -105 168 -209zM519 604c-5 69 -60 113 -129 113h-224v-256h207c79 0 152 56 146 143zM542 226c7 105 -79 153 -169 153h-207v-291h230
c79 0 140 37 146 138z" />
    <glyph glyph-name="C" unicode="C" horiz-adv-x="698" 
d="M653 560l-93 -17l-3 11c-30 104 -85 181 -210 179c-141 -3 -206 -174 -208 -324c-2 -154 55 -336 213 -337c114 0 185 75 206 180l4 17l90 -20l-5 -22c-29 -144 -143 -240 -289 -240c-223 0 -330 214 -327 421c2 207 101 407 322 409c171 1 254 -95 294 -235z" />
    <glyph glyph-name="D" unicode="D" horiz-adv-x="725" 
d="M703 398c0 -203 -122 -398 -321 -398h-310v804h268c211 0 363 -160 363 -406zM600 395c4 195 -95 322 -255 322h-174v-629h165c158 0 260 108 264 307z" />
    <glyph glyph-name="E" unicode="E" horiz-adv-x="600" 
d="M579 0h-507v804h499v-87h-406v-256h322v-82h-322v-291h414v-88z" />
    <glyph glyph-name="F" unicode="F" horiz-adv-x="576" 
d="M558 717h-394v-256h330v-82h-330v-379h-94v804h488v-87z" />
    <glyph glyph-name="G" unicode="G" horiz-adv-x="735" 
d="M685 0h-60l-28 97l-20 -25c-54 -67 -150 -83 -205 -82c-232 2 -334 215 -332 423c3 207 117 404 324 409c170 4 262 -74 303 -212l6 -21l-93 -19l-3 12c-26 102 -104 164 -219 156c-145 -11 -206 -174 -209 -323c-2 -157 55 -328 216 -341c119 -10 220 79 219 183l-1 69
h-198v82h300v-408z" />
    <glyph glyph-name="H" unicode="H" horiz-adv-x="667" 
d="M624 0h-97v379h-376v-379h-101v804h101v-343h373v343h100v-804z" />
    <glyph glyph-name="I" unicode="I" horiz-adv-x="288" 
d="M194 0h-102v804h102v-804z" />
    <glyph glyph-name="J" unicode="J" horiz-adv-x="454" 
d="M381 196c0 -73 -29 -123 -87 -167c-62 -48 -121 -47 -199 -38l-74 9v88l61 -10c52 -8 98 -14 146 22c36 27 53 58 53 103v601h100v-608z" />
    <glyph glyph-name="K" unicode="K" horiz-adv-x="732" 
d="M704 0h-115l-237 443l-182 -224v-219h-101v804h100v-462l361 462h108l-216 -280z" />
    <glyph glyph-name="L" unicode="L" horiz-adv-x="566" 
d="M520 0h-471v804h101v-716h370v-88z" />
    <glyph glyph-name="M" unicode="M" horiz-adv-x="867" 
d="M806 0h-90v709l-252 -709h-75l-257 703v-703h-84v804h147l238 -641l238 641h135v-804z" />
    <glyph glyph-name="N" unicode="N" horiz-adv-x="705" 
d="M655 0h-103l-405 704v-704h-85v804h125l382 -651v651h86v-804z" />
    <glyph glyph-name="O" unicode="O" horiz-adv-x="759" 
d="M716 413c5 -207 -105 -420 -322 -425c-227 -6 -341 208 -341 417c0 204 120 410 323 415c239 5 334 -202 340 -407zM612 410c-5 155 -59 329 -233 324c-153 -4 -217 -174 -219 -326c-2 -159 68 -340 227 -340c166 0 229 183 225 342z" />
    <glyph glyph-name="P" unicode="P" 
d="M614 554c-6 -148 -123 -229 -256 -229h-190v-325h-99v804h311c132 0 240 -108 234 -250zM509 559c5 103 -68 157 -154 157h-188v-303h206c77 0 132 55 136 146z" />
    <glyph glyph-name="Q" unicode="Q" horiz-adv-x="752" 
d="M707 412c10 -178 -48 -349 -219 -405l-23 -9v-21c0 -23 8 -38 22 -55c31 -39 77 -30 127 -25l44 6l3 -78l-23 -5c-72 -17 -134 -16 -190 23c-38 26 -53 57 -62 103l-9 42l-27 3c-199 19 -305 214 -305 413c1 204 119 411 323 415c239 5 328 -202 339 -407zM604 409
c-5 155 -59 329 -234 324c-152 -3 -217 -174 -219 -326c-1 -158 69 -340 227 -340c167 0 230 184 226 342z" />
    <glyph glyph-name="R" unicode="R" horiz-adv-x="664" 
d="M627 0h-106l-146 347h-227v-347h-97v804h311c136 0 258 -55 258 -237c0 -92 -49 -152 -131 -185l-20 -7zM519 590c-1 103 -95 127 -182 127h-187v-285h205c89 0 165 59 164 158z" />
    <glyph glyph-name="S" unicode="S" horiz-adv-x="702" 
d="M657 212c-1 -144 -135 -222 -296 -228c-150 -5 -282 69 -324 213l-5 19l88 19l6 -20c32 -101 139 -143 228 -143c134 -1 196 47 197 140c1 107 -101 125 -191 148l-103 26c-110 28 -191 100 -187 226c6 135 146 205 280 205c127 1 224 -63 274 -180l7 -15l-91 -27l-6 17
c-31 77 -95 122 -178 123c-89 1 -189 -38 -188 -131c1 -85 68 -110 139 -125l119 -26c127 -27 233 -84 231 -241z" />
    <glyph glyph-name="T" unicode="T" horiz-adv-x="637" 
d="M598 717h-230v-717h-98v717h-223v88h551v-88z" />
    <glyph glyph-name="U" unicode="U" horiz-adv-x="640" 
d="M594 262c0 -150 -83 -273 -272 -275c-210 -3 -280 124 -280 276v541h90v-520c0 -108 36 -209 193 -209c115 0 184 74 184 171v558h85v-542z" />
    <glyph glyph-name="V" unicode="V" horiz-adv-x="695" 
d="M664 804l-271 -806h-99l-269 806h102l226 -660l220 660h91z" />
    <glyph glyph-name="W" unicode="W" horiz-adv-x="996" 
d="M961 804l-194 -804h-103l-175 619l-166 -619h-98l-205 804h100l164 -650l171 650h81l186 -654l151 654h88z" />
    <glyph glyph-name="X" unicode="X" horiz-adv-x="678" 
d="M647 0h-115l-200 340l-215 -340h-95l263 422l-226 382h107l178 -293l177 293h90l-221 -370z" />
    <glyph glyph-name="Y" unicode="Y" horiz-adv-x="688" 
d="M656 804l-268 -463v-341h-99v341l-269 463h111l212 -369l214 369h99z" />
    <glyph glyph-name="Z" unicode="Z" horiz-adv-x="661" 
d="M618 0h-570v88l440 629h-420v87h539v-87l-445 -629h456v-88z" />
    <glyph glyph-name="bracketleft" unicode="[" horiz-adv-x="298" 
d="M259 -150h-215v1016h215v-60h-129v-894h129v-62z" />
    <glyph glyph-name="backslash" unicode="\" horiz-adv-x="644" 
d="M600 0h-83l-479 806h78z" />
    <glyph glyph-name="bracketright" unicode="]" horiz-adv-x="309" 
d="M253 -152h-215v62h130v894h-130v60h215v-1016z" />
    <glyph glyph-name="asciicircum" unicode="^" horiz-adv-x="478" 
d="M426 662l-78 -12l-109 70l-115 -70l-82 11l199 142z" />
    <glyph glyph-name="underscore" unicode="_" horiz-adv-x="693" 
d="M698 -129h-698v66h698v-66z" />
    <glyph glyph-name="quoteleft" unicode="&#x2018;" horiz-adv-x="255" 
d="M206 804l-79 -168h56v-135h-134v127l107 178z" />
    <glyph glyph-name="a" unicode="a" horiz-adv-x="620" 
d="M575 0h-86l-15 109l-17 -29c-38 -64 -113 -92 -189 -93c-106 -2 -207 62 -208 178c-2 137 134 203 263 203h151v51c0 75 -49 126 -150 124c-71 -2 -140 -23 -158 -91l-4 -14l-87 12l5 18c11 37 23 60 51 85c48 43 119 60 200 60h18c63 0 109 -8 155 -51s60 -90 60 -154
v-335c0 -15 2 -24 5 -39c2 -13 4 -21 6 -34zM474 241v60h-97c-98 0 -205 -21 -219 -126c-7 -55 26 -94 75 -109c117 -35 241 60 241 175z" />
    <glyph glyph-name="b" unicode="b" horiz-adv-x="600" 
d="M581 298c0 -165 -89 -319 -248 -314c-81 3 -125 39 -174 99l-12 14l-32 -97h-41v804h88v-313l10 17c40 66 89 100 169 102c151 5 241 -130 240 -312zM484 293c2 112 -40 246 -157 243c-92 -2 -164 -89 -164 -185v-101c0 -97 56 -189 162 -191c117 -3 157 124 159 234z
" />
    <glyph glyph-name="c" unicode="c" horiz-adv-x="563" 
d="M514 405l-84 -15l-2 9c-12 76 -58 138 -140 136c-124 -2 -156 -127 -156 -237c0 -106 31 -226 148 -232c79 -4 138 57 150 135l1 11l82 -17l-3 -16c-22 -113 -107 -195 -227 -192c-165 4 -244 140 -248 303c-3 157 76 320 246 323c123 3 209 -77 230 -191z" />
    <glyph glyph-name="d" unicode="d" horiz-adv-x="603" 
d="M527 0h-86v101l-10 -16c-41 -61 -93 -96 -163 -98c-159 -5 -248 146 -249 311c0 182 99 317 244 318c87 0 125 -36 168 -88l8 -8v284h88v-804zM436 250v101c0 100 -56 196 -172 190c-116 -5 -153 -136 -147 -248c4 -108 38 -232 156 -229c91 1 163 90 163 186z" />
    <glyph glyph-name="e" unicode="e" horiz-adv-x="627" 
d="M576 290h-432v-16c0 -106 57 -209 176 -209c74 0 130 39 158 106l4 9l86 -19l-7 -17c-41 -108 -147 -158 -250 -157c-163 1 -265 135 -269 306c-4 163 99 320 272 323c147 1 262 -122 262 -266v-60zM478 359l-1 13c-9 93 -56 176 -167 172c-88 -3 -149 -82 -159 -174
l-2 -11h329z" />
    <glyph glyph-name="f" unicode="f" horiz-adv-x="414" 
d="M419 736l-61 6c-31 4 -54 5 -79 -12c-30 -22 -37 -56 -37 -89v-43h135v-70h-133v-528h-96v528h-105v70h108v30c0 76 29 148 85 175c31 15 53 17 87 13l96 -12v-68z" />
    <glyph glyph-name="g" unicode="g" horiz-adv-x="657" 
d="M621 -61c2 -114 -127 -169 -241 -170l-103 -1c-107 -1 -229 55 -225 158c3 58 36 97 88 122c-43 22 -56 59 -57 93c-1 52 27 72 64 99l14 10c-52 44 -74 101 -73 161c1 118 106 209 228 203c47 -2 77 -4 120 -26c1 39 22 70 49 88c23 16 50 19 83 17l26 -1v-75l-27 -1
c-21 -1 -35 -1 -52 -12c-21 -14 -31 -32 -31 -57c38 -41 56 -91 55 -146c0 -122 -93 -186 -202 -199c-41 -5 -68 -1 -107 13l-20 -9c-24 -11 -42 -29 -41 -56c1 -42 54 -51 96 -53l163 -6c95 -4 191 -37 193 -152zM449 411c-2 73 -65 131 -138 129
c-78 -2 -128 -59 -129 -131c-1 -86 63 -137 137 -135c80 2 132 64 130 137zM531 -66c-2 54 -53 70 -100 73l-204 11c-39 2 -95 -41 -88 -88c11 -70 107 -89 188 -91c56 -1 206 9 204 95z" />
    <glyph glyph-name="h" unicode="h" horiz-adv-x="556" 
d="M511 0h-93v382c0 71 -21 150 -99 154c-137 8 -186 -113 -186 -227v-309h-89v804h87v-324l7 15c42 77 91 117 191 117c124 1 182 -105 182 -215v-397z" />
    <glyph glyph-name="i" unicode="i" horiz-adv-x="267" 
d="M176 702h-96v102h96v-102zM176 0h-92v598h92v-598z" />
    <glyph glyph-name="j" unicode="j" horiz-adv-x="264" 
d="M177 702h-96v102h96v-102zM177 -3c0 -79 0 -151 -69 -194c-55 -34 -102 -28 -166 -18l-25 4v72l36 -5c28 -4 75 -9 103 14c39 33 28 77 28 127v601h93v-601z" />
    <glyph glyph-name="k" unicode="k" horiz-adv-x="549" 
d="M569 0h-97l-174 331l-128 -147v-184h-92v804h92v-514l279 308h94l-182 -213z" />
    <glyph glyph-name="l" unicode="l" horiz-adv-x="262" 
d="M177 0h-92v804h92v-804z" />
    <glyph glyph-name="m" unicode="m" horiz-adv-x="888" 
d="M841 0h-89v416c0 49 -19 88 -62 110c-108 55 -202 -59 -202 -158v-368h-89v391c0 63 -22 121 -81 140c-108 36 -187 -73 -187 -172v-359h-89v598h83v-117l10 19c42 78 117 123 202 109c72 -12 118 -61 135 -132l6 13c46 90 126 142 228 120c88 -18 135 -99 135 -189v-421
z" />
    <glyph glyph-name="n" unicode="n" horiz-adv-x="566" 
d="M525 0h-93v385c0 52 -4 99 -48 127c-65 41 -137 12 -164 -10c-72 -61 -76 -137 -76 -231v-271h-90v598h84v-108l12 15c49 65 80 103 183 105c140 2 192 -111 192 -227v-383z" />
    <glyph glyph-name="o" unicode="o" horiz-adv-x="640" 
d="M591 302c0 -162 -101 -317 -276 -315c-182 2 -267 159 -264 319c2 158 96 306 267 308c178 2 272 -151 273 -312zM484 302c0 117 -37 240 -169 237c-118 -3 -162 -123 -163 -233c-2 -114 42 -242 164 -242c139 -1 169 125 168 238z" />
    <glyph glyph-name="p" unicode="p" horiz-adv-x="607" 
d="M583 301c0 -183 -91 -312 -236 -313c-86 0 -132 43 -176 94l-8 9v-287h-88v794h86v-106l10 20c36 68 102 99 171 101c160 5 240 -147 241 -312zM481 305c-4 107 -43 230 -161 228c-90 -2 -154 -92 -154 -184v-101c0 -97 57 -185 173 -179c116 5 145 129 142 236z" />
    <glyph glyph-name="q" unicode="q" horiz-adv-x="593" 
d="M523 -195h-88v301l-11 -17c-40 -65 -88 -98 -168 -101c-150 -5 -230 129 -230 311c1 165 78 311 238 313c89 2 120 -36 167 -94l11 -14l39 94h42v-793zM432 246v101c0 97 -55 189 -160 192c-109 2 -148 -128 -148 -235c-1 -109 34 -241 150 -238c92 2 158 87 158 180z
" />
    <glyph glyph-name="r" unicode="r" horiz-adv-x="390" 
d="M368 521h-28c-52 0 -92 -21 -122 -57c-38 -46 -53 -94 -53 -158v-306h-91v598h80v-145l21 42c27 53 50 90 105 109c32 11 55 12 88 5v-88z" />
    <glyph glyph-name="s" unicode="s" horiz-adv-x="603" 
d="M552 165c0 -130 -149 -178 -245 -178c-115 0 -224 46 -261 160l-4 11l89 17l5 -14c27 -74 102 -94 178 -97c65 -3 140 26 141 91c1 78 -64 88 -124 100l-83 17c-94 19 -177 56 -178 170c0 109 96 171 224 171c114 -1 187 -41 228 -135l5 -12l-86 -19l-4 12
c-21 62 -87 77 -148 80c-58 2 -128 -31 -127 -92c2 -45 46 -71 92 -79l114 -21c99 -17 184 -58 184 -182z" />
    <glyph glyph-name="t" unicode="t" horiz-adv-x="451" 
d="M396 0l-88 -15c-48 -7 -84 6 -120 38c-42 38 -48 87 -48 138v367h-106v70h107v148l87 12v-160h139v-70h-140v-358c0 -40 6 -71 36 -96c33 -28 70 -28 112 -14l21 7v-67z" />
    <glyph glyph-name="u" unicode="u" horiz-adv-x="580" 
d="M523 0h-85v104l-11 -17c-35 -57 -72 -99 -175 -102c-140 -2 -201 108 -201 225v388h94v-389c0 -52 6 -98 50 -125c66 -40 135 -15 162 8c72 60 76 136 76 231v275h90v-598z" />
    <glyph glyph-name="v" unicode="v" horiz-adv-x="556" 
d="M533 598l-207 -598h-96l-209 598h92l168 -485l164 485h88z" />
    <glyph glyph-name="w" unicode="w" horiz-adv-x="799" 
d="M793 598l-172 -598h-76l-134 440l-119 -440h-79l-176 598h91l127 -443l125 443h66l138 -441l132 441h77z" />
    <glyph glyph-name="x" unicode="x" horiz-adv-x="549" 
d="M536 0h-108l-149 238l-155 -238h-93l201 310l-181 288h104l131 -204l132 204h88l-176 -270z" />
    <glyph glyph-name="y" unicode="y" horiz-adv-x="539" 
d="M528 598l-249 -694c-15 -42 -31 -70 -68 -94c-43 -28 -80 -34 -130 -23l-36 7v74l17 -5c21 -7 36 -8 58 -4c41 7 79 30 93 74l25 75l-207 590h94l161 -450l162 450h80z" />
    <glyph glyph-name="z" unicode="z" horiz-adv-x="532" 
d="M481 0h-439v67l316 461h-294v70h417v-53l-327 -478h327v-67z" />
    <glyph glyph-name="braceleft" unicode="{" horiz-adv-x="347" 
d="M301 -139h-38c-40 0 -69 7 -97 35c-27 28 -35 56 -35 95v228c0 28 -1 48 -18 71c-15 20 -29 29 -53 36l-18 5v68l18 5c24 7 38 16 53 36c17 23 18 43 18 71v228c0 39 8 67 35 95c28 28 57 35 97 35h38v-71h-23c-18 0 -32 1 -45 -10c-16 -13 -16 -30 -16 -51v-224
c0 -32 -5 -52 -20 -81c-12 -23 -21 -38 -43 -53l-23 -16l23 -15c22 -14 31 -30 43 -53c15 -29 20 -49 20 -82v-223c0 -21 0 -38 16 -51c13 -11 27 -10 45 -10h23v-68z" />
    <glyph glyph-name="bar" unicode="|" horiz-adv-x="174" 
d="M127 804l-1 -998h-78l1 998h78z" />
    <glyph glyph-name="braceright" unicode="}" horiz-adv-x="356" 
d="M313 334l-18 -5c-23 -6 -39 -16 -53 -36c-17 -22 -18 -42 -18 -71v-228c0 -39 -8 -67 -35 -94c-28 -28 -57 -36 -97 -36h-38v69h23c18 0 32 -2 45 9c16 14 16 31 16 51v224c0 32 5 52 20 81c12 23 21 39 43 53l23 16l-23 15c-22 15 -31 30 -43 54c-15 28 -20 48 -20 81
v223c0 21 0 38 -16 51c-13 12 -27 10 -45 10h-23v72h38c40 0 69 -8 97 -36c27 -28 35 -55 35 -94v-228c0 -29 1 -49 18 -71c14 -20 30 -30 53 -36l18 -5v-69z" />
    <glyph glyph-name="asciitilde" unicode="~" horiz-adv-x="427" 
d="M386 769c0 -45 -28 -86 -73 -92c-23 -3 -43 6 -60 16l-74 40c-19 11 -39 23 -55 16c-17 -7 -24 -24 -25 -43l-1 -17h-46v15c2 47 39 95 73 96c21 0 35 -4 53 -14l103 -57c14 -7 28 -9 41 -1c15 9 15 25 17 42l2 13h45v-14z" />
    <glyph glyph-name="exclamdown" unicode="&#xa1;" horiz-adv-x="221" 
d="M179 475h-122v127h122v-127zM181 -205h-132l40 602h49z" />
    <glyph glyph-name="cent" unicode="&#xa2;" horiz-adv-x="546" 
d="M497 494l-75 -13l-2 9c-4 31 -10 51 -30 76c-19 24 -38 35 -67 41v-417c28 9 45 20 65 43c19 23 28 42 33 73l1 10l74 -15l-2 -14c-10 -46 -20 -76 -51 -110c-35 -39 -70 -55 -123 -59v-169l-69 1v169l-26 6c-118 30 -169 116 -172 263c-2 131 51 261 179 286l21 3l1 147
h67v-145c48 -5 80 -19 114 -52c37 -35 50 -67 59 -117zM250 195v412l-14 -6c-81 -37 -98 -118 -96 -206c1 -84 15 -168 95 -194z" />
    <glyph glyph-name="sterling" unicode="&#xa3;" horiz-adv-x="803" 
d="M756 138c-17 -45 -37 -71 -77 -99c-46 -33 -85 -39 -142 -39h-490v84h68c58 0 97 23 133 68c46 57 31 114 26 187l-2 38h-129v69h122l-9 66c-19 141 48 299 207 304c83 3 140 -29 192 -94l10 -13l-64 -51l-11 14c-30 40 -64 64 -114 62c-64 -3 -112 -54 -116 -118
c-2 -42 5 -68 6 -110l2 -59h174v-70h-166l4 -53c4 -61 4 -101 -23 -156c-19 -37 -35 -58 -67 -84h222c50 0 85 10 122 44c17 16 26 28 36 50z" />
    <glyph glyph-name="yen" unicode="&#xa5;" horiz-adv-x="728" 
d="M680 806l-181 -309h159v-67h-198l-49 -86v-12h247v-68h-247v-266h-99v266h-237v68h237v12l-49 86h-188v67h147l-178 311h116l213 -370l214 368h93z" />
    <glyph glyph-name="florin" unicode="&#x192;" horiz-adv-x="527" 
d="M539 840c-8 -25 -30 -40 -56 -40c-16 0 -22 15 -36 22c-49 27 -41 -139 -64 -228l-5 -22h109l-6 -45h-115l-66 -329c-21 -106 -87 -372 -213 -334c-20 6 -37 29 -30 51c8 23 26 39 51 40c26 1 20 -25 38 -31c45 -14 62 135 80 225l76 379h-119l2 45h134l6 30
c26 125 78 287 165 288c28 0 59 -25 49 -51z" />
    <glyph glyph-name="section" unicode="&#xa7;" horiz-adv-x="640" 
d="M597 -15c-9 -129 -157 -201 -271 -197c-121 4 -225 44 -270 157l-6 16l98 14l7 -13c41 -65 94 -101 170 -99c100 2 189 58 174 144c-12 69 -79 87 -146 106l-145 40c-76 22 -129 74 -136 153c-7 73 27 125 88 167l20 14l-15 12c-49 38 -73 78 -76 140
c-6 114 87 188 228 188c134 -1 198 -52 239 -154l-87 -8c-27 67 -88 99 -160 97c-74 -3 -124 -37 -132 -100c-9 -70 62 -111 131 -129l107 -28c89 -23 161 -81 162 -172c0 -65 -27 -108 -78 -149l-16 -12l16 -9c68 -41 104 -88 98 -178zM491 308c-1 45 -25 82 -68 96
l-165 55c-45 -8 -98 -64 -92 -122c4 -44 27 -80 70 -91l176 -49l17 9c40 22 63 56 62 102z" />
    <glyph glyph-name="quotesingle" unicode="'" horiz-adv-x="192" 
d="M149 669l-32 -144h-40l-32 145v134h104v-135z" />
    <glyph glyph-name="quotedblleft" unicode="&#x201c;" horiz-adv-x="452" 
d="M399 804l-77 -162h54v-131h-129v124l104 171zM196 804l-76 -162h54v-131h-129v124l103 171z" />
    <glyph glyph-name="guillemotleft" unicode="&#xab;" horiz-adv-x="601" 
d="M554 426l-163 -117l159 -113v-118l-226 176v113l230 170v-111zM266 426l-163 -117l159 -113v-118l-226 176v113l230 170v-111z" />
    <glyph glyph-name="endash" unicode="&#x2013;" horiz-adv-x="688" 
d="M641 260h-593v72h593v-72z" />
    <glyph glyph-name="dagger" unicode="&#x2020;" horiz-adv-x="634" 
d="M590 495l-243 28l38 -56c-7 -50 -11 -80 -16 -131c-13 -119 -16 -188 -20 -308l-8 -232h-31l-11 232c-6 121 -7 191 -22 311c-7 51 -12 81 -20 131l42 51l-244 -31l14 53l-14 53l247 -42l-48 255c23 -16 42 -21 70 -20c24 1 39 7 59 20l-36 -255l240 42l-6 -53z" />
    <glyph glyph-name="periodcentered" unicode="&#xb7;" horiz-adv-x="221" 
d="M178 320h-127v132h127v-132z" />
    <glyph glyph-name="paragraph" unicode="&#xb6;" horiz-adv-x="588" 
d="M542 -206h-74v935h-136v-937l-74 -1v579c-118 1 -214 97 -216 215c-1 121 94 220 222 220h278v-1011z" />
    <glyph glyph-name="bullet" unicode="&#x2022;" horiz-adv-x="495" 
d="M253 98c-270 0 -270 404 0 404c269 0 269 -404 0 -404z" />
    <glyph glyph-name="quotesinglbase" unicode="&#x201a;" horiz-adv-x="252" 
d="M208 9l-107 -177l-50 2l79 168h-56v135h134v-128z" />
    <glyph glyph-name="quotedblbase" unicode="&#x201e;" horiz-adv-x="448" 
d="M408 9l-103 -171l-48 2l77 162h-55v130h129v-123zM206 9l-103 -171l-49 2l77 162h-54v130h129v-123z" />
    <glyph glyph-name="quotedblright" unicode="&#x201d;" horiz-adv-x="448" 
d="M408 681l-103 -171l-48 1l77 163h-55v130h129v-123zM206 681l-103 -171l-49 1l77 163h-54v130h129v-123z" />
    <glyph glyph-name="guillemotright" unicode="&#xbb;" horiz-adv-x="607" 
d="M563 254l-227 -176v118l159 113l-162 117v111l230 -170v-113zM275 254l-227 -176v118l160 113l-163 117v111l230 -170v-113z" />
    <glyph glyph-name="ellipsis" unicode="&#x2026;" horiz-adv-x="722" 
d="M675 -2h-128v133h128v-133zM426 -2h-127v133h127v-133zM178 -2h-127v133h127v-133z" />
    <glyph glyph-name="questiondown" unicode="&#xbf;" horiz-adv-x="634" 
d="M391 482h-118v116h118v-116zM588 14l-5 -17c-39 -126 -100 -215 -259 -220s-277 90 -276 229c0 107 71 173 165 222l36 18c15 8 24 15 33 30c12 18 13 33 13 56v64h83v-85c0 -43 -4 -67 -30 -98c-25 -29 -49 -36 -81 -55l-31 -18c-55 -32 -87 -76 -85 -139
c3 -83 75 -141 164 -140c102 1 160 69 180 161l2 12z" />
    <glyph glyph-name="grave" unicode="`" horiz-adv-x="363" 
d="M323 671l-20 -47l-253 111l40 76z" />
    <glyph glyph-name="acute" unicode="&#xb4;" horiz-adv-x="366" 
d="M333 730l-253 -111l-20 47l233 140z" />
    <glyph glyph-name="dieresis" unicode="&#xa8;" horiz-adv-x="400" 
d="M340 707c-50 -62 -144 13 -94 75c49 63 144 -12 94 -75zM158 707c-50 -62 -145 13 -95 75c49 63 144 -12 95 -75z" />
    <glyph glyph-name="emdash" unicode="&#x2014;" horiz-adv-x="867" 
d="M828 260h-769v72h769v-72z" />
    <glyph glyph-name="AE" unicode="&#xc6;" horiz-adv-x="1088" 
d="M1068 -1l-521 -1v241h-297l-149 -240h-92l531 805h521v-89h-406v-254h322v-82h-322v-291h413v-89zM549 317v380l-249 -380h249z" />
    <glyph glyph-name="ordfeminine" unicode="&#xaa;" horiz-adv-x="422" 
d="M381 399h-57l-9 71l-11 -19c-26 -42 -75 -60 -125 -61c-70 -1 -137 41 -138 118c-1 90 89 133 174 133h100v34c0 50 -33 84 -99 82c-47 -1 -92 -15 -105 -60l-2 -9l-57 7l3 13c7 24 15 39 34 56c32 28 78 39 131 39h12c42 0 72 -5 103 -33c30 -29 39 -60 39 -102v-221
c0 -10 2 -16 4 -26c1 -9 2 -14 3 -22zM315 558v39h-64c-64 0 -135 -13 -144 -82c-5 -37 17 -63 49 -73c77 -23 159 40 159 116zM381 320h-339v31h339v-31z" />
    <glyph glyph-name="Oslash" unicode="&#xd8;" horiz-adv-x="759" 
d="M716 413c5 -207 -105 -420 -322 -425c-54 -2 -101 9 -142 30l-30 -64h-77l48 102c-93 79 -140 216 -140 349c0 204 120 410 323 415c63 1 116 -12 160 -37l20 42h78l-40 -84c82 -78 118 -203 122 -328zM612 410c-3 84 -20 173 -63 237l-260 -551c28 -18 60 -28 98 -28
c166 0 229 183 225 342zM497 701c-31 22 -70 34 -118 33c-153 -4 -217 -174 -219 -326c-1 -94 23 -196 75 -262z" />
    <glyph glyph-name="OE" unicode="&#x152;" horiz-adv-x="1150" 
d="M1131 0h-507v106c-53 -69 -130 -116 -230 -118c-227 -6 -341 208 -341 417c0 204 120 410 323 415c113 2 194 -43 248 -113v97h499v-87h-405v-256h321v-82h-321v-291h413v-88zM612 410c-5 155 -59 329 -233 324c-153 -4 -217 -174 -219 -326c-2 -159 68 -340 227 -340
c166 0 229 183 225 342z" />
    <glyph glyph-name="ordmasculine" unicode="&#xba;" horiz-adv-x="404" 
d="M371 608c1 -103 -64 -201 -175 -200c-116 1 -170 101 -168 203c2 100 61 194 170 195c113 2 173 -96 173 -198zM304 608c0 74 -24 153 -108 151c-75 -2 -103 -78 -104 -148c-1 -73 27 -153 105 -154c88 -1 107 80 107 151zM373 320h-339v31h339v-31z" />
    <glyph glyph-name="ae" unicode="&#xe6;" horiz-adv-x="1073" 
d="M1015 290h-432v-16c0 -106 57 -209 177 -209c73 0 129 39 158 106l4 9l85 -19l-6 -17c-41 -108 -148 -157 -250 -157c-47 0 -127 21 -170 53c-38 29 -58 55 -76 84l-29 -41c-43 -60 -132 -96 -208 -96c-106 0 -208 62 -208 178c-2 137 134 203 263 203h151v51
c0 75 -49 126 -150 124c-71 0 -140 -23 -158 -91l-4 -14l-87 12l5 18c11 37 23 60 51 85c48 43 119 60 200 60h18c63 0 109 -8 155 -51c19 -17 32 -36 41 -55c47 65 118 109 208 109c148 0 262 -122 262 -266v-60zM918 359l-1 13c-10 93 -56 176 -168 172
c-88 -3 -149 -82 -159 -174l-1 -11h329zM474 241v60h-97c-98 0 -205 -21 -219 -126c-7 -55 26 -94 75 -109c117 -35 241 60 241 175z" />
    <glyph glyph-name="oslash" unicode="&#xf8;" horiz-adv-x="630" 
d="M591 302c0 -162 -101 -317 -276 -315c-36 1 -69 7 -98 19l-27 -52h-69l43 81c-78 59 -115 164 -113 271c2 158 96 306 267 308c52 1 97 -12 134 -35l34 64h69l-53 -102c58 -59 88 -148 89 -239zM484 302c0 53 -7 109 -29 152l-200 -377c18 -9 38 -13 61 -13
c139 -1 169 125 168 238zM415 508c-25 20 -58 32 -100 31c-118 -3 -162 -123 -163 -233c-1 -69 14 -144 54 -191z" />
    <glyph glyph-name="oe" unicode="&#x153;" horiz-adv-x="1072" 
d="M1024 290h-432v-16c0 -106 57 -209 176 -209c74 0 130 39 158 106l5 9l85 -19l-7 -17c-41 -108 -147 -158 -249 -157c-98 1 -175 49 -221 125c-46 -75 -122 -126 -224 -125c-182 2 -267 159 -264 319c2 158 96 306 267 308c104 1 179 -50 223 -125c47 74 123 126 221 127
c147 1 262 -122 262 -266v-60zM926 359l-1 13c-9 93 -56 176 -167 172c-88 -3 -149 -82 -159 -174l-2 -11h329zM484 302c0 117 -37 240 -169 237c-118 -3 -162 -123 -163 -233c-2 -114 42 -242 164 -242c139 -1 169 125 168 238z" />
    <glyph glyph-name="germandbls" unicode="&#xdf;" horiz-adv-x="715" 
d="M670 204c5 -127 -119 -221 -246 -216c-46 2 -74 2 -118 16l-17 5l26 61l16 -4c36 -9 48 -8 96 -7c54 0 146 56 146 132c0 57 -42 92 -95 115l-177 77c-19 8 -46 27 -53 56c-7 23 -3 42 8 63l23 36l72 6c76 7 170 66 143 137c-20 51 -69 66 -124 67
c-136 2 -165 -117 -165 -226v-561l-97 -1v496h-60v71h61l2 32c12 145 119 273 271 261c105 -8 217 -65 214 -166c-3 -95 -91 -155 -187 -160l-41 -3c-14 -1 -34 2 -34 -12c0 -10 11 -14 21 -18l155 -62c91 -36 156 -98 160 -195z" />
    <glyph glyph-name="Adieresis" unicode="&#xc4;" horiz-adv-x="725" 
d="M637 0h-104l-82 233h-297l-70 -233h-92l264 804h116zM427 310l-122 381l-126 -381h248zM459 875c-50 -63 -144 12 -95 75c50 62 144 -13 95 -75zM276 875c-50 -63 -144 12 -95 75c50 62 145 -13 95 -75z" />
    <glyph glyph-name="Aring" unicode="&#xc5;" horiz-adv-x="725" 
d="M651 0h-104l-83 233h-297l-70 -233h-91l264 804h115zM441 310l-123 381l-126 -381h249zM329 852c-98 -1 -99 147 -1 149c99 0 100 -148 1 -149zM331 872c73 2 69 112 -4 109c-73 -2 -69 -112 4 -109z" />
    <glyph glyph-name="Ccedilla" unicode="&#xc7;" horiz-adv-x="701" 
d="M661 560l-92 -17l-2 10c-28 102 -84 178 -206 175c-138 -2 -202 -170 -204 -316c-2 -152 54 -331 208 -331c113 0 183 74 203 176l3 18l89 -20l-5 -22c-14 -69 -35 -112 -86 -159c-49 -47 -93 -67 -161 -75l-2 -27h22c53 0 106 -26 114 -78c18 -106 -145 -144 -230 -96
l-24 13l13 40l32 -11c55 -17 155 -19 139 52c-8 37 -54 35 -92 34l-38 -2l5 77l-33 6c-184 34 -268 216 -264 403c5 203 99 399 317 401c167 1 250 -92 288 -230z" />
    <glyph glyph-name="Eacute" unicode="&#xc9;" horiz-adv-x="597" 
d="M579 0h-507v804h499v-87h-406v-256h322v-82h-322v-291h414v-88zM496 962l-253 -111l-20 47l233 140z" />
    <glyph glyph-name="Ntilde" unicode="&#xd1;" horiz-adv-x="746" 
d="M652 0h-102l-405 704v-704h-86v804h125l383 -651v651h85v-804zM546 942c0 -45 -28 -86 -73 -91c-24 -3 -43 6 -61 15l-73 41c-20 10 -39 23 -56 16s-23 -25 -24 -44l-1 -17h-47l1 16c2 46 38 95 72 96c22 0 36 -5 54 -14l102 -57c14 -8 28 -9 42 -1c14 9 15 24 17 42
l2 13h45v-15z" />
    <glyph glyph-name="Odieresis" unicode="&#xd6;" horiz-adv-x="753" 
d="M702 413c5 -207 -105 -420 -321 -425c-228 -6 -341 208 -341 417c0 204 119 410 323 415c239 5 334 -202 339 -407zM598 410c-4 155 -59 329 -233 324c-152 -4 -217 -174 -219 -326c-1 -159 69 -340 227 -340c166 0 230 183 225 342zM535 875c-50 -63 -144 12 -94 75
c50 62 144 -13 94 -75zM353 875c-50 -63 -145 12 -95 75c50 62 145 -13 95 -75z" />
    <glyph glyph-name="Udieresis" unicode="&#xdc;" horiz-adv-x="645" 
d="M599 262c0 -150 -83 -273 -272 -275c-210 -3 -280 124 -280 276v541h89v-520c0 -108 37 -209 194 -209c115 0 183 74 183 171v558h86v-542zM487 875c-50 -63 -144 13 -94 75c49 63 144 -12 94 -75zM305 875c-50 -63 -145 13 -95 75c50 63 144 -12 95 -75z" />
    <glyph glyph-name="aacute" unicode="&#xe1;" horiz-adv-x="594" 
d="M574 -5h-87l-14 109l-18 -29c-38 -64 -113 -92 -188 -93c-106 -1 -207 62 -209 178c-2 137 134 203 263 203h152v51c0 75 -50 126 -151 124c-70 -1 -139 -22 -158 -90l-3 -15l-87 12l5 18c10 37 22 60 51 86c48 43 118 59 199 59h18c63 0 109 -7 156 -50
c46 -44 59 -91 59 -154v-336c0 -15 3 -24 5 -39c2 -13 4 -21 7 -34zM473 236v60h-97c-98 0 -206 -20 -220 -126c-7 -55 27 -94 76 -108c116 -36 241 59 241 174zM493 761l-253 -111l-20 47l233 140z" />
    <glyph glyph-name="agrave" unicode="&#xe0;" horiz-adv-x="594" 
d="M572 0h-87l-15 109l-17 -29c-38 -64 -113 -92 -188 -93c-106 -2 -207 62 -209 178c-2 137 134 203 263 203h151v51c0 75 -49 126 -150 124c-70 -2 -139 -23 -158 -91l-3 -14l-87 12l5 18c10 37 22 60 50 85c49 43 119 60 200 60h18c63 0 109 -8 156 -51
c46 -43 59 -90 59 -154v-335c0 -15 3 -24 5 -39c2 -13 4 -21 7 -34zM470 241v60h-96c-98 0 -206 -21 -220 -126c-7 -55 27 -94 76 -109c116 -35 240 60 240 175zM475 702l-21 -47l-252 111l40 76z" />
    <glyph glyph-name="acircumflex" unicode="&#xe2;" horiz-adv-x="610" 
d="M573 0h-86l-15 109l-17 -29c-38 -64 -113 -92 -189 -93c-106 -2 -207 62 -208 178c-3 137 134 203 263 203h151v51c0 75 -49 126 -150 124c-71 -2 -140 -23 -158 -91l-4 -14l-87 12l5 18c11 37 23 60 51 85c48 43 119 60 199 60h19c63 0 109 -8 155 -51s60 -90 60 -154
v-335c0 -15 2 -24 5 -39c2 -13 3 -21 6 -34zM472 241v60h-97c-98 0 -205 -21 -219 -126c-7 -55 26 -94 75 -109c117 -35 241 60 241 175zM529 683l-78 -12l-109 70l-115 -70l-81 10l198 143z" />
    <glyph glyph-name="adieresis" unicode="&#xe4;" horiz-adv-x="610" 
d="M575 0h-86l-15 109l-17 -29c-38 -64 -113 -92 -189 -93c-106 -2 -207 62 -208 178c-2 137 134 203 263 203h151v51c0 75 -49 126 -150 124c-71 -2 -140 -23 -158 -91l-4 -14l-87 12l5 18c11 37 23 60 51 85c48 43 119 60 200 60h18c63 0 109 -8 155 -51s60 -90 60 -154
v-335c0 -15 2 -24 5 -39c2 -13 4 -21 6 -34zM474 241v60h-97c-98 0 -205 -21 -219 -126c-7 -55 26 -94 75 -109c117 -35 241 60 241 175zM474 707c-50 -62 -144 13 -94 75c49 63 144 -12 94 -75zM292 707c-50 -62 -145 13 -95 75c49 63 144 -12 95 -75z" />
    <glyph glyph-name="atilde" unicode="&#xe3;" horiz-adv-x="604" 
d="M548 0h-87l-14 109l-17 -29c-39 -64 -113 -92 -189 -93c-106 -2 -207 62 -209 178c-2 137 134 203 263 203h152v51c0 75 -50 126 -151 124c-70 -2 -139 -23 -158 -91l-3 -14l-87 12l5 18c10 37 22 60 51 85c48 43 118 60 199 60h18c63 0 110 -8 156 -51s59 -90 59 -154
v-335c0 -15 3 -24 5 -39c3 -13 4 -21 7 -34zM447 241v60h-97c-98 0 -205 -21 -219 -126c-8 -55 26 -94 75 -109c116 -35 241 60 241 175zM506 752c0 -45 -28 -86 -72 -92c-24 -3 -43 6 -61 16l-74 40c-19 10 -38 23 -55 16s-24 -24 -25 -43v-17h-47l1 15c2 47 38 95 72 96
c21 0 35 -4 53 -14l103 -57c14 -7 28 -9 41 -1c15 9 16 25 18 42l1 13h45v-14z" />
    <glyph glyph-name="aring" unicode="&#xe5;" horiz-adv-x="614" 
d="M561 0h-86l-15 109l-17 -29c-38 -64 -113 -92 -189 -93c-106 -2 -207 62 -208 178c-2 137 134 203 263 203h151v51c0 75 -49 126 -150 124c-71 -2 -140 -23 -158 -91l-4 -14l-87 12l5 18c11 37 23 60 51 85c48 43 119 60 200 60h18c63 0 109 -8 155 -51s60 -90 60 -154
v-335c0 -15 2 -24 5 -39c2 -13 4 -21 6 -34zM460 241v60h-97c-98 0 -205 -21 -219 -126c-7 -55 26 -94 75 -109c117 -35 241 60 241 175zM336 662c-98 -1 -99 147 -1 148c99 1 100 -147 1 -148zM338 681c73 3 69 113 -4 110c-73 -2 -69 -112 4 -110z" />
    <glyph glyph-name="ccedilla" unicode="&#xe7;" horiz-adv-x="576" 
d="M535 405l-84 -14l-1 9c-13 76 -58 137 -141 136c-124 -2 -156 -127 -156 -237c0 -107 31 -226 148 -233c79 -3 138 58 149 136l2 10l82 -17l-3 -14c-12 -58 -30 -94 -75 -133c-41 -38 -77 -54 -133 -59l-5 -32h18c46 0 90 -21 98 -66c15 -90 -124 -122 -196 -82l-21 12
l12 34l27 -9c47 -15 132 -17 118 44c-7 31 -46 29 -78 28l-32 -1l20 72c-139 43 -224 120 -228 301c-3 158 76 320 246 323c123 3 209 -77 230 -191z" />
    <glyph glyph-name="eacute" unicode="&#xe9;" 
d="M603 290h-432v-16c0 -106 56 -209 176 -209c74 0 130 39 158 106l4 9l86 -19l-7 -17c-41 -108 -147 -158 -250 -157c-163 1 -265 135 -269 306c-4 163 99 320 272 323c147 1 262 -122 262 -266v-60zM505 359l-1 13c-9 93 -56 176 -167 172c-88 -3 -149 -82 -159 -174
l-2 -11h329zM531 764l-253 -111l-20 47l233 140z" />
    <glyph glyph-name="egrave" unicode="&#xe8;" horiz-adv-x="621" 
d="M569 290h-432v-16c0 -106 57 -209 176 -209c74 0 130 39 159 106l4 9l85 -19l-7 -17c-41 -108 -147 -158 -249 -157c-164 1 -266 135 -270 306c-4 163 100 320 272 323c147 1 262 -122 262 -266v-60zM472 359l-2 13c-9 93 -55 176 -167 172c-88 -3 -149 -82 -159 -174
l-2 -11h330zM492 709l-20 -47l-253 111l40 76z" />
    <glyph glyph-name="ecircumflex" unicode="&#xea;" 
d="M589 290h-431v-16c0 -106 56 -209 176 -209c73 0 129 39 158 106l4 9l85 -19l-6 -17c-41 -108 -148 -158 -250 -157c-163 1 -265 135 -270 306c-4 163 100 320 272 323c148 1 262 -122 262 -266v-60zM492 359l-1 13c-10 93 -56 176 -168 172c-88 -3 -149 -82 -159 -174
l-1 -11h329zM544 676l-78 -12l-108 70l-116 -70l-81 10l198 143z" />
    <glyph glyph-name="edieresis" unicode="&#xeb;" 
d="M589 290h-431v-16c0 -106 56 -209 176 -209c73 0 129 39 158 106l4 9l85 -19l-6 -17c-41 -108 -148 -158 -250 -157c-163 1 -265 135 -270 306c-4 163 100 320 272 323c148 1 262 -122 262 -266v-60zM492 359l-1 13c-10 93 -56 176 -168 172c-88 -3 -149 -82 -159 -174
l-1 -11h329zM498 684c-50 -62 -144 13 -94 76c49 62 144 -13 94 -76zM316 684c-50 -62 -145 13 -95 76c49 62 144 -13 95 -76z" />
    <glyph glyph-name="iacute" unicode="&#xed;" horiz-adv-x="271" 
d="M292 772l-253 -111l-20 47l233 140zM190 0h-92v600h92v-600z" />
    <glyph glyph-name="igrave" unicode="&#xec;" horiz-adv-x="269" 
d="M294 708l-20 -47l-253 111l40 76zM189 0h-92v600h92v-600z" />
    <glyph glyph-name="icircumflex" unicode="&#xee;" horiz-adv-x="269" 
d="M344 667l-78 -12l-108 70l-116 -70l-81 10l198 143zM192 0h-92v600h92v-600z" />
    <glyph glyph-name="idieresis" unicode="&#xef;" horiz-adv-x="270" 
d="M287 684c-50 -62 -144 13 -94 76c49 62 144 -13 94 -76zM105 684c-50 -62 -145 13 -95 76c50 62 144 -13 95 -76zM187 0h-92v600h92v-600z" />
    <glyph glyph-name="ntilde" unicode="&#xf1;" horiz-adv-x="560" 
d="M525 0h-93v385c0 52 -4 99 -48 127c-65 41 -137 12 -164 -10c-72 -61 -76 -137 -76 -231v-271h-90v598h84v-108l12 15c49 65 80 103 183 105c140 2 192 -111 192 -227v-383zM478 752c0 -45 -28 -86 -73 -92c-23 -3 -43 6 -60 16l-74 40c-19 11 -39 23 -55 16
c-17 -7 -24 -24 -25 -43l-1 -17h-46v15c2 47 39 95 73 96c21 0 35 -4 53 -14l103 -57c14 -7 28 -9 41 -1c15 9 15 25 17 42l2 13h45v-14z" />
    <glyph glyph-name="oacute" unicode="&#xf3;" 
d="M588 302c1 -162 -100 -317 -276 -315c-182 2 -266 159 -264 319c2 158 96 306 267 308c179 2 273 -151 273 -312zM482 302c0 117 -37 240 -170 237c-118 -3 -161 -123 -163 -233c-2 -114 42 -242 164 -242c139 -1 169 125 169 238zM493 772l-253 -111l-20 47l233 140z
" />
    <glyph glyph-name="ograve" unicode="&#xf2;" horiz-adv-x="641" 
d="M597 302c1 -162 -100 -317 -275 -315c-183 2 -267 159 -264 319c2 158 95 306 266 308c179 2 273 -151 273 -312zM491 302c0 117 -37 240 -169 237c-118 -3 -162 -123 -163 -233c-3 -114 42 -242 164 -242c139 -1 169 125 168 238zM483 706l-21 -46l-253 110l41 76z" />
    <glyph glyph-name="ocircumflex" unicode="&#xf4;" 
d="M590 302c1 -162 -100 -317 -275 -315c-183 2 -267 159 -265 319c2 158 96 306 267 308c179 2 273 -151 273 -312zM484 302c0 117 -37 240 -169 237c-119 -3 -162 -123 -164 -233c-2 -114 42 -242 165 -242c138 -1 168 125 168 238zM531 674l-78 -12l-109 70l-115 -70
l-82 10l199 143z" />
    <glyph glyph-name="odieresis" unicode="&#xf6;" 
d="M591 302c0 -162 -101 -317 -276 -315c-182 2 -267 159 -264 319c2 158 96 306 267 308c178 2 272 -151 273 -312zM484 302c0 117 -37 240 -169 237c-118 -3 -162 -123 -163 -233c-2 -114 42 -242 164 -242c139 -1 169 125 168 238zM478 684c-50 -62 -144 13 -94 75
c49 63 144 -12 94 -75zM296 684c-50 -62 -145 13 -95 75c49 63 144 -12 95 -75z" />
    <glyph glyph-name="otilde" unicode="&#xf5;" 
d="M587 302c0 -162 -101 -317 -276 -315c-183 2 -267 159 -264 319c2 158 95 306 266 308c179 2 273 -151 274 -312zM480 302c0 117 -37 240 -169 237c-118 -3 -162 -123 -163 -233c-2 -114 42 -242 164 -242c139 -1 169 125 168 238zM508 752c0 -45 -28 -86 -72 -92
c-24 -3 -43 6 -61 16l-73 40c-20 10 -39 23 -56 16s-24 -24 -25 -43v-17h-47l1 15c2 47 38 95 72 96c21 0 35 -4 54 -14l102 -57c14 -7 28 -9 42 -1c14 9 15 25 17 42l1 13h45v-14z" />
    <glyph glyph-name="uacute" unicode="&#xfa;" horiz-adv-x="563" 
d="M523 0h-85v104l-11 -17c-35 -57 -72 -99 -175 -102c-140 -2 -201 108 -201 225v388h94v-389c0 -52 6 -98 50 -125c66 -40 135 -15 162 8c72 60 76 136 76 231v275h90v-598zM456 770l-253 -111l-20 47l233 140z" />
    <glyph glyph-name="ugrave" unicode="&#xf9;" horiz-adv-x="567" 
d="M530 0h-85v104l-11 -17c-36 -57 -72 -99 -175 -102c-140 -2 -201 108 -201 225v388h93v-389c0 -52 7 -98 51 -125c65 -40 134 -15 162 8c72 60 76 136 76 231v275h90v-598zM460 705l-21 -46l-252 110l40 76z" />
    <glyph glyph-name="ucircumflex" unicode="&#xfb;" horiz-adv-x="563" 
d="M520 0h-85v104l-11 -17c-35 -57 -72 -99 -175 -102c-140 -2 -201 108 -201 225v388h93v-389c0 -52 7 -98 51 -125c66 -40 134 -15 162 8c72 60 76 136 76 231v275h90v-598zM475 674l-78 -12l-108 70l-115 -70l-82 10l198 143z" />
    <glyph glyph-name="udieresis" unicode="&#xfc;" horiz-adv-x="563" 
d="M523 0h-85v104l-11 -17c-35 -57 -72 -99 -175 -102c-140 -2 -201 108 -201 225v388h94v-389c0 -52 6 -98 50 -125c66 -40 135 -15 162 8c72 60 76 136 76 231v275h90v-598zM448 684c-50 -62 -144 13 -94 75c49 63 144 -12 94 -75zM266 684c-50 -62 -145 13 -95 75
c49 63 144 -12 95 -75z" />
    <glyph glyph-name="degree" unicode="&#xb0;" horiz-adv-x="393" 
d="M200 508c-197 -2 -199 294 -2 296c197 1 199 -295 2 -296zM203 547c146 5 138 224 -8 219c-146 -4 -139 -224 8 -219z" />
    <glyph glyph-name="registered" unicode="&#xae;" horiz-adv-x="881" 
d="M444 0c-525 0 -525 787 0 787c524 0 524 -787 0 -787zM444 42c468 0 468 703 0 703s-468 -703 0 -703zM632 152h-49c-1 0 -3 -1 -4 0c-29 60 14 167 -51 202c-25 14 -44 11 -72 11h-125v-213h-47v472h174c82 0 166 -18 173 -123c4 -59 -28 -96 -78 -117
c20 -11 34 -17 45 -39c32 -60 -1 -106 24 -175c2 -8 6 -11 10 -18zM585 495c-2 74 -62 89 -120 89h-134v-178h132c59 0 125 15 122 89z" />
    <glyph glyph-name="copyright" unicode="&#xa9;" horiz-adv-x="892" 
d="M451 0c-525 0 -525 787 0 787s525 -787 0 -787zM451 42c468 0 468 703 0 703s-468 -703 0 -703zM645 313c-18 -100 -99 -173 -206 -166c-147 9 -193 122 -194 243c0 127 69 256 209 251c87 -2 168 -46 183 -133l3 -18h-47l-3 15c-14 63 -77 96 -137 94
c-120 -3 -162 -106 -162 -208c0 -98 22 -190 151 -206c71 -8 141 52 156 128h47z" />
    <glyph glyph-name="trademark" unicode="&#x2122;" horiz-adv-x="773" 
d="M730 407h-39v348l-129 -347h-35l-125 348v-349h-39v392h60l123 -345l127 344h57v-391zM334 768h-124v-361h-38v361h-122v33h284v-33z" />
    <glyph glyph-name="notequal" unicode="&#x2260;" horiz-adv-x="634" 
d="M594 559l-120 -144h113v-63h-167l-102 -124h269v-62h-321l-169 -202l-46 37l139 165h-111v62h163l103 124h-266v63h318l150 180z" />
    <glyph glyph-name="infinity" unicode="&#x221e;" horiz-adv-x="886" 
d="M841 284c4 -107 -81 -176 -165 -175c-56 1 -128 26 -184 79l-53 49l-52 -49c-56 -53 -129 -78 -184 -79c-84 -1 -169 68 -166 175c3 91 79 157 170 162c57 3 114 -28 167 -76l65 -59l66 59c53 47 110 79 168 76c91 -5 166 -71 168 -162zM783 280c-5 61 -52 107 -115 104
c-48 -2 -76 -20 -115 -49l-77 -58l72 -67c36 -34 70 -46 119 -46c71 2 121 53 116 116zM404 277l-79 58c-38 29 -66 47 -114 49c-63 3 -110 -43 -115 -104c-5 -63 45 -114 116 -116c50 0 83 12 119 46z" />
    <glyph glyph-name="plusminus" unicode="&#xb1;" horiz-adv-x="596" 
d="M550 312h-224v-222h-64v220h-217v67h219v220h62v-222h224v-63zM555 -1h-509v42h509v-42z" />
    <glyph glyph-name="lessequal" unicode="&#x2264;" horiz-adv-x="573" 
d="M522 210l-482 215v59l477 234l2 -63l-417 -204l420 -184v-57zM522 3h-480v54h480v-54z" />
    <glyph glyph-name="greaterequal" unicode="&#x2265;" horiz-adv-x="573" 
d="M522 425l-482 -215v57l420 184l-418 204l3 63l477 -234v-59zM519 -3h-479v55h479v-55z" />
    <glyph glyph-name="mu" unicode="&#xb5;" horiz-adv-x="734" 
d="M677 115l-8 -36c-13 -65 -94 -107 -138 -101c-49 7 -98 56 -100 114l-30 -29c-46 -45 -106 -82 -146 -81c-33 0 -97 22 -131 67v-40c0 -74 38 -101 40 -187c1 -37 -21 -76 -58 -75c-33 1 -54 33 -55 67c-2 74 28 93 34 153c2 12 3 20 3 32v574h97v-395
c0 -62 42 -124 104 -123c57 1 143 56 144 122v396h94v-447c0 -44 26 -101 70 -92c27 5 43 24 50 50l9 31h21z" />
    <glyph glyph-name="partialdiff" unicode="&#x2202;" horiz-adv-x="584" 
d="M535 426c16 -204 -101 -463 -282 -446c-133 13 -199 101 -205 216c-6 125 93 241 218 240c58 -1 93 -18 139 -52l33 -23l9 55c23 150 -33 344 -184 344c-43 0 -66 -15 -107 -27l-20 -7l-41 52l46 14c39 11 63 16 104 15c186 -3 276 -196 290 -381zM430 321l-30 28
c-23 21 -41 32 -72 39c-88 19 -154 -63 -178 -149c-25 -91 -4 -200 86 -227c106 -32 157 115 178 224z" />
    <glyph glyph-name="summation" unicode="&#x2211;" horiz-adv-x="842" 
d="M796 156c-16 -47 -24 -76 -32 -126c-8 -45 -11 -71 -13 -116l-78 15h-628l389 429l-382 477l71 -7h595l1 -175h-23c1 40 -11 69 -40 96c-32 29 -65 30 -108 30h-321l309 -373l-331 -372h441c30 0 49 9 73 27c34 25 49 54 53 95h24z" />
    <glyph glyph-name="product" unicode="&#x220f;" horiz-adv-x="959" 
d="M897 -74h-343v20l29 1c25 2 44 2 62 19c21 21 16 45 16 74v724h-400v-717c0 -34 1 -63 28 -83c20 -15 38 -15 63 -15h22v-23h-342v24h27c23 0 41 0 60 15c26 20 24 50 24 83v653c0 33 -10 56 -35 78c-16 14 -30 23 -53 24l-18 1v23h860v-24l-24 -1c-22 -1 -35 -9 -51 -22
c-31 -25 -35 -56 -35 -96v-645c0 -30 1 -54 22 -74c19 -17 37 -19 63 -20l25 -1v-18z" />
    <glyph glyph-name="pi" unicode="&#x3c0;" horiz-adv-x="697" 
d="M647 185l-3 -25c-11 -86 -67 -167 -151 -161c-96 8 -110 133 -100 227l28 252h-138l-47 -372c-7 -56 -40 -126 -93 -111c-23 7 -43 17 -49 41c-15 61 50 75 70 126c9 22 18 35 20 59l27 253h-37c-22 0 -36 1 -55 -7c-31 -12 -56 -50 -60 -62l-20 8l8 17
c25 54 37 99 91 126c27 14 46 18 77 18h424v-96h-154l-16 -281c-2 -48 28 -100 77 -99c38 1 64 30 73 68l5 19h23z" />
    <glyph glyph-name="integral" unicode="&#x222b;" horiz-adv-x="374" 
d="M326 846c-3 -23 -22 -40 -46 -40c-18 0 -26 15 -42 22c-50 25 -11 -164 -11 -269v-339c0 -109 -8 -370 -135 -335c-20 6 -44 26 -42 51c3 23 19 40 42 41c26 1 24 -26 45 -31c45 -13 28 136 28 224v472c0 106 13 254 100 255c31 0 66 -20 61 -51z" />
    <glyph glyph-name="Omega" unicode="&#x3a9;" horiz-adv-x="862" 
d="M811 -2h-321l15 160c106 47 154 141 153 258c-2 128 -37 237 -230 239c-175 2 -232 -110 -233 -239c-2 -117 46 -211 152 -258l16 -160h-322v168h21c-1 -15 2 -26 10 -38c13 -20 33 -27 57 -27h177v32c-141 25 -230 141 -236 284c-6 174 153 272 357 271
c218 0 362 -98 355 -271c-5 -143 -94 -259 -235 -284v-32h176c25 0 44 7 57 27c9 12 12 23 11 38h20v-168z" />
    <glyph glyph-name="logicalnot" unicode="&#xac;" horiz-adv-x="879" 
d="M827 0h-64v275h-724v60h788v-335z" />
    <glyph glyph-name="radical" unicode="&#x221a;" horiz-adv-x="592" 
d="M542 879l-151 -930l-247 490l-95 -48l-16 33l146 69l199 -392l130 782z" />
    <glyph glyph-name="approxequal" unicode="&#x2248;" horiz-adv-x="744" 
d="M694 422l-24 -28c-41 -47 -84 -66 -147 -69c-47 -3 -74 15 -120 28l-98 27c-39 11 -64 22 -103 14c-38 -7 -60 -21 -86 -49l-20 -22l-51 33l17 18c41 45 77 65 137 75c50 7 82 -1 131 -16l86 -26c39 -12 63 -27 105 -23c44 3 74 12 105 44l21 23zM694 231l-24 -27
c-41 -48 -84 -66 -147 -69c-47 -3 -74 15 -120 28l-98 27c-39 11 -64 22 -103 14c-38 -7 -60 -22 -86 -50l-20 -20l-51 32l17 18c41 44 77 65 137 75c50 7 82 -1 131 -15l86 -27c39 -12 63 -27 105 -23c44 3 74 12 105 45l21 22z" />
    <glyph glyph-name="Delta" unicode="&#x394;" horiz-adv-x="807" 
d="M764 -1h-716l383 804zM623 52l-237 560l-263 -560h500z" />
    <glyph glyph-name="nbspace" unicode="&#xa0;" horiz-adv-x="518" 
 />
    <glyph glyph-name="Agrave" unicode="&#xc0;" horiz-adv-x="746" 
d="M704 -5h-105l-82 232h-297l-70 -232h-91l264 804h115zM494 305l-123 381l-126 -381h249zM528 896l-20 -46l-253 110l40 76z" />
    <glyph glyph-name="Atilde" unicode="&#xc3;" horiz-adv-x="739" 
d="M711 0h-104l-83 233h-297l-69 -233h-92l264 804h115zM501 310l-123 381l-126 -381h249zM566 941c0 -45 -28 -86 -73 -91c-24 -3 -43 6 -60 15l-74 41c-20 10 -39 23 -55 16c-17 -7 -24 -25 -25 -44l-1 -17h-46v16c2 46 38 95 73 96c21 0 35 -5 53 -14l103 -57
c14 -8 28 -9 41 -1c15 9 15 24 17 42l2 13h45v-15z" />
    <glyph glyph-name="Otilde" unicode="&#xd5;" horiz-adv-x="763" 
d="M709 413c5 -207 -105 -420 -321 -425c-228 -6 -341 208 -341 417c0 204 119 410 322 415c239 5 335 -202 340 -407zM605 410c-4 155 -59 329 -233 324c-152 -4 -217 -174 -219 -326c-2 -159 68 -340 227 -340c166 0 229 183 225 342zM560 939c0 -45 -28 -86 -72 -92
c-24 -3 -43 6 -61 16l-74 40c-19 10 -38 23 -55 16s-24 -24 -25 -43v-17h-47v15c2 47 39 95 73 96c21 0 35 -4 53 -14l103 -57c14 -7 28 -9 41 -1c15 9 15 25 17 42l2 13h45v-14z" />
    <glyph glyph-name="divide" unicode="&#xf7;" horiz-adv-x="584" 
d="M328 384c-39 -62 -133 -3 -93 59c39 62 132 3 93 -59zM532 260h-492v41h492v-41zM328 120c-39 -61 -133 -2 -93 60c39 61 132 2 93 -60z" />
    <glyph glyph-name="lozenge" unicode="&#x25ca;" horiz-adv-x="573" 
d="M524 395l-204 -397h-67l-208 403l208 383h67zM463 395l-178 331l-177 -327l180 -351z" />
    <glyph glyph-name="ydieresis" unicode="&#xff;" horiz-adv-x="573" 
d="M531 598l-249 -694c-15 -42 -31 -70 -69 -94c-42 -28 -79 -34 -129 -23l-36 7v74l16 -5c22 -7 37 -8 59 -4c41 7 79 30 93 74l24 75l-207 590h95l161 -450l161 450h81zM462 684c-50 -62 -144 13 -95 76c50 62 144 -13 95 -76zM279 684c-49 -62 -144 13 -95 76
c50 62 145 -13 95 -76z" />
    <glyph glyph-name="Ydieresis" unicode="&#x178;" horiz-adv-x="684" 
d="M656 804l-268 -463v-341h-99v341l-269 463h111l212 -369l214 369h99zM505 872c-50 -62 -144 13 -94 75c49 63 144 -12 94 -75zM323 872c-50 -62 -145 13 -95 75c49 63 144 -12 95 -75z" />
    <glyph glyph-name="Acircumflex" unicode="&#xc2;" horiz-adv-x="684" 
d="M664 0h-104l-82 233h-297l-70 -233h-92l264 804h115zM454 310l-122 381l-126 -381h248zM546 861l-78 -12l-109 70l-115 -70l-82 11l199 142z" />
    <glyph glyph-name="Ecircumflex" unicode="&#xca;" horiz-adv-x="633" 
d="M579 0h-507v804h499v-87h-406v-256h322v-82h-322v-291h414v-88zM534 861l-78 -12l-109 70l-115 -70l-82 11l199 142z" />
    <glyph glyph-name="Aacute" unicode="&#xc1;" horiz-adv-x="701" 
d="M664 0h-104l-82 233h-297l-70 -233h-92l264 804h115zM454 310l-122 381l-126 -381h248zM504 958l-253 -111l-20 47l233 140z" />
    <glyph glyph-name="Edieresis" unicode="&#xcb;" horiz-adv-x="655" 
d="M579 0h-507v804h499v-87h-406v-256h322v-82h-322v-291h414v-88zM477 872c-50 -62 -144 13 -94 75c49 63 144 -12 94 -75zM295 872c-50 -62 -145 13 -95 75c49 63 144 -12 95 -75z" />
    <glyph glyph-name="Egrave" unicode="&#xc8;" horiz-adv-x="650" 
d="M579 0h-507v804h499v-87h-406v-256h322v-82h-322v-291h414v-88zM477 893l-20 -47l-253 111l40 76z" />
    <glyph glyph-name="Iacute" unicode="&#xcd;" horiz-adv-x="274" 
d="M194 0h-102v804h102v-804zM276 958l-253 -111l-20 47l233 140z" />
    <glyph glyph-name="Icircumflex" unicode="&#xce;" horiz-adv-x="291" 
d="M194 0h-102v804h102v-804zM335 861l-78 -12l-109 70l-115 -70l-82 11l199 142z" />
    <glyph glyph-name="Idieresis" unicode="&#xcf;" horiz-adv-x="285" 
d="M194 0h-102v804h102v-804zM272 872c-50 -62 -144 13 -94 75c49 63 144 -12 94 -75zM90 872c-50 -62 -145 13 -95 75c49 63 144 -12 95 -75z" />
    <glyph glyph-name="Igrave" unicode="&#xcc;" horiz-adv-x="285" 
d="M194 0h-102v804h102v-804zM277 893l-20 -47l-253 111l40 76z" />
    <glyph glyph-name="Oacute" unicode="&#xd3;" horiz-adv-x="764" 
d="M716 413c5 -207 -105 -420 -322 -425c-227 -6 -341 208 -341 417c0 204 120 410 323 415c239 5 334 -202 340 -407zM612 410c-5 155 -59 329 -233 324c-153 -4 -217 -174 -219 -326c-2 -159 68 -340 227 -340c166 0 229 183 225 342zM555 958l-253 -111l-20 47l233 140z
" />
    <glyph glyph-name="Ocircumflex" unicode="&#xd4;" horiz-adv-x="764" 
d="M716 413c5 -207 -105 -420 -322 -425c-227 -6 -341 208 -341 417c0 204 120 410 323 415c239 5 334 -202 340 -407zM612 410c-5 155 -59 329 -233 324c-153 -4 -217 -174 -219 -326c-2 -159 68 -340 227 -340c166 0 229 183 225 342zM586 861l-78 -12l-109 70l-115 -70
l-82 11l199 142z" />
    <glyph glyph-name="Ograve" unicode="&#xd2;" horiz-adv-x="758" 
d="M716 413c5 -207 -105 -420 -322 -425c-227 -6 -341 208 -341 417c0 204 120 410 323 415c239 5 334 -202 340 -407zM612 410c-5 155 -59 329 -233 324c-153 -4 -217 -174 -219 -326c-2 -159 68 -340 227 -340c166 0 229 183 225 342zM540 893l-20 -47l-253 111l40 76z
" />
    <glyph glyph-name="Uacute" unicode="&#xda;" horiz-adv-x="627" 
d="M594 262c0 -150 -83 -273 -272 -275c-210 -3 -280 124 -280 276v541h90v-520c0 -108 36 -209 193 -209c115 0 184 74 184 171v558h85v-542zM475 958l-253 -111l-20 47l233 140z" />
    <glyph glyph-name="Ucircumflex" unicode="&#xdb;" horiz-adv-x="627" 
d="M594 262c0 -150 -83 -273 -272 -275c-210 -3 -280 124 -280 276v541h90v-520c0 -108 36 -209 193 -209c115 0 184 74 184 171v558h85v-542zM529 861l-78 -12l-109 70l-115 -70l-82 11l199 142z" />
    <glyph glyph-name="Ugrave" unicode="&#xd9;" horiz-adv-x="633" 
d="M594 262c0 -150 -83 -273 -272 -275c-210 -3 -280 124 -280 276v541h90v-520c0 -108 36 -209 193 -209c115 0 184 74 184 171v558h85v-542zM460 893l-20 -47l-253 111l40 76z" />
    </font>
</defs>
</svg>
