<?xml version="1.0" standalone="no"?>
<!DOCTYPE svg PUBLIC "-//W3C//DTD SVG 1.1//EN" "http://www.w3.org/Graphics/SVG/1.1/DTD/svg11.dtd" >
<svg>
<metadata>
Created by FontForge 20120731 at Mon Jul  1 21:15:22 2019
 By www
Generated by Fontographer 3.5
</metadata>
<defs>
<font id="VnBodoni" horiz-adv-x="2736" >
  <font-face 
    font-family=".VnBodoni"
    font-weight="400"
    font-stretch="normal"
    units-per-em="4096"
    panose-1="2 11 114 0 0 0 0 0 0 0"
    ascent="3276"
    descent="-820"
    x-height="1896"
    cap-height="2839"
    bbox="-438 -1155 4096 4043"
    underline-thickness="50"
    underline-position="-75"
    unicode-range="U+0020-2219"
  />
<missing-glyph horiz-adv-x="3072" 
d="M512 0v2560h2048v-2560h-2048zM2494 66v2428h-1916v-2428h1916z" />
    <glyph glyph-name=".notdef" horiz-adv-x="3072" 
d="M512 0v2560h2048v-2560h-2048zM2494 66v2428h-1916v-2428h1916z" />
    <glyph glyph-name=".null" horiz-adv-x="0" 
 />
    <glyph glyph-name="nonmarkingreturn" horiz-adv-x="1360" 
 />
    <glyph glyph-name="space" unicode=" " horiz-adv-x="1360" 
 />
    <glyph glyph-name="exclam" unicode="!" horiz-adv-x="1593" 
d="M201 418q0 217 172 344t409 127q160 0 303 -49q144 -54 221.5 -172.5t77.5 -249.5q0 -225 -172 -352q-176 -132 -430 -132q-233 0 -405 123q-176 123 -176 361zM737 967q0 168 -73 348l-86 176q-21 33 -37 70q-33 57 -82 127l-111 188l-82 147q-33 70 -49 136
q-16 61 -16 139q0 287 172 446q172 160 458 160q222 0 402 -164q160 -147 160 -450q0 -205 -144 -422l-131 -209l-123 -213q-65 -115 -98 -234q-33 -118 -33 -245h-127z" />
    <glyph glyph-name="quotedbl" unicode="&#x22;" horiz-adv-x="2257" 
d="M512 2519q0 29 -8 41q0 119 74 233q73 111 213 111q106 0 176 -70q73 -61 73 -217l-4 -57l-4 -49l-135 -848q-45 -246 -127 -246l-33 -8q-37 0 -61 53q-29 49 -53 226zM1217 2519q0 29 -9 41v66q13 36 21 61t20 49q8 21 33 53q70 107 213 107q242 0 242 -287v-98
l-144 -856q-32 -238 -123 -238l-28 -8q-49 8 -70 49q-20 41 -45 221z" />
    <glyph glyph-name="numbersign" unicode="#" 
d="M930 2032l119 872h360l-123 -872h352l123 872h369l-131 -872h377v-377h-422l-49 -369h360v-373h-418l-127 -913h-368l127 913h-353l-127 -913h-360l123 913h-402v373h463l58 369h-410v377h459zM1585 1655h-352l-49 -369h344z" />
    <glyph glyph-name="dollar" unicode="$" 
d="M1266 2896v270h159v-270q287 0 467 -45q193 -41 361 -135q254 -136 254 -422l-8 -127q-5 -66 -115 -139q-33 -25 -62 -37q-32 -13 -53 -21l-127 -16q-266 0 -344 213q0 61 -20 114q0 91 41 160q36 78 82 115l81 78l9 12q0 53 -185 98q-86 17 -184 29q-102 12 -197 12
v-811q594 -209 885 -524t291 -651v-58q0 -32 -8 -65q0 -33 -25 -90q-135 -357 -414 -496q-139 -70 -327 -110q-193 -46 -402 -46v-495h-159v495h-136h-86q-45 9 -61 9q-49 0 -90 8q-78 20 -127 33q-234 49 -406 176t-233 336q0 28 -8 45l-8 57q0 176 135 287
q131 106 282 106q136 0 250 -78q111 -82 111 -258q0 -69 -12 -123q-13 -53 -46 -102q-49 -86 -139 -164l-78 -65q0 -144 652 -144v934q-381 160 -598 258q-176 90 -291 230q-115 135 -160 385l-8 114q0 181 78 353q98 237 352 393q123 74 283 127q159 45 344 45zM1425 922
v-865q209 0 381 111q74 49 119 115q41 65 41 143q0 135 -127 262t-414 234zM1266 2785q-217 0 -336 -78q-123 -81 -148 -229q-4 -16 -4 -33q0 -229 488 -405v745z" />
    <glyph glyph-name="percent" unicode="%" horiz-adv-x="4096" 
d="M2601 2576q-86 -36 -156 -61q-73 -29 -180 -57q-106 -33 -233 -33l-140 12q-77 12 -86 17q-45 20 -61 24q119 -176 119 -446q0 -426 -308 -766q-143 -156 -335.5 -246t-413.5 -90q-180 0 -365 110q-188 111 -295 283q-98 172 -98 389q0 160 37 283q33 123 111 274
q131 246 376 410q246 160 537 160q188 0 315 -70q54 -33 131 -66q74 -37 152 -65q156 -45 315 -45q242 0 471 102q230 98 345 201h184l-1680 -2962h-233zM938 2552l-299 -1168l-12 -77l-13 -90q0 -156 160 -193l21 8l65 8l53 29l54 82q32 66 49 143l278 1217l4 24l5 50
q0 127 -119 168l-54 4q-73 0 -118 -58q-49 -61 -74 -147zM3146 1831q270 0 471 -111q196 -114 294.5 -311t98.5 -418q0 -282 -147 -528q-152 -250 -410 -406q-107 -57 -254 -94q-74 -12 -139.5 -20.5t-147.5 -8.5q-151 0 -278 66q-127 61 -226 180q-98 115 -147 254
q-53 135 -53 287q0 86 4 127t33 135q28 90 49 139q8 21 53 115q123 254 328 426q200 168 471 168zM3072 1520l-295 -1201q0 -36 -8 -49l-8 -61q0 -201 168 -201q172 0 209 193l311 1319v41q0 90 -45 139q-45 45 -115 45q-151 0 -217 -225z" />
    <glyph glyph-name="ampersand" unicode="&#x26;" horiz-adv-x="3863" 
d="M1126 1655q-188 344 -188 594q0 278 238 458q233 181 729 181q245 0 426 -66q176 -69 266 -184q90 -119 90 -246q0 -283 -377 -418l569 -942q82 70 140 172q53 99 53 189q0 200 -270 200v127h901v-127l-17 -8h-53q-123 0 -282 -184l-406 -488l184 -262q185 -258 312 -258
q135 0 278 246l98 -53q-122 -320 -401 -488q-283 -172 -614 -172q-471 0 -787 291q-479 -283 -999 -283q-324 0 -557 119q-238 119 -348 332q-54 135 -78 328q0 303 274 565q271 258 819 377zM1184 1552q-209 -49 -209 -241q0 -164 201 -541q159 -287 286 -393l127 -86
q37 -17 65.5 -25t74.5 -8q77 0 225 53q-115 148 -254 365l-303 508zM2224 2105q25 -37 66 -49q24 0 69 62q41 57 41 139q0 160 -102.5 336t-249.5 176q-86 0 -102 -107l12 -45l16 -41z" />
    <glyph glyph-name="quotesingle" unicode="'" horiz-adv-x="1360" 
d="M1110 2097l-78 -45l-139 -70q-102 -28 -197 -28q-307 0 -475 127q-82 69 -131 151q-41 82 -41 185l8 32q0 234 193 353q176 94 438 94q238 0 406 -139q168 -144 209 -373l12 -160q0 -184 -86 -369q-111 -229 -369 -393q-262 -164 -610 -221l-17 102q480 111 685 312
q200 196 200 368l-4 45z" />
    <glyph glyph-name="parenleft" unicode="(" horiz-adv-x="1815" 
d="M1671 2896l17 -103q-242 -36 -377 -188q-123 -147 -185 -369l-36 -221l-17 -221l-4 -233l-4 -258l16 -443l17 -459q0 -237 37 -442q20 -115 44.5 -205t73.5 -213q62 -180 168 -258q107 -82 267 -82v-114q-312 49 -590 200q-279 148 -512 414q-238 266 -369 655
q-45 140 -70 377l-12 508q135 1339 1536 1655z" />
    <glyph glyph-name="parenright" unicode=")" horiz-adv-x="1815" 
d="M135 2802v94q357 -62 639 -209q283 -152 500 -406q201 -233 311 -573q111 -344 111 -786q0 -349 -131 -680q-135 -332 -357 -566q-114 -127 -237 -221q-119 -102 -262 -172q-258 -139 -582 -188v106q209 0 332 172t176 439q53 262 102 692q4 180 13 450q4 271 4 639
l-37 422l-12 148l-50 184q-49 156 -172 287q-106 110 -348 168z" />
    <glyph glyph-name="asterisk" unicode="*" horiz-adv-x="2048" 
d="M958 2073q0 118 -86 311q-86 188 -98 278q0 234 258 234q86 0 148 -62q61 -65 61 -163q0 -136 -90 -254q-61 -86 -94 -328l12 -41l12 -16q4 -4 17 -4q32 -5 102 53q90 69 119 119q102 172 168 245q61 74 176 74q90 0 164 -70q69 -73 69 -168q0 -86 -53 -139
q-37 -24 -135 -65l-164 -45l-135 8l-172 -49q-94 -37 -94 -62q8 -20 151 -74q70 -24 123 -32t94 -8l25 4l41 4q102 0 213 -70q106 -74 106 -184q0 -82 -61 -156q-61 -61 -164 -86q-110 12 -184 90q-74 74 -144 221q-28 54 -126 136q-99 73 -136 73h-8l-16 -53q0 -86 24 -168
q21 -86 62 -156q98 -147 98 -278q0 -94 -57 -160q-62 -65 -160 -65q-102 0 -172 49q-53 45 -70 168q0 86 86 291q41 94 65.5 171.5t24.5 131.5v45l-20 -4l-57 -37l-136 -119l-65 -90l-86 -127q-37 -62 -102 -98l-62 -29l-70 -8q-196 24 -225 250q12 110 115 172
q57 36 102 49l111 16h143q49 0 74 8l131 45q90 29 94 78q4 4 4 8q0 9 -12 21l-82 41q-110 49 -209 49h-102l-168 37q-86 24 -139 69q-54 41 -54 136q13 94 74 168q57 69 152 69q102 0 176 -61l61 -70l70 -102l41 -78l78 -98q57 -62 147 -86l16 8v33z" />
    <glyph glyph-name="plus" unicode="+" horiz-adv-x="2458" 
d="M991 1282v782h471v-782h803v-475h-803v-807h-471v807h-798v475h798z" />
    <glyph glyph-name="comma" unicode="," horiz-adv-x="1360" 
d="M1032 25q-20 -21 -114 -58q-37 -12 -213 -33q-287 0 -459 136q-172 131 -172 348l8 12q0 201 160 332q159 127 405 127q271 0 467 -156q197 -160 221 -430l4 -90q0 -352 -282 -627q-287 -278 -787 -360l-20 110q381 62 643 267q258 200 258 446q0 21 -33 33z" />
    <glyph glyph-name="hyphen" unicode="-" horiz-adv-x="1360" 
d="M111 1294h1155v-622h-1155v622z" />
    <glyph glyph-name="period" unicode="." horiz-adv-x="1360" 
d="M307 770q176 119 422 119q234 0 410 -119q172 -123 172 -344q0 -229 -160 -360q-164 -132 -397 -132q-258 0 -447 119q-188 119 -188 348l8 13q0 237 180 356z" />
    <glyph glyph-name="slash" unicode="/" horiz-adv-x="1135" 
d="M-438 0l1446 2904h569l-1442 -2904h-573z" />
    <glyph glyph-name="zero" unicode="0" 
d="M1335 2904q394 0 693 -192.5t462 -548.5q70 -156 111 -361t41 -426q0 -192 -41 -368q-21 -103 -45 -172q-25 -74 -74 -181q-147 -331 -434 -528q-139 -94 -315.5 -143.5t-389.5 -49.5q-290 0 -520 111q-229 111 -409 332q-332 418 -332 1065q0 475 184 807
q180 331 471 495q291 160 598 160zM1569 2417q0 176 -37 278q-41 98 -172 98q-115 0 -168 -94q-21 -49 -33 -106q-16 -58 -16 -127l8 -49v-1848q0 -290 37 -405t172 -115q119 0 168 119q41 131 41 336v57v1856z" />
    <glyph glyph-name="one" unicode="1" 
d="M1896 2904v-2793h369v-111h-1802v111h409l-8 2617h-368v111h790z" />
    <glyph glyph-name="two" unicode="2" 
d="M1303 2560q-132 201 -398 201q-127 0 -213 -45q-86 -37 -98 -90q0 -25 29 -41q200 0 307 -144q94 -127 94 -291q0 -135 -111 -262q-110 -127 -319 -127q-184 0 -328 119q-139 127 -139 328q0 196 78 327q78 127 266 213q373 156 803 156q455 0 840 -217
q380 -221 380 -639q0 -496 -438 -672l-409 -147l-406 -119q-291 -61 -516 -242q-229 -180 -246 -282l25 -25l41 17q78 28 225 77q143 50 258 82q111 29 213 45q102 17 229 17q99 0 340 -25l332 -29q49 5 103 17q53 8 106 45t98 160h119q0 -385 -180 -639
q-152 -230 -434 -328q-53 -16 -111 -25q-61 -12 -168 -20q-106 -12 -315 -12q-53 0 -168 28l-262 66q-320 82 -451 82q-217 0 -270 -176h-127q0 278 98 487q94 205 221 340t435 406q90 73 131 110q69 62 114 107l164 163q25 25 41 58q33 61 70 172q53 172 53 348
q0 254 -106 426z" />
    <glyph glyph-name="three" unicode="3" 
d="M1286 2671q-86 106 -262 106q-127 0 -213 -45q-94 -37 -98 -90l41 -33q143 -49 217 -164q69 -114 69 -237q0 -176 -118 -283q-50 -41 -140 -82q-45 -12 -82 -20q-36 -8 -86 -8l-77 8q-99 12 -226 127q-127 110 -127 282q0 217 176 381q144 144 381 217q115 33 230 54
q110 16 168 20h86h159q70 -12 136 -16q61 -9 106 -17t139 -41q287 -73 488 -245q196 -177 196 -451q0 -221 -184 -389q-188 -168 -479 -225l-62 -17q-28 -12 -45 -33q13 -24 107 -36q688 -123 749 -652q0 -135 -20 -213q-12 -86 -74 -184q-98 -176 -385 -307
q-291 -135 -753 -135q-279 0 -480 24q-200 25 -385 123q-188 98 -286 303q-37 86 -50 205q0 213 144 344q61 62 131 86q69 21 118.5 29t118.5 8q181 0 299 -135q45 -53 78 -127t33 -148q0 -172 -53 -258q-58 -86 -168 -164q-94 -61 -98 -90q45 -86 233 -110q98 0 208.5 49
t147.5 102q140 201 140 656q0 368 -91 463q-65 90 -335 90h-78q-49 0 -66 57q13 61 78 61q82 0 98 -8q127 0 209 37q78 37 127 139q41 123 41 287v164q0 385 -131 541z" />
    <glyph glyph-name="four" unicode="4" 
d="M1266 930v1270l-1016 -1225v-45h1016zM1688 2904h577v-1974h352v-160h-352v-659h328v-111h-1663v111h336v659h-1200v180z" />
    <glyph glyph-name="five" unicode="5" 
d="M479 1561v-25l156 66q139 53 364 102l185 20l221 5h65q160 0 340 -58q181 -61 377 -164q348 -176 348 -700q0 -389 -335 -635q-164 -111 -410 -172q-246 -66 -533 -66l-372 13q-103 8 -148 16q-49 8 -147 41q-271 74 -406 332q-41 90 -65 250q0 184 123 315
q118 131 319 131q90 0 160 -20q65 -21 90 -33q25 -16 74 -53q139 -107 139 -303q0 -111 -74 -254q-41 -70 -176 -131q-106 -33 -106 -70q0 -8 4 -16q24 -46 98 -78q70 -25 188 -25q164 0 267 66q98 61 159 278q58 217 58 438q0 394 -90 537q-111 184 -385 184h-74
q-37 -12 -70 -20q-37 -8 -164 -57l-163 -58l-95 -24l-28 24l-21 33l8 45q0 37 9 49l135 1295q0 32 82 32l217 -24l389 -45l438 -17q287 0 529 54l82 24l102 25q49 0 49 -78v-41q-61 -266 -393 -500q-336 -237 -873 -237h-143q-70 12 -111 16t-114 16q-74 13 -205 41z" />
    <glyph glyph-name="six" unicode="6" 
d="M1143 1487q241 184 594 184q336 0 581 -176q242 -176 291 -520l8 -74v-70q0 -327 -221 -585q-139 -152 -368 -230q-230 -82 -541 -82q-701 0 -1061 418q-360 414 -360 1016l8 127q0 107 8 180q8 74 37 168q45 168 139 348q156 308 479 512q168 99 361 152q192 49 389 49
q397 0 672 -164q274 -168 274 -467q0 -164 -139 -266q-62 -41 -148 -74q-94 -28 -172 -28l-86 8q-123 12 -241 123q-103 114 -103 245q12 132 33 160q37 107 164 185l90 61l33 25q0 24 -82 49q-86 24 -197 24q-225 0 -332 -225q-110 -225 -110 -479v-594zM1544 1126
q0 185 -24 254q-29 70 -127 70q-250 0 -250 -528v-537q0 -311 209 -336q192 0 192 303v774z" />
    <glyph glyph-name="seven" unicode="7" 
d="M446 2560q426 344 779 344l123 -4q65 0 127 -21l106 -20l127 -33l270 -65l246 -33q135 0 262 65q74 37 115 37l29 -4l12 -8l4 -49q0 -29 -37 -90q-315 -377 -524 -873q-213 -495 -213 -958l-4 -234q0 -86 -4 -127t-29 -127q-45 -192 -111 -282q-69 -90 -147 -135
q-176 -70 -328 -70q-245 0 -389 176q-147 172 -147 397q0 37 4 86q0 50 28 123q29 95 99 213q119 201 299 381q180 181 491 459q312 274 500 475l-45 33q-164 -94 -344 -148q-184 -53 -393 -53l-226 25l-319 65l-242 45l-127 17q-53 0 -69 -8l-50 -353h-110l151 1073h111z
" />
    <glyph glyph-name="eight" unicode="8" 
d="M1769 1520v-66q197 0 541 -184q156 -86 242 -238q82 -155 82 -368q0 -357 -332 -541q-336 -189 -975 -189q-78 0 -168 5q-90 0 -237 28q-205 25 -402 94q-368 111 -446 525l-13 147q0 287 238 475q283 209 631 254v58q-770 98 -770 663q0 357 344 549q160 78 385 131
q98 16 229 29q127 12 258 12q373 0 639 -94q262 -94 393 -258q127 -168 127 -377q0 -225 -180 -410q-184 -188 -586 -245zM1159 1786q0 -258 184 -258q193 0 193 266v717q0 168 -41 233q-41 66 -152 66q-184 0 -184 -299v-725zM1552 1159q0 258 -200 275q-82 0 -144 -70
q-65 -70 -65 -197v-848q12 -131 49 -208.5t151 -77.5q209 0 209 286v840z" />
    <glyph glyph-name="nine" unicode="9" 
d="M1528 1335q-70 -45 -127.5 -73.5t-176 -73.5t-257.5 -45q-406 0 -656 229q-254 225 -254 590l25 229q61 320 344 516q283 197 831 197q422 0 742 -209q295 -188 463 -545q73 -163 110 -348q37 -188 37 -393q0 -295 -90 -561t-250 -455q-164 -192 -426 -319
q-61 -29 -123 -49q-65 -25 -155 -45q-135 -37 -299 -37h-193q-274 0 -528 98t-328 344l-12 66l-12 69q0 185 131 291q127 102 299 102q221 0 340 -98q86 -86 118 -237l4 -66q0 -98 -49 -160q-61 -78 -164 -151q-98 -62 -110 -90l8 -9l12 -8l299 -53q222 0 308 131
q81 127 110 340q12 106 21 246q8 135 8 315v262zM1520 1769v680q0 344 -177 344q-106 0 -163 -94q-54 -114 -54 -258v-897q0 -135 148 -168q246 33 246 393z" />
    <glyph glyph-name="colon" unicode=":" horiz-adv-x="1360" 
d="M119 1630q0 144 86 254q86 107 229 160l115 29l172 16q266 0 430 -127q160 -131 160 -340q0 -238 -156 -356q-82 -62 -188 -99q-54 -16 -103 -24t-127 -8q-73 0 -110 4t-131 28q-99 21 -193 86q-192 123 -192 349zM111 446q0 152 86 254q86 103 217 156q131 49 299 49
q266 0 422 -131q159 -123 159 -336q0 -237 -155 -356q-74 -57 -181 -94q-106 -37 -237 -37q-250 0 -434.5 118.5t-184.5 348.5z" />
    <glyph glyph-name="semicolon" unicode=";" horiz-adv-x="1360" 
d="M1081 66q-123 -123 -393 -123q-237 0 -422 118q-184 119 -184 332q0 78 4 115q4 33 33 102q28 66 119 144q168 135 458 135q275 0 459 -201q180 -201 180 -479q0 -270 -147 -475q-152 -205 -414 -344q-237 -123 -512 -164l-12 102q258 70 414 140q139 53 303 196
q73 62 127 176q49 115 49 185q0 49 -33 49q-16 0 -20 -4zM111 1618q0 229 168 348q167 115 434 115q258 0 422 -123q159 -127 159 -348q0 -213 -159 -348q-78 -58 -185 -103q-45 -16 -94 -24.5t-119 -8.5q-254 0 -438 123q-188 123 -188 369z" />
    <glyph glyph-name="less" unicode="&#x3c;" horiz-adv-x="2458" 
d="M193 1249l2080 934v-528l-1458 -615l1458 -602v-520l-2080 930v401z" />
    <glyph glyph-name="equal" unicode="=" horiz-adv-x="2458" 
d="M201 1688h2064v-471h-2064v471zM201 889h2064v-479h-2064v479z" />
    <glyph glyph-name="greater" unicode="&#x3e;" horiz-adv-x="2458" 
d="M1647 1040l-1454 615v528l2080 -934v-401l-2080 -930v520z" />
    <glyph glyph-name="question" unicode="?" horiz-adv-x="2503" 
d="M598 446q0 197 172 320q86 61 184 94q95 29 213 29q144 0 234 -29q98 -24 196 -86q189 -127 189 -328q0 -131 -33 -217t-115 -155q-151 -140 -438 -140q-262 0 -430 132q-172 127 -172 380zM762 2634q221 0 311 -131q86 -131 86 -303q0 -156 -135 -291q-61 -62 -152 -94
q-90 -37 -192 -37q-217 0 -385 131t-168 348l12 106l21 70q61 217 364 344t668 127q643 0 922 -229q262 -213 262 -533q0 -233 -152 -344q-33 -29 -74 -53q-45 -25 -86 -49l-209 -103l-286 -123q-144 -53 -254 -184q-78 -86 -78 -233l4 -78h-135l-16 106q0 144 45 258
q8 33 16 62q4 24 29 74l69 172l58 143l49 143q37 111 37 250q0 238 -123 406q-127 164 -357 164q-94 0 -159 -25q-70 -29 -90 -66q16 -28 98 -28z" />
    <glyph glyph-name="at" unicode="@" horiz-adv-x="3031" 
d="M1999 1937l41 197h385l-209 -1196v-25q0 -57 57 -57q82 0 205 111q193 192 193 602l-5 102l-24 184q-74 299 -369 508q-274 189 -753 189q-230 0 -426 -86q-197 -90 -365 -258q-143 -144 -221 -365q-78 -225 -78 -491q0 -176 61.5 -340t184.5 -320q217 -262 610 -364
l172 -29l164 -12q459 0 803 266h405q-209 -295 -549 -459q-163 -69 -339 -110q-78 -17 -173 -29q-98 -12 -184 -12q-160 0 -319 24q-336 62 -619 254q-282 193 -450 512q-172 316 -172 717q0 356 188 684q172 303 496 508q319 205 741 254l70 4l82 4q139 0 274 -25
q135 -24 283 -81q348 -140 581 -402q230 -266 266 -618l5 -49v-46q0 -229 -111 -475q-131 -286 -381 -467q-254 -180 -545 -180q-192 0 -229 201q-184 -168 -410 -193l-49 9q-282 36 -463 241q-32 45 -69 106.5t-62 114.5q-45 115 -45 246q37 356 258 618.5t582 262.5
q344 0 512 -230zM1561 1753q-156 0 -271 -98q-114 -99 -135 -201l-8 -135q0 -62 24 -127q21 -70 99 -139q69 -49 172 -62q78 0 119 8q41 5 98 37q94 58 147 144q49 86 66 196q0 90 -12 152q-17 61 -58 114q-86 111 -241 111z" />
    <glyph glyph-name="A" unicode="A" horiz-adv-x="3408" 
d="M385 438l881 2392h856l1007 -2728h222v-110h-1815v110h295l-295 840h-823q-13 -70 -111 -307.5t-98 -315.5q12 -122 82 -167q65 -50 229 -50v-110h-790v110q139 0 225 86q74 86 135 250zM1495 1049l-377 1048l-364 -1048h741z" />
    <glyph glyph-name="B" unicode="B" horiz-adv-x="3408" 
d="M319 2728h-311v111h2257q496 0 750 -193q250 -197 250 -455q0 -176 -66 -299t-213 -204q-291 -160 -668 -160v-86q1016 0 1016 -672q0 -389 -303 -577q-303 -193 -823 -193h-2200v111h311v2617zM1982 1831v627q0 127 -90 204q-90 66 -229 66h-86v-1192h94l127 12
q62 13 107 45q77 54 77 238zM2032 1065q0 360 -394 360h-61v-1314q74 0 94 -9q164 0 266 91q95 102 95 270v602z" />
    <glyph glyph-name="C" unicode="C" horiz-adv-x="2961" 
d="M2777 2904l8 -1008h-139q-94 324 -324 570q-229 246 -499 246q-254 0 -340 -238q-74 -233 -74 -586v-1016q0 -593 303 -696l201 -33q295 0 516 233.5t274 573.5h127q-37 -332 -196.5 -549t-421.5 -348q-127 -57 -266 -86q-144 -33 -283 -33q-381 0 -664 111
q-286 107 -487 315q-205 209 -324 484q-8 20 -28 98q-25 74 -54 184q-24 148 -24 308l4 110q0 258 110.5 495.5t327.5 454.5q410 410 1053 410q197 0 319 -41l119 -37q41 -8 78 -20q33 -17 70 -37q131 -49 155 -49l82 24l144 86l127 74h106z" />
    <glyph glyph-name="D" unicode="D" horiz-adv-x="3408" 
d="M319 2728h-286v111h1782q450 0 798 -173q348 -172 533 -520q168 -323 168 -786q0 -602 -402 -991q-381 -369 -1097 -369h-1790v111h294v2617zM1999 2318q0 410 -352 410h-86v-2617q139 0 159 -9q115 13 160 41q119 74 119 435v1740z" />
    <glyph glyph-name="E" unicode="E" horiz-adv-x="2961" 
d="M319 2728h-294v111h2744l24 -992h-139q-135 516 -446 754q-94 74 -189 94q-98 17 -200.5 25t-249.5 8v-1241q106 0 205 37q94 37 163 131q78 94 115 200q37 103 37 193h135v-1257h-135q0 163 -49 274q-53 111 -152 197q-131 118 -262 118l-57 -4v-1265q135 0 160 -9
q221 0 339 50q119 45 283 208q197 234 352 721h127l-20 -1081h-2785v111h294v2617z" />
    <glyph glyph-name="F" unicode="F" horiz-adv-x="2961" 
d="M1585 111h352v-111h-1937v111h319v2617h-311v111h2839l16 -1045h-127q-49 254 -160 487q-114 230 -344 353q-180 94 -520 94h-127v-1241l144 12q61 12 118 53q111 82 181 222q57 131 77 274h136v-1257h-136q0 122 -37 225q-40 98 -118 201q-127 163 -316 163l-49 -4
v-1265z" />
    <glyph glyph-name="G" unicode="G" horiz-adv-x="3408" 
d="M2855 2904h151v-991h-110q-172 373 -430 581q-262 209 -537 209q-78 0 -114 -4q-37 -8 -50 -12q-12 -4 -61 -25q-287 -122 -287 -688v-1548q0 -201 53 -291q50 -94 177 -94q249 0 249 405v914h-233v110h1642v-110h-225v-1098l-143 -4q-58 0 -139 -29l-168 -45l-189 -73
l-401 -127q-193 -50 -402 -50q-487 0 -831 188.5t-537 528.5q-86 168 -135 361q-49 188 -49 405q0 385 184 721q185 332 545 549q356 217 803 217q520 0 848 -242z" />
    <glyph glyph-name="H" unicode="H" horiz-adv-x="3641" 
d="M360 2646h-319v115h1737v-115h-185v-1212h480v1212h-185v115h1745v-115h-328v-2613h328v-115h-1745v115h185l8 1294h-488v-1294h185v-115h-1737v115h319v2613z" />
    <glyph glyph-name="I" unicode="I" horiz-adv-x="2048" 
d="M393 2728h-311v111h1892v-111h-311v-2617h303v-111h-1884v111h311v2617z" />
    <glyph glyph-name="J" unicode="J" horiz-adv-x="2503" 
d="M942 2728h-389v111h1921l-8 -111h-291v-1737q0 -213 -86 -450q-86 -242 -336 -422q-250 -185 -688 -185q-430 0 -750 168q-323 168 -323 537q0 180 98 328q98 143 295 143q193 0 324 -106q131 -99 131 -267v-49q0 -86 -25 -147q-29 -66 -78 -107q-78 -61 -192.5 -94
t-126.5 -78q-4 -16 -4 -29q0 -106 164 -106q114 0 196 41t168 139q148 168 148 398q0 221 -148 393v1630z" />
    <glyph glyph-name="K" unicode="K" horiz-adv-x="3863" 
d="M319 2728h-311v111h1913v-111h-352v-1335l958 966q127 127 127 201l-4 33l-4 16q-37 119 -455 119v111h1299v-111l-86 4l-90 4q-136 0 -217 -49q-86 -49 -267 -213l-327 -340l1167 -2023h184v-111h-1855v111h291l-713 1265l-8 -1265h278v-111h-1839v111h311v2617z" />
    <glyph glyph-name="L" unicode="L" horiz-adv-x="2961" 
d="M328 111v2617h-303v111h1921v-111h-361v-2617q397 0 573.5 81.5t327.5 319.5l111 270l106 344h119v-1126h-2797v111h303z" />
    <glyph glyph-name="M" unicode="M" horiz-adv-x="4096" 
d="M328 2728h-295v111h1478l504 -1352l520 1352h1504v-111h-320v-2617h320v-111h-1848v111h320v2297l-918 -2408h-168l-938 2433l-8 -1978q0 -197 78 -279q66 -65 291 -65v-111h-848v111q41 0 57 -9q127 0 201 82q70 82 70 279v2265z" />
    <glyph glyph-name="N" unicode="N" horiz-adv-x="3183" 
d="M2142 0l-1663 2281v-1826q0 -103 25 -168q20 -70 61 -111q70 -61 189 -74l102 9v-111h-848v111q58 0 74 -9q106 0 180 82q74 78 74 303l8 2024l-90 110l-78 86q-29 29 -168 29v103h1561l1110 -1520v1216q0 103 -74 152q-90 41 -205 41h-82v111h840v-111h-78
q-110 0 -151 -16q-45 -21 -70 -95q-29 -73 -29 -225v-2392h-688z" />
    <glyph glyph-name="O" unicode="O" horiz-adv-x="3408" 
d="M1761 2863q131 0 237.5 -12t217.5 -41q106 -29 208.5 -70t201.5 -102q360 -205 540 -537q90 -155 144 -332q49 -180 49 -376q0 -394 -185 -729q-188 -336 -569 -558q-172 -90 -401 -155q-226 -53 -459 -53q-451 0 -811 196q-365 197 -582 561q-217 361 -217 770
q0 385 221 717q217 332 590 533q168 90 381 143q90 21 200.5 33t233.5 12zM2023 2232q0 291 -69 406q-74 115 -209 115q-275 0 -275 -488v-1937q0 -168 82 -242q82 -78 193 -78q278 0 278 320v1904z" />
    <glyph glyph-name="P" unicode="P" horiz-adv-x="3408" 
d="M344 111l-8 2617h-303v111h2117q590 0 877 -242q287 -246 287 -598q0 -217 -115 -406q-115 -188 -377 -311q-266 -123 -647 -123h-598v-1048h377v-111h-1929v111h319zM2023 1761v582q0 393 -352 393h-45l-49 -8v-1454l65 -8h50q188 0 254 114q77 164 77 381z" />
    <glyph glyph-name="Q" unicode="Q" horiz-adv-x="3408" 
d="M1688 2904q167 0 327 -25q156 -28 295 -81q275 -99 471 -258q197 -160 332 -394q131 -233 176 -491l16 -230q0 -286 -102 -557q-102 -270 -336 -491q-237 -221 -610 -344q82 -148 213 -221.5t283 -73.5q331 0 446 254l115 -41q-357 -832 -856 -832q-246 0 -381 201
q-62 94 -99 213q-41 115 -41 250l9 94l8 82l-135 -12l-140 -4q-315 0 -618 110q-397 152 -651 475q-258 320 -316 713l-8 102v87q0 233 74 462q94 287 332 537q208 221 523.5 348t639.5 127h33zM1409 528q152 70 270 70q172 0 287 -127v1864q0 458 -270 458
q-287 0 -287 -475v-1790zM1679 520q-237 0 -262 -225q0 -82 74 -168q78 -78 188 -78q131 0 201 66q66 61 66 143q0 107 -78 184q-78 78 -189 78z" />
    <glyph glyph-name="R" unicode="R" horiz-adv-x="3641" 
d="M319 2728h-294v111h2134q512 0 794 -152q279 -156 328 -463l4 -41v-41q0 -233 -184 -393q-123 -102 -275 -160q-155 -61 -360 -61v-41q352 -33 524 -189q172 -159 209 -331l33 -193l12 -209q0 -225 37 -286q29 -25 70 -46q106 13 184 160l115 -65q-74 -152 -320 -271
q-246 -123 -508 -123q-311 0 -573 168q-193 131 -234 324l-37 238l-12 299q0 155 -20 274q-25 115 -62 160q-29 49 -82 61t-258 12v-1359h344v-111h-1880v111h311v2617zM1991 2376q0 123 -62 237q-61 115 -258 115q-98 0 -127 -8v-1127h66q172 0 254 37t110 217l17 320v209z
" />
    <glyph glyph-name="S" unicode="S" 
d="M1815 2736l450 168h94l33 -942h-111q-172 405 -483 618t-606 213q-320 0 -369 -290q0 -95 82 -164q66 -49 299 -180l275 -136l696 -360q127 -49 274 -274q144 -226 144 -525q0 -172 -74 -377q-86 -221 -393 -381q-311 -163 -692 -163q-390 0 -729 184l-443 -193h-102
l-33 1016h135q344 -749 938 -876l86 -13l123 -12q197 0 303 82q103 78 103 197q0 192 -185 299q-188 102 -495 229q-983 418 -983 1106l12 160q8 37 20 78q9 41 25 90q86 286 340 442q139 82 287 123q143 41 307 41q352 0 672 -160z" />
    <glyph glyph-name="T" unicode="T" horiz-adv-x="3183" 
d="M942 111v2617q-168 0 -295 -78t-201 -205q-77 -127 -139 -291q-65 -163 -123 -360h-127l25 1045h2998l17 -1045h-119q-107 410 -279 660q-82 126 -205 200q-127 74 -286 74v-2617h377v-111h-2016v111h373z" />
    <glyph glyph-name="U" unicode="U" horiz-adv-x="3183" 
d="M352 2728h-327v111h1904v-111h-344v-2048q0 -70 -8 -94q0 -185 127 -324q45 -49 164 -82q94 -16 168 -16q69 -4 139 -4q152 0 250 73q98 70 147 197q90 270 90 451v1470q0 377 -278 377h-86v111h848v-111h-107q-139 0 -192 -127q-37 -123 -37 -328v-1417
q0 -438 -258 -680q-262 -242 -967 -242l-250 13q-53 4 -118 16q-70 12 -136 29q-237 49 -376 110q-353 205 -353 672v1954z" />
    <glyph glyph-name="V" unicode="V" horiz-adv-x="3408" 
d="M2257 1008l565 1368q33 65 33 151q0 201 -303 201v111h799v-111h-103q-119 0 -160 -66l-36 -73l-46 -111l-991 -2478h-663l-1102 2728h-217v111h1839v-111h-287z" />
    <glyph glyph-name="W" unicode="W" horiz-adv-x="4096" 
d="M119 2728h-111v111h1479v-111h-135l434 -1577l196 688l-221 889h-143v111h1540v-111h-197l373 -1561l369 1311l4 29l4 61q0 160 -168 160h-86v111h623v-111q-62 -12 -107 -57q-45 -37 -74 -91l-41 -110l-41 -152l-663 -2318h-688l-410 1577l-446 -1577h-688z" />
    <glyph glyph-name="X" unicode="X" horiz-adv-x="3641" 
d="M2224 1913l328 414q74 86 74 192q0 111 -99 160q-102 49 -237 49h-58v111h1143v-111h-135q-94 0 -238 -94q-143 -99 -249 -242l-455 -586l1102 -1695h159v-111h-1896v111h303l-647 995l-447 -610q-61 -74 -73 -201q12 -74 37 -107q20 -32 94 -57q69 -29 168 -29l135 9
v-111h-1176v111q41 0 54 -9q159 0 290 86q127 86 238 250l610 770l-991 1520h-201v111h1925v-111h-294z" />
    <glyph glyph-name="Y" unicode="Y" horiz-adv-x="3641" 
d="M1225 111v1024l-955 1593h-221v111h1917v-111h-287l738 -1217h24l488 848q61 99 61 193q0 176 -270 176h-66v111h914v-111h-70q-205 0 -418 -385l-602 -1024l8 -1208h369v-111h-1991v111h361z" />
    <glyph glyph-name="Z" unicode="Z" horiz-adv-x="2961" 
d="M1417 2728l-65 4h-49q-721 0 -1008 -893h-111l49 1000h2569v-127l-1332 -2601h242q348 0 594 233q246 234 356 746h140l-33 -1090h-2658v160z" />
    <glyph glyph-name="bracketleft" unicode="[" horiz-adv-x="1593" 
d="M872 2744v-3489h529v-160h-1200v3809h1192v-160h-521z" />
    <glyph glyph-name="backslash" unicode="\" horiz-adv-x="1135" 
d="M-438 2904h573l1442 -2904h-569z" />
    <glyph glyph-name="bracketright" unicode="]" horiz-adv-x="1593" 
d="M729 2744h-520v160h1192v-3809h-1200v160h528v3489z" />
    <glyph glyph-name="asciicircum" unicode="^" horiz-adv-x="2458" 
d="M1233 2310l-561 -1151l-422 201l733 1544h487l746 -1552l-430 -193z" />
    <glyph glyph-name="underscore" unicode="_" horiz-adv-x="2048" 
d="M0 -369h2048v-225h-2048v225z" />
    <glyph glyph-name="grave" unicode="`" horiz-adv-x="1360" 
d="M737 2097l-450 262l-103 66l-118 90q-66 65 -66 172q0 86 74 156q73 61 176 61q188 0 348 -233l434 -574h-295z" />
    <glyph glyph-name="a" unicode="a" 
d="M2441 1450v-1114q0 -98 70 -111q86 13 168 119v-143q-209 -258 -672 -258q-356 0 -496 274q-127 -135 -315 -213q-184 -70 -434 -70q-225 0 -393 74t-242 217q-29 62 -53 213q0 406 364 533q185 61 406 94t483 33h152v512q0 123 -13 164q-12 41 -57 73q-33 33 -176 33
q-115 0 -152 -49l17 -29l45 -45q61 -57 74 -102l16 -111q0 -98 -45 -151q-45 -58 -131 -103l-185 -45l-159 -20q-414 0 -463 254l-17 82q0 217 279 327q295 103 848 103h86q37 0 90 -9l266 -28q197 -21 348 -82q291 -111 291 -422zM1479 528v471h-160q-209 0 -209 -319v-217
q0 -254 147 -287l46 8q176 0 176 344z" />
    <glyph glyph-name="b" unicode="b" 
d="M1217 1696q126 155 294 237q50 25 160 45l201 13q168 0 307 -82q135 -82 242 -238q106 -155 164 -332q57 -180 57 -356q0 -332 -123 -590q-127 -262 -389 -385q-82 -33 -164 -49q-86 -16 -197 -16q-417 0 -593 376h-17v-376h-74h-65h-53h-49q-82 0 -168 4t-168 16
l-557 37v94h217v2650h-217v95l311 4l369 24l512 37v-1208zM1593 1442q0 303 -151 303q-123 0 -172 -123q-53 -127 -53 -279v-729q0 -118 49 -274t168 -156q94 0 131 111l20 135l8 193v819z" />
    <glyph glyph-name="c" unicode="c" horiz-adv-x="2503" 
d="M1831 1737q24 12 24 41q0 32 -98 65q-45 12 -98 20.5t-115 8.5q-172 0 -241 -57q-99 -91 -144 -287q-24 -185 -24 -561q0 -504 102 -684q49 -86 143 -136q95 -53 230 -53q245 0 429.5 151.5t270.5 352.5l90 -45q-127 -320 -418 -467q-294 -152 -757 -152q-353 0 -627 156
q-258 135 -393 365q-139 229 -139 503q0 340 192 574q193 233 492 344q159 57 303 86q73 12 151 20q78 9 164 9q254 0 471 -62q217 -65 381 -217q164 -151 164 -385q0 -197 -127 -319q-123 -111 -328 -136q-385 0 -450 439q0 266 352 426z" />
    <glyph glyph-name="d" unicode="d" 
d="M1487 1696v1048h-336v95h78h65h58h49q82 0 159.5 4t151.5 16l365 25l389 20v-2810h221v-94l-430 -12l-365 -25l-356 -20v376q-131 -221 -287 -307q-168 -78 -377 -78q-274 0 -528 238q-123 115 -201 303q-77 189 -77 438v111t20 164q16 119 61 233q99 242 295 406
q197 164 463 164q348 0 582 -295zM1487 1311q0 168 -49 303q-54 131 -172 131q-99 0 -127 -82l-21 -107l-8 -147v-713q0 -454 98 -503l29 -9l29 -8q98 0 159 135q62 135 62 336v664z" />
    <glyph glyph-name="e" unicode="e" horiz-adv-x="2503" 
d="M1090 1569v-631h352v639q0 156 -25 238q-28 81 -160 81q-167 0 -167 -327zM1090 840q0 -336 40 -496q41 -160 213 -233q74 -25 185 -37q188 0 401 119q213 114 361 319l69 -57l-118 -152q-50 -61 -185 -164q-94 -69 -295 -135q-205 -70 -442 -70q-631 0 -934 275
q-160 135 -242 319q-86 185 -86 414q0 148 29 270q25 119 102 250q136 242 406 385q270 144 639 144q332 0 602 -140q270 -143 422 -413q70 -127 110 -279q41 -151 41 -319h-1318z" />
    <glyph glyph-name="f" unicode="f" horiz-adv-x="1593" 
d="M270 1966v94t13 115q8 66 45 184q73 234 282 410t549 176q230 0 373 -119q70 -53 102 -131q29 -82 29 -184q0 -135 -102 -225q-99 -74 -234 -86q-278 24 -328 294q0 148 152 250q49 13 49 41q0 25 -57 25q-90 0 -201 -70q-111 -61 -127 -274q0 -131 37 -213
q33 -82 119 -152q86 -61 196 -98q107 -41 250 -41l70 4v-119h-246v-1753h229v-94h-1429v94h221v1753h-221v119h229z" />
    <glyph glyph-name="g" unicode="g" horiz-adv-x="2503" 
d="M1569 1966q90 188 229 295q139 115 316 115q122 0 229 -74q90 -78 90 -205q0 -86 -49 -147q-53 -66 -168 -78q-98 0 -180 37q-62 41 -82 147l12 66l8 53q0 20 -37 33q-49 0 -135 -82q-90 -86 -114 -172q593 -168 593 -602q0 -320 -286 -455q-291 -135 -676 -135h-557
q-103 0 -135 -12q-33 -17 -33 -95v-8q0 -119 405 -119l594 -8q303 0 496 -74q188 -77 287 -360q24 -111 24 -188q0 -299 -246 -545q-118 -119 -339 -189q-222 -69 -529 -69q-401 0 -627 45q-249 37 -397 139q-151 103 -176 258q0 103 131 172q139 66 344 66l8 8
q-467 160 -467 496q0 475 545 528l8 8q-233 74 -376 234q-58 69 -103 159q-16 45 -24 86q-9 37 -9 90q0 156 86 271q82 114 250 196q336 140 705 140q188 0 385 -25zM1409 1049v581q0 123 -37 201q-41 74 -155 74q-185 0 -185 -275v-590q0 -209 209 -209q168 0 168 218z
M2064 -528l9 65q0 74 -62 103q-65 24 -151 36q-91 13 -230 13h-270q-201 0 -369 12t-311 41q-12 -8 -25 -16q-16 -13 -49 -45l-28 -54q-25 -49 -25 -106q0 -185 192 -238q189 -57 431 -57q344 0 598 65q249 62 290 181z" />
    <glyph glyph-name="h" unicode="h" horiz-adv-x="2961" 
d="M1266 1602q123 200 319 294q197 95 397 95q107 0 218 -25q233 -49 340 -237q106 -193 106 -447v-1188h217v-94h-1343v94h143v1331q0 271 -160 271q-147 0 -196 -242l-29 -213l-12 -192v-955h143v-94h-1360v94h221v2650h-213v95l303 12l381 24l525 29v-1302z" />
    <glyph glyph-name="i" unicode="i" horiz-adv-x="1593" 
d="M279 1839h-213v98l639 37l581 17v-1897h225v-94h-1454v94h222v1745zM233 2576q0 369 558 369q536 0 536 -401q0 -181 -147 -299q-21 -13 -58 -33q-41 -21 -114 -49q-50 -13 -95 -21q-49 -8 -106 -8q-225 0 -410 98q-172 99 -172 303z" />
    <glyph glyph-name="j" unicode="j" horiz-adv-x="1815" 
d="M537 1839h-353v98l516 17l373 16l438 21v-1766q0 -286 -49 -479q-49 -197 -176 -340q-147 -172 -352 -237q-209 -66 -295 -66q-135 0 -229 20q-103 13 -205 70q-205 111 -205 320q0 147 90 241q94 86 205 86l147 -12q62 -12 119 -57q111 -74 111 -226q0 -147 -176 -274
q-4 -12 -4 -29v-16q8 -8 61 -17q156 0 246 119q90 115 90 271q0 168 -86 286q-90 119 -266 148v1806zM1016 2945q237 0 385 -98q143 -99 143 -295q0 -230 -168 -324t-360 -94q-230 0 -410 98q-168 99 -168 295l8 13q0 405 570 405z" />
    <glyph glyph-name="k" unicode="k" 
d="M1151 958l344 299q270 218 320 398v24q0 58 -58 107q-74 53 -237 53h-50v98h1139v-98l-69 8q-91 0 -197 -53q-152 -61 -266 -156l-205 -159l782 -1385h58v-94h-1262v94h168l-401 778l-66 -41v-737h168v-94h-1294v94h192v2650h-192v95h65h53h50l159 4q29 0 66 4
q33 0 94 12l324 16l315 29v-1946z" />
    <glyph glyph-name="l" unicode="l" horiz-adv-x="1593" 
d="M295 94v2650h-238v95q303 0 615 28l614 37v-2810h234v-94h-1454v94h229z" />
    <glyph glyph-name="m" unicode="m" horiz-adv-x="4096" 
d="M1176 1991v-422q299 422 688 422q143 0 225 -21q98 -16 180 -78q148 -102 205 -307q270 406 725 406q176 0 311 -54q299 -122 299 -696v-1147h221v-94h-1294v94h119v1241v107q0 246 -127 246q-37 0 -74 -25l-69 -82q-66 -123 -66 -295v-1192h123v-94h-1200v94h127v1290
v46q0 163 -21 204q-12 54 -106 54q-86 0 -152 -107l-49 -115l-16 -139v-1233h110v-94h-1286v94h221v1745h-221v98q41 0 172 8.5t221 8.5q230 0 414 12q180 12 320 25z" />
    <glyph glyph-name="n" unicode="n" horiz-adv-x="2961" 
d="M270 94v1745h-213v98l590 29l619 16v-380q114 180 307 286q86 45 192 74q103 29 209 29q111 0 291 -37q193 -49 287 -246q41 -90 65 -201q25 -114 25 -250v-1163h221v-94h-1343v94h143v1290v78q0 234 -143 234q-95 0 -152 -58q-45 -53 -74 -143q-12 -49 -20 -86t-8 -82
v-1233h143v-94h-1360v94h221z" />
    <glyph glyph-name="o" unicode="o" 
d="M1393 1991q614 0 929 -316q304 -295 304 -700q0 -377 -287 -709t-955 -332q-675 0 -978 291q-144 148 -234 340q-90 189 -90 402q0 118 24 237q25 115 91 234q122 233 409 393q283 160 713 160h74zM1544 1577q0 172 -37 245.5t-155 73.5q-103 0 -164 -73
q-45 -78 -45 -246v-1282q0 -148 57 -205q57 -49 152 -49q118 0 155 53q37 49 37 201v1282z" />
    <glyph glyph-name="p" unicode="p" 
d="M25 -905v106h217v2638h-217v98l192 5l352 16l590 24v-364l94 123q54 74 115 119q57 45 180 98q123 41 250 41q246 0 438 -135q189 -135 299 -373q107 -238 107 -483q0 -217 -49 -394q-53 -180 -164 -348q-229 -332 -631 -332q-192 0 -328 74q-114 70 -253 234v-1041h303
v-106h-1495zM1593 1401q0 188 -28 262q-25 82 -123 82q-103 0 -164 -127q-61 -131 -61 -291v-704q0 -156 57 -295q53 -144 176 -144q143 0 143 394v823z" />
    <glyph glyph-name="q" unicode="q" 
d="M1536 1618v373q98 0 254 -4q152 -9 254 -13l643 -37v-98h-221v-2638h221v-106h-1503v106h303v1032q-98 -151 -262 -221q-168 -69 -385 -69q-353 0 -561 319q-213 316 -213 705q0 258 98 495q98 238 291 389q188 148 442 148q176 0 270 -45q111 -37 172 -99
q54 -40 119 -131zM1487 1303q0 442 -230 442q-98 0 -122 -82q-25 -86 -25 -262v-778l-4 -29q0 -410 135 -410q131 0 193 140l32 127q13 65 17 93.5t4 94.5v664z" />
    <glyph glyph-name="r" unicode="r" horiz-adv-x="2503" 
d="M270 1839h-213v98l1184 54v-414q53 86 127 164q70 78 156 131q168 102 405 102q234 0 389 -151q123 -123 123 -361q0 -172 -155 -299q-66 -53 -152 -94q-86 -29 -172 -29q-221 0 -344 123t-123 340l12 115l21 70q-12 24 -41 24q-33 0 -82 -65q-53 -70 -86 -160
q-37 -94 -37 -438v-955h295v-94h-1520v94h213v1745z" />
    <glyph glyph-name="s" unicode="s" horiz-adv-x="2048" 
d="M1425 1872l320 127h94l25 -705h-95q-98 213 -245 348q-148 132 -312 193q-163 61 -282 61q-225 0 -225 -184q0 -74 61 -123q57 -53 192 -102l443 -160q237 -86 397 -274q156 -189 156 -430q0 -332 -225 -521q-54 -41 -140 -82q-20 -8 -90 -28q-69 -21 -98 -29l-164 -20
q-70 0 -86 -9h-102l-78 17q-94 12 -217 61l-185 62l-336 -140h-114l-25 754h74q147 -307 414 -471q114 -70 262 -131q127 -45 229 -45q53 0 70 -8q258 0 258 176q0 147 -242 237l-360 123q-172 62 -332 148q-139 82 -254 221q-94 127 -119 344q0 127 21 209q16 78 69 168
q107 160 287 246t385 86q123 0 262 -29q74 -12 148 -33q69 -20 159 -57z" />
    <glyph glyph-name="t" unicode="t" horiz-adv-x="1815" 
d="M8 1839v98q311 0 615 172q303 168 553 553h81v-725h463v-98h-463v-1446q0 -119 25 -164q21 -45 102 -45q222 25 295 496h90q0 -320 -172 -504q-176 -188 -516 -225l-233 -8q-307 0 -422 90q-94 69 -143 209l-25 143l-8 193v1261h-242z" />
    <glyph glyph-name="u" unicode="u" horiz-adv-x="2961" 
d="M270 1839h-213v98l504 17l705 37v-1545q0 -163 32 -196q29 -33 119 -33q123 0 184.5 123t61.5 299v1200h-221v98l348 9l410 16l442 20v-1888h229v-94l-340 -12l-340 -13l-495 -32v385q-144 -213 -365 -316q-90 -32 -209 -53l-282 -16q-308 0 -443 209q-127 217 -127 544
v1143z" />
    <glyph glyph-name="v" unicode="v" 
d="M1520 1839h-263l558 -1225l376 848q50 123 50 185q0 57 -25 98q-29 37 -66 61q-36 25 -102 33h-66v98h721v-98q-135 0 -217 -86q-86 -90 -151 -242l-656 -1511h-630l-840 1839h-217v98h1528v-98z" />
    <glyph glyph-name="w" unicode="w" horiz-adv-x="4096" 
d="M1417 1839h-135l516 -1294l184 479l-303 815h-176v98h1393v-98h-234l492 -1261l356 917l25 111l16 106q0 127 -135 127h-49v98h635v-98q-156 0 -230 -86q-65 -90 -147 -291l-561 -1462h-680l-336 864l-336 -864h-713l-729 1839h-204v98h1351v-98z" />
    <glyph glyph-name="x" unicode="x" 
d="M1343 1839l386 -557l245 229q74 74 74 152q0 176 -209 176h-61v98h934v-98h-33q-94 4 -180 -49l-242 -188l-459 -410l778 -1098h136v-94h-1471v94h168l-442 635l-230 -242q-110 -90 -131 -200q33 -123 148 -160l118 -25l160 -8v-94h-1040v94q151 58 270 123
q119 62 307 254l336 336l-721 1032h-192v98h1552v-98h-201z" />
    <glyph glyph-name="y" unicode="y" horiz-adv-x="2961" 
d="M1962 905l336 557q65 131 78 201v49q-49 127 -201 127h-33v98h713v-98q-201 0 -381 -328l-946 -1585q-213 -364 -434 -594q-226 -229 -533 -229q-196 0 -332 123q-139 123 -163 319q24 148 122 267q103 102 267 102q159 -20 274 -102q111 -82 111 -238v-70
q-13 -73 -86 -135q-74 -61 -90 -98q12 -21 57 -33q131 0 328 184q94 103 376 545l-1146 1872h-222v98h1565v-98h-238z" />
    <glyph glyph-name="z" unicode="z" horiz-adv-x="2503" 
d="M1217 1798h-99q-176 0 -336 -82q-159 -74 -270 -221t-184 -336h-86l16 737h2101v-98l-1126 -1741q94 0 119 -8q336 0 557 156q217 151 356 524h111l-49 -770h-2241v98z" />
    <glyph glyph-name="braceleft" unicode="{" horiz-adv-x="1593" 
d="M856 991q217 -49 279 -209q57 -164 57 -413v-799q0 -201 74 -307q69 -111 237 -160h-110q-590 0 -799 123q-102 65 -143 155.5t-41 282.5v782q0 259 -58 369q-49 111 -258 168q316 82 316 487v848q0 271 77 385q78 115 304 156l299 33l413 12v-16q-180 -37 -254 -172
q-57 -127 -57 -308v-864q0 -135 -12.5 -213t-53.5 -160q-57 -122 -270 -180z" />
    <glyph glyph-name="bar" unicode="|" horiz-adv-x="1135" 
d="M328 2904h479v-2904h-488z" />
    <glyph glyph-name="braceright" unicode="}" horiz-adv-x="1593" 
d="M737 983q-143 37 -225 123q-61 78 -94 213l-17 303v786q0 197 -61 308q-66 110 -246 172l-8 8h172q291 0 475 -25q185 -24 275 -82q176 -102 176 -454v-791q0 -250 53 -364q49 -119 258 -189q-197 -53 -254 -155.5t-57 -323.5v-848q0 -217 -58 -307q-49 -98 -213 -172
q-90 -33 -303 -62q-217 -28 -524 -28q315 98 315 487v844q0 291 82 397q82 107 254 160z" />
    <glyph glyph-name="asciitilde" unicode="~" horiz-adv-x="2458" 
d="M2265 1176q-233 -406 -471 -471l-57 -9l-74 -8q-184 0 -463 135q-282 135 -385 135q-110 0 -160 -53q-53 -53 -200 -282l-254 307q258 504 606 504h82q86 0 426 -148q270 -115 373 -115q20 0 32 5q111 36 279 294z" />
    <glyph glyph-name="quotesinglbase" unicode="&#x201a;" horiz-adv-x="3408" 
 />
    <glyph glyph-name="florin" unicode="&#x192;" horiz-adv-x="3408" 
 />
    <glyph glyph-name="quotedblbase" unicode="&#x201e;" horiz-adv-x="3408" 
 />
    <glyph glyph-name="ellipsis" unicode="&#x2026;" horiz-adv-x="3408" 
 />
    <glyph glyph-name="dagger" unicode="&#x2020;" horiz-adv-x="2961" 
d="M1360 -41q-406 49 -709 270q-139 107 -245 238q-91 123 -181 291q-139 327 -139 696q0 344 168 668q164 323 496 549q176 114 368 176q189 57 418 57q123 0 168 -4q45 -8 131 -29l180 -45l139 -49l156 -57q33 0 115 37l246 147h106v-1008h-131q-66 222 -188.5 406
t-298.5 303q-86 57 -160 86q-78 29 -168 29q-258 0 -344 -238q-78 -258 -78 -577v-992q0 -401 123 -585q119 -185 356 -185q320 0 529 209t286 598h127q-49 -528 -426 -782q-168 -115 -389 -172q-225 -62 -471 -62l-90 -192q74 16 115 20h65q111 0 205 -49q143 -86 143 -241
q0 -144 -151 -258q-152 -119 -414 -119q-172 0 -434 65l74 185q143 -50 254 -50q200 0 200 119q0 160 -151 176l-103 -28l-65 28z" />
    <glyph glyph-name="daggerdbl" unicode="&#x2021;" horiz-adv-x="3408" 
 />
    <glyph glyph-name="circumflex" unicode="&#x2c6;" horiz-adv-x="2961" 
d="M319 2728h-294v111h2744l24 -992h-139q-135 516 -446 754q-94 74 -189 94q-98 17 -200.5 25t-249.5 8v-1241q106 0 205 37q94 37 163 131q78 94 115 200q37 103 37 193h135v-1257h-135q0 163 -49 274q-53 111 -152 197q-131 118 -262 118l-57 -4v-1265q135 0 160 -9
q221 0 339 50q119 45 283 208q197 234 352 721h127l-20 -1081h-2785v111h294v2617zM1040 3809q136 0 222 -98q32 -41 61 -98q29 -62 29 -131q0 -111 -90 -213q-91 -107 -222 -107t-225 90q-82 90 -102 221q0 119 86 230q86 106 225 106h16zM1933 3809q148 0 234 -98
q86 -102 86 -229t-90 -222q-90 -98 -213 -98q-135 0 -242 98q-94 103 -94 230q0 110 90 217q90 102 229 102z" />
    <glyph glyph-name="perthousand" unicode="&#x2030;" horiz-adv-x="2961" 
 />
    <glyph glyph-name="Scaron" unicode="&#x160;" horiz-adv-x="2048" 
d="M393 2728h-311v111h1892v-111h-311v-2617h303v-111h-1884v111h311v2617zM594 3801q135 0 221 -98q33 -41 62 -99q28 -61 28 -131q0 -110 -90 -213q-90 -106 -221 -106t-225 90q-82 90 -103 221q0 119 86 230q86 106 226 106h16zM1487 3801q147 0 233 -98q86 -103 86 -230
t-90 -221q-90 -98 -213 -98q-135 0 -241 98q-95 103 -95 230q0 110 90 217q91 102 230 102z" />
    <glyph glyph-name="guilsinglleft" unicode="&#x2039;" horiz-adv-x="2048" 
d="M393 2728h-311v111h1892v-111h-311v-2617h303v-111h-1884v111h311v2617zM1032 3441l-430 -385h-332l500 745h512l496 -745h-324z" />
    <glyph glyph-name="OE" unicode="&#x152;" horiz-adv-x="3408" 
 />
    <glyph glyph-name="quoteleft" unicode="&#x2018;" horiz-adv-x="1360" 
d="M242 2089q0 -37 20 -49q45 12 90 57q107 86 344 86q246 0 426 -119q90 -53 144 -143q53 -94 53 -209q0 -168 -98 -278q-103 -115 -267 -164l-147 -25l-176 -4q-254 25 -422 209q-70 82 -119 205q-16 49 -29 114q-12 66 -12 127l4 119l29 99q86 352 389 544
q303 189 655 246l17 -102q-361 -86 -631 -258q-270 -177 -270 -455z" />
    <glyph glyph-name="quoteright" unicode="&#x2019;" horiz-adv-x="1360" 
d="M1110 2097l-78 -45l-139 -70q-102 -28 -197 -28q-307 0 -475 127q-82 69 -131 151q-41 82 -41 185l8 32q0 234 193 353q176 94 438 94q238 0 406 -139q168 -144 209 -373l12 -160q0 -184 -86 -369q-111 -229 -369 -393q-262 -164 -610 -221l-17 102q480 111 685 312
q200 196 200 368l-4 45z" />
    <glyph glyph-name="quotedblleft" unicode="&#x201c;" horiz-adv-x="2961" 
d="M303 2048q4 -4 8 -4q17 0 58 33q49 37 147 73q45 17 98 25q54 8 131 8q242 0 451 -135q176 -115 176 -332l-4 -53q-25 -209 -188 -320q-37 -24 -70 -40q-37 -17 -115 -41q-53 -13 -102 -21t-111 -8l-176 24q-192 25 -348 193t-156 438l9 94l8 74q33 189 127 324t237 246
q131 94 324 176q180 69 377 102l16 -111q-180 -36 -323 -90q-148 -57 -295 -151q-271 -172 -295 -455l12 -37zM1794 2048q4 -4 8 -4q17 0 58 29q49 36 135 73t229 37q176 0 307 -57q140 -49 238 -172q45 -58 61 -127l17 -164q0 -197 -181 -315q-77 -54 -180 -86
q-53 -13 -106 -21t-115 -8l-176 24q-209 37 -356 205q-148 164 -148 443l17 151q36 221 188 402q147 176 385 295q221 102 487 151l17 -102q-438 -111 -668 -283q-233 -176 -233 -414l8 -32z" />
    <glyph glyph-name="quotedblright" unicode="&#x201d;" horiz-adv-x="2961" 
d="M2687 2056l-45 -20q-12 -4 -25 -13q-16 -8 -53 -32q-123 -78 -323 -78l-160 16q-205 25 -348 172q-115 140 -115 291l4 49q25 209 192.5 315.5t401.5 106.5q328 0 516 -237q152 -197 152 -455v-66l-5 -41q-36 -352 -344 -573q-311 -221 -720 -291l-21 103q381 98 606 249
q152 103 226 234q69 127 69 213l-4 45zM1200 2056h-8q-25 0 -74 -33l-114 -69l-111 -37l-131 -4l-94 8l-74 8q-229 25 -356 176q-107 131 -107 291l4 53q0 185 176 299q90 58 185 86q94 29 217 29q176 0 331 -78q156 -69 254 -217q95 -147 95 -344q0 -405 -303 -676
q-308 -274 -762 -348l-25 103q332 73 614.5 245t282.5 459v49z" />
    <glyph glyph-name="bullet" unicode="&#x2022;" horiz-adv-x="2048" 
d="M328 1417q0 307 217 500q213 188 463 188q106 0 188 -20.5t168 -73.5q168 -86 258 -254t90 -332q0 -295 -201 -495q-98 -99 -217 -148q-118 -53 -270 -53q-127 0 -233 41q-111 37 -234 139q-229 197 -229 508z" />
    <glyph glyph-name="endash" unicode="&#x2013;" horiz-adv-x="2048" 
d="M0 1294h2048v-622h-2048v622z" />
    <glyph glyph-name="emdash" unicode="&#x2014;" horiz-adv-x="4096" 
d="M0 1294h1896h2200v-622h-1905h-2191v622z" />
    <glyph glyph-name="tilde" unicode="&#x2dc;" horiz-adv-x="3183" 
 />
    <glyph glyph-name="trademark" unicode="&#x2122;" horiz-adv-x="3183" 
 />
    <glyph glyph-name="scaron" unicode="&#x161;" horiz-adv-x="3183" 
d="M352 2728h-327v111h1904v-111h-344v-2048q0 -70 -8 -94q0 -185 127 -324q45 -49 164 -82q94 -16 168 -16q69 -4 139 -4q152 0 250 73q98 70 147 197q90 270 90 451v1470q0 377 -278 377h-86v111h848v-111h-107q-139 0 -192 -127q-37 -123 -37 -328v-1417
q0 -438 -258 -680q-262 -242 -967 -242l-250 13q-53 4 -118 16q-70 12 -136 29q-237 49 -376 110q-353 205 -353 672v1954zM1163 3809q135 0 221 -98q33 -41 62 -98q29 -62 29 -131q0 -111 -91 -213q-90 -107 -221 -107t-225 90q-82 90 -102 221q0 119 86 230
q86 106 225 106h16zM2056 3809q148 0 234 -98q86 -102 86 -229t-90 -222q-91 -98 -213 -98q-136 0 -242 98q-94 103 -94 230q0 110 90 217q90 102 229 102z" />
    <glyph glyph-name="guilsinglright" unicode="&#x203a;" horiz-adv-x="3183" 
d="M352 2728h-327v111h1904v-111h-344v-2048q0 -70 -8 -94q0 -185 127 -324q45 -49 164 -82q94 -16 168 -16q69 -4 139 -4q152 0 250 73q98 70 147 197q90 270 90 451v1470q0 377 -278 377h-86v111h848v-111h-107q-139 0 -192 -127q-37 -123 -37 -328v-1417
q0 -438 -258 -680q-262 -242 -967 -242l-250 13q-53 4 -118 16q-70 12 -136 29q-237 49 -376 110q-353 205 -353 672v1954zM1733 3461l-430 -385h-332l499 746h512l496 -746h-324z" />
    <glyph glyph-name="oe" unicode="&#x153;" horiz-adv-x="3183" 
 />
    <glyph glyph-name="Ydieresis" unicode="&#x178;" 
 />
    <glyph glyph-name="nonbreakingspace" unicode="&#xa0;" horiz-adv-x="2048" 
 />
    <glyph glyph-name="exclamdown" unicode="&#xa1;" horiz-adv-x="3408" 
d="M385 438l881 2392h856l1007 -2728h222v-110h-1815v110h295l-295 840h-823q-13 -70 -111 -307.5t-98 -315.5q12 -122 82 -167q65 -50 229 -50v-110h-790v110q139 0 225 86q74 86 135 250zM1495 1049l-377 1048l-364 -1048h741zM1581 3097q-250 49 -369 147
q-94 102 -94 107q-69 98 -69 204v127q0 58 8 78h237q0 -49 9 -94q4 -45 57 -74q53 -28 151 -45q95 -20 222 -20q282 0 368 28q86 25 111 82q24 86 41 140l241 -5q0 -110 -12 -208q-12 -103 -41 -181q-65 -98 -205 -184q-139 -86 -217 -98q-82 -13 -127 -17q-49 -8 -114 -8
q-74 0 -197 21z" />
    <glyph glyph-name="cent" unicode="&#xa2;" horiz-adv-x="3408" 
d="M385 438l881 2392h856l1007 -2728h222v-110h-1815v110h295l-295 840h-823q-13 -70 -111 -307.5t-98 -315.5q12 -122 82 -167q65 -50 229 -50v-110h-790v110q139 0 225 86q74 86 135 250zM1495 1049l-377 1048l-364 -1048h741zM1712 3441l-430 -385h-332l500 745h512
l590 -733l-418 -12z" />
    <glyph glyph-name="sterling" unicode="&#xa3;" horiz-adv-x="2961" 
d="M319 2728h-294v111h2744l24 -992h-139q-135 516 -446 754q-94 74 -189 94q-98 17 -200.5 25t-249.5 8v-1241q106 0 205 37q94 37 163 131q78 94 115 200q37 103 37 193h135v-1257h-135q0 163 -49 274q-53 111 -152 197q-131 118 -262 118l-57 -4v-1265q135 0 160 -9
q221 0 339 50q119 45 283 208q197 234 352 721h127l-20 -1081h-2785v111h294v2617zM1479 3441l-430 -385h-332l500 745h512l593 -733l-421 -12z" />
    <glyph glyph-name="currency" unicode="&#xa4;" horiz-adv-x="3408" 
d="M1761 2863q131 0 237.5 -12t217.5 -41q106 -29 208.5 -70t201.5 -102q360 -205 540 -537q90 -155 144 -332q49 -180 49 -376q0 -394 -185 -729q-188 -336 -569 -558q-172 -90 -401 -155q-226 -53 -459 -53q-451 0 -811 196q-365 197 -582 561q-217 361 -217 770
q0 385 221 717q217 332 590 533q168 90 381 143q90 21 200.5 33t233.5 12zM2023 2232q0 291 -69 406q-74 115 -209 115q-275 0 -275 -488v-1937q0 -168 82 -242q82 -78 193 -78q278 0 278 320v1904zM1704 3432l-430 -385l-500 -8l668 754h512l569 -754l-397 8z" />
    <glyph glyph-name="yen" unicode="&#xa5;" horiz-adv-x="3465" 
d="M2023 2232q0 291 -69 406q-74 115 -209 115q-275 0 -275 -488v-1937q0 -168 82 -242q82 -78 193 -78q278 0 278 320v1904zM2826 2494q90 -73 189 -184q98 -110 151 -209q90 -155 144 -332q49 -180 49 -376q0 -394 -185 -729q-188 -336 -569 -558q-172 -90 -401 -155
q-226 -53 -459 -53q-451 0 -811 196q-365 197 -582 561q-217 361 -217 770q0 385 221 717q217 332 590 533q168 90 381 143q90 21 200.5 33t233.5 12q242 0 480 -74q233 -73 401 -209l-37 74l-61 144l-13 94q0 110 86 221q49 61 115 94q66 29 139 29h17q151 0 258 -119
q94 -102 94 -246l-12 -73q-13 -62 -33 -91q-12 -28 -86 -102q-41 -41 -103 -65z" />
    <glyph glyph-name="brokenbar" unicode="&#xa6;" horiz-adv-x="3183" 
d="M2761 2839q-86 98 -111 249q0 131 103 258q49 62 114 95q66 28 139 28h17q151 0 258 -118q82 -82 82 -226l-8 -65q-17 -78 -37 -119l-62 -78q-32 -45 -90 -82l-119 -53q-49 -16 -106 -82q-62 -70 -90 -143l-25 -123l-4 -144v-65l4 -45v-1266q0 -229 -69 -393
q-70 -168 -205 -299q-258 -234 -967 -234l-250 13q-53 4 -118 16q-70 12 -136 29q-237 49 -376 110q-353 205 -353 672v1954h-327v111h1904v-111h-344v-2048q0 -70 -8 -94q0 -185 127 -324q45 -49 164 -82q94 -16 168 -16q69 -4 139 -4q152 0 250 73q98 70 147 197
q90 270 90 451v1470q0 377 -278 377h-86v111l205 -9l143 -4h86z" />
    <glyph glyph-name="section" unicode="&#xa7;" horiz-adv-x="3408" 
d="M33 2839h1773q172 0 332 -25q156 -25 336 -86q344 -111 594 -434q246 -324 246 -869q0 -389 -103 -655q-106 -270 -340 -442q-450 -328 -1056 -328h-1790v111h294v1343h-278l29 410h245l4 864h-286v111zM1561 111h57l123 4q74 0 114 12q37 12 58 41q86 111 86 504v1618
v16q0 254 -119 356q-37 37 -102 54q-66 12 -217 12l-13 -864h344l-28 -410h-303v-1343z" />
    <glyph glyph-name="dieresis" unicode="&#xa8;" 
d="M2441 1450v-1114q0 -98 70 -111q86 13 168 119v-143q-209 -258 -672 -258q-356 0 -496 274q-127 -135 -315 -213q-184 -70 -434 -70q-225 0 -393 74t-242 217q-29 62 -53 213q0 406 364 533q185 61 406 94t483 33h152v512q0 123 -13 164q-12 41 -57 73q-33 33 -176 33
q-115 0 -152 -49l17 -29l45 -45q61 -57 74 -102l16 -111q0 -98 -45 -151q-45 -58 -131 -103l-185 -45l-159 -20q-414 0 -463 254l-17 82q0 217 279 327q295 103 848 103h86q37 0 90 -9l266 -28q197 -21 348 -82q291 -111 291 -422zM1479 528v471h-160q-209 0 -209 -319v-217
q0 -254 147 -287l46 8q176 0 176 344zM659 2879h193q12 -114 127 -172q111 -61 364 -61q283 0 381 33q172 49 222 213h159q0 -205 -41 -324q-45 -123 -184 -229q-94 -70 -213 -107q-57 -12 -123 -20q-69 -8 -160 -8q-204 0 -348 37q-78 16 -118 49q-46 28 -103 94
q-41 45 -74 106q-16 33 -32 78q-21 41 -29 135q-12 90 -21 176z" />
    <glyph glyph-name="copyright" unicode="&#xa9;" 
d="M2441 1450v-1114q0 -98 70 -111q86 13 168 119v-143q-209 -258 -672 -258q-356 0 -496 274q-127 -135 -315 -213q-184 -70 -434 -70q-225 0 -393 74t-242 217q-29 62 -53 213q0 406 364 533q185 61 406 94t483 33h152v512q0 123 -13 164q-12 41 -57 73q-33 33 -176 33
q-115 0 -152 -49l17 -29l45 -45q61 -57 74 -102l16 -111q0 -98 -45 -151q-45 -58 -131 -103l-185 -45l-159 -20q-414 0 -463 254l-17 82q0 217 279 327q295 103 848 103h86q37 0 90 -9l266 -28q197 -21 348 -82q291 -111 291 -422zM1479 528v471h-160q-209 0 -209 -319v-217
q0 -254 147 -287l46 8q176 0 176 344zM1376 2544l-430 -385h-332l500 745h512l496 -745h-324z" />
    <glyph glyph-name="ordfeminine" unicode="&#xaa;" horiz-adv-x="2503" 
d="M1090 1569v-631h352v639q0 156 -25 238q-28 81 -160 81q-167 0 -167 -327zM1090 840q0 -336 40 -496q41 -160 213 -233q74 -25 185 -37q188 0 401 119q213 114 361 319l69 -57l-118 -152q-50 -61 -185 -164q-94 -69 -295 -135q-205 -70 -442 -70q-631 0 -934 275
q-160 135 -242 319q-86 185 -86 414q0 148 29 270q25 119 102 250q136 242 406 385q270 144 639 144q332 0 602 -140q270 -143 422 -413q70 -127 110 -279q41 -151 41 -319h-1318zM1266 2544l-430 -385h-332l500 745h512l495 -745h-323z" />
    <glyph glyph-name="guillemotleft" unicode="&#xab;" 
d="M1393 1991q614 0 929 -316q304 -295 304 -700q0 -377 -287 -709t-955 -332q-675 0 -978 291q-144 148 -234 340q-90 189 -90 402q0 118 24 237q25 115 91 234q122 233 409 393q283 160 713 160h74zM1544 1577q0 172 -37 245.5t-155 73.5q-103 0 -164 -73
q-45 -78 -45 -246v-1282q0 -148 57 -205q57 -49 152 -49q118 0 155 53q37 49 37 201v1282zM1376 2544l-430 -385h-332l500 745h512l496 -745h-324z" />
    <glyph glyph-name="logicalnot" unicode="&#xac;" 
d="M1544 1577q0 172 -37 245.5t-155 73.5q-103 0 -164 -73q-45 -78 -45 -246v-1282q0 -148 57 -205q57 -49 152 -49q118 0 155 53q37 49 37 201v1282zM2019 1860q-86 98 -98 217q0 118 86 229q86 107 225 107h17q135 0 225 -99q86 -102 86 -229q0 -115 -90 -230
q-33 -40 -98 -65q-45 -12 -66 -16q-20 -5 -70 -5v-24l58 -45q164 -156 250 -340q82 -184 82 -385q0 -377 -287 -709t-955 -332q-675 0 -978 291q-144 148 -234 340q-90 189 -90 402q0 118 24 237q25 115 91 234q122 233 409 393q283 160 713 160h74q225 0 360 -25
q135 -29 266 -106z" />
    <glyph glyph-name="minus" unicode="&#xad;" horiz-adv-x="2961" 
d="M2544 1978q-86 86 -99 205q0 119 86 230q86 106 226 106h16q135 0 221 -98q33 -41 62 -99q28 -61 28 -131q0 -106 -86 -217q-28 -28 -123 -69l-94 -37q-37 -13 -86 -103q-53 -90 -53 -168v-1503h229v-94l-340 -12l-340 -13l-495 -32v385q-144 -213 -365 -316
q-90 -32 -209 -53l-282 -16q-308 0 -443 209q-127 217 -127 544v1143h-213v98l504 17l705 37v-1545q0 -163 32 -196q29 -33 119 -33q123 0 184.5 123t61.5 299v1200h-221v98l348 9l410 16h69h176z" />
    <glyph glyph-name="registered" unicode="&#xae;" 
d="M1487 1696v676h-676v147h676v209h-332l-4 111h78h65h58h49q82 0 159.5 4t151.5 16l365 25l389 20l4 -385h246v-147h-246l-4 -2278h221v-94l-430 -12l-365 -25l-356 -20v376q-131 -221 -287 -307q-168 -78 -377 -78q-274 0 -528 238q-123 115 -201 303q-77 189 -77 438
v111t20 164q16 119 61 233q99 242 295 406q197 164 463 164q348 0 582 -295zM1487 1311q0 168 -49 303q-54 131 -172 131q-99 0 -127 -82l-21 -107l-8 -147v-713q0 -454 98 -503l29 -9l29 -8q98 0 159 135q62 135 62 336v664z" />
    <glyph glyph-name="macron" unicode="&#xaf;" 
 />
    <glyph glyph-name="degree" unicode="&#xb0;" 
 />
    <glyph glyph-name="plusminus" unicode="&#xb1;" 
 />
    <glyph glyph-name="twosuperior" unicode="&#xb2;" 
 />
    <glyph glyph-name="threesuperior" unicode="&#xb3;" 
 />
    <glyph glyph-name="acute" unicode="&#xb4;" 
 />
    <glyph glyph-name="mu" unicode="&#xb5;" 
d="M2441 1450v-1114q0 -98 70 -111q86 13 168 119v-143q-209 -258 -672 -258q-356 0 -496 274q-127 -135 -315 -213q-184 -70 -434 -70q-225 0 -393 74t-242 217q-29 62 -53 213q0 406 364 533q185 61 406 94t483 33h152v512q0 123 -13 164q-12 41 -57 73q-33 33 -176 33
q-115 0 -152 -49l17 -29l45 -45q61 -57 74 -102l16 -111q0 -98 -45 -151q-45 -58 -131 -103l-185 -45l-159 -20q-414 0 -463 254l-17 82q0 217 279 327q295 103 848 103h86q37 0 90 -9l266 -28q197 -21 348 -82q291 -111 291 -422zM1479 528v471h-160q-209 0 -209 -319v-217
q0 -254 147 -287l46 8q176 0 176 344zM938 2982q25 106 147 151q41 13 123 21q103 0 193 -70q69 -53 172 -188l377 -602h-201l-487 291q-50 32 -78 49q-62 37 -148 78q-41 20 -69 53q-41 49 -41 127q0 41 12 90z" />
    <glyph glyph-name="paragraph" unicode="&#xb6;" 
d="M2441 1450v-1114q0 -98 70 -111q86 13 168 119v-143q-209 -258 -672 -258q-356 0 -496 274q-127 -135 -315 -213q-184 -70 -434 -70q-225 0 -393 74t-242 217q-29 62 -53 213q0 406 364 533q185 61 406 94t483 33h152v512q0 123 -13 164q-12 41 -57 73q-33 33 -176 33
q-115 0 -152 -49l17 -29l45 -45q61 -57 74 -102l16 -111q0 -98 -45 -151q-45 -58 -131 -103l-185 -45l-159 -20q-414 0 -463 254l-17 82q0 217 279 327q295 103 848 103h86q37 0 90 -9l266 -28q197 -21 348 -82q291 -111 291 -422zM1479 528v471h-160q-209 0 -209 -319v-217
q0 -254 147 -287l46 8q176 0 176 344zM2007 2937q0 -74 -12 -127q-17 -53 -70 -98q-53 -50 -180 -111l-143 -61q-74 -25 -123 -82q-45 -50 -45 -127q0 -21 4 -41h-78v53q0 57 24 131l74 192q17 46 33 115q16 70 16 111q0 123 -57 205q-61 81 -176 81l-86 -12
q-29 -12 -41 -33l49 -12q111 0 156 -65q45 -70 45 -152t-62 -135q-61 -57 -180 -78q-94 0 -188 62q-86 69 -86 180l16 86q25 102 184 176l107 41q123 41 205 41q94 0 225 -21q131 -24 213 -73q78 -50 127 -123q49 -78 49 -123z" />
    <glyph glyph-name="periodcentered" unicode="&#xb7;" 
d="M2441 1450v-1114q0 -98 70 -111q86 13 168 119v-143q-209 -258 -672 -258q-356 0 -496 274q-127 -135 -315 -213q-184 -70 -434 -70q-225 0 -393 74t-242 217q-29 62 -53 213q0 406 364 533q185 61 406 94t483 33h152v512q0 123 -13 164q-12 41 -57 73q-33 33 -176 33
q-115 0 -152 -49l17 -29l45 -45q61 -57 74 -102l16 -111q0 -98 -45 -151q-45 -58 -131 -103l-185 -45l-159 -20q-414 0 -463 254l-17 82q0 217 279 327q295 103 848 103h86q37 0 90 -9l266 -28q197 -21 348 -82q291 -111 291 -422zM1479 528v471h-160q-209 0 -209 -319v-217
q0 -254 147 -287l46 8q176 0 176 344zM1954 2912h229q-98 -528 -438 -581l-107 -17q-69 0 -155 25q-86 20 -111 33q-29 8 -110 49q-201 90 -295 106q-86 0 -144 -57q-37 -49 -57 -139h-213q123 598 496 598q143 0 385 -99q237 -98 327 -110q156 24 193 192z" />
    <glyph glyph-name="cedilla" unicode="&#xb8;" 
d="M2441 1450v-1114q0 -98 70 -111q86 13 168 119v-143q-209 -258 -672 -258q-356 0 -496 274q-127 -135 -315 -213q-184 -70 -434 -70q-225 0 -393 74t-242 217q-29 62 -53 213q0 406 364 533q185 61 406 94t483 33h152v512q0 123 -13 164q-12 41 -57 73q-33 33 -176 33
q-115 0 -152 -49l17 -29l45 -45q61 -57 74 -102l16 -111q0 -98 -45 -151q-45 -58 -131 -103l-185 -45l-159 -20q-414 0 -463 254l-17 82q0 217 279 327q295 103 848 103h86q37 0 90 -9l266 -28q197 -21 348 -82q291 -111 291 -422zM1479 528v471h-160q-209 0 -209 -319v-217
q0 -254 147 -287l46 8q176 0 176 344zM1020 2253l397 540q111 148 127 168q111 123 225 123q54 0 107 -12q53 -16 94 -45q25 -25 53 -86q25 -62 25 -115q0 -49 -20 -73q-21 -37 -33 -54q-45 -61 -156 -131l-520 -311z" />
    <glyph glyph-name="onesuperior" unicode="&#xb9;" 
d="M2441 1450v-1114q0 -98 70 -111q86 13 168 119v-143q-209 -258 -672 -258q-356 0 -496 274q-127 -135 -315 -213q-184 -70 -434 -70q-225 0 -393 74t-242 217q-29 62 -53 213q0 406 364 533q185 61 406 94t483 33h152v512q0 123 -13 164q-12 41 -57 73q-33 33 -176 33
q-115 0 -152 -49l17 -29l45 -45q61 -57 74 -102l16 -111q0 -98 -45 -151q-45 -58 -131 -103l-185 -45l-159 -20q-414 0 -463 254l-17 82q0 217 279 327q295 103 848 103h86q37 0 90 -9l266 -28q197 -21 348 -82q291 -111 291 -422zM1479 528v471h-160q-209 0 -209 -319v-217
q0 -254 147 -287l46 8q176 0 176 344zM1061 -614q0 131 82 229t221 98q131 0 229 -73q99 -78 99 -197q0 -152 -74 -254q-78 -107 -197 -107q-155 0 -258 82q-102 78 -102 222z" />
    <glyph glyph-name="ordmasculine" unicode="&#xba;" 
 />
    <glyph glyph-name="guillemotright" unicode="&#xbb;" 
d="M2441 1450v-1114q0 -98 70 -111q86 13 168 119v-143q-209 -258 -672 -258q-356 0 -496 274q-127 -135 -315 -213q-184 -70 -434 -70q-225 0 -393 74t-242 217q-29 62 -53 213q0 406 364 533q185 61 406 94t483 33h152v512q0 123 -13 164q-12 41 -57 73q-33 33 -176 33
q-115 0 -152 -49l17 -29l45 -45q61 -57 74 -102l16 -111q0 -98 -45 -151q-45 -58 -131 -103l-185 -45l-159 -20q-414 0 -463 254l-17 82q0 217 279 327q295 103 848 103h86q37 0 90 -9l266 -28q197 -21 348 -82q291 -111 291 -422zM1479 528v471h-160q-209 0 -209 -319v-217
q0 -254 147 -287l46 8q176 0 176 344zM881 3871q24 106 147 151q41 13 123 21q102 0 192 -70q70 -53 173 -188l376 -602h-200l-488 290q-49 33 -78 50q-61 36 -147 77q-41 21 -70 54q-41 49 -41 127q0 41 13 90zM659 2879h193q12 -114 127 -172q111 -61 364 -61
q283 0 381 33q172 49 222 213h159q0 -205 -41 -324q-45 -123 -184 -229q-94 -70 -213 -107q-57 -12 -123 -20q-69 -8 -160 -8q-204 0 -348 37q-78 16 -118 49q-46 28 -103 94q-41 45 -74 106q-16 33 -32 78q-21 41 -29 135q-12 90 -21 176z" />
    <glyph glyph-name="onequarter" unicode="&#xbc;" 
d="M2441 1450v-1114q0 -98 70 -111q86 13 168 119v-143q-209 -258 -672 -258q-356 0 -496 274q-127 -135 -315 -213q-184 -70 -434 -70q-225 0 -393 74t-242 217q-29 62 -53 213q0 406 364 533q185 61 406 94t483 33h152v512q0 123 -13 164q-12 41 -57 73q-33 33 -176 33
q-115 0 -152 -49l17 -29l45 -45q61 -57 74 -102l16 -111q0 -98 -45 -151q-45 -58 -131 -103l-185 -45l-159 -20q-414 0 -463 254l-17 82q0 217 279 327q295 103 848 103h86q37 0 90 -9l266 -28q197 -21 348 -82q291 -111 291 -422zM1479 528v471h-160q-209 0 -209 -319v-217
q0 -254 147 -287l46 8q176 0 176 344zM659 2879h193q12 -114 127 -172q111 -61 364 -61q283 0 381 33q172 49 222 213h159q0 -205 -41 -324q-45 -123 -184 -229q-94 -70 -213 -107q-57 -12 -123 -20q-69 -8 -160 -8q-204 0 -348 37q-78 16 -118 49q-46 28 -103 94
q-41 45 -74 106q-16 33 -32 78q-21 41 -29 135q-12 90 -21 176zM2064 3654q0 -74 -12 -127q-16 -54 -70 -99q-53 -49 -180 -110l-143 -62q-74 -24 -123 -82q-45 -49 -45 -127q0 -20 4 -41h-78v54q0 57 25 131l74 192q16 45 32 115q17 70 17 111q0 122 -58 204
q-61 82 -176 82l-86 -12q-28 -12 -41 -33l49 -12q111 0 156 -66q45 -69 45 -151t-61 -135q-62 -58 -181 -78q-94 0 -188 61q-86 70 -86 181l16 86q25 102 185 176l106 41q123 41 205 41q94 0 225 -21q131 -24 213 -74q78 -49 127 -122q49 -78 49 -123z" />
    <glyph glyph-name="onehalf" unicode="&#xbd;" 
d="M2441 1450v-1114q0 -98 70 -111q86 13 168 119v-143q-209 -258 -672 -258q-356 0 -496 274q-127 -135 -315 -213q-184 -70 -434 -70q-225 0 -393 74t-242 217q-29 62 -53 213q0 406 364 533q185 61 406 94t483 33h152v512q0 123 -13 164q-12 41 -57 73q-33 33 -176 33
q-115 0 -152 -49l17 -29l45 -45q61 -57 74 -102l16 -111q0 -98 -45 -151q-45 -58 -131 -103l-185 -45l-159 -20q-414 0 -463 254l-17 82q0 217 279 327q295 103 848 103h86q37 0 90 -9l266 -28q197 -21 348 -82q291 -111 291 -422zM1479 528v471h-160q-209 0 -209 -319v-217
q0 -254 147 -287l46 8q176 0 176 344zM2413 3674h229q-98 -528 -438 -582l-107 -16q-69 0 -155 25q-87 20 -111 32q-29 9 -111 50q-200 90 -295 106q-86 0 -143 -57q-37 -49 -57 -140h-213q123 598 495 598q144 0 385 -98q238 -98 328 -110q156 24 193 192zM659 2879h193
q12 -114 127 -172q111 -61 364 -61q283 0 381 33q172 49 222 213h159q0 -205 -41 -324q-45 -123 -184 -229q-94 -70 -213 -107q-57 -12 -123 -20q-69 -8 -160 -8q-204 0 -348 37q-78 16 -118 49q-46 28 -103 94q-41 45 -74 106q-16 33 -32 78q-21 41 -29 135q-12 90 -21 176
z" />
    <glyph glyph-name="threequarters" unicode="&#xbe;" 
d="M2441 1450v-1114q0 -98 70 -111q86 13 168 119v-143q-209 -258 -672 -258q-356 0 -496 274q-127 -135 -315 -213q-184 -70 -434 -70q-225 0 -393 74t-242 217q-29 62 -53 213q0 406 364 533q185 61 406 94t483 33h152v512q0 123 -13 164q-12 41 -57 73q-33 33 -176 33
q-115 0 -152 -49l17 -29l45 -45q61 -57 74 -102l16 -111q0 -98 -45 -151q-45 -58 -131 -103l-185 -45l-159 -20q-414 0 -463 254l-17 82q0 217 279 327q295 103 848 103h86q37 0 90 -9l266 -28q197 -21 348 -82q291 -111 291 -422zM1479 528v471h-160q-209 0 -209 -319v-217
q0 -254 147 -287l46 8q176 0 176 344zM991 3113l398 541q110 147 127 168q110 122 225 122q53 0 106 -12q54 -16 95 -45q24 -24 53 -86q24 -61 24 -115q0 -49 -20 -73q-21 -37 -33 -54q-45 -61 -156 -131l-520 -311zM659 2879h193q12 -114 127 -172q111 -61 364 -61
q283 0 381 33q172 49 222 213h159q0 -205 -41 -324q-45 -123 -184 -229q-94 -70 -213 -107q-57 -12 -123 -20q-69 -8 -160 -8q-204 0 -348 37q-78 16 -118 49q-46 28 -103 94q-41 45 -74 106q-16 33 -32 78q-21 41 -29 135q-12 90 -21 176z" />
    <glyph glyph-name="questiondown" unicode="&#xbf;" 
 />
    <glyph glyph-name="Agrave" unicode="&#xc0;" horiz-adv-x="2503" 
 />
    <glyph glyph-name="Aacute" unicode="&#xc1;" horiz-adv-x="2503" 
 />
    <glyph glyph-name="Acircumflex" unicode="&#xc2;" horiz-adv-x="2503" 
 />
    <glyph glyph-name="Atilde" unicode="&#xc3;" horiz-adv-x="2503" 
 />
    <glyph glyph-name="Adieresis" unicode="&#xc4;" 
 />
    <glyph glyph-name="Aring" unicode="&#xc5;" horiz-adv-x="2503" 
 />
    <glyph glyph-name="AE" unicode="&#xc6;" 
d="M2441 1450v-1114q0 -98 70 -111q86 13 168 119v-143q-209 -258 -672 -258q-356 0 -496 274q-127 -135 -315 -213q-184 -70 -434 -70q-225 0 -393 74t-242 217q-29 62 -53 213q0 406 364 533q185 61 406 94t483 33h152v512q0 123 -13 164q-12 41 -57 73q-33 33 -176 33
q-115 0 -152 -49l17 -29l45 -45q61 -57 74 -102l16 -111q0 -98 -45 -151q-45 -58 -131 -103l-185 -45l-159 -20q-414 0 -463 254l-17 82q0 217 279 327q295 103 848 103h86q37 0 90 -9l266 -28q197 -21 348 -82q291 -111 291 -422zM1479 528v471h-160q-209 0 -209 -319v-217
q0 -254 147 -287l46 8q176 0 176 344zM659 2879h193q12 -114 127 -172q111 -61 364 -61q283 0 381 33q172 49 222 213h159q0 -205 -41 -324q-45 -123 -184 -229q-94 -70 -213 -107q-57 -12 -123 -20q-69 -8 -160 -8q-204 0 -348 37q-78 16 -118 49q-46 28 -103 94
q-41 45 -74 106q-16 33 -32 78q-21 41 -29 135q-12 90 -21 176zM1147 -459q90 78 213 78q147 0 242 -106q81 -86 81 -218q0 -147 -98 -233q-102 -90 -217 -90q-147 0 -250 115q-82 94 -82 213q0 143 111 241z" />
    <glyph glyph-name="Ccedilla" unicode="&#xc7;" 
d="M2441 1450v-1114q0 -98 70 -111q86 13 168 119v-143q-209 -258 -672 -258q-356 0 -496 274q-127 -135 -315 -213q-184 -70 -434 -70q-225 0 -393 74t-242 217q-29 62 -53 213q0 406 364 533q185 61 406 94t483 33h152v512q0 123 -13 164q-12 41 -57 73q-33 33 -176 33
q-115 0 -152 -49l17 -29l45 -45q61 -57 74 -102l16 -111q0 -98 -45 -151q-45 -58 -131 -103l-185 -45l-159 -20q-414 0 -463 254l-17 82q0 217 279 327q295 103 848 103h86q37 0 90 -9l266 -28q197 -21 348 -82q291 -111 291 -422zM1479 528v471h-160q-209 0 -209 -319v-217
q0 -254 147 -287l46 8q176 0 176 344zM1376 2544l-430 -385h-332l500 745h512l496 -745h-324zM1626 3498q25 106 148 152q41 12 122 20q103 0 193 -70q70 -53 172 -188l377 -602h-201l-487 291q-49 32 -78 49q-62 37 -148 78q-41 20 -69 53q-41 49 -41 127q0 41 12 90z" />
    <glyph glyph-name="Egrave" unicode="&#xc8;" 
d="M2441 1450v-1114q0 -98 70 -111q86 13 168 119v-143q-209 -258 -672 -258q-356 0 -496 274q-127 -135 -315 -213q-184 -70 -434 -70q-225 0 -393 74t-242 217q-29 62 -53 213q0 406 364 533q185 61 406 94t483 33h152v512q0 123 -13 164q-12 41 -57 73q-33 33 -176 33
q-115 0 -152 -49l17 -29l45 -45q61 -57 74 -102l16 -111q0 -98 -45 -151q-45 -58 -131 -103l-185 -45l-159 -20q-414 0 -463 254l-17 82q0 217 279 327q295 103 848 103h86q37 0 90 -9l266 -28q197 -21 348 -82q291 -111 291 -422zM1479 528v471h-160q-209 0 -209 -319v-217
q0 -254 147 -287l46 8q176 0 176 344zM1376 2544l-430 -385h-332l500 745h512l496 -745h-324zM2753 3568q0 -74 -13 -127q-16 -54 -69 -99q-54 -49 -181 -110l-143 -62q-74 -24 -123 -82q-45 -49 -45 -127q0 -20 4 -41h-78v54q0 57 25 131l74 192q16 45 32 115q17 70 17 111
q0 122 -58 204q-61 82 -176 82l-86 -12q-28 -12 -41 -33l50 -12q110 0 155 -66q45 -69 45 -151t-61 -135q-62 -58 -180 -78q-95 0 -189 61q-86 70 -86 181l16 86q25 102 185 176l106 41q123 41 205 41q94 0 225 -21q131 -24 213 -74q78 -49 127 -123q50 -77 50 -122z" />
    <glyph glyph-name="Eacute" unicode="&#xc9;" 
d="M2441 1450v-1114q0 -98 70 -111q86 13 168 119v-143q-209 -258 -672 -258q-356 0 -496 274q-127 -135 -315 -213q-184 -70 -434 -70q-225 0 -393 74t-242 217q-29 62 -53 213q0 406 364 533q185 61 406 94t483 33h152v512q0 123 -13 164q-12 41 -57 73q-33 33 -176 33
q-115 0 -152 -49l17 -29l45 -45q61 -57 74 -102l16 -111q0 -98 -45 -151q-45 -58 -131 -103l-185 -45l-159 -20q-414 0 -463 254l-17 82q0 217 279 327q295 103 848 103h86q37 0 90 -9l266 -28q197 -21 348 -82q291 -111 291 -422zM1479 528v471h-160q-209 0 -209 -319v-217
q0 -254 147 -287l46 8q176 0 176 344zM1376 2544l-430 -385h-332l500 745h512l496 -745h-324zM2150 3707l209 -29q-49 -266 -143 -389q-98 -127 -274 -164l-107 -16q-70 0 -156 24q-86 21 -110 33q-29 8 -111 49q-201 90 -295 107q-86 0 -143 -57q-37 -50 -57 -140h-213
q122 598 495 598q94 0 176 -24l152 -62l221 -78l164 -45q156 25 192 193z" />
    <glyph glyph-name="Ecircumflex" unicode="&#xca;" 
d="M2441 1450v-1114q0 -98 70 -111q86 13 168 119v-143q-209 -258 -672 -258q-356 0 -496 274q-127 -135 -315 -213q-184 -70 -434 -70q-225 0 -393 74t-242 217q-29 62 -53 213q0 406 364 533q185 61 406 94t483 33h152v512q0 123 -13 164q-12 41 -57 73q-33 33 -176 33
q-115 0 -152 -49l17 -29l45 -45q61 -57 74 -102l16 -111q0 -98 -45 -151q-45 -58 -131 -103l-185 -45l-159 -20q-414 0 -463 254l-17 82q0 217 279 327q295 103 848 103h86q37 0 90 -9l266 -28q197 -21 348 -82q291 -111 291 -422zM1479 528v471h-160q-209 0 -209 -319v-217
q0 -254 147 -287l46 8q176 0 176 344zM1376 2544l-430 -385h-332l500 745h512l496 -745h-324zM2023 2769l398 541q110 147 127 168q110 122 225 122q53 0 106 -12q54 -16 95 -45q24 -25 53 -86q25 -61 25 -115q0 -49 -21 -73q-20 -37 -33 -54q-45 -61 -155 -131l-521 -311z
" />
    <glyph glyph-name="Edieresis" unicode="&#xcb;" 
d="M2441 1450v-1114q0 -98 70 -111q86 13 168 119v-143q-209 -258 -672 -258q-356 0 -496 274q-127 -135 -315 -213q-184 -70 -434 -70q-225 0 -393 74t-242 217q-29 62 -53 213q0 406 364 533q185 61 406 94t483 33h152v512q0 123 -13 164q-12 41 -57 73q-33 33 -176 33
q-115 0 -152 -49l17 -29l45 -45q61 -57 74 -102l16 -111q0 -98 -45 -151q-45 -58 -131 -103l-185 -45l-159 -20q-414 0 -463 254l-17 82q0 217 279 327q295 103 848 103h86q37 0 90 -9l266 -28q197 -21 348 -82q291 -111 291 -422zM1479 528v471h-160q-209 0 -209 -319v-217
q0 -254 147 -287l46 8q176 0 176 344zM1376 2544l-430 -385h-332l500 745h512l496 -745h-324zM1061 -602q0 135 98 233q94 95 230 95q135 0 233 -95q98 -94 98 -233q0 -131 -98 -229.5t-233 -98.5q-136 0 -230 99q-98 94 -98 229z" />
    <glyph glyph-name="Igrave" unicode="&#xcc;" horiz-adv-x="2503" 
d="M1090 1569v-631h352v639q0 156 -25 238q-28 81 -160 81q-167 0 -167 -327zM1090 840q0 -336 40 -496q41 -160 213 -233q74 -25 185 -37q188 0 401 119q213 114 361 319l69 -57l-118 -152q-50 -61 -185 -164q-94 -69 -295 -135q-205 -70 -442 -70q-631 0 -934 275
q-160 135 -242 319q-86 185 -86 414q0 148 29 270q25 119 102 250q136 242 406 385q270 144 639 144q332 0 602 -140q270 -143 422 -413q70 -127 110 -279q41 -151 41 -319h-1318zM938 2982q25 106 147 151q41 13 123 21q103 0 193 -70q69 -53 172 -188l377 -602h-201
l-487 291q-50 32 -78 49q-62 37 -148 78q-41 20 -69 53q-41 49 -41 127q0 41 12 90z" />
    <glyph glyph-name="Iacute" unicode="&#xcd;" horiz-adv-x="2503" 
 />
    <glyph glyph-name="Icircumflex" unicode="&#xce;" horiz-adv-x="2503" 
d="M1090 1569v-631h352v639q0 156 -25 238q-28 81 -160 81q-167 0 -167 -327zM1090 840q0 -336 40 -496q41 -160 213 -233q74 -25 185 -37q188 0 401 119q213 114 361 319l69 -57l-118 -152q-50 -61 -185 -164q-94 -69 -295 -135q-205 -70 -442 -70q-631 0 -934 275
q-160 135 -242 319q-86 185 -86 414q0 148 29 270q25 119 102 250q136 242 406 385q270 144 639 144q332 0 602 -140q270 -143 422 -413q70 -127 110 -279q41 -151 41 -319h-1318zM2007 2937q0 -74 -12 -127q-17 -53 -70 -98q-53 -50 -180 -111l-143 -61q-74 -25 -123 -82
q-45 -50 -45 -127q0 -21 4 -41h-78v53q0 57 24 131l74 192q17 46 33 115q16 70 16 111q0 123 -57 205q-61 81 -176 81l-86 -12q-29 -12 -41 -33l49 -12q111 0 156 -65q45 -70 45 -152t-62 -135q-61 -57 -180 -78q-94 0 -188 62q-86 69 -86 180l16 86q25 102 184 176l107 41
q123 41 205 41q94 0 225 -21q131 -24 213 -73q78 -50 127 -123q49 -78 49 -123z" />
    <glyph glyph-name="Idieresis" unicode="&#xcf;" horiz-adv-x="2503" 
d="M1090 1569v-631h352v639q0 156 -25 238q-28 81 -160 81q-167 0 -167 -327zM1090 840q0 -336 40 -496q41 -160 213 -233q74 -25 185 -37q188 0 401 119q213 114 361 319l69 -57l-118 -152q-50 -61 -185 -164q-94 -69 -295 -135q-205 -70 -442 -70q-631 0 -934 275
q-160 135 -242 319q-86 185 -86 414q0 148 29 270q25 119 102 250q136 242 406 385q270 144 639 144q332 0 602 -140q270 -143 422 -413q70 -127 110 -279q41 -151 41 -319h-1318zM1954 2912h229q-98 -528 -438 -581l-107 -17q-69 0 -155 25q-86 20 -111 33q-29 8 -110 49
q-201 90 -295 106q-86 0 -144 -57q-37 -49 -57 -139h-213q123 598 496 598q143 0 385 -99q237 -98 327 -110q156 24 193 192z" />
    <glyph glyph-name="Eth" unicode="&#xd0;" horiz-adv-x="2503" 
d="M1090 1569v-631h352v639q0 156 -25 238q-28 81 -160 81q-167 0 -167 -327zM1090 840q0 -336 40 -496q41 -160 213 -233q74 -25 185 -37q188 0 401 119q213 114 361 319l69 -57l-118 -152q-50 -61 -185 -164q-94 -69 -295 -135q-205 -70 -442 -70q-631 0 -934 275
q-160 135 -242 319q-86 185 -86 414q0 148 29 270q25 119 102 250q136 242 406 385q270 144 639 144q332 0 602 -140q270 -143 422 -413q70 -127 110 -279q41 -151 41 -319h-1318zM905 2257l393 536q189 263 390 263q102 0 172 -58q77 -53 77 -143q0 -156 -217 -287
l-520 -311h-295z" />
    <glyph glyph-name="Ntilde" unicode="&#xd1;" horiz-adv-x="2503" 
d="M1090 1569v-631h352v639q0 156 -25 238q-28 81 -160 81q-167 0 -167 -327zM1090 840q0 -336 40 -496q41 -160 213 -233q74 -25 185 -37q188 0 401 119q213 114 361 319l69 -57l-118 -152q-50 -61 -185 -164q-94 -69 -295 -135q-205 -70 -442 -70q-631 0 -934 275
q-160 135 -242 319q-86 185 -86 414q0 148 29 270q25 119 102 250q136 242 406 385q270 144 639 144q332 0 602 -140q270 -143 422 -413q70 -127 110 -279q41 -151 41 -319h-1318zM860 -590q0 148 111 242q106 90 246 90q151 0 241 -115q90 -114 90 -274q0 -127 -114.5 -213
t-274.5 -86q-127 0 -213 110q-86 111 -86 246z" />
    <glyph glyph-name="Ograve" unicode="&#xd2;" horiz-adv-x="2503" 
d="M1090 1569v-631h352v639q0 156 -25 238q-28 81 -160 81q-167 0 -167 -327zM1090 840q0 -336 40 -496q41 -160 213 -233q74 -25 185 -37q188 0 401 119q213 114 361 319l69 -57l-118 -152q-50 -61 -185 -164q-94 -69 -295 -135q-205 -70 -442 -70q-631 0 -934 275
q-160 135 -242 319q-86 185 -86 414q0 148 29 270q25 119 102 250q136 242 406 385q270 144 639 144q332 0 602 -140q270 -143 422 -413q70 -127 110 -279q41 -151 41 -319h-1318zM1266 2544l-430 -385h-332l500 745h512l495 -745h-323zM1597 3383q25 107 148 152
q41 12 123 20q102 0 192 -69q70 -54 172 -189l377 -602h-201l-487 291q-49 33 -78 49q-61 37 -147 78q-41 20 -70 53q-41 49 -41 127q0 41 12 90z" />
    <glyph glyph-name="Oacute" unicode="&#xd3;" horiz-adv-x="2503" 
d="M1090 1569v-631h352v639q0 156 -25 238q-28 81 -160 81q-167 0 -167 -327zM1090 840q0 -336 40 -496q41 -160 213 -233q74 -25 185 -37q188 0 401 119q213 114 361 319l69 -57l-118 -152q-50 -61 -185 -164q-94 -69 -295 -135q-205 -70 -442 -70q-631 0 -934 275
q-160 135 -242 319q-86 185 -86 414q0 148 29 270q25 119 102 250q136 242 406 385q270 144 639 144q332 0 602 -140q270 -143 422 -413q70 -127 110 -279q41 -151 41 -319h-1318zM1266 2544l-430 -385h-332l500 745h512l495 -745h-323zM1753 3678q111 0 156 -65
q45 -70 45 -152t-62 -135q-61 -57 -180 -78q-94 0 -188 62q-86 69 -86 180l16 86q25 102 184 176l107 41q123 41 205 41q147 0 274 -37q123 -37 205 -98q53 -45 94 -119q37 -74 37 -148q0 -114 -70 -167q-53 -41 -188 -107l-143 -61q-74 -25 -123 -82q-45 -49 -45 -127
q0 -21 4 -41h-70l-8 53q0 57 25 131l16 66l41 86l53 143l16 127q0 115 -61 201q-61 82 -176 82l-86 -13q-29 -12 -41 -33z" />
    <glyph glyph-name="Ocircumflex" unicode="&#xd4;" horiz-adv-x="2503" 
d="M1090 1569v-631h352v639q0 156 -25 238q-28 81 -160 81q-167 0 -167 -327zM1090 840q0 -336 40 -496q41 -160 213 -233q74 -25 185 -37q188 0 401 119q213 114 361 319l69 -57l-118 -152q-50 -61 -185 -164q-94 -69 -295 -135q-205 -70 -442 -70q-631 0 -934 275
q-160 135 -242 319q-86 185 -86 414q0 148 29 270q25 119 102 250q136 242 406 385q270 144 639 144q332 0 602 -140q270 -143 422 -413q70 -127 110 -279q41 -151 41 -319h-1318zM1266 2544l-430 -385h-332l500 745h512l495 -745h-323zM2052 3666h229q-98 -528 -438 -582
l-106 -16q-70 0 -156 24q-86 21 -111 33q-28 8 -110 49q-201 91 -295 107q-86 0 -143 -57q-37 -50 -58 -140h-213q123 598 496 598q143 0 385 -98q237 -98 328 -111q155 25 192 193z" />
    <glyph glyph-name="Otilde" unicode="&#xd5;" horiz-adv-x="2503" 
d="M1090 1569v-631h352v639q0 156 -25 238q-28 81 -160 81q-167 0 -167 -327zM1090 840q0 -336 40 -496q41 -160 213 -233q74 -25 185 -37q188 0 401 119q213 114 361 319l69 -57l-118 -152q-50 -61 -185 -164q-94 -69 -295 -135q-205 -70 -442 -70q-631 0 -934 275
q-160 135 -242 319q-86 185 -86 414q0 148 29 270q25 119 102 250q136 242 406 385q270 144 639 144q332 0 602 -140q270 -143 422 -413q70 -127 110 -279q41 -151 41 -319h-1318zM1266 2544l-430 -385h-332l500 745h512l495 -745h-323zM1880 2769l397 541q111 147 127 168
q111 122 226 122q53 0 106 -12q53 -16 94 -45q25 -25 54 -86q24 -61 24 -115q0 -49 -20 -73q-21 -37 -33 -54q-45 -61 -156 -131l-520 -311z" />
    <glyph glyph-name="Odieresis" unicode="&#xd6;" horiz-adv-x="2503" 
d="M1090 1569v-631h352v639q0 156 -25 238q-28 81 -160 81q-167 0 -167 -327zM1090 840q0 -336 40 -496q41 -160 213 -233q74 -25 185 -37q188 0 401 119q213 114 361 319l69 -57l-118 -152q-50 -61 -185 -164q-94 -69 -295 -135q-205 -70 -442 -70q-631 0 -934 275
q-160 135 -242 319q-86 185 -86 414q0 148 29 270q25 119 102 250q136 242 406 385q270 144 639 144q332 0 602 -140q270 -143 422 -413q70 -127 110 -279q41 -151 41 -319h-1318zM1266 2544l-430 -385h-332l500 745h512l495 -745h-323zM815 -786q0 57 8 81q4 25 33 87
q25 61 86 94q57 45 135 78q78 28 156 28q82 0 147 -33l123 -73q115 -82 115 -230q0 -155 -102 -254l-140 -86q-69 -36 -155 -36q-78 0 -152 24l-143 74q-45 28 -82 106q-13 37 -21 74t-8 82v-16z" />
    <glyph glyph-name="multiply" unicode="&#xd7;" horiz-adv-x="1593" 
d="M279 102v1745h-213v107l548 20l672 25v-1897h225v-94h-1454v94h222zM848 2257l-447 262q-151 90 -221 152q-69 61 -69 176q0 82 73 155q74 62 176 62q172 0 353 -234l430 -573h-295z" />
    <glyph glyph-name="Oslash" unicode="&#xd8;" horiz-adv-x="1593" 
d="M279 1839h-213v98l639 37l581 17v-1897h225v-94h-1454v94h222v1745zM606 3154q111 0 156 -66q45 -69 45 -151t-62 -135q-61 -58 -180 -78q-94 0 -188 61q-86 70 -86 181l16 86q25 102 185 176l106 41q123 41 205 41q147 0 274 -37q123 -37 205 -99q53 -45 94 -118
q37 -74 37 -148q0 -115 -70 -168q-53 -41 -188 -106l-143 -62q-74 -24 -123 -82q-45 -49 -45 -127q0 -20 4 -41h-70l-8 54q0 57 25 131l16 65l41 86l53 144l17 127q0 114 -62 200q-61 82 -176 82l-86 -12q-29 -12 -41 -33z" />
    <glyph glyph-name="Ugrave" unicode="&#xd9;" horiz-adv-x="1593" 
 />
    <glyph glyph-name="Uacute" unicode="&#xda;" horiz-adv-x="1593" 
d="M279 102v1745h-213v107l548 20l672 25v-1897h225v-94h-1454v94h222zM352 2904q135 0 226 -98q86 -103 86 -230q0 -106 -82 -213q-86 -106 -230 -106q-135 0 -229 94q-86 98 -98 217q0 119 86 230q86 106 225 106h16zM1249 2904q140 0 230 -102.5t90 -225.5
q-13 -135 -90 -221q-82 -86 -213 -98q-136 0 -242 98q-94 103 -94 230q0 106 86 212.5t233 106.5z" />
    <glyph glyph-name="Ucircumflex" unicode="&#xdb;" horiz-adv-x="1593" 
d="M279 94v1745h-213v107l548 20l672 25v-1897h225v-94h-1454v94h222zM799 2544l-430 -385h-328l496 745h512l495 -745h-319z" />
    <glyph glyph-name="Udieresis" unicode="&#xdc;" horiz-adv-x="1593" 
d="M279 1839h-213v98l639 37l581 17v-1897h225v-94h-1454v94h222v1745zM1409 2912h229q-98 -528 -438 -581l-106 -17q-70 0 -156 25q-86 20 -111 33q-28 8 -110 49q-201 90 -295 106q-86 0 -143 -57q-37 -49 -58 -139h-213q123 598 496 598q143 0 385 -99q237 -98 328 -110
q155 24 192 192z" />
    <glyph glyph-name="Yacute" unicode="&#xdd;" horiz-adv-x="1593" 
d="M279 94v1745h-213v107l548 20l672 25v-1897h225v-94h-1454v94h222zM418 2253l397 540q111 148 127 168q111 123 225 123q54 0 107 -12q53 -16 94 -45q25 -25 53 -86q25 -62 25 -115q0 -49 -21 -73q-20 -37 -32 -54q-45 -61 -156 -131l-520 -311z" />
    <glyph glyph-name="Thorn" unicode="&#xde;" horiz-adv-x="1593" 
d="M279 1839h-213v98l639 37l581 17v-1897h225v-94h-1454v94h222v1745zM233 2576q0 369 558 369q536 0 536 -401q0 -181 -147 -299q-21 -13 -58 -33q-41 -21 -114 -49q-50 -13 -95 -21q-49 -8 -106 -8q-225 0 -410 98q-172 99 -172 303zM446 -766q0 57 9 82q4 25 32 86
q25 61 86 94q58 45 136 78q77 29 155 29q82 0 148 -33l123 -74q114 -82 114 -229q0 -156 -102 -254l-139 -86q-70 -37 -156 -37q-78 0 -152 25l-143 73q-45 29 -82 107q-12 37 -20.5 73.5t-8.5 81.5v-16z" />
    <glyph glyph-name="germandbls" unicode="&#xdf;" 
d="M1393 1991q614 0 929 -316q304 -295 304 -700q0 -377 -287 -709t-955 -332q-675 0 -978 291q-144 148 -234 340q-90 189 -90 402q0 118 24 237q25 115 91 234q122 233 409 393q283 160 713 160h74zM1544 1577q0 172 -37 245.5t-155 73.5q-103 0 -164 -73
q-45 -78 -45 -246v-1282q0 -148 57 -205q57 -49 152 -49q118 0 155 53q37 49 37 201v1282zM1417 2257l-450 262l-103 66l-119 90q-65 65 -65 172q0 86 74 155q73 62 176 62q188 0 348 -234l434 -573h-295z" />
    <glyph glyph-name="agrave" unicode="&#xe0;" 
 />
    <glyph glyph-name="aacute" unicode="&#xe1;" 
d="M1393 1991q614 0 929 -316q304 -295 304 -700q0 -377 -287 -709t-955 -332q-675 0 -978 291q-144 148 -234 340q-90 189 -90 402q0 118 24 237q25 115 91 234q122 233 409 393q283 160 713 160h74zM1544 1577q0 172 -37 245.5t-155 73.5q-103 0 -164 -73
q-45 -78 -45 -246v-1282q0 -148 57 -205q57 -49 152 -49q118 0 155 53q37 49 37 201v1282zM2007 2937q0 -74 -12 -127q-17 -53 -70 -98q-53 -50 -180 -111l-143 -61q-74 -25 -123 -82q-45 -50 -45 -127q0 -21 4 -41h-78v53q0 57 24 131l74 192q17 46 33 115q16 70 16 111
q0 123 -57 205q-61 81 -176 81l-86 -12q-29 -12 -41 -33l49 -12q111 0 156 -65q45 -70 45 -152t-62 -135q-61 -57 -180 -78q-94 0 -188 62q-86 69 -86 180l16 86q25 102 184 176l107 41q123 41 205 41q94 0 225 -21q131 -24 213 -73q78 -50 127 -123q49 -78 49 -123z" />
    <glyph glyph-name="acircumflex" unicode="&#xe2;" 
d="M1393 1991q614 0 929 -316q304 -295 304 -700q0 -377 -287 -709t-955 -332q-675 0 -978 291q-144 148 -234 340q-90 189 -90 402q0 118 24 237q25 115 91 234q122 233 409 393q283 160 713 160h74zM1544 1577q0 172 -37 245.5t-155 73.5q-103 0 -164 -73
q-45 -78 -45 -246v-1282q0 -148 57 -205q57 -49 152 -49q118 0 155 53q37 49 37 201v1282zM1962 2912h229q-98 -528 -438 -581l-106 -17q-70 0 -156 25q-86 20 -111 33q-28 8 -110 49q-201 90 -295 106q-86 0 -144 -57q-36 -49 -57 -139h-213q123 598 496 598q143 0 385 -99
q237 -98 327 -110q156 24 193 192z" />
    <glyph glyph-name="atilde" unicode="&#xe3;" 
d="M1393 1991q614 0 929 -316q304 -295 304 -700q0 -377 -287 -709t-955 -332q-675 0 -978 291q-144 148 -234 340q-90 189 -90 402q0 118 24 237q25 115 91 234q122 233 409 393q283 160 713 160h74zM1544 1577q0 172 -37 245.5t-155 73.5q-103 0 -164 -73
q-45 -78 -45 -246v-1282q0 -148 57 -205q57 -49 152 -49q118 0 155 53q37 49 37 201v1282zM1020 2253l397 540q111 148 127 168q111 123 225 123q54 0 107 -12q53 -16 94 -45q25 -25 53 -86q25 -62 25 -115q0 -49 -20 -73q-21 -37 -33 -54q-45 -61 -156 -131l-520 -311z" />
    <glyph glyph-name="adieresis" unicode="&#xe4;" 
d="M1393 1991q614 0 929 -316q304 -295 304 -700q0 -377 -287 -709t-955 -332q-675 0 -978 291q-144 148 -234 340q-90 189 -90 402q0 118 24 237q25 115 91 234q122 233 409 393q283 160 713 160h74zM1544 1577q0 172 -37 245.5t-155 73.5q-103 0 -164 -73
q-45 -78 -45 -246v-1282q0 -148 57 -205q57 -49 152 -49q118 0 155 53q37 49 37 201v1282zM1004 -659q0 143 102 245q98 99 242 99q143 0 245 -99q99 -102 99 -245q0 -144 -99 -242q-102 -103 -245 -103q-144 0 -242 103q-102 98 -102 242z" />
    <glyph glyph-name="aring" unicode="&#xe5;" 
d="M1393 1991q614 0 929 -316q304 -295 304 -700q0 -377 -287 -709t-955 -332q-675 0 -978 291q-144 148 -234 340q-90 189 -90 402q0 118 24 237q25 115 91 234q122 233 409 393q283 160 713 160h74zM1544 1577q0 172 -37 245.5t-155 73.5q-103 0 -164 -73
q-45 -78 -45 -246v-1282q0 -148 57 -205q57 -49 152 -49q118 0 155 53q37 49 37 201v1282zM1376 2544l-430 -385h-332l500 745h512l496 -745h-324zM1626 3441q25 106 148 151q41 12 122 21q103 0 193 -70q70 -53 172 -188l377 -602h-201l-487 290q-49 33 -78 49
q-62 37 -148 78q-41 21 -69 54q-41 49 -41 127q0 40 12 90z" />
    <glyph glyph-name="ae" unicode="&#xe6;" 
d="M1393 1991q614 0 929 -316q304 -295 304 -700q0 -377 -287 -709t-955 -332q-675 0 -978 291q-144 148 -234 340q-90 189 -90 402q0 118 24 237q25 115 91 234q122 233 409 393q283 160 713 160h74zM1544 1577q0 172 -37 245.5t-155 73.5q-103 0 -164 -73
q-45 -78 -45 -246v-1282q0 -148 57 -205q57 -49 152 -49q118 0 155 53q37 49 37 201v1282zM1376 2544l-430 -385h-332l500 745h512l496 -745h-324zM1851 3711q111 0 156 -66q45 -69 45 -151t-61 -135q-62 -58 -181 -78q-94 0 -188 61q-86 70 -86 181l16 86q25 102 185 176
l106 41q123 41 205 41q147 0 274 -37q123 -37 205 -99q53 -45 94 -118q37 -74 37 -148q0 -114 -69 -168q-54 -41 -189 -106l-143 -62q-74 -24 -123 -82q-45 -49 -45 -127q0 -20 4 -41h-70l-8 54q0 57 25 131l16 65l41 86l53 144l17 127q0 114 -62 200q-61 82 -176 82
l-86 -12q-28 -12 -41 -33z" />
    <glyph glyph-name="ccedilla" unicode="&#xe7;" 
d="M1393 1991q614 0 929 -316q304 -295 304 -700q0 -377 -287 -709t-955 -332q-675 0 -978 291q-144 148 -234 340q-90 189 -90 402q0 118 24 237q25 115 91 234q122 233 409 393q283 160 713 160h74zM1544 1577q0 172 -37 245.5t-155 73.5q-103 0 -164 -73
q-45 -78 -45 -246v-1282q0 -148 57 -205q57 -49 152 -49q118 0 155 53q37 49 37 201v1282zM1376 2544l-430 -385h-332l500 745h512l496 -745h-324zM2150 3731h230q-99 -528 -438 -581l-107 -17q-70 0 -156 25q-86 20 -110 33q-29 8 -111 49q-201 90 -295 106q-86 0 -143 -57
q-37 -49 -57 -139h-213q122 598 495 598q144 0 385 -98q238 -99 328 -111q156 25 192 192z" />
    <glyph glyph-name="egrave" unicode="&#xe8;" 
d="M1393 1991q614 0 929 -316q304 -295 304 -700q0 -377 -287 -709t-955 -332q-675 0 -978 291q-144 148 -234 340q-90 189 -90 402q0 118 24 237q25 115 91 234q122 233 409 393q283 160 713 160h74zM1544 1577q0 172 -37 245.5t-155 73.5q-103 0 -164 -73
q-45 -78 -45 -246v-1282q0 -148 57 -205q57 -49 152 -49q118 0 155 53q37 49 37 201v1282zM1376 2544l-430 -385h-332l500 745h512l496 -745h-324zM2052 2769l397 541q111 147 127 168q111 122 226 122q53 0 106 -12q53 -16 94 -45q25 -25 54 -86q24 -61 24 -115
q0 -49 -20 -73q-21 -37 -33 -54q-45 -61 -156 -131l-520 -311z" />
    <glyph glyph-name="eacute" unicode="&#xe9;" 
d="M1393 1991q614 0 929 -316q304 -295 304 -700q0 -377 -287 -709t-955 -332q-675 0 -978 291q-144 148 -234 340q-90 189 -90 402q0 118 24 237q25 115 91 234q122 233 409 393q283 160 713 160h74zM1544 1577q0 172 -37 245.5t-155 73.5q-103 0 -164 -73
q-45 -78 -45 -246v-1282q0 -148 57 -205q57 -49 152 -49q118 0 155 53q37 49 37 201v1282zM1376 2544l-430 -385h-332l500 745h512l496 -745h-324zM1061 -573q0 135 90 225t225 90t225.5 -90t90.5 -225q0 -136 -90.5 -226t-225.5 -90t-225 90t-90 226z" />
    <glyph glyph-name="ecircumflex" unicode="&#xea;" 
d="M1544 1577q0 172 -37 245.5t-155 73.5q-103 0 -164 -73q-45 -78 -45 -246v-1282q0 -148 57 -205q57 -49 152 -49q118 0 155 53q37 49 37 201v1282zM2019 1860q-86 98 -98 217q0 118 86 229q86 107 225 107h17q135 0 225 -99q86 -102 86 -229q0 -115 -90 -230
q-33 -40 -98 -65q-45 -12 -66 -16q-20 -5 -70 -5v-24l58 -45q164 -156 250 -340q82 -184 82 -385q0 -377 -287 -709t-955 -332q-675 0 -978 291q-144 148 -234 340q-90 189 -90 402q0 118 24 237q25 115 91 234q122 233 409 393q283 160 713 160h74q225 0 360 -25
q135 -29 266 -106zM795 3125q24 107 147 152q41 12 123 20q102 0 192 -69q70 -54 173 -189l376 -602h-200l-488 291q-49 33 -78 49q-61 37 -147 78q-41 20 -70 53q-41 49 -41 127q0 41 13 90z" />
    <glyph glyph-name="edieresis" unicode="&#xeb;" 
d="M1544 1577q0 172 -37 245.5t-155 73.5q-103 0 -164 -73q-45 -78 -45 -246v-1282q0 -148 57 -205q57 -49 152 -49q118 0 155 53q37 49 37 201v1282zM2019 1860q-86 98 -98 217q0 118 86 229q86 107 225 107h17q135 0 225 -99q86 -102 86 -229q0 -115 -90 -230
q-33 -40 -98 -65q-45 -12 -66 -16q-20 -5 -70 -5v-24l58 -45q164 -156 250 -340q82 -184 82 -385q0 -377 -287 -709t-955 -332q-675 0 -978 291q-144 148 -234 340q-90 189 -90 402q0 118 24 237q25 115 91 234q122 233 409 393q283 160 713 160h74q225 0 360 -25
q135 -29 266 -106zM1196 3121q111 0 156 -65q45 -70 45 -152t-62 -135q-61 -57 -180 -78q-94 0 -188 62q-86 69 -86 180l16 86q25 102 184 176l107 41q123 41 205 41q147 0 274 -37q123 -37 205 -98q53 -45 94 -119q37 -74 37 -148q0 -114 -70 -168q-53 -41 -188 -106
l-143 -61q-74 -25 -123 -82q-45 -50 -45 -127q0 -21 4 -41h-70l-8 53q0 57 24 131l17 66l41 86l53 143l16 127q0 115 -61 201q-61 81 -176 81l-86 -12q-29 -12 -41 -33z" />
    <glyph glyph-name="igrave" unicode="&#xec;" 
d="M1544 1577q0 172 -37 245.5t-155 73.5q-103 0 -164 -73q-45 -78 -45 -246v-1282q0 -148 57 -205q57 -49 152 -49q118 0 155 53q37 49 37 201v1282zM2019 1860q-86 98 -98 217q0 118 86 229q86 107 225 107h17q135 0 225 -99q86 -102 86 -229q0 -115 -90 -230
q-33 -40 -98 -65q-45 -12 -66 -16q-20 -5 -70 -5v-24l58 -45q164 -156 250 -340q82 -184 82 -385q0 -377 -287 -709t-955 -332q-675 0 -978 291q-144 148 -234 340q-90 189 -90 402q0 118 24 237q25 115 91 234q122 233 409 393q283 160 713 160h74q225 0 360 -25
q135 -29 266 -106zM1823 3043h229q-98 -528 -438 -581l-107 -17q-69 0 -155 25q-86 20 -111 33q-29 8 -111 49q-200 90 -294 106q-86 0 -144 -57q-37 -49 -57 -139h-213q123 598 496 598q143 0 385 -99q237 -98 327 -110q156 24 193 192z" />
    <glyph glyph-name="iacute" unicode="&#xed;" 
d="M1544 1577q0 172 -37 245.5t-155 73.5q-103 0 -164 -73q-45 -78 -45 -246v-1282q0 -148 57 -205q57 -49 152 -49q118 0 155 53q37 49 37 201v1282zM2019 1860q-86 98 -98 217q0 118 86 229q86 107 225 107h17q135 0 225 -99q86 -102 86 -229q0 -115 -90 -230
q-33 -40 -98 -65q-45 -12 -66 -16q-20 -5 -70 -5v-24l58 -45q164 -156 250 -340q82 -184 82 -385q0 -377 -287 -709t-955 -332q-675 0 -978 291q-144 148 -234 340q-90 189 -90 402q0 118 24 237q25 115 91 234q122 233 409 393q283 160 713 160h74q225 0 360 -25
q135 -29 266 -106zM676 2253l397 540q111 148 127 168q111 123 225 123q54 0 107 -12q53 -16 94 -45q25 -25 53 -86q25 -62 25 -115q0 -49 -21 -73q-20 -37 -32 -54q-45 -61 -156 -131l-520 -311z" />
    <glyph glyph-name="icircumflex" unicode="&#xee;" 
d="M1544 1577q0 172 -37 245.5t-155 73.5q-103 0 -164 -73q-45 -78 -45 -246v-1282q0 -148 57 -205q57 -49 152 -49q118 0 155 53q37 49 37 201v1282zM2019 1860q-86 98 -98 217q0 118 86 229q86 107 225 107h17q135 0 225 -99q86 -102 86 -229q0 -115 -90 -230
q-33 -40 -98 -65q-45 -12 -66 -16q-20 -5 -70 -5v-24l58 -45q164 -156 250 -340q82 -184 82 -385q0 -377 -287 -709t-955 -332q-675 0 -978 291q-144 148 -234 340q-90 189 -90 402q0 118 24 237q25 115 91 234q122 233 409 393q283 160 713 160h74q225 0 360 -25
q135 -29 266 -106zM1004 -573q0 139 86 237q81 94 213 94q135 0 233 -86t98 -217q0 -135 -82 -229q-86 -98 -217 -98q-139 0 -233 86q-98 81 -98 213z" />
    <glyph glyph-name="idieresis" unicode="&#xef;" horiz-adv-x="2961" 
d="M270 1839h-213v98l504 17l705 37v-1545q0 -163 32 -196q29 -33 119 -33q123 0 184.5 123t61.5 299v1200h-221v98l348 9l410 16l442 20v-1888h229v-94l-340 -12l-340 -13l-495 -32v385q-144 -213 -365 -316q-90 -32 -209 -53l-282 -16q-308 0 -443 209q-127 217 -127 544
v1143zM938 2982q25 106 147 151q41 13 123 21q103 0 193 -70q69 -53 172 -188l377 -602h-201l-487 291q-50 32 -78 49q-62 37 -148 78q-41 20 -69 53q-41 49 -41 127q0 41 12 90z" />
    <glyph glyph-name="eth" unicode="&#xf0;" horiz-adv-x="2961" 
 />
    <glyph glyph-name="ntilde" unicode="&#xf1;" horiz-adv-x="2961" 
d="M270 1839h-213v98l504 17l705 37v-1545q0 -163 32 -196q29 -33 119 -33q123 0 184.5 123t61.5 299v1200h-221v98l348 9l410 16l442 20v-1888h229v-94l-340 -12l-340 -13l-495 -32v385q-144 -213 -365 -316q-90 -32 -209 -53l-282 -16q-308 0 -443 209q-127 217 -127 544
v1143zM1294 3187q111 0 156 -66q45 -69 45 -151t-61 -136q-62 -57 -181 -77q-94 0 -188 61q-86 70 -86 180l16 86q25 103 185 176l106 41q123 41 205 41q147 0 274 -37q123 -36 205 -98q53 -45 94 -119q37 -73 37 -147q0 -111 -61 -156q-41 -32 -107 -69q-69 -41 -90 -50
l-143 -61q-74 -25 -123 -82q-45 -49 -45 -127q0 -20 4 -41h-70l-8 53q0 58 25 132l16 65l41 86l53 143l17 127q0 115 -62 201q-61 82 -176 82l-86 -12q-29 -13 -41 -33z" />
    <glyph glyph-name="ograve" unicode="&#xf2;" horiz-adv-x="2961" 
d="M270 1839h-213v98l504 17l705 37v-1545q0 -163 32 -196q29 -33 119 -33q123 0 184.5 123t61.5 299v1200h-221v98l348 9l410 16l442 20v-1888h229v-94l-340 -12l-340 -13l-495 -32v385q-144 -213 -365 -316q-90 -32 -209 -53l-282 -16q-308 0 -443 209q-127 217 -127 544
v1143zM2224 2912h230q-99 -528 -439 -581l-106 -17q-70 0 -156 25q-86 20 -111 33q-28 8 -110 49q-201 90 -295 106q-86 0 -143 -57q-37 -49 -58 -139h-213q123 598 496 598q143 0 385 -99q238 -98 328 -110q155 24 192 192z" />
    <glyph glyph-name="oacute" unicode="&#xf3;" horiz-adv-x="2961" 
d="M270 1839h-213v98l504 17l705 37v-1545q0 -163 32 -196q29 -33 119 -33q123 0 184.5 123t61.5 299v1200h-221v98l348 9l410 16l442 20v-1888h229v-94l-340 -12l-340 -13l-495 -32v385q-144 -213 -365 -316q-90 -32 -209 -53l-282 -16q-308 0 -443 209q-127 217 -127 544
v1143zM1135 2257l393 536q188 263 389 263q102 0 172 -58q78 -53 78 -143q0 -156 -217 -287l-520 -311h-295z" />
    <glyph glyph-name="ocircumflex" unicode="&#xf4;" horiz-adv-x="2961" 
d="M270 1839h-213v98l504 17l705 37v-1545q0 -163 32 -196q29 -33 119 -33q123 0 184.5 123t61.5 299v1200h-221v98l348 9l410 16l442 20v-1888h229v-94l-340 -12l-340 -13l-495 -32v385q-144 -213 -365 -316q-90 -32 -209 -53l-282 -16q-308 0 -443 209q-127 217 -127 544
v1143zM1061 -676q0 139 106 230q103 86 234 86q143 0 233 -107q86 -111 86 -266q0 -119 -114.5 -201t-262.5 -82q-118 0 -200 107q-82 102 -82 233z" />
    <glyph glyph-name="otilde" unicode="&#xf5;" horiz-adv-x="2961" 
d="M2544 1978q-86 86 -99 205q0 119 86 230q86 106 226 106h16q135 0 221 -98q33 -41 62 -99q28 -61 28 -131q0 -106 -86 -217q-28 -28 -123 -69l-94 -37q-37 -13 -86 -103q-53 -90 -53 -168v-1503h229v-94l-340 -12l-340 -13l-495 -32v385q-144 -213 -365 -316
q-90 -32 -209 -53l-282 -16q-308 0 -443 209q-127 217 -127 544v1143h-213v98l504 17l705 37v-1545q0 -163 32 -196q29 -33 119 -33q123 0 184.5 123t61.5 299v1200h-221v98l348 9l410 16h69h176zM938 2982q25 106 147 151q41 13 123 21q103 0 193 -70q69 -53 172 -188
l377 -602h-201l-487 291q-50 32 -78 49q-62 37 -148 78q-41 20 -69 53q-41 49 -41 127q0 41 12 90z" />
    <glyph glyph-name="odieresis" unicode="&#xf6;" horiz-adv-x="2961" 
d="M2544 1978q-86 86 -99 205q0 119 86 230q86 106 226 106h16q135 0 221 -98q33 -41 62 -99q28 -61 28 -131q0 -106 -86 -217q-28 -28 -123 -69l-94 -37q-37 -13 -86 -103q-53 -90 -53 -168v-1503h229v-94l-340 -12l-340 -13l-495 -32v385q-144 -213 -365 -316
q-90 -32 -209 -53l-282 -16q-308 0 -443 209q-127 217 -127 544v1143h-213v98l504 17l705 37v-1545q0 -163 32 -196q29 -33 119 -33q123 0 184.5 123t61.5 299v1200h-221v98l348 9l410 16h69h176zM2007 2937q0 -74 -12 -127q-17 -53 -70 -98q-53 -50 -180 -111l-143 -61
q-74 -25 -123 -82q-45 -50 -45 -127q0 -21 4 -41h-78v53q0 57 24 131l74 192q17 46 33 115q16 70 16 111q0 123 -57 205q-61 81 -176 81l-86 -12q-29 -12 -41 -33l49 -12q111 0 156 -65q45 -70 45 -152t-62 -135q-61 -57 -180 -78q-94 0 -188 62q-86 69 -86 180l16 86
q25 102 184 176l107 41q123 41 205 41q94 0 225 -21q131 -24 213 -73q78 -50 127 -123q49 -78 49 -123z" />
    <glyph glyph-name="divide" unicode="&#xf7;" horiz-adv-x="2961" 
d="M2544 1978q-86 86 -99 205q0 119 86 230q86 106 226 106h16q135 0 221 -98q33 -41 62 -99q28 -61 28 -131q0 -106 -86 -217q-28 -28 -123 -69l-94 -37q-37 -13 -86 -103q-53 -90 -53 -168v-1503h229v-94l-340 -12l-340 -13l-495 -32v385q-144 -213 -365 -316
q-90 -32 -209 -53l-282 -16q-308 0 -443 209q-127 217 -127 544v1143h-213v98l504 17l705 37v-1545q0 -163 32 -196q29 -33 119 -33q123 0 184.5 123t61.5 299v1200h-221v98l348 9l410 16h69h176zM1954 2912h229q-98 -528 -438 -581l-107 -17q-69 0 -155 25q-86 20 -111 33
q-29 8 -110 49q-201 90 -295 106q-86 0 -144 -57q-37 -49 -57 -139h-213q123 598 496 598q143 0 385 -99q237 -98 327 -110q156 24 193 192z" />
    <glyph glyph-name="oslash" unicode="&#xf8;" horiz-adv-x="2961" 
d="M2544 1978q-86 86 -99 205q0 119 86 230q86 106 226 106h16q135 0 221 -98q33 -41 62 -99q28 -61 28 -131q0 -106 -86 -217q-28 -28 -123 -69l-94 -37q-37 -13 -86 -103q-53 -90 -53 -168v-1503h229v-94l-340 -12l-340 -13l-495 -32v385q-144 -213 -365 -316
q-90 -32 -209 -53l-282 -16q-308 0 -443 209q-127 217 -127 544v1143h-213v98l504 17l705 37v-1545q0 -163 32 -196q29 -33 119 -33q123 0 184.5 123t61.5 299v1200h-221v98l348 9l410 16h69h176zM1057 2355l393 537q188 262 389 262q103 0 172 -57q78 -54 78 -144
q0 -155 -217 -287l-520 -311h-295z" />
    <glyph glyph-name="ugrave" unicode="&#xf9;" horiz-adv-x="2961" 
d="M2544 1978q-86 86 -99 205q0 119 86 230q86 106 226 106h16q135 0 221 -98q33 -41 62 -99q28 -61 28 -131q0 -106 -86 -217q-28 -28 -123 -69l-94 -37q-37 -13 -86 -103q-53 -90 -53 -168v-1503h229v-94l-340 -12l-340 -13l-495 -32v385q-144 -213 -365 -316
q-90 -32 -209 -53l-282 -16q-308 0 -443 209q-127 217 -127 544v1143h-213v98l504 17l705 37v-1545q0 -163 32 -196q29 -33 119 -33q123 0 184.5 123t61.5 299v1200h-221v98l348 9l410 16h69h176zM1147 -688q0 147 106 254q103 102 250 102q148 0 254 -102
q107 -103 107 -254q0 -143 -107 -250q-106 -106 -254 -106q-147 0 -250 106q-106 102 -106 250z" />
    <glyph glyph-name="uacute" unicode="&#xfa;" horiz-adv-x="2961" 
d="M2855 1839q-201 0 -381 -328l-946 -1585q-213 -364 -434 -594q-226 -229 -533 -229q-196 0 -332 123q-139 123 -163 319q24 148 122 267q103 102 267 102q159 -20 274 -102q111 -82 111 -238v-70q-13 -73 -86 -135q-74 -61 -90 -98q12 -21 57 -33q131 0 328 184
q94 103 376 545l-1146 1872h-222v98h1565v-98h-238l578 -934l336 557q65 131 78 201v49q-49 127 -201 127h-33v98h713v-98zM938 2982q25 106 147 151q41 13 123 21q103 0 193 -70q69 -53 172 -188l377 -602h-201l-487 291q-50 32 -78 49q-62 37 -148 78q-41 20 -69 53
q-41 49 -41 127q0 41 12 90z" />
    <glyph glyph-name="ucircumflex" unicode="&#xfb;" horiz-adv-x="2961" 
d="M2855 1839q-201 0 -381 -328l-946 -1585q-213 -364 -434 -594q-226 -229 -533 -229q-196 0 -332 123q-139 123 -163 319q24 148 122 267q103 102 267 102q159 -20 274 -102q111 -82 111 -238v-70q-13 -73 -86 -135q-74 -61 -90 -98q12 -21 57 -33q131 0 328 184
q94 103 376 545l-1146 1872h-222v98h1565v-98h-238l578 -934l336 557q65 131 78 201v49q-49 127 -201 127h-33v98h713v-98zM2494 2937q0 -74 -12 -127q-16 -53 -69 -98q-54 -50 -181 -111l-143 -61q-74 -25 -123 -82q-45 -50 -45 -127q0 -21 4 -41h-78v53q0 57 25 131
l74 192q16 46 32 115q17 70 17 111q0 123 -58 205q-61 81 -176 81l-86 -12q-28 -12 -41 -33l49 -12q111 0 156 -65q45 -70 45 -152t-61 -135q-62 -57 -181 -78q-94 0 -188 62q-86 69 -86 180l16 86q25 102 185 176l106 41q123 41 205 41q94 0 225 -21q131 -24 213 -73
q78 -50 127 -123q49 -78 49 -123z" />
    <glyph glyph-name="udieresis" unicode="&#xfc;" horiz-adv-x="2961" 
d="M2855 1839q-201 0 -381 -328l-946 -1585q-213 -364 -434 -594q-226 -229 -533 -229q-196 0 -332 123q-139 123 -163 319q24 148 122 267q103 102 267 102q159 -20 274 -102q111 -82 111 -238v-70q-13 -73 -86 -135q-74 -61 -90 -98q12 -21 57 -33q131 0 328 184
q94 103 376 545l-1146 1872h-222v98h1565v-98h-238l578 -934l336 557q65 131 78 201v49q-49 127 -201 127h-33v98h713v-98zM2224 2912h230q-99 -528 -439 -581l-106 -17q-70 0 -156 25q-86 20 -111 33q-28 8 -110 49q-201 90 -295 106q-86 0 -143 -57q-37 -49 -58 -139h-213
q123 598 496 598q143 0 385 -99q238 -98 328 -110q155 24 192 192z" />
    <glyph glyph-name="yacute" unicode="&#xfd;" horiz-adv-x="2961" 
d="M2257 2855q0 -156 -217 -287l-520 -311h-295l393 536q188 263 389 263q102 0 172 -58q78 -53 78 -143zM2855 1839q-201 0 -381 -328l-946 -1585q-213 -364 -434 -594q-226 -229 -533 -229q-196 0 -332 123q-139 123 -163 319q24 148 122 267q103 102 267 102
q159 -20 274 -102q111 -82 111 -238v-70q-13 -73 -86 -135q-74 -61 -90 -98q12 -21 57 -33q131 0 328 184q94 103 376 545l-1146 1872h-222v98h1565v-98h-238l578 -934l336 557q65 131 78 201v49q-49 127 -201 127h-33v98h713v-98z" />
    <glyph glyph-name="thorn" unicode="&#xfe;" horiz-adv-x="2961" 
d="M2855 1839q-201 0 -381 -328l-946 -1585q-213 -364 -434 -594q-226 -229 -533 -229q-196 0 -332 123q-139 123 -163 319q24 148 122 267q103 102 267 102q159 -20 274 -102q111 -82 111 -238v-70q-13 -73 -86 -135q-74 -61 -90 -98q12 -21 57 -33q131 0 328 184
q94 103 376 545l-1146 1872h-222v98h1565v-98h-238l578 -934l336 557q65 131 78 201v49q-49 127 -201 127h-33v98h713v-98zM1606 -659q45 86 127 135q77 45 172 45q82 0 163 -41q78 -41 127 -123q50 -82 50 -176q0 -82 -37 -156q-90 -180 -295 -180q-86 0 -168 45
q-82 41 -127 123q-49 78 -49 172q0 82 37 156z" />
    <glyph glyph-name="ydieresis" unicode="&#xff;" horiz-adv-x="2961" 
 />
    <glyph glyph-name="breve" unicode="&#x2d8;" horiz-adv-x="1360" 
d="M25 2904h233q0 -311 438 -311q373 0 414 311h242q0 -90 -13 -164q-12 -78 -45 -147q-45 -123 -139 -209q-98 -86 -213 -135q-123 -41 -246 -41q-307 0 -491 176q-189 172 -189 479z" />
    <glyph glyph-name="dotlessi" unicode="&#x131;" horiz-adv-x="1593" 
d="M279 41v1745h-213v102l675 33l545 16v-1896h225v-98h-1454v98h222z" />
    <glyph glyph-name="ring" unicode="&#x2da;" horiz-adv-x="1360" 
d="M680 2904q188 0 328 -139q61 -66 98 -144q37 -77 37 -163q0 -193 -135 -340q-136 -136 -295 -136q-205 0 -344 140q-144 135 -144 303q0 192 131 335.5t324 143.5zM680 2654q-94 0 -152 -65q-57 -70 -57 -148q0 -61 61 -143q33 -33 70 -49l94 -17q74 0 140 70
q61 70 61 147q0 86 -70 144q-61 61 -147 61z" />
    <glyph glyph-name="c128" horiz-adv-x="3408" 
 />
    <glyph glyph-name="c129" horiz-adv-x="3408" 
 />
    <glyph glyph-name="c141" horiz-adv-x="3408" 
 />
    <glyph glyph-name="c142" horiz-adv-x="3465" 
 />
    <glyph glyph-name="c143" horiz-adv-x="3465" 
 />
    <glyph glyph-name="c144" horiz-adv-x="4096" 
 />
    <glyph glyph-name="c157" horiz-adv-x="3183" 
 />
    <glyph glyph-name="c158" horiz-adv-x="3641" 
 />
    <glyph glyph-name="dotoperator" unicode="&#x2219;" 
d="M2441 1450v-1114q0 -98 70 -111q86 13 168 119v-143q-209 -258 -672 -258q-356 0 -496 274q-127 -135 -315 -213q-184 -70 -434 -70q-225 0 -393 74t-242 217q-29 62 -53 213q0 406 364 533q185 61 406 94t483 33h152v512q0 123 -13 164q-12 41 -57 73q-33 33 -176 33
q-115 0 -152 -49l17 -29l45 -45q61 -57 74 -102l16 -111q0 -98 -45 -151q-45 -58 -131 -103l-185 -45l-159 -20q-414 0 -463 254l-17 82q0 217 279 327q295 103 848 103h86q37 0 90 -9l266 -28q197 -21 348 -82q291 -111 291 -422zM1479 528v471h-160q-209 0 -209 -319v-217
q0 -254 147 -287l46 8q176 0 176 344zM1954 2912h229q-98 -528 -438 -581l-107 -17q-69 0 -155 25q-86 20 -111 33q-29 8 -110 49q-201 90 -295 106q-86 0 -144 -57q-37 -49 -57 -139h-213q123 598 496 598q143 0 385 -99q237 -98 327 -110q156 24 193 192z" />
    </font>
</defs>
</svg>
