<svg id="Layer_1" data-name="Layer 1" xmlns="http://www.w3.org/2000/svg" viewBox="0 0 339.63 302.02">
    <defs>
    <style>
    <!-- .cls-1{fill:#ffffff;} -->
    .cls-1{fill:#765d5b;}
    </style>
    </defs>
    <title>
    heart
    </title>
    <path class="cls-1" d="M338.05,93.79v16.39a20.5,20.5,0,0,0-.55,2.51c-1.54,16.94-7.19,32.49-15.69,47.11A201.25,201.25,0,0,1,282,208.19c-32.8,29.49-66.17,58.34-99.44,87.3-7.2,6.27-17.6,5.91-25-.31q-12.65-10.65-25.06-21.6c-24.68-21.7-49.62-43.11-73.85-65.31-17-15.61-32.27-33-42.81-53.83-19.13-37.8-19-75.65,4-111.47C40.24,11.3,70.78-2,108.15,2.31c24.25,2.77,43,15.87,58.24,34.47,1.28,1.57,2.51,3.17,3.9,4.92,1.47-1.88,2.67-3.42,3.89-4.94C199.37,5.39,236.62-6.45,273.43,6.13,306.52,17.44,326,41.56,334.68,74.84,336.3,81,337,87.47,338.05,93.79Z"/>
</svg>
