<?xml version="1.0" encoding="utf-8"?>
<!-- Generator: Adobe Illustrator 23.0.6, SVG Export Plug-In . SVG Version: 6.00 Build 0)  -->
<svg version="1.1" id="Layer_1" xmlns="http://www.w3.org/2000/svg" xmlns:xlink="http://www.w3.org/1999/xlink" x="0px" y="0px"
	 viewBox="0 0 340 340" style="enable-background:new 0 0 340 340;" xml:space="preserve">
<style type="text/css">
	.st0{fill:#CF2456;}
</style>
<path class="st0" d="M324.6,117.7c0,5,0,10.1,0,15.1c-0.2,0.8-0.4,1.5-0.5,2.3c-1.4,15.6-6.6,29.9-14.4,43.3
	c-9.8,16.8-22.3,31.6-36.6,44.5c-30.2,27.1-60.9,53.7-91.5,80.3c-6.6,5.8-16.2,5.4-23-0.3c-7.8-6.5-15.4-13.2-23.1-19.9
	c-22.7-20-45.7-39.7-67.9-60.1c-15.7-14.4-29.7-30.4-39.4-49.5C10.5,138.7,10.6,103.9,31.8,71c18.7-29.1,46.8-41.3,81.2-37.4
	c22.3,2.5,39.6,14.6,53.6,31.7c1.2,1.4,2.3,2.9,3.6,4.5c1.4-1.7,2.5-3.1,3.6-4.5c23.2-28.9,57.4-39.8,91.3-28.2
	c30.4,10.4,48.4,32.6,56.4,63.2C323,106,323.6,111.9,324.6,117.7z"/>
</svg>
