<?xml version="1.0" standalone="no"?>
<!DOCTYPE svg PUBLIC "-//W3C//DTD SVG 1.1//EN" "http://www.w3.org/Graphics/SVG/1.1/DTD/svg11.dtd" >
<svg>
<metadata>
Created by FontForge 20120731 at Mon Jul 15 11:55:51 2019
 By www
Copyright Copr.1992 Image Club Graphics, Inc.
</metadata>
<defs>
<font id="FrakturFont" horiz-adv-x="256" >
  <font-face 
    font-family="Fraktur"
    font-weight="500"
    font-stretch="normal"
    units-per-em="1000"
    panose-1="0 0 0 0 0 0 0 0 0 0"
    ascent="800"
    descent="-200"
    x-height="566"
    cap-height="769"
    bbox="-7.85432 -245 1396.81 1061"
    underline-thickness="12"
    underline-position="-94"
    stemh="13"
    stemv="152"
    unicode-range="U+0020-25CA"
  />
<missing-glyph horiz-adv-x="500" 
 />
    <glyph glyph-name=".notdef" horiz-adv-x="500" 
 />
    <glyph glyph-name="space" unicode=" " horiz-adv-x="318" 
 />
    <glyph glyph-name="exclam" unicode="!" horiz-adv-x="258" 
d="M229 608c-1 -76 -35 -126 -64 -209c-28 -78 -20 -157 -35 -157c-16 0 -8 39 -15 82c-20 137 -61 173 -66 291c-3 56 31 114 87 117c60 2 94 -64 93 -124zM232 100c-14 -11 -32 -28 -52 -47c-19 -19 -40 -42 -48 -53c-9 11 -27 29 -45 46c-20 19 -42 38 -55 49
c11 7 35 29 53 48c20 23 42 52 48 63c5 -8 27 -35 45 -55c19 -21 43 -42 54 -51z" />
    <glyph glyph-name="quotedbl" unicode="&#x22;" horiz-adv-x="535" 
d="M483 663c-8 -5 -39 -29 -55 -52c-26 -35 -40 -53 -39 -93c4 -118 -6 -112 -15 -114c-20 -4 -14 32 -15 114c-2 76 -32 100 -34 103l-43 54c15 9 36 28 53 44c19 19 25 28 39 52c24 -33 29 -33 46 -53c16 -22 50 -46 63 -55zM230 665c-8 -4 -39 -29 -55 -51
c-26 -35 -40 -53 -39 -93c4 -118 -6 -113 -15 -115c-20 -4 -14 33 -16 114c-1 77 -31 101 -33 103l-43 55c14 9 36 27 52 44c20 19 26 27 40 51c24 -32 29 -33 45 -53c17 -21 51 -45 64 -55z" />
    <glyph glyph-name="numbersign" unicode="#" horiz-adv-x="553" 
d="M527 521l-28 16h-66l-36 -103h54l28 15c-2 -19 -3 -31 -3 -50c0 -20 1 -32 3 -51l-29 15h-79l-42 -121l16 -29c-20 2 -32 3 -51 3c-20 0 -31 -1 -50 -3l15 28l42 122h-144l-43 -121l16 -29c-20 2 -31 3 -51 3c-19 0 -31 -1 -50 -3l14 28l44 122h-29l-29 -15
c2 19 3 31 3 50c0 20 -1 32 -3 51l27 -15h56l35 103h-41l-28 -16c2 20 3 32 3 51s-1 31 -3 50l27 -15l67 1l47 132l-15 27c18 -2 30 -3 49 -3c20 0 32 1 51 3l-15 -28l-47 -131l146 -1l45 133l-15 27c19 -2 31 -3 50 -3c20 0 32 1 52 3l-16 -28l-46 -131l42 -1l27 15
c-1 -19 -3 -30 -3 -49c0 -20 2 -32 3 -52zM363 537h-146l-36 -103h145z" />
    <glyph glyph-name="dollar" unicode="$" horiz-adv-x="513" 
d="M488 251c-6 -55 -84 -109 -86 -111l-75 -62c-20 -15 -30 -26 -47 -43c-3 -2 -5 -5 -7 -7c3 -29 3 -58 1 -96c-3 -42 -7 -65 -18 -106c-4 17 -8 29 -15 45c-6 13 -8 24 -18 33v124c-18 17 -37 30 -63 44c-47 28 -109 31 -129 28c-24 -3 88 74 92 126c1 10 -6 17 -14 22
l-51 38c-22 15 -28 37 -29 64c-2 68 54 122 116 164c25 17 47 41 60 56l22 26c-11 48 -14 85 -11 139c-63 -26 -79 -84 -86 -97c-10 -19 -2 81 88 114c3 36 7 59 17 96c4 -17 7 -29 15 -45c6 -13 8 -24 18 -33v-7c3 1 7 1 12 1c100 2 179 -79 182 -184
c2 -79 -64 -136 -66 -139c0 -2 -6 -18 8 -35c44 -53 91 -76 84 -155zM421 615c2 76 -67 137 -143 133c-3 0 -7 -1 -10 -1v-168c16 -14 47 -38 79 -37c32 2 73 15 74 73zM361 406v15h-31c-40 -1 -74 8 -102 23c-30 17 -45 29 -66 54c-4 -6 -19 -19 -22 -44
c-6 -67 39 -133 116 -130c59 3 105 57 105 82zM377 194c0 65 -48 122 -120 117c-83 -5 -100 -73 -103 -91c3 0 38 -2 87 -20c37 -13 95 -74 103 -85c23 24 33 46 33 79z" />
    <glyph glyph-name="percent" unicode="%" horiz-adv-x="788" 
d="M632 772l-429 -783h-57l430 783h56zM357 638l-3 -121c0 -3 2 -52 -18 -73c-26 -26 -65 -21 -107 -37c-17 -6 -30 -21 -45 -37l-33 25c-6 5 -63 42 -106 61c-14 6 -2 0 18 21c6 6 6 23 6 23v205c62 -1 75 3 118 15s66 22 105 46c2 0 43 -38 55 -66c9 -19 11 -44 10 -62z
M734 258l-3 -121c0 -3 1 -52 -19 -73c-25 -25 -65 -21 -107 -36c-17 -6 -30 -21 -45 -38l-33 25c-6 5 -63 42 -106 62c-14 6 -1 0 18 20c6 7 6 23 6 24v204c63 -1 75 4 118 15c43 12 66 22 105 46c2 0 43 -38 55 -66c9 -19 11 -44 11 -62zM247 462v172c0 39 -30 61 -52 71
c-11 4 -16 -11 -17 -11v-202l52 -44c17 -11 7 -3 11 -1c6 1 6 7 6 15zM623 82v172c0 39 -30 61 -52 71c-11 5 -16 -10 -16 -11v-201l51 -44c17 -12 7 -3 11 -2c6 2 6 8 6 15z" />
    <glyph glyph-name="ampersand" unicode="&#x26;" horiz-adv-x="852" 
d="M824 498c-2 -7 -5 -10 -10 -13l-130 -103l-85 90c-2 0 -11 1 -14 -3c-22 -27 -24 -92 -23 -94l27 -22c43 -34 126 -90 120 -199c-11 -231 -212 -218 -217 -218h-19s-7 1 -11 2c-69 14 102 -19 106 148c0 32 -15 73 -53 104c-3 -4 -5 -9 -8 -13c-5 -11 -12 -24 -15 -29
l-25 -52c-36 -74 -129 -96 -182 -96c-126 -1 -257 93 -253 223c3 84 60 150 116 182l61 36c-30 36 -49 80 -48 135c3 107 86 194 190 193c89 0 167 -56 168 -142c1 -39 -12 -78 -80 -117l-39 -23l142 -100l11 50c5 25 18 45 25 60c7 14 24 30 27 32l80 63l79 -81
c2 -2 14 -9 24 -12c13 -4 41 12 36 -1zM470 656c0 65 -37 93 -81 79c-45 -13 -73 -71 -69 -113c4 -45 24 -96 60 -122c37 9 89 84 90 156zM494 204c-2 2 -93 62 -147 102c-55 40 -85 74 -127 121c-29 -27 -45 -51 -45 -94c2 -67 46 -110 91 -146c73 -58 192 -80 224 -7
c4 8 4 22 4 24z" />
    <glyph glyph-name="quoteright" unicode="&#x2019;" 
d="M239 657c0 0 -11 -75 -54 -137c-56 -81 -140 -149 -145 -142c-4 6 44 48 51 113c13 116 -59 174 -59 174c7 5 36 20 51 38c20 24 50 64 50 64s27 -39 46 -59c24 -26 60 -51 60 -51z" />
    <glyph glyph-name="parenleft" unicode="(" horiz-adv-x="404" 
d="M368 768c-16 -13 -82 -63 -99 -127c-5 -17 -30 -71 -30 -218v-300c0 -66 3 -107 19 -171c26 -101 55 -117 102 -136c70 -28 -104 -13 -235 167c-73 100 -88 191 -92 306c-15 349 405 540 335 479z" />
    <glyph glyph-name="parenright" unicode=")" horiz-adv-x="400" 
d="M373 284c-5 -116 -21 -206 -93 -306c-131 -180 -305 -195 -235 -167c46 18 76 34 102 135c16 64 19 105 19 172v299c0 147 -25 201 -30 219c-17 63 -83 113 -99 127c-71 60 349 -131 336 -479z" />
    <glyph glyph-name="asterisk" unicode="*" horiz-adv-x="380" 
d="M358 642l-124 -42l81 -115l-44 -29l-81 118l-86 -115l-40 30l85 113l-122 44l21 47l121 -47v126h46v-127l127 47z" />
    <glyph glyph-name="plus" unicode="+" horiz-adv-x="618" 
d="M590 248h-252v-250h-65v250h-249l1 71h248v251h68v-252h249v-70z" />
    <glyph glyph-name="comma" unicode="," horiz-adv-x="279" 
d="M239 129c0 0 -11 -75 -54 -137c-56 -81 -140 -149 -145 -142c-4 6 44 48 51 113c13 116 -59 174 -59 174c7 5 36 20 51 38c20 24 50 64 50 64s27 -39 46 -59c24 -26 60 -51 60 -51z" />
    <glyph glyph-name="hyphen" unicode="-" horiz-adv-x="277" 
d="M250 245l-44 25h-133l-44 -23v147l44 -26h133l44 26v-149z" />
    <glyph glyph-name="period" unicode="." horiz-adv-x="284" 
d="M258 127c-25 -20 -40 -34 -61 -58c-25 -25 -38 -41 -58 -69c-18 27 -31 42 -52 65c-22 23 -36 36 -61 54c23 19 37 32 57 54c22 25 36 40 55 68c18 -26 30 -41 53 -63c24 -22 39 -35 67 -51z" />
    <glyph glyph-name="slash" unicode="/" horiz-adv-x="362" 
d="M331 772l-251 -772h-68l253 772h66z" />
    <glyph glyph-name="zero" unicode="0" horiz-adv-x="701" 
d="M673 366c12 -204 -177 -382 -320 -366c-218 24 -313 171 -321 359c-8 178 171 363 315 360c67 -2 308 -48 326 -353zM435 128v447c0 5 18 122 -77 128c-99 6 -82 -120 -82 -123l-1 -452c0 -17 11 -116 81 -118c86 -3 79 110 79 118z" />
    <glyph glyph-name="one" unicode="1" horiz-adv-x="427" 
d="M406 0h-337s1 7 5 11c9 9 31 0 45 15c16 17 16 55 16 57v384c0 6 -5 68 -25 96c-9 14 -23 20 -39 20h-43c-1 0 -6 -1 -6 3c3 19 20 -17 138 52c38 22 51 53 66 95h65v-622c0 -7 3 -65 31 -86c13 -8 23 -14 38 -14h19c2 0 13 2 18 -2c4 -2 8 -7 9 -9z" />
    <glyph glyph-name="two" unicode="2" horiz-adv-x="606" 
d="M579 517c-14 -202 -239 -223 -379 -247c-70 -12 -85 -64 -89 -67l48 1c62 2 148 -13 248 -18c58 -3 140 -1 157 95c1 8 10 26 9 -11l-1 -29c-5 -117 -66 -243 -182 -240c-42 1 -79 12 -102 36l-76 80c-25 25 -78 73 -116 51c-48 -29 16 -73 12 -128
c-1 -20 -3 -42 -32 -40c-30 2 -37 24 -39 52c-10 172 210 295 260 348c68 74 138 307 -64 320c-63 3 -143 -62 -115 -98c4 -5 12 -10 20 -14c8 2 30 4 48 -3c32 -12 45 -43 45 -78c0 -50 -41 -95 -90 -92c-57 4 -113 40 -112 117c1 112 104 179 235 183
c139 4 322 -96 315 -218z" />
    <glyph glyph-name="three" unicode="3" horiz-adv-x="617" 
d="M587 216c11 -139 -186 -210 -294 -216c-109 -6 -254 45 -264 182c-4 49 49 106 107 99c50 -6 105 -36 105 -89c0 -87 -71 -84 -67 -124c3 -35 29 -54 71 -55c105 -5 130 132 127 206c-7 140 -39 173 -182 173h-25c-2 0 -20 0 -18 8c1 9 21 7 22 7h20c77 0 171 2 165 169
c-3 75 -16 152 -121 152c-37 0 -76 -8 -77 -47c-2 -29 30 -26 44 -34c81 -48 37 -149 -54 -150c-42 -1 -94 17 -98 91c-6 108 120 166 234 161c134 -5 267 -41 269 -176c2 -115 -121 -135 -136 -147c-73 -53 156 2 172 -210z" />
    <glyph glyph-name="four" unicode="4" horiz-adv-x="668" 
d="M641 176h-141l-1 -79c0 -8 2 -44 19 -63c12 -13 24 -23 42 -23h17s13 0 19 -1c7 0 6 -8 7 -10h-406c0 1 0 5 1 8c3 5 14 4 15 4h31c23 0 40 4 56 19c19 18 19 56 19 67v78h-287v29l340 528h128v-514h141v-43zM319 219v351c0 5 -3 21 -12 21c-6 1 -12 -1 -15 -6l-217 -341
c-4 -6 -5 -9 -4 -15c0 -4 2 -7 5 -10h243z" />
    <glyph glyph-name="five" unicode="5" horiz-adv-x="611" 
d="M582 259c1 -155 -141 -260 -307 -259c-104 1 -242 37 -246 169c-2 56 40 109 97 108c52 0 99 -41 99 -94c-1 -80 -69 -78 -72 -81c-19 -25 -10 -36 -10 -42c13 -13 25 -43 88 -43c129 -1 146 126 146 231c0 128 -36 216 -135 218c-104 3 -146 -99 -150 -118
c-2 -9 -20 -7 -14 26c4 21 5 31 5 33v246c0 20 0 25 -7 49c-5 20 20 11 52 3c17 -5 31 -6 32 -6l186 -17c73 -6 108 8 133 44c24 37 -17 -134 -128 -167c-66 -18 -162 -13 -177 -12l-76 9v-98v-10c2 -106 12 47 194 46c166 -1 288 -112 290 -235z" />
    <glyph glyph-name="six" unicode="6" horiz-adv-x="637" 
d="M608 240c3 -144 -147 -242 -266 -240c-217 3 -315 253 -316 354c-4 216 166 379 324 384c37 1 221 -18 224 -136c2 -54 -41 -85 -98 -82c-50 2 -113 22 -109 72c2 30 7 46 50 60c5 10 6 19 6 30c-3 33 -43 40 -75 43c-74 6 -89 -121 -89 -168v-152c0 -12 1 -11 1 -14
c6 -58 -4 65 135 62c109 -2 210 -85 213 -213zM398 158v120c0 13 9 143 -48 151c-61 9 -89 -87 -89 -158v-130c0 -58 16 -130 75 -130c61 0 62 85 62 147z" />
    <glyph glyph-name="seven" unicode="7" horiz-adv-x="586" 
d="M556 609c-21 -158 -96 -199 -127 -282c-6 -16 -22 -58 -22 -96v-57c0 -88 -5 -164 -136 -174c-72 -5 -143 38 -138 127c6 117 91 196 177 242l111 60c2 1 74 35 86 94c4 24 -11 -12 -125 -12c-32 0 -52 6 -83 11l-131 24c-29 6 -53 0 -73 -14c-41 -27 -28 -143 -48 -110
c-7 11 1 54 1 88c0 43 2 66 -5 110c-6 41 -30 115 13 120c53 6 -20 -170 27 -141c21 13 71 150 157 141c43 -5 64 -3 135 -81l43 -47c3 -4 21 -30 71 -41c19 -4 35 19 34 39c-2 10 -7 22 -10 25l-31 30c-28 27 -26 61 -6 73c50 31 88 -73 80 -129z" />
    <glyph glyph-name="eight" unicode="8" horiz-adv-x="639" 
d="M612 241c4 -146 -130 -243 -290 -241c-131 2 -292 71 -293 190c0 56 51 91 89 111l77 41l-65 32c-56 27 -85 74 -87 137c-2 109 91 225 272 227c70 0 261 -36 272 -162c6 -61 -67 -99 -73 -102l-49 -30l35 -20c72 -42 110 -101 112 -183zM508 570c3 111 -96 156 -192 156
c-67 -1 -144 -38 -140 -104c2 -45 34 -69 77 -88l194 -83c14 11 58 38 61 119zM480 134c3 73 -109 131 -129 140l-134 62l-49 -29c-24 -13 -56 -61 -60 -109c-8 -108 103 -183 211 -187c78 -3 157 45 161 123z" />
    <glyph glyph-name="nine" unicode="9" horiz-adv-x="633" 
d="M608 385c-10 -223 -140 -367 -324 -385c-87 -8 -205 25 -218 140c-6 45 34 82 92 81c55 -2 102 -24 104 -74c1 -37 -24 -49 -55 -56c-5 -2 -23 -2 -22 -22c1 -38 43 -59 82 -56c87 6 103 78 103 176v142c0 1 0 3 -2 16c0 6 -6 15 -6 15h-5c-1 -2 -41 -74 -140 -77
c-115 -3 -192 91 -191 210c1 142 136 238 263 237c248 -1 322 -268 319 -347zM368 461v108c0 11 -9 147 -73 148c-57 2 -65 -73 -65 -129v-152c0 -12 -8 -129 54 -117c68 15 84 94 84 142z" />
    <glyph glyph-name="colon" unicode=":" horiz-adv-x="274" 
d="M255 461c-9 -7 -36 -30 -55 -51c-23 -23 -44 -50 -54 -65c-11 15 -31 40 -53 62c-22 23 -53 49 -60 55c10 8 39 33 62 56c21 23 42 47 53 62c10 -17 26 -41 46 -64c21 -24 48 -46 61 -55zM252 128c-8 -9 -39 -41 -61 -67c-20 -22 -40 -47 -51 -61c-10 13 -32 39 -53 61
c-23 23 -53 49 -61 55c11 9 41 33 62 57c20 24 41 55 48 66c8 -13 29 -41 52 -62c22 -21 52 -42 64 -49z" />
    <glyph glyph-name="semicolon" unicode=";" horiz-adv-x="283" 
d="M250 465c-14 -14 -35 -34 -57 -56c-20 -20 -39 -40 -52 -53c-11 15 -23 29 -46 58c-21 27 -52 52 -64 62c10 5 42 27 59 44c13 12 39 42 49 58c11 -15 29 -37 48 -58c23 -23 48 -44 63 -55zM239 129c0 0 -11 -75 -54 -137c-56 -81 -140 -149 -145 -142c-4 6 44 48 51 113
c13 116 -59 174 -59 174c7 5 36 20 51 38c20 24 50 64 50 64s27 -39 46 -59c24 -26 60 -51 60 -51z" />
    <glyph glyph-name="less" unicode="&#x3c;" horiz-adv-x="462" 
d="M436 462l-337 -187l336 -188v-87l-406 234v84l407 232v-88z" />
    <glyph glyph-name="equal" unicode="=" horiz-adv-x="431" 
d="M403 285h-374v89h374v-89zM403 142h-374v89h374v-89z" />
    <glyph glyph-name="greater" unicode="&#x3e;" horiz-adv-x="470" 
d="M439 234l-407 -234v87l337 188l-338 187v88l408 -232v-84z" />
    <glyph glyph-name="question" unicode="?" horiz-adv-x="467" 
d="M441 557c2 -60 -25 -103 -78 -125l-126 -53c-19 -9 -55 -47 -53 -85c3 -45 37 -72 66 -68c103 15 89 136 95 128c23 -30 -11 -122 -82 -136c-29 -5 -97 -6 -108 96c-2 24 8 51 19 70l79 135c14 23 17 48 17 64c1 35 -5 112 -86 126c-35 6 -82 -14 -91 -46
c-4 -14 2 -22 8 -34c5 0 71 13 75 -66c2 -41 -31 -78 -72 -78c-46 -1 -77 44 -72 92c12 99 94 155 174 153c104 -3 233 -61 235 -173zM323 102c-7 -6 -31 -30 -49 -50c-15 -18 -34 -44 -39 -52c-4 7 -23 31 -38 50c-19 22 -44 48 -51 55c8 4 30 19 45 34c21 19 42 49 46 58
c5 -9 21 -34 37 -52c17 -19 41 -38 49 -43z" />
    <glyph glyph-name="at" unicode="@" horiz-adv-x="866" 
d="M836 455c0 -148 -113 -304 -250 -304c-64 0 -95 52 -98 54c-5 -5 -61 -51 -123 -50c-83 1 -148 66 -148 156c0 165 121 323 264 323c87 0 115 -64 119 -69l15 47h74l-116 -332c-5 -15 -25 -74 25 -74c51 0 169 92 169 253c0 156 -106 271 -296 271
c-193 0 -342 -159 -340 -347c3 -193 158 -327 340 -327c131 0 199 40 271 133h66c-2 -4 -79 -197 -334 -197c-249 0 -411 169 -412 392c-1 224 181 412 405 412c194 0 369 -116 369 -341zM553 497c0 18 -3 69 -65 69c-89 0 -185 -112 -185 -242c0 -48 18 -100 79 -100
c101 0 171 215 171 273z" />
    <glyph glyph-name="A" unicode="A" horiz-adv-x="855" 
d="M823 179c6 3 -2 -13 -7 -17l-158 -158l-56 51c-8 7 -28 25 -34 44c-11 35 -10 67 -10 75v33s-56 -56 -90 -93c-39 -43 -62 -69 -99 -114c-18 45 -59 83 -112 96c-68 17 -120 -10 -149 -45c-30 -35 20 108 157 185c6 3 8 20 8 20l30 136c19 87 -15 336 -145 324
c-41 -4 -75 -24 -77 -63c-2 -48 56 -56 97 -82c120 -76 66 -293 -48 -297c-34 0 55 0 54 73c0 21 -15 32 -33 43l-55 36c-48 32 -62 77 -64 134c-4 113 100 212 230 212c162 0 219 -91 217 -242c0 -91 -6 -165 -93 -215l-76 -44c-6 -3 -13 -6 -15 -14c-3 -15 -2 -16 0 -21
c21 -1 59 -9 94 -28c37 -19 55 -37 78 -70l91 88v315c0 25 -2 52 -8 88c-4 27 -35 104 -25 101c6 -2 15 -19 32 -59l13 -30c4 7 36 62 111 102c57 29 140 37 135 26c-3 -5 -58 -15 -73 -40c-9 -17 -13 -62 -13 -75v-410c0 -22 4 -63 27 -75s42 -2 66 10z" />
    <glyph glyph-name="B" unicode="B" horiz-adv-x="832" 
d="M814 505c5 -11 -35 -17 -56 -14c-41 5 -52 4 -53 4v-26c33 -28 98 -102 95 -181c-7 -156 -197 -277 -324 -288c-54 -5 -133 30 -195 83l-97 82c-6 5 -35 26 -66 19c-55 -10 -56 -80 -66 -63c-4 6 14 72 74 109c51 30 66 26 114 34c25 4 34 112 34 122v172
c0 77 -34 158 -106 167c-41 6 -75 -28 -69 -64c11 -62 117 -85 109 -182c-5 -64 -45 -141 -87 -143c-8 0 11 9 12 44c0 52 -94 58 -104 178c-10 118 91 218 227 206c79 -7 153 -50 183 -91c31 60 73 97 154 89c83 -7 153 -40 156 -143l1 -57c0 -16 5 -27 16 -39
c13 -14 44 -8 48 -18zM670 499l-53 30c-20 12 -29 27 -36 50c-18 58 14 133 -59 143c-49 7 -69 -64 -69 -69v-227c1 0 58 11 102 22c33 9 57 8 88 21c19 9 17 12 26 20zM659 95c57 47 30 130 -11 188c-56 77 -148 126 -198 128c-3 -2 -9 -4 -14 -10c-8 -12 -17 -21 -29 -31
c-7 -6 -12 -10 -19 -15l-113 -65c-1 -5 -4 -9 -3 -15c5 -21 63 -26 95 -53c17 -13 28 -21 45 -35l124 -102c32 -27 87 -20 123 10z" />
    <glyph glyph-name="C" unicode="C" horiz-adv-x="801" 
d="M764 741c20 54 17 -87 -65 -123c-56 -24 -127 20 -158 44l-27 23l-19 -12c-15 -11 -21 -19 -22 -43c-3 -25 12 -50 18 -57l112 -140c33 -42 45 -80 43 -133c-3 -96 -72 -164 -159 -165c-146 -2 -157 166 -154 194c5 50 13 -187 124 -149c49 17 24 64 23 66l-115 184
c-17 28 -20 49 -19 80c1 61 42 101 82 134l34 29l1 18c-34 37 -61 56 -95 53c-106 -8 -122 -207 -128 -326c-9 -166 48 -399 260 -399c242 1 237 275 245 259c12 -23 1 -294 -294 -288c-230 5 -432 190 -422 417c8 187 157 367 314 364c69 -1 98 -30 146 -81l149 85
c3 -4 8 -5 10 -11c10 -29 23 -64 59 -67c28 -2 46 14 57 44z" />
    <glyph glyph-name="D" unicode="D" horiz-adv-x="838" 
d="M814 356c-6 -287 -234 -354 -305 -354h-50c-19 0 -30 6 -48 12c-26 10 -42 19 -66 34l-152 97c-13 8 -47 13 -64 15c-44 8 -65 -27 -86 -74c-24 -57 -16 70 86 136c130 83 237 19 238 18l73 -37c22 11 33 34 27 57c-5 17 -13 29 -28 37l-104 51c-37 19 -63 47 -63 88
c1 31 17 47 37 70l51 62c6 7 10 12 10 22c0 6 -2 10 -5 15c-5 2 -77 12 -223 -41c-46 -16 -81 -70 -74 -111c22 -117 145 -82 162 -82c35 0 -19 -19 -46 -21c-98 -7 -173 80 -155 185c25 151 169 221 324 223c237 1 466 -155 461 -402zM784 286c6 151 -160 247 -229 271
l-43 15c-12 4 -36 12 -59 18c-27 8 -47 10 -54 11c-7 -12 -10 -7 -10 -34c0 -57 34 -58 36 -59l70 -32c54 -23 90 -57 91 -122c1 -38 -18 -63 -48 -86l-56 -41c-3 -3 -7 -5 -10 -9c-6 -6 -8 -13 -8 -22c7 -13 77 -74 171 -80c88 -7 146 81 149 170z" />
    <glyph glyph-name="E" unicode="E" horiz-adv-x="834" 
d="M810 470c-5 -40 -25 -81 -66 -81c-37 0 -65 34 -66 71c0 22 9 35 20 54c8 13 11 35 -22 35s-52 -44 -54 -77c-3 -58 45 -88 40 -166c-4 -84 -69 -153 -150 -158c-72 -4 -121 35 -143 76c-24 48 -37 96 -28 98c11 2 19 -50 41 -90c16 -29 49 -60 86 -53c31 6 40 21 39 38
c-1 19 -16 42 -27 56l-117 159c-22 30 -27 57 -26 94c2 63 69 126 83 141l23 24c-31 39 -36 53 -80 55c-98 5 -120 -210 -119 -322c2 -130 61 -394 252 -396c242 0 271 188 284 177c8 -7 -43 -205 -328 -205c-228 0 -427 195 -420 421c6 182 151 366 307 355
c62 -3 79 -23 126 -73l151 89c8 -5 18 -11 22 -15c21 -19 24 -37 58 -47c42 -12 85 10 107 34c26 29 -21 -77 -102 -112c-56 -25 -137 -8 -166 18l-37 33l-15 -8c-18 -10 -24 -24 -27 -48c-2 -24 23 -59 29 -65l89 -99c7 -8 14 -15 23 -15s16 49 32 72c14 19 37 34 84 37
c56 3 103 -52 97 -107z" />
    <glyph glyph-name="F" unicode="F" horiz-adv-x="772" 
d="M745 393c-4 -45 -17 -83 -64 -83c-34 0 -59 36 -58 74c0 20 15 51 -6 52c-27 2 -41 -62 -32 -102c5 -19 12 -29 23 -45l80 -114c14 -20 29 -75 30 -124c4 -140 -159 -265 -320 -265c-126 0 -258 53 -283 216c-8 55 10 93 34 138l41 76c20 37 17 74 -15 82
c-42 11 -80 -54 -108 -95c-13 -19 36 129 146 121c35 -2 130 -9 128 -134c0 -38 -3 -64 -43 -131l-47 -80c-19 -33 -21 -84 0 -112c47 -61 101 -69 141 -69c56 0 169 13 169 149c1 147 -159 214 -166 387c-2 57 40 116 55 137l23 31c7 9 10 13 14 27c2 6 -1 13 -2 17l-66 23
l-150 64c-10 5 -59 15 -94 17c-63 3 -121 -53 -119 -112c4 -87 76 -117 138 -121c67 -6 127 40 129 41c50 33 -43 -57 -131 -50c-59 5 -156 15 -160 153c-3 120 119 230 245 223c69 -3 139 -20 186 -42l60 -30c46 -22 150 -112 189 -83c38 29 7 100 -68 128
c-25 9 5 19 69 -31c53 -42 43 -131 -5 -173c-56 -49 -187 -27 -198 -18l-11 -14c-8 -10 -17 -48 -12 -78c3 -15 7 -27 15 -38l22 -34c3 -3 30 -29 34 -24c21 27 -8 54 47 104c41 38 147 18 140 -58z" />
    <glyph glyph-name="G" unicode="G" horiz-adv-x="922" 
d="M895 299c3 -183 -199 -302 -422 -301c-233 0 -449 164 -447 407c1 200 202 369 366 362c80 -4 109 -41 110 -42l9 -11l63 42c3 2 9 5 12 2c5 -3 -5 -9 -10 -13l-56 -39l7 -10c2 -3 9 -12 12 -20c5 -11 13 -25 7 -31c-5 -4 -9 12 -18 27c-4 7 -7 12 -12 18l-7 9l-5 -5
c-17 -17 -29 -47 -30 -71c0 -20 4 -33 15 -50l91 -143l29 20c16 11 58 48 55 82c-5 35 -42 61 -35 101c15 79 112 136 165 136h38c5 0 15 0 14 -5c0 -4 -11 -7 -19 -7h-18c-13 0 -31 -10 -34 -25c-2 -11 0 -20 9 -28l26 -24c19 -18 33 -35 33 -61c0 -29 -15 -50 -40 -63
l-65 -33c-6 -3 -10 -9 -9 -16c0 -7 8 -10 12 -12l43 -16c62 -23 109 -85 111 -180zM717 285c1 125 -71 178 -111 148l-18 -13c2 -2 34 -86 32 -142c-6 -110 -84 -155 -144 -162c-77 -8 -165 69 -156 162c2 28 9 -94 83 -124c25 -9 49 10 52 38c3 30 -2 56 -11 71l-90 141
c-16 25 -22 44 -22 73c1 72 83 164 111 186l57 45l-5 5c-5 6 -29 33 -77 34c-141 6 -186 -239 -187 -378c-2 -237 92 -368 264 -355c131 11 220 125 222 271z" />
    <glyph glyph-name="H" unicode="H" horiz-adv-x="899" 
d="M835 430c89 -135 19 -315 -142 -394l-91 -44c-47 -23 -57 -26 -91 -45c-19 -11 -31 -19 -50 -31c0 1 -34 87 -111 80c-35 -4 -68 -29 -67 -69c2 -107 150 -112 159 -112c116 -4 187 93 179 79c-12 -27 -86 -92 -180 -87c-76 4 -169 22 -176 138c-6 90 95 156 173 166
c73 10 135 -51 158 -106c69 54 100 120 97 206c-9 216 -175 243 -196 241c-50 -3 -69 -7 -103 -26c30 -50 29 -94 32 -123c14 -149 -173 -212 -229 -213c-64 0 -161 31 -168 116c-2 33 11 96 75 98c30 2 73 -13 76 -77c2 -40 -32 -65 -34 -66l-1 -16c1 -2 -3 -38 52 -38
c84 -2 79 126 36 185l-82 112c-14 19 -42 75 -40 114c4 78 81 144 148 170l111 44c1 0 51 21 81 32c49 20 62 35 73 42l32 -51c14 -24 57 -63 97 -64c34 0 69 0 109 47c60 70 -11 -111 -180 -129c-111 -12 -160 55 -170 63l-49 43l-10 -6c-61 -33 -71 -65 -70 -103
c2 -22 5 -38 17 -56l81 -115l89 54c106 65 280 73 365 -59z" />
    <glyph glyph-name="I" unicode="I" horiz-adv-x="360" 
d="M331 179c5 3 -2 -13 -8 -17l-157 -158l-57 51c-7 7 -29 25 -35 44c-12 35 -10 67 -10 75l1 367c0 25 -1 52 -7 88c-5 27 -36 104 -25 101c5 -2 15 -19 31 -59l14 -30c4 7 35 62 111 102c56 29 139 37 134 26c-2 -5 -58 -15 -72 -40c-10 -17 -14 -62 -14 -75v-410
c0 -22 4 -63 28 -75c22 -12 41 -2 66 10z" />
    <glyph glyph-name="J" unicode="J" horiz-adv-x="761" 
d="M728 677c14 91 37 -166 -140 -174c-68 -3 -100 5 -172 54l-145 100c-22 16 -49 26 -82 25c-64 0 -102 -53 -103 -115c-2 -92 91 -149 158 -143c74 7 100 30 117 45c30 26 -4 -52 -117 -57c-86 -4 -178 52 -176 165c0 107 116 218 218 220c71 2 144 -22 180 -50l123 -96
c3 -2 45 -36 85 -36c35 0 49 30 54 62zM738 382c-1 -42 -9 66 -80 66c-40 1 -55 -45 -30 -97l76 -154c21 -43 30 -82 30 -133c0 -83 -54 -161 -140 -207c-68 -37 -123 -37 -192 -37c-141 0 -217 91 -245 182l-23 75c-8 28 -20 49 -48 49c-49 1 -44 -75 -44 -75v-11
c0 -7 -2 -25 -6 -20c-14 21 -26 171 133 180c67 3 132 -53 146 -86l26 -63c4 -8 12 -47 25 -91c17 -52 58 -128 117 -129c35 0 114 39 114 105c0 27 -4 47 -17 72l-93 179c-17 34 -37 79 -36 131c3 94 90 146 181 154c60 6 108 -45 106 -90z" />
    <glyph glyph-name="K" unicode="K" horiz-adv-x="771" 
d="M746 454c-5 -36 8 231 -237 273c-124 21 -252 -45 -252 -159v-39c0 -12 3 -25 8 -40c4 -13 16 -27 18 -29l10 36c26 98 80 165 174 164c166 -2 214 -196 206 -235l-106 -15l-5 -10l18 -25c5 -7 9 -11 12 -19c10 -26 14 -79 14 -82v-24c0 -2 -7 -123 65 -119
c27 2 70 41 74 31c2 -9 -20 -23 -35 -37c-24 -23 -41 -36 -64 -59l-66 -64c-2 0 -74 21 -103 55c-27 32 -33 80 -33 102l-3 72c-2 46 -4 87 -34 114c-21 20 -70 17 -71 17l-15 -2l36 -102c10 -28 11 -49 12 -77c6 -109 -76 -176 -170 -173c-87 3 -172 63 -170 137
c1 41 34 76 75 74c44 -3 88 -34 88 -80c0 -24 -14 -48 -24 -58v-26c12 -19 29 -30 53 -29c39 1 67 32 64 81c-8 167 -236 167 -233 379c2 182 213 282 380 277c199 -6 337 -141 314 -309zM505 446c-4 58 -31 117 -91 118c-68 2 -113 -66 -113 -134c0 -23 6 -43 14 -60
l172 32c4 5 20 11 18 44z" />
    <glyph glyph-name="L" unicode="L" horiz-adv-x="643" 
d="M613 367c25 27 -13 -45 -66 -70c-21 -11 -37 -20 -59 -19c-91 8 -129 101 -127 135c4 58 25 81 28 86l44 69c17 28 26 50 24 83c-6 71 -75 115 -146 111c-64 -4 -124 -43 -128 -104c-2 -35 12 -58 36 -85l46 -50c20 -21 38 -59 38 -101c-1 -101 -85 -114 -96 -132
c0 -1 -6 -8 -6 -14v-8c3 -1 32 -13 57 -29c24 -14 37 -26 59 -44l49 -39c36 -29 66 -41 111 -41c54 0 81 31 119 80c12 17 -32 -158 -178 -199c-70 -20 -165 49 -178 61l-99 85c-15 13 -33 22 -55 24c-48 6 -70 -111 -67 -75c11 98 67 130 73 135c18 15 53 24 63 33
c15 15 29 26 29 47v22c0 7 -2 11 -4 18c-5 11 -9 18 -17 25l-83 76c-9 9 -52 64 -49 111c10 138 141 218 279 217c131 -1 252 -66 281 -190c7 -33 -5 -74 -27 -112l-55 -88c-9 -15 -21 -48 -14 -66c8 -18 27 -27 55 -10c29 15 37 30 63 58z" />
    <glyph glyph-name="M" unicode="M" horiz-adv-x="1108" 
d="M1082 180c-2 -6 -4 -10 -8 -14l-169 -169l-59 52c-15 14 -24 29 -32 50c-9 23 -9 58 -9 62v133c0 9 0 77 24 113c11 17 40 31 43 32l71 38c4 2 8 5 10 10s-1 16 -1 16l-30 8c-17 4 -46 22 -61 48c-10 19 -12 53 -12 55v64c0 29 -11 53 -42 56c-33 3 -64 -52 -63 -72
c5 -54 14 -89 12 -146c-4 -115 -18 -231 -85 -302l-59 -63c-3 -3 -37 -45 -56 -72c-23 -31 -49 -72 -53 -79l-108 119c-5 6 -10 8 -17 8c-4 0 -9 -1 -11 -4l-63 -73c-3 -4 -7 -9 -11 -7c-5 3 5 14 5 14c0 1 58 64 92 105c29 35 46 56 72 93l81 -106c1 -1 23 -21 29 -15
c16 18 7 96 7 110l-14 390c-1 39 -9 103 -53 99c-27 -2 -48 -43 -48 -51v-43c0 -20 12 -83 9 -135c-9 -189 -80 -261 -179 -382c-36 -43 -73 -115 -78 -122l-97 116c0 1 -18 21 -26 20c-4 0 -7 0 -9 -3l-47 -62c-3 -4 -9 -10 -11 -8c-3 2 -1 7 1 9l150 210l83 -113
c6 -7 12 -16 23 -14c8 1 11 10 11 17v331c0 20 6 243 -124 249c-35 1 -68 -40 -63 -67c5 -32 24 -44 34 -54l52 -50c33 -31 52 -52 50 -105c-4 -81 -96 -151 -139 -133c-23 9 30 2 51 32c14 21 11 48 -11 66l-64 50c-50 39 -52 73 -49 117c6 106 90 177 212 168
c86 -5 149 -21 204 -86l19 32c25 42 67 51 117 51c66 0 118 -33 147 -88l14 24c27 46 81 72 141 67c67 -6 117 -31 123 -90c5 -51 -3 -67 -3 -84v-19c0 -10 5 -44 25 -56c24 -14 32 -5 47 -16c5 -4 -13 -14 -22 -14h-48c-9 -11 -14 -18 -20 -32c-12 -27 -13 -74 -13 -76
v-126c0 -3 -1 -104 49 -105c24 0 67 44 59 22z" />
    <glyph glyph-name="N" unicode="N" horiz-adv-x="871" 
d="M844 498c13 -4 -13 -12 -24 -12h-34c-14 0 -22 -6 -33 -15c-30 -24 -28 -91 -28 -95v-127c0 -4 -2 -97 41 -117c27 -13 62 12 71 13c7 0 -12 -17 -21 -25l-149 -121l-28 20c-15 10 -56 49 -74 89c-16 37 -19 64 -15 105l8 96c0 4 4 42 16 65c14 30 38 52 60 62l58 31
c7 3 11 7 16 14c2 5 4 9 4 15c-1 0 -51 15 -78 40c-21 20 -26 45 -28 70l-6 71c0 1 -7 46 -41 49c-53 5 -64 -80 -64 -92v-16c0 -19 13 -84 11 -136c-10 -190 -39 -249 -144 -352l-131 -128l-105 106c-1 1 -9 7 -17 6c-4 -1 -11 -4 -13 -6l-41 -43c-3 -4 -9 -9 -11 -7
c-3 2 0 6 2 9l165 174l91 -88c1 -1 4 -6 14 -7c13 0 18 25 18 29l-9 293c-1 70 -20 249 -147 262c-40 4 -74 -21 -74 -65c0 -30 15 -47 47 -62l35 -17c48 -24 74 -68 77 -116c3 -81 -39 -132 -88 -155c-26 -12 15 18 11 49c-3 16 -6 26 -29 39l-53 30c-33 19 -77 66 -75 125
c4 115 92 213 237 210c92 -2 158 -27 213 -108l13 30c16 35 67 81 128 78c83 -4 160 -30 167 -144c3 -38 -9 -69 5 -100c10 -20 37 -20 52 -26z" />
    <glyph glyph-name="O" unicode="O" horiz-adv-x="849" 
d="M826 370c6 -180 -108 -355 -349 -368c-53 -3 -87 8 -135 32l-113 58c-12 6 -75 36 -124 27c-33 -5 -87 -79 -74 -48c38 89 118 169 227 168c125 -2 212 -100 352 -108c123 -6 202 101 192 207c-30 293 -272 219 -390 219h-47c-31 0 -53 8 -76 28c-21 18 -36 35 -36 64v58
l-8 2c-8 3 -43 -23 -48 -70c-3 -21 10 -49 14 -53l54 -69c29 -36 36 -69 38 -113c3 -91 -79 -150 -166 -150c-113 2 -128 172 -102 106c16 -40 29 -67 71 -82c21 -6 46 7 45 40c-2 21 -10 33 -21 51l-34 53c-7 13 -33 51 -30 90c14 152 179 258 356 252
c265 -8 395 -167 404 -394z" />
    <glyph glyph-name="P" unicode="P" horiz-adv-x="861" 
d="M831 298c0 -57 -21 -96 -28 -111l-30 -65c-20 -41 -105 -129 -187 -126c-22 0 -45 4 -56 10l-46 25l-8 -67c-1 -11 -3 -18 -5 -28c-3 -11 -6 -18 -9 -27l-58 -127c-1 -4 -9 -16 -11 -15c-5 3 -10 13 -11 15l-62 151c-3 7 -4 12 -5 19c-3 10 -3 17 -4 28l-7 109l-23 14
c-17 10 -98 31 -124 9c-14 -11 -22 -23 -29 -40c-23 -48 -1 114 44 161c20 21 52 31 70 31h61l-6 266c-2 90 -28 201 -117 198c-41 -1 -85 -31 -76 -71c8 -36 44 -60 55 -69l42 -36c32 -28 38 -69 38 -99c0 -47 1 -80 -70 -136c-35 -26 -83 -35 -63 -20c28 19 51 25 53 60
c1 15 -6 26 -18 34l-41 27c-55 38 -71 78 -73 138c-3 117 100 205 224 209c135 4 203 -79 205 -82l19 -22c22 64 74 102 142 103c77 1 151 -39 153 -127c0 -51 -28 -116 14 -135c15 -7 35 -9 44 -11c18 -5 -32 -15 -79 -15h-26c-12 0 -17 -11 -19 -23c-4 -18 11 -29 33 -39
l47 -21c37 -16 47 -63 47 -95zM761 159c1 41 -29 65 -65 81l-67 31c-34 15 -47 46 -48 86c-2 111 145 103 91 137c-51 32 -67 42 -66 93c0 29 3 31 11 74c4 27 -26 86 -79 59c-51 -26 -54 -134 -54 -145v-358c24 -13 38 -21 62 -35c56 -33 82 -64 138 -86
c36 -13 76 22 77 63z" />
    <glyph glyph-name="Q" unicode="Q" horiz-adv-x="980" 
d="M950 116c0 -59 -17 -124 -80 -133c-56 -8 -81 63 -83 119l-4 70c-4 -6 -91 -153 -295 -168c-54 -4 -88 6 -135 30l-114 58c-43 22 -72 32 -125 29c-35 -2 -90 -76 -74 -47c49 83 117 165 228 165c126 0 215 -110 355 -114c121 -4 192 98 186 205
c-15 261 -228 236 -254 237c-52 1 -49 -10 -147 -10h-32c-32 0 -58 10 -79 26c-17 13 -32 40 -32 68v63h-9c-15 0 -44 -28 -49 -75c-3 -21 11 -49 14 -53l54 -69c28 -35 35 -69 37 -113c3 -100 -88 -147 -164 -150c-125 -4 -135 170 -111 103c16 -43 31 -69 75 -84
c19 -7 50 12 49 45c-1 21 -8 34 -21 51l-38 52c-9 12 -30 52 -25 92c16 147 181 261 352 251c314 -18 394 -214 395 -416c0 -133 -24 -191 46 -221c49 -21 65 47 69 60c1 2 3 37 7 28c5 -8 4 -17 4 -23v-76z" />
    <glyph glyph-name="R" unicode="R" horiz-adv-x="905" 
d="M869 129c38 10 -69 -56 -81 -65c-18 -14 -27 -19 -43 -31c-17 -14 -27 -22 -43 -37l-52 26c-3 1 -29 22 -42 41c-21 32 -25 95 -25 97v167c0 6 1 45 -13 68c-8 15 -31 23 -31 31c-1 6 8 5 20 7l121 26c6 2 11 4 16 9c6 7 8 15 7 24l-36 19c-11 6 -42 22 -55 63
c-6 21 -10 50 -10 70v24c0 25 -24 75 -53 65c-71 -22 -57 -106 -57 -111v-22c0 -72 15 -129 12 -186c-12 -195 -40 -381 -282 -414c-87 -12 -171 80 -161 159c8 55 37 95 102 95c44 1 77 -39 77 -83c0 -54 -56 -70 -72 -90c-9 -10 -7 -9 -11 -13v-20c1 0 12 -34 49 -32
c113 6 111 164 111 165v48c0 3 46 453 -137 493c-18 4 -81 -10 -81 -61c0 -30 14 -44 46 -61l32 -17c35 -18 68 -71 70 -116c6 -132 -93 -167 -164 -172c-38 -3 71 24 79 57c2 12 3 33 -19 46l-45 29c-32 20 -68 72 -69 131c-3 117 90 213 236 210c91 -2 158 -35 206 -112
l12 32c22 58 75 85 137 84c76 -1 150 -37 156 -120l6 -78c3 -32 8 -57 32 -77c16 -14 53 -13 40 -21c-18 -9 -44 -5 -72 -3c-22 1 -15 1 -24 3l-14 3l2 -28c3 -8 5 -14 7 -22c3 -12 8 -20 8 -32v-194c0 -40 12 -63 30 -79c28 -24 61 1 78 5z" />
    <glyph glyph-name="S" unicode="S" horiz-adv-x="812" 
d="M783 314c1 -182 -177 -321 -369 -312c-216 11 -393 185 -388 401c4 196 125 350 317 360c50 3 110 -5 129 -14l165 -87c21 -11 51 -15 73 -9c33 9 56 54 62 56c19 6 -34 -126 -119 -152c-73 -22 -134 -7 -196 16l-108 42c-42 16 -128 18 -198 -18
c-73 -37 -109 -115 -108 -199c0 -162 132 -225 354 -222c136 2 362 6 361 154c0 53 -24 93 -81 97c-30 2 -69 -30 -70 -31l-127 -99c-29 -23 -98 -44 -153 -41c-140 8 -202 78 -196 174c2 43 37 103 128 112c23 2 70 -9 63 -14c-10 -7 -31 15 -92 -2
c-50 -13 -86 -56 -85 -105c1 -39 36 -75 85 -68c17 3 32 15 34 17l119 84c34 25 110 51 173 50c136 -1 226 -74 227 -190z" />
    <glyph glyph-name="T" unicode="T" horiz-adv-x="771" 
d="M737 215c16 17 -23 -226 -219 -219c-50 2 -88 8 -127 28l-106 53c-41 20 -123 97 -198 56c-26 -14 -32 -41 -40 -64c-6 -15 -8 17 0 43c27 85 91 151 175 159c34 3 79 -17 87 -19l92 -36l27 40c4 6 1 13 -1 20c-5 14 -26 23 -29 24l-69 35c-37 19 -60 46 -61 87
c-2 37 18 58 42 85l54 59c0 1 2 7 -4 14c-4 8 -82 54 -187 51c-55 -2 -109 -35 -115 -91c-10 -84 81 -110 104 -109l33 1c8 0 13 2 20 0c10 -2 -18 -8 -31 -8l-18 -1c-42 -1 -136 21 -140 148c-3 91 68 223 250 220c71 -1 138 -17 206 -65l147 -103s44 -37 71 -18
c40 26 8 86 -67 123c-45 22 29 8 76 -33c64 -55 28 -154 -16 -184c-54 -37 -112 -34 -160 -11l-130 64c-2 1 -30 8 -30 -7c1 -28 -4 -36 16 -47l102 -59c31 -18 53 -40 53 -76c1 -38 -24 -67 -55 -93l-46 -38c-8 -7 -18 -13 -17 -23c0 -11 4 -15 16 -21l97 -48
c54 -27 74 -29 95 -28c88 3 78 63 103 91z" />
    <glyph glyph-name="U" unicode="U" horiz-adv-x="777" 
d="M749 154c-2 -11 -52 -49 -76 -69s-59 -56 -61 -58l-28 -27l-47 36c-26 21 -42 36 -58 65c-17 35 -22 60 -19 98l-205 -200c-33 36 -57 53 -93 86c-41 37 -125 67 -112 74c7 4 36 4 55 24c15 15 20 29 20 50v307c0 11 -4 64 -37 75c-23 9 -32 -2 -56 -7
c-33 -7 49 56 50 57l103 105l60 -45c18 -14 28 -24 39 -43c15 -24 16 -65 16 -71v-417c0 -19 11 -41 33 -51c20 -7 43 -6 58 9l69 64v320c0 9 -9 44 -29 62c-13 12 -55 21 -39 28c41 20 43 13 91 52c33 25 60 101 66 89c37 -70 28 -58 54 -88c38 -44 88 -56 94 -60
c10 -5 -29 -19 -42 -37c-12 -17 -16 -36 -16 -51l-1 -322c0 -36 23 -61 56 -67c21 -4 58 24 55 12z" />
    <glyph glyph-name="V" unicode="V" horiz-adv-x="882" 
d="M872 482c-9 -5 -40 -12 -64 -11c-35 3 -64 9 -86 21c-2 -1 -22 -12 -22 -38c-1 -18 17 -32 20 -33l52 -26c53 -25 85 -85 84 -141c-2 -150 -164 -267 -306 -265c-95 1 -165 29 -227 91l-66 66c-44 43 -92 54 -126 44c-56 -14 -45 -109 -55 -77c-1 3 -2 40 8 62
c31 59 93 97 176 94c259 -12 256 -153 415 -217c27 -10 91 25 88 74c-2 31 -23 46 -47 64l-116 90c-13 10 -41 46 -39 80c2 50 50 92 77 102l32 12c9 4 15 8 20 17c1 4 3 8 3 14c-8 3 -29 16 -38 30c-16 23 -27 51 -27 73v67c0 25 -7 48 -40 51c-45 5 -74 -55 -74 -92v-141
c0 -60 -13 -105 -60 -143c-30 -25 -81 -38 -97 -41l-55 -11c16 49 22 118 18 193c-5 106 -26 257 -119 250c-65 -5 -77 -33 -78 -60c-2 -30 31 -57 48 -68l26 -17c45 -28 60 -67 63 -122c3 -82 -67 -145 -122 -150c-22 -2 30 9 31 50c0 18 -14 33 -22 38l-46 31
c-56 37 -73 77 -72 136c2 109 110 196 243 189c160 -9 191 -57 228 -107c6 15 29 106 143 103c90 -1 166 -37 166 -164v-53c0 -9 -1 -34 13 -45c18 -15 66 -11 50 -20z" />
    <glyph glyph-name="W" unicode="W" horiz-adv-x="1100" 
d="M1081 522c11 0 -17 -24 -77 -22l-36 1c-8 -9 -25 -16 -25 -44c-2 -50 118 -39 131 -185c11 -128 -126 -265 -267 -268c-56 -2 -91 24 -96 27l-55 37c-32 21 -46 62 -88 49c-70 -21 -57 -104 -170 -115c-35 -3 -75 15 -95 27l-125 75c-50 29 -57 26 -92 20
c-55 -9 -56 -102 -60 -70c-1 6 -10 74 76 150c64 58 118 49 133 49l25 33c20 27 40 123 34 198c-9 107 -15 258 -106 253c-65 -3 -78 -47 -79 -73c-2 -34 18 -48 54 -77l24 -19c34 -27 55 -70 54 -126c-4 -85 -90 -156 -153 -148c-22 2 71 12 74 63c3 58 -117 64 -131 157
c-16 100 68 261 220 249c140 -10 179 -76 188 -89c0 3 42 92 101 90c57 0 95 -82 95 -87c1 1 57 90 204 92c95 1 188 -67 188 -159v-41c0 -6 3 -21 13 -31c15 -16 22 -15 41 -16zM994 143c2 38 -22 62 -55 79l-64 32c-28 14 -58 62 -53 96c6 60 31 100 89 128
c32 16 23 29 25 30c-31 14 -49 13 -73 50c-32 50 -26 149 -75 165c-106 33 -130 -70 -128 -87c4 -29 5 -50 24 -72l64 -77c21 -25 34 -46 32 -78c-7 -76 -77 -153 -89 -158l-1 -23h21c4 0 30 -7 47 -17c12 -8 20 -14 30 -27l66 -83c4 -6 39 -30 68 -29c39 3 70 32 72 71z
M652 253c-4 65 -31 91 -34 95l-71 79c-14 16 -14 32 -15 53c-3 43 23 88 35 106l50 72v11c0 10 -29 43 -76 38c-36 -4 -65 -13 -85 -44c0 -5 -1 -10 0 -15c9 -36 5 -16 7 -26c3 -16 6 -32 6 -45v-56c0 -23 4 -142 -51 -186c-59 -47 -141 -53 -152 -69c-3 -4 -1 1 -1 -15
l53 -27c30 -15 39 -20 69 -40c46 -33 74 -71 130 -63c77 10 140 54 135 132z" />
    <glyph glyph-name="X" unicode="X" horiz-adv-x="775" 
d="M750 643c-5 -58 -55 -108 -110 -99c-44 7 -81 40 -75 87c4 31 22 60 40 72c5 6 6 12 6 20c1 16 -17 23 -31 21c-139 -17 -125 -265 -125 -268v-66h78c16 0 44 1 69 13c38 19 53 74 50 53c-6 -47 0 -78 -43 -124c-20 -22 -71 -23 -74 -23h-77v-30c0 -33 11 -123 101 -159
c58 -23 123 22 126 23c9 4 -5 -16 -11 -23l-138 -144c-37 -1 -117 24 -159 63c-39 36 -48 51 -56 62l-17 27c0 -2 -30 -153 -152 -153c-69 0 -126 72 -123 126c3 51 32 94 92 95c45 0 82 -35 86 -81c3 -37 -20 -61 -35 -72l-1 -16c9 -7 1 -16 27 -16c71 2 94 147 91 150v146
h-99c-7 0 -33 2 -50 -6c-19 -10 -25 -23 -33 -43c-10 -24 -9 54 15 90c23 37 60 42 64 42h103c1 4 20 190 -148 197c-37 2 -115 -47 -92 -19c9 11 22 19 26 22l193 159l81 -46c1 0 30 -19 43 -35c29 -35 50 -69 56 -81c0 4 17 92 84 137c96 66 225 -9 218 -101z" />
    <glyph glyph-name="Y" unicode="Y" horiz-adv-x="813" 
d="M784 321c4 -271 -104 -566 -411 -566c-99 0 -228 43 -218 138c5 47 43 67 100 70c52 2 106 -29 107 -80c1 -47 -37 -57 -59 -61c-6 -2 -9 -6 -15 -8l-2 -11c-2 -8 35 -34 93 -34c213 -2 215 260 215 455v188c0 122 -6 322 -73 305c-49 -11 -54 -55 -51 -76
c5 -48 8 -91 8 -99v-102c0 -21 -5 -73 -27 -101c-24 -30 -63 -54 -64 -54l-65 -43c-7 -4 -12 -9 -15 -17c-1 -6 -1 -10 0 -16c31 -5 50 -11 78 -26c31 -15 69 -54 73 -54c6 1 6 1 13 5l37 26c4 3 19 14 16 8c-1 -6 -6 -12 -11 -16l-89 -71c-16 -12 -26 -21 -41 -33
c-19 -16 -30 -26 -47 -43l-45 58c-31 39 -58 49 -102 52c-84 7 -118 -90 -115 -78c7 47 19 76 53 109c42 40 106 62 139 63c21 48 40 178 37 253c-6 106 -12 269 -124 264c-65 -2 -81 -57 -83 -84c-4 -37 25 -57 53 -80l34 -26c38 -29 50 -66 52 -119
c3 -83 -62 -151 -117 -163c-22 -4 51 21 61 64c8 38 -42 61 -49 65l-47 31c-51 34 -59 75 -57 134c4 102 96 216 204 211c160 -5 192 -66 194 -69l24 -31c6 12 31 100 125 99c167 0 208 -249 211 -437z" />
    <glyph glyph-name="Z" unicode="Z" horiz-adv-x="741" 
d="M713 69c-13 -176 -128 -291 -327 -290c-120 1 -239 44 -254 181c-5 50 -21 90 -47 87c-37 -4 -41 -50 -41 -87v-35c0 -9 -4 -28 -10 -21c-6 6 -6 21 -6 25v49c0 33 14 110 122 121c77 8 141 -66 141 -145v-37c0 -74 36 -130 99 -126c90 6 133 107 133 226v117
c0 95 -46 184 -157 196c-154 17 -187 -179 -189 -144c0 10 8 50 36 87c46 61 58 40 61 64c3 30 -88 18 -91 114c-2 45 38 89 84 84c38 -3 70 -33 69 -72c-1 -36 -40 -71 -40 -72c1 -3 -2 -15 2 -23c3 -2 5 -20 70 -23c94 -4 156 105 150 187c-9 113 -67 196 -171 203
c-75 6 -161 -51 -192 -127c-47 -111 -2 153 237 159c152 3 300 -89 301 -228c0 -143 -158 -180 -174 -183l-12 -20c7 -1 220 -83 206 -267z" />
    <glyph glyph-name="bracketleft" unicode="[" 
d="M237 -231h-213v1002h207v-54h-127l-1 -894h134v-54z" />
    <glyph glyph-name="backslash" unicode="\" horiz-adv-x="380" 
d="M346 0h-68l-251 772h66z" />
    <glyph glyph-name="bracketright" unicode="]" 
d="M233 -233h-214v54h132v893h-126v55h208v-1002z" />
    <glyph glyph-name="asciicircum" unicode="^" horiz-adv-x="347" 
d="M317 715l-51 -19s-37 27 -55 48c-17 20 -37 56 -37 56s-21 -34 -38 -54c-20 -22 -57 -49 -57 -49l-49 19s29 37 42 65c15 32 24 87 24 87h160s2 -49 13 -78c12 -33 48 -75 48 -75z" />
    <glyph glyph-name="underscore" unicode="_" horiz-adv-x="702" 
d="M708 -175h-713v35h713v-35z" />
    <glyph glyph-name="quoteleft" unicode="&#x2018;" horiz-adv-x="268" 
d="M231 488c-7 -5 -36 -21 -51 -38c-20 -24 -50 -64 -50 -64s-28 38 -46 59c-24 25 -60 50 -60 50s10 76 54 138c56 80 140 148 145 142c4 -6 -44 -49 -51 -114c-13 -115 59 -173 59 -173z" />
    <glyph glyph-name="a" unicode="a" horiz-adv-x="527" 
d="M500 136c8 4 -4 -15 -8 -18l-129 -118l-47 39c-1 1 -27 27 -35 48c-9 20 -11 51 -11 55l-140 -142l-25 19c-1 0 -32 24 -54 52c-21 26 -22 91 -22 92v181c0 13 -4 68 19 101c15 22 60 37 64 39l35 15c3 1 56 19 91 41c23 15 45 35 48 37l114 -72c51 -32 95 -33 89 -35
c-18 -7 -68 -22 -68 -90v-193c0 -1 -3 -40 15 -54c23 -18 43 -9 64 3zM272 163v272l-72 39c-5 3 -10 2 -14 -1c-7 -3 -9 -12 -9 -18v-271c0 -2 -3 -48 20 -61c34 -21 75 37 75 40z" />
    <glyph glyph-name="b" unicode="b" horiz-adv-x="528" 
d="M488 199c0 -19 -3 -54 -23 -77c-35 -39 -85 -32 -138 -54c-32 -14 -59 -38 -91 -68l-32 28c-32 29 -77 64 -158 106c-15 8 9 0 38 33c8 10 4 45 4 46v274c0 25 0 103 -20 163c-10 26 -49 81 -39 78c5 -2 22 -13 46 -49l14 -19c18 26 42 57 101 83c59 27 163 25 164 15
c0 -5 -61 -9 -86 -32c-14 -12 -27 -44 -27 -74v-202c1 0 30 9 84 48c31 23 77 64 81 67l56 -51s19 -23 22 -39c4 -21 4 -34 4 -40v-236zM338 134v244c0 28 -13 83 -52 75c-35 -6 -39 -19 -44 -38v-243l67 -46c6 -4 13 -12 20 -8c7 5 9 9 9 16z" />
    <glyph glyph-name="c" unicode="c" horiz-adv-x="438" 
d="M409 147c-12 -15 -130 -89 -131 -90l-78 -57l-52 29c-4 2 -71 32 -91 72c-24 45 -28 141 -28 144v129c0 2 -3 56 17 93c15 30 75 45 77 45l63 21c6 2 41 13 62 22c18 8 58 25 61 26l92 -160l-126 -72l-64 140c-4 3 -8 5 -13 5c-11 -2 -13 -14 -13 -24v-184
c0 -54 22 -103 54 -129c90 -73 197 24 170 -10z" />
    <glyph glyph-name="d" unicode="d" horiz-adv-x="500" 
d="M471 200c0 -19 1 -53 -19 -75c-35 -40 -83 -38 -136 -60c-32 -13 -61 -37 -95 -65l-31 29c-48 45 -80 49 -158 76c-15 6 5 0 32 34c10 11 11 76 11 77v240c5 -2 35 -12 57 -10c33 3 83 22 79 54c-4 29 -38 21 -71 30c-62 17 -102 65 -95 126c14 137 148 114 164 110
c23 -8 19 -12 -20 -12h-21c-5 0 -38 0 -43 -42c-3 -28 26 -41 52 -49l95 -28c54 -15 87 -30 127 -68c62 -59 71 -185 71 -204zM325 336c0 2 -1 76 -23 113c-32 55 -61 56 -79 62v-343l71 -53c7 -4 14 -12 21 -8c7 5 9 9 9 16z" />
    <glyph glyph-name="e" unicode="e" horiz-adv-x="448" 
d="M421 379l-234 -121c5 -52 32 -83 63 -110c46 -41 104 -26 141 -12c27 11 21 15 26 10c4 -6 -25 -29 -42 -40l-175 -106l-53 29c-14 8 -72 47 -96 93c-24 45 -22 93 -22 117v105c0 20 8 77 27 114c16 30 52 46 71 51l60 18c18 5 62 18 83 28c19 8 45 21 45 21zM281 325
l-68 144c-1 3 -4 6 -6 8c-4 6 -11 8 -16 3c-5 -3 -6 -9 -6 -15v-191z" />
    <glyph glyph-name="f" unicode="f" horiz-adv-x="392" 
d="M366 398h-72c-6 -86 -10 -136 -22 -221c-21 -156 -48 -301 -68 -389c-16 -66 -51 205 -69 337c-15 107 -21 171 -25 278h-52c-3 0 -31 6 -29 12c3 11 37 24 51 38c35 33 15 116 15 169c-1 86 30 147 97 144c44 -2 59 -18 62 -21l40 -37c13 -12 21 -12 25 -11
c20 9 18 24 28 37c12 16 9 -157 -88 -144c-62 8 -72 55 -111 57c-17 2 -32 -13 -30 -42c8 -143 247 -125 248 -123v-84z" />
    <glyph glyph-name="g" unicode="g" horiz-adv-x="497" 
d="M480 -36c0 -94 -96 -180 -245 -183c-91 -3 -198 19 -202 106c-2 41 39 70 83 68c52 -3 72 -22 78 -63c5 -36 -47 -69 -49 -69c4 -3 -21 -27 61 -28c74 -1 148 45 142 128c-1 20 -7 32 -17 48l-23 34c-4 6 -29 25 -39 58c-6 21 -3 54 -2 58l-146 -121l-20 17
c-1 0 -30 28 -51 57c-19 25 -24 88 -24 89v190c0 3 -2 42 17 77c16 29 59 38 64 40l35 15c3 1 48 18 82 41c22 15 53 45 56 48l55 -45c55 -46 140 -84 138 -87c-29 -23 -55 -7 -55 -86v-165c0 -1 -4 -62 9 -94c11 -29 53 -54 53 -133zM266 143v263l-66 47c-5 3 -12 9 -16 5
c-16 -14 -9 -36 -9 -39v-263c0 -3 5 -45 29 -55c27 -10 62 39 62 42z" />
    <glyph glyph-name="h" unicode="h" horiz-adv-x="521" 
d="M497 153c0 -4 3 -129 -46 -185c-34 -40 -157 -149 -226 -150c-33 0 68 23 96 110c26 76 21 106 21 206v243c0 27 -7 102 -53 78c-22 -11 -36 -20 -41 -28v-229c0 -62 24 -78 59 -91c5 -2 -44 -25 -67 -47c-33 -32 -53 -63 -55 -65c-3 4 -34 41 -55 60
c-34 32 -81 50 -76 53c46 23 42 58 42 59v309c0 84 -7 95 -27 152c-9 27 -47 84 -36 81c6 -1 33 -39 42 -53l18 -26c3 7 44 75 102 105c58 31 168 37 169 27c1 -4 -59 -14 -86 -40c-16 -15 -30 -69 -30 -109v-163c0 1 27 9 81 48c31 23 89 73 94 77l49 -58
c1 0 15 -22 19 -37c5 -21 6 -42 6 -49v-278z" />
    <glyph glyph-name="i" unicode="i" horiz-adv-x="356" 
d="M248 714c2 -40 -48 -82 -55 -88l-32 -26l-40 39c0 1 -40 42 -38 73c3 38 32 57 79 61c41 3 85 -15 86 -59zM331 125c0 -3 -105 -81 -112 -86l-45 -39c-32 13 -52 27 -70 55c-24 41 -23 118 -23 124v227c0 103 -76 24 -53 57c3 6 132 109 133 108c2 1 36 -42 127 -89
c24 -12 -55 -4 -55 -79v-209c0 -42 15 -61 21 -66c42 -31 79 28 77 -3z" />
    <glyph glyph-name="j" unicode="j" horiz-adv-x="368" 
d="M272 705c0 -35 -30 -64 -37 -68l-43 -23l-36 29c-1 0 -34 34 -32 65c3 36 22 59 69 62c41 3 79 -22 79 -65zM338 463c20 -8 -34 -16 -44 -35c-9 -16 -13 -28 -13 -46v-352c0 -23 7 -55 14 -87c11 -55 55 -120 27 -95c-15 13 -19 25 -27 43l-23 46
c6 -3 -91 -138 -231 -122c-44 5 84 -5 84 119l-1 458c0 53 -23 57 -37 60c-15 4 -32 -8 -48 -14c-31 -10 9 22 10 22l138 111c3 5 60 -70 151 -108z" />
    <glyph glyph-name="k" unicode="k" horiz-adv-x="389" 
d="M365 626c0 -27 -13 -48 -42 -46c-43 3 -36 67 -35 68c-1 0 -27 1 -36 -14c-25 -40 -21 -82 -21 -84v-40l133 7v-70h-133v-247c0 -42 12 -55 25 -63c42 -25 94 44 89 25c-4 -20 -16 -27 -17 -27l-160 -135l-19 20c-80 86 -119 93 -107 99c40 20 38 44 38 61v265h-34
c-3 0 -15 0 -18 2c-20 18 53 34 53 134v26c0 1 5 47 -49 137c-3 6 7 11 23 -17l39 -64c31 43 44 54 81 74c41 21 166 44 180 28c10 -10 -58 8 -108 -39c-19 -17 -16 -60 -16 -65v-29c0 2 46 61 90 52c30 -6 45 -29 44 -58z" />
    <glyph glyph-name="l" unicode="l" horiz-adv-x="359" 
d="M330 102c-5 -8 -64 -38 -127 -84l-25 -18l-27 20c-105 79 -134 79 -116 84c54 15 48 83 48 85v278c0 25 1 102 -20 162c-9 27 -41 88 -31 85c5 -2 28 -23 45 -62l12 -29c4 8 44 66 100 94c67 33 141 29 140 18c-2 -7 -52 -12 -75 -35c-16 -15 -18 -85 -18 -94v-397
c0 -23 -8 -104 49 -108c25 -1 54 20 45 1z" />
    <glyph glyph-name="m" unicode="m" horiz-adv-x="839" 
d="M816 122c-2 -6 -38 -38 -43 -41l-95 -81l-45 33c-1 0 -27 20 -36 38c-7 15 -11 27 -11 44v273c0 44 -21 52 -44 50c-35 -4 -51 -13 -51 -82l1 -186c0 -2 -10 -54 47 -75c3 -2 -33 -24 -65 -50c-21 -18 -44 -42 -47 -45c-9 10 -32 33 -54 51c-32 26 -59 35 -55 38
c43 27 33 77 33 78v184c0 40 -4 97 -45 93c-29 -3 -52 -17 -52 -55v-236c0 -3 -2 -52 28 -67c6 -2 -34 -19 -59 -39c-37 -29 -51 -45 -53 -47c-4 4 -33 31 -55 49c-32 27 -57 39 -53 40c46 19 37 70 37 71v192c0 1 2 39 -10 57c-20 29 -50 11 -60 12c-4 0 -4 5 0 8l127 124
c12 -2 44 -17 63 -37c23 -25 34 -78 34 -85c28 19 44 32 69 54c31 26 49 43 77 73c9 -3 40 -21 60 -41c27 -25 33 -61 32 -91c31 21 49 34 79 56c36 28 57 45 91 76c20 -27 36 -40 60 -64c31 -30 60 -39 60 -43c1 -3 -25 -13 -35 -28c-8 -11 -8 -21 -8 -34v-171
c0 -69 17 -88 37 -94c23 -5 52 21 41 -2z" />
    <glyph glyph-name="n" unicode="n" horiz-adv-x="599" 
d="M573 122c-3 -6 -5 -7 -9 -11l-138 -111c-6 4 -31 15 -63 63c-17 26 -16 84 -16 91v207c0 28 10 122 -51 93c-39 -18 -48 -22 -48 -74v-202c0 -3 5 -60 41 -76c5 -1 -41 -24 -66 -45c-36 -30 -55 -55 -57 -57c-2 5 -29 48 -51 66c-32 28 -62 39 -57 42c43 21 37 66 37 67
v206c0 40 -1 49 -11 61c-23 26 -45 3 -55 5c-4 0 -5 6 3 12l137 114c11 -6 33 -21 47 -40c23 -28 36 -81 36 -88c35 20 55 34 88 57c35 24 56 40 89 67c2 1 45 -64 118 -107c23 -14 -17 -1 -41 -41c-11 -18 -11 -38 -11 -54v-177c0 -30 16 -66 36 -69c25 -3 52 24 42 1z" />
    <glyph glyph-name="o" unicode="o" horiz-adv-x="508" 
d="M482 383l-4 -173c0 -3 2 -74 -26 -103c-37 -38 -94 -32 -153 -53c-25 -8 -43 -30 -65 -54l-46 36c-9 7 -90 60 -153 88c-19 9 -1 0 26 29c9 10 9 33 9 34v292c89 -1 107 5 168 21c62 17 95 32 151 66c2 -1 61 -54 79 -95c12 -27 15 -62 14 -88zM324 131v247
c0 55 -43 87 -73 101c-17 7 -24 -15 -24 -15v-289l73 -62c24 -17 10 -5 16 -3c9 3 8 11 8 21z" />
    <glyph glyph-name="p" unicode="p" horiz-adv-x="567" 
d="M538 413l-1 -245c0 -28 -18 -53 -34 -66c-31 -24 -49 -14 -108 -43c-32 -16 -62 -57 -68 -64l-47 34c3 -3 -87 -257 -89 -263c-5 -13 -61 330 -60 330c-10 9 -15 16 -39 16c-29 -1 -31 -18 -60 -53c-10 -12 -5 114 39 142c19 12 53 12 63 11v197c0 14 -1 29 -16 39
c-23 16 -47 31 -44 90c7 115 133 135 151 112c8 -9 -57 0 -69 -41c-4 -16 13 -30 28 -35l37 -10c22 -6 32 -6 51 -28c20 -20 17 -77 17 -78v-31c1 0 34 13 90 50c31 20 85 59 89 62l26 -21c1 -1 30 -37 38 -57c9 -21 6 -46 6 -48zM395 112v229c0 3 -2 96 -47 92
c-27 -1 -54 -17 -59 -24v-240l84 -70c5 -4 13 -4 18 0c4 3 4 8 4 13z" />
    <glyph glyph-name="q" unicode="q" horiz-adv-x="515" 
d="M488 435c-12 -8 -59 5 -59 -81v-276c0 -58 -61 -265 -67 -284c-13 -35 -84 287 -84 348v261l-74 44c-9 6 -12 4 -16 -2s-4 -7 -4 -13v-243c0 -3 -1 -43 20 -60c14 -11 21 -12 39 -11c1 0 11 -1 14 0c5 2 -11 -14 -12 -14l-120 -108l-28 18c-1 0 -19 11 -42 40
c-20 26 -22 86 -22 89v202c0 13 -9 51 14 85c15 21 51 32 57 34l59 25c3 2 24 14 59 37c23 15 48 43 52 47c9 -8 21 -19 65 -54c57 -46 156 -79 149 -84z" />
    <glyph glyph-name="r" unicode="r" horiz-adv-x="499" 
d="M477 421l-111 -100l-61 117c-4 7 -7 10 -16 7c-20 -6 -35 -32 -34 -36v-200c0 -55 23 -75 43 -83c56 -24 123 42 100 8c-3 -4 -8 -8 -10 -9c-7 -7 -53 -37 -88 -64c-7 -6 -18 -13 -84 -63l-13 12c-52 47 -102 79 -154 114c-13 9 12 -2 40 24c12 10 10 43 10 44v197
c0 4 2 33 -10 54c-12 23 -46 10 -57 10c-4 0 -5 3 -1 6l132 118c11 -4 33 -18 52 -38c35 -36 40 -103 40 -105c26 19 43 31 79 66c26 26 57 57 60 61z" />
    <glyph glyph-name="s" unicode="s" horiz-adv-x="513" 
d="M488 251c-6 -55 -84 -109 -86 -111l-75 -62c-20 -15 -30 -26 -47 -43c-13 -13 -21 -21 -33 -35c-26 35 -50 51 -87 72c-47 28 -109 31 -129 28c-24 -3 88 74 92 126c1 10 -6 17 -14 22l-51 38c-22 15 -28 37 -29 64c-2 68 54 122 116 164c25 17 47 41 60 56l32 38l19 -18
c1 0 44 -49 91 -48c32 2 73 15 74 73c2 76 -67 137 -143 133c-118 -5 -139 -93 -148 -110c-12 -23 3 124 150 126c100 2 179 -79 182 -184c2 -79 -64 -136 -66 -139c0 -2 -6 -18 8 -35c44 -53 91 -76 84 -155zM361 406v15h-31c-40 -1 -74 8 -102 23c-30 17 -45 29 -66 54
c-4 -6 -19 -19 -22 -44c-6 -67 39 -133 116 -130c59 3 105 57 105 82zM377 194c0 65 -48 122 -120 117c-83 -5 -100 -73 -103 -91c3 0 38 -2 87 -20c37 -13 95 -74 103 -85c23 24 33 46 33 79z" />
    <glyph glyph-name="t" unicode="t" horiz-adv-x="362" 
d="M333 433h-103v-226c0 -6 -5 -40 20 -59c39 -30 72 0 63 -14c-15 -21 -65 -53 -89 -77l-57 -57l-17 20c-75 91 -129 105 -117 109c42 16 48 34 48 51v256h-38c-2 0 -18 3 -18 4c0 18 49 53 88 95c35 35 91 131 106 184c1 2 5 3 13 8l-1 -222h102v-72z" />
    <glyph glyph-name="u" unicode="u" horiz-adv-x="602" 
d="M570 121c6 3 3 -7 -5 -14l-120 -107c-10 5 -35 19 -57 40c-32 29 -41 70 -43 76c-6 -4 -20 -9 -85 -58c-29 -22 -47 -35 -74 -58c-2 -1 -46 48 -111 92c-26 18 -1 0 21 33c12 17 7 26 7 28v218c0 29 -1 65 -34 67c-20 1 -55 -15 -37 1c10 9 10 10 11 11l127 121
c7 -4 29 -21 61 -69c17 -26 19 -92 19 -96v-228c0 -1 -11 -101 53 -73c39 17 47 25 47 76v224c0 30 -9 48 -49 72c-3 2 38 15 66 38c40 34 48 59 50 61c3 -4 27 -40 49 -59c46 -38 72 -49 67 -50c-44 -17 -42 -61 -42 -81v-205c0 -30 10 -51 24 -62c17 -14 46 -3 55 2z" />
    <glyph glyph-name="v" unicode="v" horiz-adv-x="513" 
d="M489 216c0 -19 -4 -68 -34 -89c-43 -30 -79 -29 -129 -52c-31 -15 -79 -62 -92 -76l-28 25c-49 44 -95 66 -166 106c-14 7 19 5 46 38c9 12 6 47 6 48v216c0 7 1 32 -18 51c-16 15 -57 22 -48 79c15 103 128 123 163 102c14 -8 -62 6 -73 -38c-4 -16 7 -36 23 -40l35 -7
c21 -3 32 -8 47 -29c15 -23 12 -59 12 -61l1 -36s56 36 90 61c32 22 52 38 83 62l59 -61c5 -4 16 -23 20 -40c4 -19 3 -34 3 -37v-222zM336 417c0 34 -18 57 -32 57c-37 -2 -76 -42 -67 -66v-228l71 -48c7 -4 13 -12 21 -8c6 5 7 7 7 15v278z" />
    <glyph glyph-name="w" unicode="w" horiz-adv-x="771" 
d="M745 194c0 -19 -5 -61 -31 -82c-41 -32 -79 -27 -128 -54c-30 -16 -50 -34 -77 -60c-1 -3 -67 64 -179 115c-9 5 12 8 18 21c3 7 2 12 2 20v245c0 1 -5 57 -40 49c-22 -4 -50 -21 -48 -47v-228c0 -11 1 -32 12 -45c13 -15 27 -20 25 -22c-16 -14 -40 -27 -61 -48
c-20 -20 -32 -34 -48 -58c-1 -1 -37 63 -116 102c-10 5 19 10 26 28c5 13 3 15 3 23v251c0 4 9 19 -22 32c-9 5 -53 28 -49 91c7 105 126 132 155 110c26 -20 -48 9 -64 -34c-16 -40 28 -45 43 -50l29 -9c15 -5 18 -3 36 -21c20 -18 29 -43 30 -74l1 -12c0 1 27 19 65 58
c27 29 50 51 73 78l23 -17c1 -1 31 -26 50 -44c24 -23 28 -63 28 -64v-7c1 0 46 37 72 62c27 26 42 42 67 69l69 -67c5 -5 23 -32 29 -48c8 -18 7 -41 7 -44v-219zM594 134v255c0 34 -11 62 -29 68c-33 11 -65 -36 -63 -53v-233l64 -46c7 -4 16 -12 22 -7c8 6 6 9 6 16z" />
    <glyph glyph-name="x" unicode="x" horiz-adv-x="524" 
d="M502 416l-109 -105l-61 117c-5 8 -7 8 -13 8c-30 2 -42 -40 -41 -44v-180c0 -55 14 -72 41 -86c54 -28 131 43 108 10c-3 -4 -60 -52 -94 -79c-8 -6 -24 -20 -89 -71l-32 39c-38 46 -92 47 -126 18c-28 -24 -37 -52 -37 -78c-1 -49 31 -92 41 -105c13 -15 61 -49 105 -49
c95 0 100 74 117 111c17 35 35 41 61 42c37 1 53 -28 47 -59c-13 -70 -99 -111 -176 -111c-110 0 -151 49 -161 60c-14 15 -48 50 -54 113c-2 22 1 114 81 161c12 7 19 28 19 50v212c0 26 -10 38 -23 47c-21 13 -52 -11 -62 -10c-4 0 11 18 13 19l132 130
c11 -5 33 -25 52 -41c45 -41 39 -111 39 -113c24 22 43 42 79 77c27 26 60 66 62 68z" />
    <glyph glyph-name="y" unicode="y" horiz-adv-x="539" 
d="M514 142c0 -80 4 -136 -47 -186c-65 -64 -164 -135 -233 -138c-32 -1 71 16 99 102c25 76 18 106 18 205v259c0 36 -4 89 -52 70c-27 -10 -40 -28 -43 -37v-227c0 -98 50 -67 62 -71c6 -1 -40 -38 -63 -60c-33 -32 -67 -66 -69 -68c-23 30 -30 37 -52 54
c-36 30 -89 48 -85 51c32 22 46 22 46 71v261c0 2 7 16 -43 50c-9 7 -28 28 -20 84c16 104 145 129 178 108c15 -9 -70 3 -86 -44c-8 -20 18 -38 33 -43l32 -11c22 -7 33 -16 50 -34c18 -21 22 -83 20 -93c0 1 26 14 80 53c30 23 82 70 86 73l57 -60s21 -26 26 -41
c6 -20 6 -52 6 -58v-270z" />
    <glyph glyph-name="z" unicode="z" horiz-adv-x="415" 
d="M387 72c2 -173 -146 -269 -210 -272c-157 -7 -149 152 -149 190c1 176 130 247 132 247c-4 4 -5 13 -26 14c-32 3 -71 -66 -95 -42c-22 22 27 49 44 50c56 3 94 48 91 100c-2 41 -21 85 -62 86c-22 1 -68 -34 -57 -17c9 14 57 52 91 81c28 23 46 45 65 66
c2 -3 15 -26 28 -40c30 -33 67 -53 69 -103c1 -32 -13 -56 -39 -74l-57 -41c-15 -10 -23 -23 -13 -31c45 -35 137 52 178 29c25 -13 -112 -16 -97 -46c12 -24 105 -62 107 -197zM227 36c2 141 -50 192 -52 194c-76 -43 -121 -118 -121 -244c0 -47 -1 -164 97 -167
c79 -2 75 171 76 217z" />
    <glyph glyph-name="braceleft" unicode="{" horiz-adv-x="297" 
d="M277 -230l-31 -1c-56 -3 -116 35 -126 73c-5 19 -10 40 -10 65v245c0 35 -6 67 -25 87c-17 17 -38 29 -66 30c32 5 56 22 73 44c23 29 20 57 20 94v213c0 48 4 85 38 118c28 26 56 28 95 29l29 1c-32 -9 -52 -22 -71 -50c-21 -30 -22 -55 -22 -91v-221
c0 -35 -3 -68 -28 -97c-19 -21 -35 -32 -63 -39c28 -5 46 -13 63 -36c26 -31 27 -63 27 -106v-235c0 -29 3 -49 20 -73c21 -29 42 -44 77 -50z" />
    <glyph glyph-name="bar" unicode="|" horiz-adv-x="112" 
d="M84 766l-1 -997h-55v997h56z" />
    <glyph glyph-name="braceright" unicode="}" horiz-adv-x="293" 
d="M275 265c-28 -2 -49 -14 -66 -31c-19 -20 -25 -52 -25 -87v-245c0 -25 -5 -46 -10 -65c-10 -38 -69 -76 -126 -73l-31 2c35 6 57 21 78 49c17 24 20 44 20 73v236c0 42 0 74 26 106c18 22 36 30 63 35c-27 7 -44 18 -62 39c-26 29 -29 62 -29 97v221c0 36 -1 62 -21 91
c-20 28 -40 42 -72 50h29c39 -2 67 -4 95 -31c34 -32 38 -69 38 -117v-213c0 -37 -2 -64 21 -94c16 -22 40 -39 72 -43z" />
    <glyph glyph-name="asciitilde" unicode="~" horiz-adv-x="333" 
d="M328 741l-18 -31c-18 -31 -35 -51 -68 -54c-23 -1 -36 8 -57 19l-55 31c-17 10 -35 16 -53 6c-12 -6 -17 -15 -24 -25l-17 -24l-28 32l24 42c15 27 31 42 58 45c21 3 42 -2 63 -14l53 -32c14 -10 27 -17 44 -13c20 5 29 19 41 36l9 14z" />
    <glyph glyph-name="exclamdown" unicode="&#xa1;" horiz-adv-x="259" 
d="M229 482c-10 -8 -34 -29 -53 -49c-20 -23 -41 -51 -48 -62c-5 7 -27 35 -45 55c-19 20 -43 41 -54 50c14 11 33 29 52 47c19 19 40 42 48 53c10 -11 27 -29 45 -46c20 -19 42 -38 55 -48zM212 -39c3 -56 -31 -114 -88 -116c-59 -2 -93 63 -92 123c2 77 35 127 64 209
c29 79 20 157 35 157c17 0 8 -39 15 -82c20 -136 61 -172 66 -291z" />
    <glyph glyph-name="cent" unicode="&#xa2;" horiz-adv-x="436" 
d="M345 291c-9 -11 -91 -63 -91 -63l-48 -35c7 -34 9 -61 6 -101c-2 -29 -5 -46 -12 -75c-3 13 -5 21 -11 32c-4 9 -6 17 -12 23v128l-15 8c-2 1 -49 23 -64 50c-16 32 -19 99 -19 101v90c0 2 -2 40 11 65c12 21 53 32 55 32l38 13c-11 41 -14 70 -11 115c3 29 5 46 13 75
c2 -13 5 -21 10 -32c5 -9 6 -17 13 -23v-127c8 3 17 6 24 9c13 6 41 18 43 18l64 -112l-88 -50l-45 98c-2 2 -5 3 -9 3c-7 -1 -9 -9 -9 -16v-129c0 -38 15 -72 38 -91c63 -50 138 18 119 -6z" />
    <glyph glyph-name="sterling" unicode="&#xa3;" horiz-adv-x="643" 
d="M613 367c25 27 -13 -45 -66 -70c-21 -11 -37 -20 -59 -19c-91 8 -132 102 -127 135c8 57 25 81 28 86l44 69c17 28 26 50 24 83c-6 71 -75 115 -146 111c-64 -4 -124 -43 -128 -104c-2 -35 12 -58 36 -85l46 -50c20 -21 38 -59 38 -101c-1 -101 -63 -99 -74 -117
c-1 -1 -3 -2 -4 -4h119v-29h-143v-4c3 -1 32 -13 57 -29c24 -14 37 -26 59 -44l49 -39c36 -29 66 -41 111 -41c54 0 81 31 119 80c12 17 -32 -158 -178 -199c-70 -20 -165 49 -178 61l-99 85c-15 13 -33 22 -55 24c-48 6 -70 -111 -67 -75c11 98 67 130 73 135
c18 15 53 24 63 33c15 15 9 8 14 13h-106v29h120l1 5v22c0 7 -2 11 -4 18c-5 11 -9 18 -17 25l-83 76c-9 9 -52 64 -49 111c10 138 141 218 279 217c131 -1 252 -66 281 -190c7 -33 -5 -74 -27 -112l-55 -88c-9 -15 -21 -48 -14 -66c8 -18 27 -27 55 -10c29 15 37 30 63 58z
" />
    <glyph glyph-name="yen" unicode="&#xa5;" horiz-adv-x="973" 
d="M958 250l-9 -49s-61 -11 -102 -11c-21 0 -47 5 -69 9c-2 -22 -5 -43 -9 -65c19 -10 44 -22 63 -29c37 -12 97 -22 97 -22l-9 -48s-61 -11 -101 -11c-24 1 -54 6 -78 10c-56 -158 -171 -279 -368 -279c-99 0 -228 43 -218 138c5 47 43 67 100 70c52 2 106 -29 107 -80
c1 -47 -37 -57 -59 -61c-6 -2 -9 -6 -15 -8l-2 -11c-2 -8 35 -34 93 -34c213 -2 215 260 215 455v188c0 122 -6 322 -73 305c-49 -11 -54 -55 -51 -76c5 -48 8 -91 8 -99v-102c0 -21 -5 -73 -27 -101c-24 -30 -63 -54 -64 -54l-65 -43c-7 -4 -12 -9 -15 -17
c-1 -6 -1 -10 0 -16c31 -5 50 -11 78 -26c31 -15 69 -54 73 -54c6 1 6 1 13 5l37 26c4 3 19 14 16 8c-1 -6 -6 -12 -11 -16l-89 -71c-16 -12 -26 -21 -41 -33c-19 -16 -30 -26 -47 -43l-45 58c-31 39 -58 49 -102 52c-84 7 -118 -90 -115 -78c7 47 19 76 53 109
c42 40 106 62 139 63c21 48 40 178 37 253c-6 106 -12 269 -124 264c-65 -2 -81 -57 -83 -84c-4 -37 25 -57 53 -80l34 -26c38 -29 50 -66 52 -119c3 -83 -62 -151 -117 -163c-22 -4 51 21 61 64c8 38 -42 61 -49 65l-47 31c-51 34 -59 75 -57 134c4 102 96 216 204 211
c160 -5 192 -66 194 -69l24 -31c6 12 31 100 125 99c167 0 208 -249 211 -437v-13c23 -13 53 -28 77 -37c37 -12 97 -21 97 -21z" />
    <glyph glyph-name="florin" unicode="&#x192;" horiz-adv-x="533" 
d="M502 832c-10 -25 -30 -39 -57 -40c-16 0 -21 15 -36 22c-48 26 -40 -137 -62 -226l-6 -21h108l-6 -45h-113l-65 -325c-21 -105 -87 -369 -212 -332c-20 6 -37 30 -29 51c7 23 25 38 50 39c25 2 20 -25 38 -30c44 -14 62 133 79 222l75 376h-118l3 44h132l6 30
c26 125 77 285 163 285c27 0 59 -25 50 -50z" />
    <glyph glyph-name="section" unicode="&#xa7;" horiz-adv-x="567" 
d="M539 237c-2 -68 -35 -112 -91 -151l-33 -22c44 -33 63 -72 65 -127c3 -100 -85 -168 -194 -171c-124 -3 -209 96 -204 209h67c-6 -44 5 -80 36 -109c56 -51 177 -53 210 21c25 57 2 122 -51 157l-228 151c-55 36 -85 82 -84 148c1 67 32 113 89 148l27 17
c-39 35 -55 72 -55 126c2 97 93 162 191 162c124 1 204 -89 199 -203h-62c6 54 -15 103 -65 127c-67 33 -173 9 -190 -67c-14 -60 26 -107 79 -140l162 -101c72 -44 134 -91 132 -175zM475 225c0 44 -21 74 -58 97l-231 148l-23 -12c-42 -23 -69 -55 -70 -102
c-1 -49 25 -81 66 -108l219 -146l27 17c42 26 71 57 70 106z" />
    <glyph glyph-name="quotesingle" unicode="'" horiz-adv-x="257" 
d="M230 661c-8 -5 -39 -29 -55 -52c-26 -35 -40 -53 -39 -92c4 -119 -6 -113 -15 -115c-20 -4 -14 33 -16 114c-1 77 -31 101 -33 103l-43 54c14 9 36 28 52 44c20 20 26 28 40 52c24 -32 29 -33 45 -53c17 -22 51 -46 64 -55z" />
    <glyph glyph-name="quotedblleft" unicode="&#x201c;" horiz-adv-x="528" 
d="M480 488c-7 -5 -35 -21 -50 -38c-21 -24 -51 -64 -51 -64s-27 38 -46 59c-23 25 -60 50 -60 50s11 76 54 138c56 80 141 148 146 142c4 -6 -44 -49 -52 -114c-12 -115 59 -173 59 -173zM231 488c-7 -5 -36 -21 -51 -38c-20 -24 -50 -64 -50 -64s-28 38 -46 59
c-24 25 -60 50 -60 50s10 76 54 138c56 80 140 148 145 142c4 -6 -44 -49 -51 -114c-13 -115 59 -173 59 -173z" />
    <glyph glyph-name="guillemotleft" unicode="&#xab;" horiz-adv-x="561" 
d="M539 422l-162 -116l158 -112v-117l-224 175v112l228 168v-110zM253 422l-161 -116l158 -112v-117l-224 175v112l227 168v-110z" />
    <glyph glyph-name="endash" unicode="&#x2013;" horiz-adv-x="415" 
d="M391 244l-47 24h-260l-51 -24v148l47 -29h266l45 29v-148z" />
    <glyph glyph-name="dagger" unicode="&#x2020;" horiz-adv-x="587" 
d="M561 462h-239v-692h-62v692h-235v67h235v241h64v-241h237v-67z" />
    <glyph glyph-name="periodcentered" unicode="&#xb7;" horiz-adv-x="284" 
d="M267 383c-25 -20 -40 -33 -61 -57c-25 -25 -38 -41 -58 -69c-18 27 -30 42 -52 65s-36 35 -61 54c23 19 37 32 57 54c23 24 36 40 55 67c18 -26 30 -41 53 -62c24 -23 39 -35 67 -52z" />
    <glyph glyph-name="paragraph" unicode="&#xb6;" horiz-adv-x="553" 
d="M527 -222h-73v927h-135v-928l-74 -2v574c-117 1 -212 96 -213 213c-1 120 93 219 219 218l276 -2v-1000z" />
    <glyph glyph-name="bullet" unicode="&#x2022;" horiz-adv-x="274" 
d="M250 357c-7 -5 -39 -30 -60 -51c-24 -25 -47 -58 -55 -71c-6 10 -27 41 -46 63c-21 26 -37 40 -63 60c23 16 37 28 57 49c22 26 45 63 51 73c7 -12 31 -45 54 -69c21 -22 53 -47 62 -54z" />
    <glyph glyph-name="quotesinglbase" unicode="&#x201a;" 
d="M239 82c0 0 -11 -75 -54 -137c-56 -81 -140 -149 -145 -142c-4 6 44 48 51 113c13 116 -59 174 -59 174c7 5 36 20 51 38c20 24 50 64 50 64s27 -39 46 -59c24 -26 60 -51 60 -51z" />
    <glyph glyph-name="quotedblbase" unicode="&#x201e;" horiz-adv-x="524" 
d="M489 82c0 0 -11 -75 -54 -137c-56 -81 -141 -149 -146 -142c-4 6 44 48 52 113c12 116 -60 174 -60 174c8 5 36 20 51 38c21 24 51 64 51 64s27 -39 46 -59c23 -26 60 -51 60 -51zM239 82c0 0 -11 -75 -54 -137c-56 -81 -140 -149 -145 -142c-4 6 44 48 51 113
c13 116 -59 174 -59 174c7 5 36 20 51 38c20 24 50 64 50 64s27 -39 46 -59c24 -26 60 -51 60 -51z" />
    <glyph glyph-name="quotedblright" unicode="&#x201d;" horiz-adv-x="528" 
d="M489 657c0 0 -11 -75 -54 -137c-56 -81 -141 -149 -146 -142c-4 6 44 48 52 113c12 116 -60 174 -60 174c8 5 36 20 51 38c21 24 51 64 51 64s27 -39 46 -59c23 -26 60 -51 60 -51zM239 657c0 0 -11 -75 -54 -137c-56 -81 -140 -149 -145 -142c-4 6 44 48 51 113
c13 116 -59 174 -59 174c7 5 36 20 51 38c20 24 50 64 50 64s27 -39 46 -59c24 -26 60 -51 60 -51z" />
    <glyph glyph-name="guillemotright" unicode="&#xbb;" horiz-adv-x="571" 
d="M541 252l-225 -175v117l158 112l-161 116v110l228 -168v-112zM255 252l-224 -175v117l158 112l-161 116v110l227 -168v-112z" />
    <glyph glyph-name="ellipsis" unicode="&#x2026;" horiz-adv-x="820" 
d="M797 100c-13 -11 -33 -28 -51 -47c-20 -19 -40 -42 -49 -53c-9 11 -27 29 -44 46c-21 19 -43 38 -56 49c11 7 35 29 53 48c20 23 41 52 49 63c4 -8 26 -35 44 -55c20 -21 43 -42 54 -51zM512 100c-14 -11 -33 -28 -51 -47c-20 -19 -35 -36 -49 -53c-11 13 -27 29 -44 46
c-21 19 -43 38 -56 49c10 7 35 29 53 48c20 23 41 52 49 63c4 -8 26 -35 44 -55c19 -21 43 -42 54 -51zM226 100c-14 -11 -33 -28 -52 -47s-40 -42 -48 -53c-10 11 -27 29 -45 46c-20 19 -42 38 -55 49c10 7 34 29 53 48c20 23 41 52 48 63c5 -8 27 -35 45 -55
c19 -21 43 -42 54 -51z" />
    <glyph glyph-name="questiondown" unicode="&#xbf;" horiz-adv-x="464" 
d="M324 471c-8 -4 -30 -19 -45 -33c-20 -20 -42 -50 -46 -58c-5 8 -21 34 -37 52c-17 18 -41 37 -49 42c7 6 31 29 49 50c16 18 34 44 39 52c4 -7 24 -32 39 -50c18 -21 44 -49 50 -55zM438 -2c-12 -98 -94 -154 -173 -152c-105 3 -234 61 -236 173c-2 60 25 103 78 126
l126 53c20 8 55 46 53 84c-3 45 -36 72 -65 68c-104 -15 -90 -136 -96 -128c-23 30 11 122 82 136c29 5 97 5 108 -96c3 -23 -8 -50 -19 -70l-79 -135c-14 -23 -17 -48 -17 -65c-1 -34 6 -111 86 -126c35 -6 82 15 91 47c5 13 -1 22 -8 33c-5 0 -71 -12 -75 67
c-2 41 31 78 72 79c46 0 78 -45 72 -94z" />
    <glyph glyph-name="grave" unicode="`" horiz-adv-x="285" 
d="M250 675l-32 -37s-59 21 -94 41c-40 24 -92 76 -92 76c16 15 26 26 40 42c15 17 24 29 38 47c0 0 36 -66 67 -101c25 -29 73 -68 73 -68z" />
    <glyph glyph-name="acute" unicode="&#xb4;" horiz-adv-x="274" 
d="M249 751c0 0 -53 -52 -93 -76c-34 -20 -93 -41 -93 -41l-32 37s48 38 73 67c30 36 67 102 67 102s23 -30 38 -47c14 -17 40 -42 40 -42z" />
    <glyph glyph-name="dieresis" unicode="&#xa8;" horiz-adv-x="348" 
d="M323 703c-8 -7 -21 -18 -34 -30c-12 -13 -26 -29 -31 -35c-6 7 -17 19 -29 30c-13 12 -28 25 -36 31c7 6 22 19 34 32c14 15 27 34 32 41c3 -5 17 -23 29 -36s28 -27 35 -33zM151 703c-9 -7 -21 -18 -34 -30c-13 -13 -26 -29 -31 -35c-6 7 -18 19 -29 30
c-14 12 -29 25 -37 31c7 6 23 19 35 32c13 15 27 34 31 41c4 -5 18 -23 30 -36s27 -27 35 -33z" />
    <glyph glyph-name="emdash" unicode="&#x2014;" horiz-adv-x="652" 
d="M621 242l-44 26h-504l-44 -26v149l44 -25h504l44 25v-149z" />
    <glyph glyph-name="AE" unicode="&#xc6;" horiz-adv-x="1302" 
d="M1269 470c-4 -40 -24 -81 -65 -81c-37 0 -65 34 -66 71c-1 22 5 38 20 54c0 6 11 35 -22 35c-34 1 -52 -44 -54 -77c-3 -58 45 -88 40 -166c-4 -84 -69 -153 -150 -158c-200 -12 -190 285 -151 130c10 -39 51 -119 107 -99c64 23 23 84 21 86l-126 167
c-22 30 -27 57 -26 94c2 63 83 136 84 138l22 27c-31 39 -36 53 -80 55c-98 5 -120 -210 -119 -322c2 -130 61 -394 252 -396c242 0 275 191 284 177c5 -8 -53 -203 -351 -203c-85 0 -190 39 -246 96c-38 37 -78 109 -78 109s-56 -56 -90 -93c-39 -43 -62 -69 -99 -114
c-17 45 -58 83 -111 96c-68 17 -120 -10 -150 -45c-29 -35 21 108 157 185c6 3 8 20 8 20l30 136c20 87 -16 336 -145 324c-41 -4 -75 -24 -76 -63c-3 -48 54 -56 96 -82c120 -76 66 -293 -48 -297c-35 0 55 0 54 73c-1 21 -16 32 -32 43l-56 36c-48 32 -62 77 -64 134
c-3 113 100 212 230 212c161 0 219 -91 217 -242c-1 -91 -7 -165 -92 -215l-76 -44c-7 -3 -15 -6 -16 -14c-3 -15 -2 -16 0 -21c20 -1 59 -9 95 -28s54 -37 77 -70l91 88v315c0 25 -1 52 -7 88c-5 27 -36 104 -26 101c6 -2 15 -19 32 -59l13 -30c14 6 57 135 226 135
c58 0 80 -18 122 -73l151 89c8 -5 18 -11 22 -15c21 -19 24 -37 58 -47c42 -12 85 10 107 34c26 29 -21 -77 -102 -112c-56 -25 -137 -8 -166 18l-37 33l-15 -8c-18 -10 -24 -24 -27 -48c-2 -24 24 -59 29 -65l95 -105c6 -6 14 -18 18 -10c23 38 10 104 115 110
c56 3 102 -52 96 -107z" />
    <glyph glyph-name="ordfeminine" unicode="&#xaa;" horiz-adv-x="286" 
d="M262 552c3 2 -3 -8 -5 -10l-64 -58l-24 19s-13 14 -17 24s-6 26 -6 28l-69 -71l-13 9c-1 0 -16 12 -27 27c-10 12 -11 45 -11 45v91c0 6 -2 34 10 50c7 11 30 19 32 20l17 8c1 0 28 9 45 20c12 7 23 18 24 19l57 -36c26 -17 48 -17 45 -18c-10 -4 -34 -11 -34 -45v-97
s-1 -20 8 -27c11 -9 20 -4 32 2zM256 396l-31 12h-168l-34 -12v74l31 -14h173l29 14v-74zM147 565v137l-36 19c-2 1 -5 1 -7 -1c-3 -1 -5 -6 -5 -9v-135c0 -1 -2 -24 11 -29c19 -8 37 17 37 18z" />
    <glyph glyph-name="Oslash" unicode="&#xd8;" horiz-adv-x="852" 
d="M826 370c6 -180 -108 -355 -349 -368c-53 -3 -87 8 -135 32l-19 9c-11 -21 -24 -43 -42 -69c-23 -34 -37 -54 -68 -83c5 17 8 29 9 46c2 15 6 26 2 38l53 92l-48 25c-12 6 -75 36 -124 27c-33 -5 -87 -79 -74 -48c38 89 118 169 227 168c125 -2 212 -100 352 -108
c123 -6 202 101 192 207c-30 293 -272 219 -390 219h-47c-31 0 -53 8 -76 28c-21 18 -36 35 -36 64v58l-8 2c-8 3 -43 -23 -48 -70c-3 -21 10 -49 14 -53l54 -69c29 -36 36 -69 38 -113c3 -91 -79 -150 -166 -150c-113 2 -128 172 -102 106c16 -40 29 -67 71 -82
c21 -6 46 7 45 40c-2 21 -10 33 -21 51l-34 53c-7 13 -33 51 -30 90c14 152 179 258 356 252c83 -2 152 -20 209 -49c6 11 13 23 22 35c23 35 38 54 69 84c-6 -17 -9 -29 -10 -47c-2 -14 -6 -25 -1 -37l-36 -62c97 -70 145 -182 151 -318z" />
    <glyph glyph-name="OE" unicode="&#x152;" horiz-adv-x="1424" 
d="M1396 470c-4 -40 -25 -81 -65 -81c-37 0 -65 34 -66 71c-1 22 4 38 20 54c-1 6 10 35 -22 35c-34 1 -53 -44 -54 -77c-3 -58 45 -88 40 -166c-5 -84 -70 -153 -151 -158c-199 -12 -189 285 -150 130c9 -39 51 -119 107 -99c63 23 22 84 20 86l-125 167
c-22 30 -28 57 -27 94c2 63 83 136 85 138l22 27c-32 39 -37 53 -80 55c-99 5 -118 -210 -117 -322c2 -130 58 -394 250 -396c241 0 275 191 283 177c5 -8 -48 -210 -336 -205c-190 3 -278 113 -283 118c-19 -23 -123 -120 -267 -117c-47 0 -84 9 -130 33l-114 58
c-12 6 -75 36 -124 27c-32 -5 -87 -79 -73 -48c38 89 117 169 226 168c126 -2 258 -114 352 -108c107 8 94 23 96 23c-21 24 -73 101 -89 173c-17 85 -2 173 24 232c-46 6 -78 5 -127 6c-39 2 17 -8 -101 -8h-47c-32 0 -54 8 -76 28c-22 18 -37 35 -37 64v58l-7 2
c-9 3 -44 -23 -49 -70c-3 -21 11 -49 14 -53l54 -69c29 -36 36 -69 38 -113c3 -91 -79 -150 -165 -150c-114 2 -129 172 -103 106c16 -40 24 -65 71 -82c21 -6 46 7 45 40c-1 21 -10 33 -21 51l-33 53c-8 13 -34 51 -30 90c13 152 179 261 357 252c193 -8 276 -98 280 -102
c1 3 68 118 218 114c65 -1 101 -45 123 -73l151 89c7 -5 17 -11 21 -15c22 -19 24 -37 58 -47c42 -12 86 10 108 34c25 29 -21 -77 -102 -112c-57 -25 -138 -8 -167 18l-36 33l-16 -8c-18 -10 -24 -24 -26 -48c-3 -24 23 -59 29 -65l95 -105c5 -6 13 -18 18 -10
c23 38 10 104 115 110c55 3 102 -52 96 -107z" />
    <glyph glyph-name="ordmasculine" unicode="&#xba;" horiz-adv-x="291" 
d="M262 675l-2 -87s1 -36 -13 -50c-19 -19 -47 -16 -76 -27c-13 -5 -22 -16 -33 -28l-23 19c-5 3 -45 30 -76 44c-10 4 -1 0 13 14c4 5 4 16 4 17v147c45 -1 54 2 84 10c31 8 47 15 76 33c0 -1 30 -27 39 -48c6 -13 7 -31 7 -44zM183 549v124c0 28 -21 44 -37 50
c-8 3 -12 -8 -12 -7v-144l37 -31c12 -9 5 -3 8 -3c4 3 4 7 4 11zM262 394l-31 12h-169l-34 -12v73l32 -14h173l29 14v-73z" />
    <glyph glyph-name="ae" unicode="&#xe6;" horiz-adv-x="688" 
d="M662 379l-235 -121c5 -52 33 -83 64 -110c79 -71 198 29 170 -5c-14 -16 -30 -24 -30 -25l-191 -118c-10 3 -87 46 -128 91c-20 21 -31 56 -32 60l-150 -151l-25 19c-1 0 -32 24 -54 52c-21 26 -22 91 -22 92v181c0 13 -4 67 19 101c15 23 61 38 64 39l35 15
c3 1 56 19 91 41c23 15 45 35 48 37l99 -62l42 11s62 19 83 29c19 8 45 21 45 21zM521 325c-10 26 -18 41 -30 67c-12 24 -20 39 -34 62c-7 -4 -17 -12 -24 -22c-8 -13 -10 -32 -10 -34v-124zM274 165c-3 45 -5 72 -5 116c-1 60 -1 95 3 154l-72 39c-3 2 -10 2 -15 -1
c-7 -3 -8 -14 -8 -18v-271c0 -2 -3 -48 20 -61c34 -21 77 39 77 42z" />
    <glyph glyph-name="oslash" unicode="&#xf8;" horiz-adv-x="505" 
d="M505 653c-6 -17 -9 -29 -10 -47c-2 -14 -6 -25 -1 -37l-41 -72c6 -8 11 -17 15 -26c12 -27 15 -62 14 -88l-4 -173c0 -3 2 -74 -26 -103c-37 -38 -94 -32 -153 -53c-25 -8 -43 -30 -65 -54l-42 33c-9 -17 -20 -35 -33 -55c-24 -35 -38 -54 -69 -83c5 16 8 28 9 46
c2 14 6 25 2 37l48 84c-32 19 -76 45 -114 62c-19 9 -1 0 26 29c9 10 9 33 9 34v292c89 -1 107 5 168 21c62 17 95 32 151 66c1 0 13 -11 28 -26c6 9 12 19 19 30c23 34 38 53 69 83zM324 131v247c0 55 -43 87 -73 101c-17 7 -24 -15 -24 -15v-289l73 -62
c24 -17 10 -5 16 -3c9 3 8 11 8 21z" />
    <glyph glyph-name="oe" unicode="&#x153;" horiz-adv-x="714" 
d="M682 379l-234 -121c4 -52 32 -83 63 -110c80 -71 198 29 170 -5c-14 -16 -29 -24 -30 -25l-190 -118c-26 11 -40 19 -63 35c-19 14 -30 23 -47 40l-18 -4c-4 0 -41 -6 -67 -16c-36 -13 -60 -49 -65 -55l-48 36c-11 9 -90 60 -153 88c-19 9 -1 0 27 29c8 10 8 33 8 34v292
c89 -1 108 5 168 21c62 17 95 32 151 66l50 -52l45 13c1 0 60 18 81 28c19 8 44 21 45 21zM543 326c-2 5 -22 51 -37 81c-15 31 -24 48 -42 77c-1 -1 -13 -3 -14 -11c-5 -107 -4 -129 -4 -131l-1 -68zM289 131v232c0 80 -42 102 -73 116c-16 7 -23 -15 -24 -15v-289l74 -62
c8 -8 9 -5 15 -3c9 3 8 12 8 21z" />
    <glyph glyph-name="germandbls" unicode="&#xdf;" horiz-adv-x="844" 
d="M817 280c23 -124 -20 -289 -148 -278c-27 3 -20 20 -88 64c-46 30 -89 -51 -99 -34c-4 6 13 72 74 108c50 31 88 8 118 -21c123 -117 104 133 -11 193c-68 35 -131 88 -162 97v19c31 8 11 9 54 20c33 9 58 8 88 21c20 9 18 12 27 20v10l-52 30c-21 12 -29 27 -36 50
c-18 58 14 133 -59 143c-49 7 -69 -64 -69 -69v-534s-13 -18 -17 -24c-8 -12 -17 -21 -30 -32c-7 -5 -11 -9 -19 -14l-112 -65h-16l15 96v478c0 77 -34 158 -106 167c-42 6 -75 -28 -69 -64c11 -62 116 -85 109 -182c-6 -64 -45 -141 -87 -143c-9 0 11 9 11 44
c1 52 -93 58 -103 178c-11 118 91 218 226 206c79 -7 153 -50 184 -91c31 60 72 97 154 89c82 -7 153 -40 155 -143l1 -57c0 -16 5 -27 17 -39c13 -14 43 -8 48 -18c5 -11 -36 -17 -57 -14c-41 5 -51 4 -53 4v-26c34 -28 98 -110 112 -189z" />
    <glyph glyph-name="Adieresis" unicode="&#xc4;" horiz-adv-x="835" 
d="M610 908c-8 -6 -21 -18 -34 -30c-12 -12 -26 -28 -31 -35c-6 8 -18 20 -29 30c-13 12 -28 26 -36 32c6 5 22 18 34 32c13 14 27 33 32 40c3 -5 17 -23 29 -35c12 -14 28 -28 35 -34zM438 908c-9 -6 -21 -18 -34 -30s-26 -28 -31 -35c-7 8 -18 20 -29 30
c-14 12 -29 26 -37 32c7 5 23 18 35 32c13 14 27 33 31 40c4 -5 18 -23 30 -35c12 -14 27 -28 35 -34zM828 179c5 3 -3 -13 -8 -17l-158 -158l-56 51c-7 7 -27 25 -34 44c-11 35 -10 67 -10 75v33s-56 -56 -90 -93c-39 -43 -62 -69 -99 -114c-17 45 -58 83 -111 96
c-69 17 -120 -10 -150 -45c-29 -35 21 108 157 185c6 3 8 20 8 20l30 136c20 87 -15 336 -145 324c-41 -4 -75 -24 -76 -63c-3 -48 55 -56 96 -82c121 -76 66 -293 -48 -297c-34 0 55 0 54 73c0 21 -15 32 -32 43l-56 36c-48 32 -62 77 -64 134c-3 113 100 212 230 212
c162 0 219 -91 217 -242c0 -91 -6 -165 -92 -215l-76 -44c-7 -3 -14 -6 -16 -14c-3 -15 -2 -16 0 -21c21 -1 60 -9 95 -28c36 -19 54 -37 77 -70l91 88v315c0 25 -1 52 -7 88c-5 27 -36 104 -26 101c6 -2 15 -19 32 -59l13 -30c5 7 36 62 111 102c58 29 140 37 135 26
c-3 -5 -58 -15 -73 -40c-9 -17 -13 -62 -13 -75v-410c0 -22 4 -63 27 -75s42 -2 67 10z" />
    <glyph glyph-name="Aring" unicode="&#xc5;" horiz-adv-x="835" 
d="M574 907c0 -58 -47 -105 -106 -105c-58 0 -105 47 -105 105c0 59 47 106 105 106c59 0 106 -47 106 -106zM811 179c5 3 -3 -13 -8 -17l-157 -158l-57 51c-7 7 -27 25 -34 44c-11 35 -9 67 -9 75v33c-1 0 -57 -56 -91 -93c-39 -43 -62 -69 -99 -114c-17 45 -58 83 -111 96
c-68 17 -120 -10 -150 -45c-29 -35 21 108 158 185c5 3 7 20 7 20l31 136c19 87 -16 336 -146 324c-41 -4 -74 -24 -76 -63c-3 -48 55 -56 96 -82c121 -76 66 -293 -47 -297c-35 0 54 0 53 73c0 21 -15 32 -32 43l-56 36c-47 32 -62 77 -64 134c-3 113 100 212 231 212
c161 0 218 -91 217 -242c-1 -91 -7 -165 -93 -215l-76 -44c-7 -3 -14 -6 -16 -14c-3 -15 -2 -16 0 -21c21 -1 60 -9 95 -28c36 -19 55 -37 77 -70l91 88v315c0 25 -1 52 -7 88c-5 27 -36 104 -26 101c6 -2 15 -19 32 -59l14 -30c4 7 35 62 110 102c58 29 140 37 135 26
c-3 -5 -58 -15 -72 -40c-10 -17 -14 -62 -14 -75v-410c0 -22 4 -63 27 -75s42 -2 67 10zM532 907c0 35 -29 63 -64 63s-63 -28 -63 -63s28 -63 63 -63s64 28 64 63z" />
    <glyph glyph-name="Ccedilla" unicode="&#xc7;" horiz-adv-x="798" 
d="M764 741c21 54 17 -87 -65 -123c-56 -24 -127 20 -158 44l-27 23l-19 -12c-15 -11 -20 -19 -22 -43c-3 -25 12 -50 18 -57l112 -140c34 -42 41 -79 43 -133c4 -96 -72 -164 -159 -165c-145 -2 -157 166 -154 194c6 50 13 -187 124 -149c49 17 24 64 23 66l-115 184
c-16 28 -20 49 -19 80c1 61 42 101 82 134l34 29l1 18c-33 37 -61 56 -95 53c-106 -8 -121 -207 -128 -326c-9 -166 48 -399 260 -399c243 1 237 275 245 259c13 -23 -5 -163 -101 -235c-72 -53 -186 -61 -237 -48h2l-43 -50l11 4c20 8 33 10 55 6c36 -7 60 -31 70 -67
c15 -58 -44 -105 -102 -116c-42 -8 -85 9 -106 27c12 9 18 15 26 25c9 11 14 18 20 31l10 -21c11 -23 32 -41 57 -35c33 6 40 52 26 82c-12 25 -36 42 -63 36c-8 -3 -14 -5 -21 -12l-12 -12l-25 32l68 74c-148 15 -363 178 -351 408c10 187 157 367 314 364
c69 -1 98 -30 146 -81l149 85c4 -4 8 -5 10 -11c10 -29 23 -64 59 -67c28 -2 46 14 57 44z" />
    <glyph glyph-name="Eacute" unicode="&#xc9;" horiz-adv-x="830" 
d="M797 470c-4 -40 -25 -81 -65 -81c-38 0 -65 34 -67 71c0 22 10 35 20 54c9 13 11 35 -21 35c-34 0 -53 -44 -55 -77c-3 -58 46 -88 41 -166c-5 -84 -70 -153 -151 -158c-72 -4 -121 35 -142 76c-25 48 -38 96 -29 98c11 2 20 -50 41 -90c16 -29 49 -60 87 -53
c30 6 39 21 38 38c-1 19 -15 42 -26 56l-117 159c-22 30 -27 57 -27 94c2 63 70 126 83 141l23 24c-30 39 -35 53 -79 55c-99 5 -121 -210 -120 -322c2 -130 61 -394 252 -396c243 0 272 188 284 177c8 -7 -42 -205 -328 -205c-228 0 -427 195 -420 421
c6 182 152 366 307 355c62 -3 79 -23 127 -73l150 89c9 -5 18 -11 22 -15c22 -19 25 -37 58 -47c42 -12 86 10 108 34c25 29 -21 -77 -103 -112c-56 -25 -136 -8 -166 18l-36 33l-16 -8c-18 -10 -24 -24 -26 -48c-3 -24 23 -59 29 -65l89 -99c6 -8 13 -15 23 -15
c9 0 15 49 32 72c13 19 36 34 83 37c56 3 103 -52 97 -107zM570 967c0 0 -53 -53 -93 -76c-34 -21 -94 -42 -94 -42l-31 38s48 38 73 67c30 36 66 101 66 101s24 -29 38 -47c15 -16 41 -41 41 -41z" />
    <glyph glyph-name="Ntilde" unicode="&#xd1;" horiz-adv-x="870" 
d="M844 498c13 -4 -13 -12 -24 -12h-34c-14 0 -22 -6 -33 -15c-30 -24 -28 -91 -28 -95v-127c0 -4 -2 -97 41 -117c27 -13 62 12 71 13c7 0 -12 -17 -21 -25l-149 -121l-28 20c-15 10 -56 49 -74 89c-16 37 -19 64 -15 105l8 96c0 4 4 42 16 65c14 30 38 52 60 62l58 31
c7 3 11 7 16 14c2 5 4 9 4 15c-1 0 -51 15 -78 40c-21 20 -26 45 -28 70l-6 71c0 1 -7 46 -41 49c-53 5 -64 -80 -64 -92v-16c0 -19 13 -84 11 -136c-10 -190 -39 -249 -144 -352l-131 -128l-105 106c-1 1 -9 7 -17 6c-4 -1 -11 -4 -13 -6l-41 -43c-3 -4 -9 -9 -11 -7
c-3 2 0 6 2 9l165 174l91 -88c1 -1 4 -6 14 -7c13 0 18 25 18 29l-9 293c-1 70 -20 249 -147 262c-40 4 -74 -21 -74 -65c0 -30 15 -47 47 -62l35 -17c48 -24 74 -68 77 -116c3 -81 -39 -132 -88 -155c-26 -12 15 18 11 49c-3 16 -6 26 -29 39l-53 30c-33 19 -77 66 -75 125
c4 115 92 213 237 210c92 -2 158 -27 213 -108l13 30c16 35 67 81 128 78c83 -4 160 -30 167 -144c3 -38 -9 -69 5 -100c10 -20 37 -20 52 -26zM641 927l-18 -31c-18 -31 -35 -51 -68 -54c-23 -1 -36 8 -57 19l-55 31c-17 10 -35 16 -53 6c-12 -6 -17 -15 -24 -25l-17 -24
l-28 32l24 42c15 27 31 42 58 45c21 3 42 -2 63 -14l53 -32c14 -10 27 -17 44 -13c20 5 29 19 41 36l9 14z" />
    <glyph glyph-name="Odieresis" unicode="&#xd6;" horiz-adv-x="861" 
d="M838 370c6 -180 -107 -355 -348 -368c-54 -3 -87 8 -135 32l-113 58c-12 6 -76 36 -124 27c-33 -5 -87 -79 -74 -48c38 89 118 169 227 168c125 -2 212 -100 352 -108c123 -6 202 101 191 207c-29 293 -271 219 -389 219h-47c-31 0 -53 8 -76 28c-21 18 -36 35 -36 64v58
l-8 2c-8 3 -43 -23 -49 -70c-2 -21 11 -49 15 -53l54 -69c28 -36 35 -69 37 -113c3 -91 -79 -150 -165 -150c-113 2 -128 172 -102 106c15 -40 29 -67 71 -82c20 -6 46 7 44 40c-1 21 -9 33 -20 51l-34 53c-8 13 -34 51 -30 90c13 152 179 258 356 252
c265 -8 395 -167 403 -394zM591 907c-8 -7 -21 -19 -33 -31c-13 -12 -26 -28 -32 -35c-6 8 -17 20 -29 31c-13 12 -28 25 -36 31c7 5 22 19 34 32c14 14 28 34 32 40c3 -5 17 -23 29 -35c12 -14 28 -27 35 -33zM419 907c-9 -7 -21 -19 -34 -31c-12 -12 -26 -28 -31 -35
c-6 8 -18 20 -29 31c-13 12 -28 25 -36 31c6 5 22 19 34 32c13 14 27 34 31 40c4 -5 18 -23 30 -35c12 -14 28 -27 35 -33z" />
    <glyph glyph-name="Udieresis" unicode="&#xdc;" horiz-adv-x="773" 
d="M749 154c-2 -11 -52 -49 -76 -69s-59 -56 -61 -58l-28 -27l-47 36c-26 21 -42 36 -58 65c-17 35 -22 60 -19 98l-205 -200c-33 36 -57 53 -93 86c-41 37 -125 67 -112 74c7 4 36 4 55 24c15 15 20 29 20 50v307c0 11 -4 64 -37 75c-23 9 -32 -2 -56 -7
c-33 -7 49 56 50 57l103 105l60 -45c18 -14 28 -24 39 -43c15 -24 16 -65 16 -71v-417c0 -19 11 -41 33 -51c20 -7 43 -6 58 9l69 64v320c0 9 -9 44 -29 62c-13 12 -55 21 -39 28c41 20 43 13 91 52c33 25 60 101 66 89c37 -70 28 -58 54 -88c38 -44 88 -56 94 -60
c10 -5 -29 -19 -42 -37c-12 -17 -16 -36 -16 -51l-1 -322c0 -36 23 -61 56 -67c21 -4 58 24 55 12zM545 907c-8 -7 -21 -18 -34 -30c-12 -13 -26 -29 -31 -35c-6 7 -17 19 -29 30c-13 12 -28 25 -36 31c7 6 22 19 34 32c14 15 27 34 32 41c3 -5 17 -23 29 -36s28 -27 35 -33
zM373 907c-9 -7 -21 -18 -34 -30c-13 -13 -26 -29 -31 -35c-6 7 -18 19 -29 30c-14 12 -29 25 -37 31c7 6 23 19 35 32c13 15 27 34 31 41c4 -5 18 -23 30 -36s27 -27 35 -33z" />
    <glyph glyph-name="aacute" unicode="&#xe1;" horiz-adv-x="523" 
d="M500 136c8 4 -4 -15 -8 -18l-129 -118l-47 39c-1 1 -27 27 -35 48c-9 20 -11 51 -11 55l-140 -142l-25 19c-1 0 -32 24 -54 52c-21 26 -22 91 -22 92v181c0 13 -4 68 19 101c15 22 60 37 64 39l35 15c3 1 56 19 91 41c23 15 45 35 48 37l114 -72c51 -32 95 -33 89 -35
c-18 -7 -68 -22 -68 -90v-193c0 -1 -3 -40 15 -54c23 -18 43 -9 64 3zM272 163v272l-72 39c-5 3 -10 2 -14 -1c-7 -3 -9 -12 -9 -18v-271c0 -2 -3 -48 20 -61c34 -21 75 37 75 40zM384 737c0 0 -53 -52 -93 -76c-34 -20 -93 -41 -93 -41l-32 37s48 38 73 67
c30 36 67 102 67 102s23 -30 38 -47c14 -17 40 -42 40 -42z" />
    <glyph glyph-name="agrave" unicode="&#xe0;" horiz-adv-x="526" 
d="M500 136c8 4 -4 -15 -8 -18l-129 -118l-47 39c-1 1 -27 27 -35 48c-9 20 -11 51 -11 55l-140 -142l-25 19c-1 0 -32 24 -54 52c-21 26 -22 91 -22 92v181c0 13 -4 68 19 101c15 22 60 37 64 39l35 15c3 1 56 19 91 41c23 15 45 35 48 37l114 -72c51 -32 95 -33 89 -35
c-18 -7 -68 -22 -68 -90v-193c0 -1 -3 -40 15 -54c23 -18 43 -9 64 3zM272 163v272l-72 39c-5 3 -10 2 -14 -1c-7 -3 -9 -12 -9 -18v-271c0 -2 -3 -48 20 -61c34 -21 75 37 75 40zM384 661l-32 -37s-59 21 -94 41c-40 24 -92 76 -92 76c16 15 26 26 40 42c15 17 24 29 38 47
c0 0 36 -66 67 -101c25 -29 73 -68 73 -68z" />
    <glyph glyph-name="acircumflex" unicode="&#xe2;" horiz-adv-x="526" 
d="M500 136c8 4 -4 -15 -8 -18l-129 -118l-47 39c-1 1 -27 27 -35 48c-9 20 -11 51 -11 55l-140 -142l-25 19c-1 0 -32 24 -54 52c-21 26 -22 91 -22 92v181c0 13 -4 68 19 101c15 22 60 37 64 39l35 15c3 1 56 19 91 41c23 15 45 35 48 37l114 -72c51 -32 95 -33 89 -35
c-18 -7 -68 -22 -68 -90v-193c0 -1 -3 -40 15 -54c23 -18 43 -9 64 3zM272 163v272l-72 39c-5 3 -10 2 -14 -1c-7 -3 -9 -12 -9 -18v-271c0 -2 -3 -48 20 -61c34 -21 75 37 75 40zM413 638l-51 -19s-37 27 -55 48c-17 20 -37 56 -37 56s-21 -34 -38 -54
c-20 -22 -57 -49 -57 -49l-49 19s29 37 42 65c15 32 24 87 24 87h160s2 -49 13 -78c12 -33 48 -75 48 -75z" />
    <glyph glyph-name="adieresis" unicode="&#xe4;" horiz-adv-x="520" 
d="M500 136c8 4 -4 -15 -8 -18l-129 -118l-47 39c-1 1 -27 27 -35 48c-9 20 -11 51 -11 55l-140 -142l-25 19c-1 0 -32 24 -54 52c-21 26 -22 91 -22 92v181c0 13 -4 68 19 101c15 22 60 37 64 39l35 15c3 1 56 19 91 41c23 15 45 35 48 37l114 -72c51 -32 95 -33 89 -35
c-18 -7 -68 -22 -68 -90v-193c0 -1 -3 -40 15 -54c23 -18 43 -9 64 3zM272 163v272l-72 39c-5 3 -10 2 -14 -1c-7 -3 -9 -12 -9 -18v-271c0 -2 -3 -48 20 -61c34 -21 75 37 75 40zM420 689c-8 -7 -21 -18 -34 -30c-12 -13 -26 -29 -31 -35c-6 7 -17 19 -29 30
c-13 12 -28 25 -36 31c7 6 22 19 34 32c14 15 27 34 32 41c3 -5 17 -23 29 -36s28 -27 35 -33zM248 689c-9 -7 -21 -18 -34 -30c-13 -13 -26 -29 -31 -35c-6 7 -18 19 -29 30c-14 12 -29 25 -37 31c7 6 23 19 35 32c13 15 27 34 31 41c4 -5 18 -23 30 -36s27 -27 35 -33z
" />
    <glyph glyph-name="atilde" unicode="&#xe3;" horiz-adv-x="523" 
d="M500 136c8 4 -4 -15 -8 -18l-129 -118l-47 39c-1 1 -27 27 -35 48c-9 20 -11 51 -11 55l-140 -142l-25 19c-1 0 -32 24 -54 52c-21 26 -22 91 -22 92v181c0 13 -4 68 19 101c15 22 60 37 64 39l35 15c3 1 56 19 91 41c23 15 45 35 48 37l114 -72c51 -32 95 -33 89 -35
c-18 -7 -68 -22 -68 -90v-193c0 -1 -3 -40 15 -54c23 -18 43 -9 64 3zM272 163v272l-72 39c-5 3 -10 2 -14 -1c-7 -3 -9 -12 -9 -18v-271c0 -2 -3 -48 20 -61c34 -21 75 37 75 40zM427 708l-18 -31c-18 -31 -35 -51 -68 -54c-23 -1 -36 8 -57 19l-55 31c-17 10 -35 16 -53 6
c-12 -6 -17 -15 -24 -25l-17 -24l-28 32l24 42c15 27 31 42 58 45c21 3 42 -2 63 -14l53 -32c14 -10 27 -17 44 -13c20 5 29 19 41 36l9 14z" />
    <glyph glyph-name="aring" unicode="&#xe5;" horiz-adv-x="526" 
d="M371 726c0 -58 -47 -106 -105 -106s-106 48 -106 106s48 105 106 105s105 -47 105 -105zM500 136c8 4 -4 -15 -8 -18l-129 -118l-47 39c-1 1 -27 27 -35 48c-9 20 -11 51 -11 55l-140 -142l-25 19c-1 0 -32 24 -54 52c-21 26 -22 91 -22 92v181c0 13 -4 68 19 101
c15 22 60 37 64 39l35 15c3 1 56 19 91 41c23 15 45 35 48 37l114 -72c51 -32 95 -33 89 -35c-18 -7 -68 -22 -68 -90v-193c0 -1 -3 -40 15 -54c23 -18 43 -9 64 3zM272 163v272l-72 39c-5 3 -10 2 -14 -1c-7 -3 -9 -12 -9 -18v-271c0 -2 -3 -48 20 -61c34 -21 75 37 75 40z
M329 726c0 35 -28 63 -63 63s-63 -28 -63 -63s28 -64 63 -64s63 29 63 64z" />
    <glyph glyph-name="ccedilla" unicode="&#xe7;" horiz-adv-x="430" 
d="M409 147c-12 -15 -130 -89 -131 -90l-78 -57l-38 -45l10 5c20 7 34 9 55 6c36 -8 60 -32 70 -67c15 -58 -44 -106 -102 -117c-42 -7 -85 10 -106 28c12 9 18 14 26 25c9 10 14 18 20 30l10 -21c11 -23 32 -41 58 -35c32 7 39 52 25 83c-12 24 -36 42 -63 35
c-8 -2 -14 -5 -21 -11l-12 -12l-25 32l70 77l-29 16c-4 2 -71 32 -91 72c-24 45 -28 141 -28 144v129c0 2 -3 56 17 93c15 30 75 45 77 45l63 21c6 2 41 13 62 22c18 8 58 25 61 26l92 -160l-126 -72l-64 140c-4 3 -8 5 -13 5c-11 -2 -13 -14 -13 -24v-184
c0 -54 22 -103 54 -129c90 -73 197 24 170 -10z" />
    <glyph glyph-name="eacute" unicode="&#xe9;" horiz-adv-x="445" 
d="M421 379l-234 -121c5 -52 32 -83 63 -110c46 -41 104 -26 141 -12c27 11 21 15 26 10c4 -6 -25 -29 -42 -40l-175 -106l-53 29c-14 8 -72 47 -96 93c-24 45 -22 93 -22 117v105c0 20 8 77 27 114c16 30 52 46 71 51l60 18c18 5 62 18 83 28c19 8 45 21 45 21zM281 325
l-68 144c-1 3 -4 6 -6 8c-4 6 -11 8 -16 3c-5 -3 -6 -9 -6 -15v-191zM344 744c0 0 -53 -52 -93 -76c-34 -20 -93 -41 -93 -41l-32 37s48 38 73 67c30 36 67 102 67 102s23 -30 38 -47c14 -17 40 -42 40 -42z" />
    <glyph glyph-name="egrave" unicode="&#xe8;" horiz-adv-x="445" 
d="M421 379l-234 -121c5 -52 32 -83 63 -110c46 -41 104 -26 141 -12c27 11 21 15 26 10c4 -6 -25 -29 -42 -40l-175 -106l-53 29c-14 8 -72 47 -96 93c-24 45 -22 93 -22 117v105c0 20 8 77 27 114c16 30 52 46 71 51l60 18c18 5 62 18 83 28c19 8 45 21 45 21zM281 325
l-68 144c-1 3 -4 6 -6 8c-4 6 -11 8 -16 3c-5 -3 -6 -9 -6 -15v-191zM336 659l-32 -37s-59 21 -94 41c-40 24 -92 76 -92 76c16 15 26 26 40 42c15 17 24 29 38 47c0 0 36 -66 67 -101c25 -29 73 -68 73 -68z" />
    <glyph glyph-name="ecircumflex" unicode="&#xea;" horiz-adv-x="448" 
d="M421 379l-234 -121c5 -52 32 -83 63 -110c46 -41 104 -26 141 -12c27 11 21 15 26 10c4 -6 -25 -29 -42 -40l-175 -106l-53 29c-14 8 -72 47 -96 93c-24 45 -22 93 -22 117v105c0 20 8 77 27 114c16 30 52 46 71 51l60 18c18 5 62 18 83 28c19 8 45 21 45 21zM281 325
l-68 144c-1 3 -4 6 -6 8c-4 6 -11 8 -16 3c-5 -3 -6 -9 -6 -15v-191zM368 645l-51 -19s-37 27 -55 48c-17 20 -37 56 -37 56s-21 -34 -38 -54c-20 -22 -57 -49 -57 -49l-49 19s29 37 42 65c15 32 24 87 24 87h160s2 -49 13 -78c12 -33 48 -75 48 -75z" />
    <glyph glyph-name="edieresis" unicode="&#xeb;" horiz-adv-x="442" 
d="M421 379l-234 -121c5 -52 32 -83 63 -110c46 -41 104 -26 141 -12c27 11 21 15 26 10c4 -6 -25 -29 -42 -40l-175 -106l-53 29c-14 8 -72 47 -96 93c-24 45 -22 93 -22 117v105c0 20 8 77 27 114c16 30 52 46 71 51l60 18c18 5 62 18 83 28c19 8 45 21 45 21zM281 325
l-68 144c-1 3 -4 6 -6 8c-4 6 -11 8 -16 3c-5 -3 -6 -9 -6 -15v-191zM384 686c-8 -7 -21 -18 -34 -30c-12 -13 -26 -29 -31 -35c-6 7 -17 19 -29 30c-13 12 -28 25 -36 31c7 6 22 19 34 32c14 15 27 34 32 41c3 -5 17 -23 29 -36s28 -27 35 -33zM212 686
c-9 -7 -21 -18 -34 -30c-13 -13 -26 -29 -31 -35c-6 7 -18 19 -29 30c-14 12 -29 25 -37 31c7 6 23 19 35 32c13 15 27 34 31 41c4 -5 18 -23 30 -36s27 -27 35 -33z" />
    <glyph glyph-name="iacute" unicode="&#xed;" horiz-adv-x="359" 
d="M292 742c0 0 -53 -52 -92 -76c-34 -20 -94 -42 -94 -42l-31 38s47 38 73 67c30 36 66 102 66 102s23 -30 38 -47c14 -17 40 -42 40 -42zM331 125c0 -3 -105 -81 -112 -86l-45 -39c-32 13 -52 27 -70 55c-24 41 -23 118 -23 124v227c0 103 -76 24 -53 57
c3 6 132 109 133 108c2 1 36 -42 127 -89c24 -12 -55 -4 -55 -79v-209c0 -42 15 -61 21 -66c47 -29 79 28 77 -3z" />
    <glyph glyph-name="igrave" unicode="&#xec;" horiz-adv-x="362" 
d="M292 663l-32 -37s-59 21 -93 41c-40 24 -92 76 -92 76c15 15 26 26 40 42c15 17 24 29 38 47c0 0 36 -66 66 -101c26 -29 73 -68 73 -68zM331 125c0 -3 -105 -81 -112 -86l-45 -39c-32 13 -52 27 -70 55c-24 41 -23 118 -23 124v227c0 103 -76 24 -53 57
c3 6 132 109 133 108c2 1 36 -42 127 -89c24 -12 -55 -4 -55 -79v-209c0 -42 15 -61 21 -66c47 -29 79 28 77 -3z" />
    <glyph glyph-name="icircumflex" unicode="&#xee;" horiz-adv-x="362" 
d="M314 642l-51 -19s-37 27 -55 48c-17 20 -37 57 -37 57s-22 -35 -38 -55c-20 -22 -57 -49 -57 -49l-49 19s29 38 42 65c15 32 24 87 24 87h160s2 -49 13 -78c12 -33 48 -75 48 -75zM331 125c0 -3 -105 -81 -112 -86l-45 -39c-32 13 -52 27 -70 55c-24 41 -23 118 -23 124
v227c0 103 -76 24 -53 57c3 6 132 109 133 108c2 1 36 -42 127 -89c24 -12 -55 -4 -55 -79v-209c0 -42 15 -61 21 -66c47 -29 79 28 77 -3z" />
    <glyph glyph-name="idieresis" unicode="&#xef;" horiz-adv-x="356" 
d="M325 685c-8 -7 -21 -18 -33 -30c-13 -13 -26 -29 -32 -35c-6 7 -17 19 -29 30c-13 12 -28 25 -36 31c7 6 23 19 35 32c13 15 27 34 31 40c4 -4 17 -22 30 -35c12 -13 27 -27 34 -33zM153 685c-8 -7 -21 -18 -34 -30c-12 -13 -26 -29 -31 -35c-6 7 -17 19 -29 30
c-13 12 -28 25 -36 31c7 6 22 19 34 32c14 15 27 34 32 40c3 -4 17 -22 29 -35s28 -27 35 -33zM331 125c0 -3 -105 -81 -112 -86l-45 -39c-32 13 -52 27 -70 55c-24 41 -23 118 -23 124v227c0 103 -76 24 -53 57c3 6 132 109 133 108c2 1 36 -42 127 -89
c24 -12 -55 -4 -55 -79v-209c0 -42 15 -61 21 -66c47 -29 79 28 77 -3z" />
    <glyph glyph-name="ntilde" unicode="&#xf1;" horiz-adv-x="601" 
d="M585 122c-2 -6 -4 -7 -9 -11l-137 -111c-7 4 -31 15 -63 63c-17 26 -17 84 -17 91v207c0 28 11 122 -50 93c-39 -18 -49 -22 -49 -74v-202c0 -3 5 -60 41 -76c5 -1 -40 -24 -65 -45c-36 -30 -55 -55 -57 -57c-2 5 -29 48 -51 66c-32 28 -62 39 -57 42c42 21 36 66 36 67
v206c0 40 0 49 -11 61c-22 26 -45 3 -54 5c-5 0 -5 6 3 12l137 114c10 -6 33 -21 47 -40c23 -28 36 -81 36 -88c35 20 55 34 88 57c35 24 56 40 88 67c3 1 46 -64 118 -107c24 -14 -16 -1 -40 -41c-11 -18 -11 -38 -11 -54v-177c0 -30 16 -66 36 -69c25 -3 52 24 41 1z
M479 700l-18 -32c-19 -30 -35 -51 -69 -53c-23 -2 -36 7 -56 18l-55 31c-18 11 -35 17 -54 7c-11 -6 -16 -15 -23 -25l-17 -25l-28 32l24 42c15 27 31 43 58 45c21 3 42 -2 62 -14l53 -32c15 -9 28 -16 45 -12c20 5 29 18 40 36l9 13z" />
    <glyph glyph-name="oacute" unicode="&#xf3;" horiz-adv-x="510" 
d="M482 383l-4 -173c0 -3 2 -74 -26 -103c-37 -38 -94 -32 -153 -53c-25 -8 -43 -30 -65 -54l-46 36c-9 7 -90 60 -153 88c-19 9 -1 0 26 29c9 10 9 33 9 34v292c89 -1 107 5 168 21c62 17 95 32 151 66c2 -1 61 -54 79 -95c12 -27 15 -62 14 -88zM324 131v247
c0 55 -43 87 -73 101c-17 7 -24 -15 -24 -15v-289l73 -62c24 -17 10 -5 16 -3c9 3 8 11 8 21zM383 741c0 0 -53 -52 -93 -76c-34 -20 -93 -41 -93 -41l-32 37s48 38 73 67c30 36 67 102 67 102s23 -30 38 -47c14 -17 40 -42 40 -42z" />
    <glyph glyph-name="ograve" unicode="&#xf2;" horiz-adv-x="508" 
d="M482 383l-4 -173c0 -3 2 -74 -26 -103c-37 -38 -94 -32 -153 -53c-25 -8 -43 -30 -65 -54l-46 36c-9 7 -90 60 -153 88c-19 9 -1 0 26 29c9 10 9 33 9 34v292c89 -1 107 5 168 21c62 17 95 32 151 66c2 -1 61 -54 79 -95c12 -27 15 -62 14 -88zM324 131v247
c0 55 -43 87 -73 101c-17 7 -24 -15 -24 -15v-289l73 -62c24 -17 10 -5 16 -3c9 3 8 11 8 21zM380 661l-32 -37s-59 21 -94 41c-40 24 -92 76 -92 76c16 15 26 26 40 42c15 17 24 29 38 47c0 0 36 -66 67 -101c25 -29 73 -68 73 -68z" />
    <glyph glyph-name="ocircumflex" unicode="&#xf4;" horiz-adv-x="507" 
d="M482 383l-4 -173c0 -3 2 -74 -26 -103c-37 -38 -94 -32 -153 -53c-25 -8 -43 -30 -65 -54l-46 36c-9 7 -90 60 -153 88c-19 9 -1 0 26 29c9 10 9 33 9 34v292c89 -1 107 5 168 21c62 17 95 32 151 66c2 -1 61 -54 79 -95c12 -27 15 -62 14 -88zM324 131v247
c0 55 -43 87 -73 101c-17 7 -24 -15 -24 -15v-289l73 -62c24 -17 10 -5 16 -3c9 3 8 11 8 21zM413 642l-51 -19s-37 27 -55 48c-17 20 -37 56 -37 56s-21 -34 -38 -54c-20 -22 -57 -49 -57 -49l-49 19s29 37 42 65c15 32 24 87 24 87h160s2 -49 13 -78c12 -33 48 -75 48 -75
z" />
    <glyph glyph-name="odieresis" unicode="&#xf6;" horiz-adv-x="507" 
d="M482 383l-4 -173c0 -3 2 -74 -26 -103c-37 -38 -94 -32 -153 -53c-25 -8 -43 -30 -65 -54l-46 36c-9 7 -90 60 -153 88c-19 9 -1 0 26 29c9 10 9 33 9 34v292c89 -1 107 5 168 21c62 17 95 32 151 66c2 -1 61 -54 79 -95c12 -27 15 -62 14 -88zM324 131v247
c0 55 -43 87 -73 101c-17 7 -24 -15 -24 -15v-289l73 -62c24 -17 10 -5 16 -3c9 3 8 11 8 21zM423 685c-8 -7 -21 -18 -34 -30c-12 -13 -26 -29 -31 -35c-6 7 -17 19 -29 30c-13 12 -28 25 -36 31c7 6 22 19 34 32c14 15 27 34 32 41c3 -5 17 -23 29 -36s28 -27 35 -33z
M251 685c-9 -7 -21 -18 -34 -30c-13 -13 -26 -29 -31 -35c-6 7 -18 19 -29 30c-14 12 -29 25 -37 31c7 6 23 19 35 32c13 15 27 34 31 41c4 -5 18 -23 30 -36s27 -27 35 -33z" />
    <glyph glyph-name="otilde" unicode="&#xf5;" horiz-adv-x="507" 
d="M482 383l-4 -173c0 -3 2 -74 -26 -103c-37 -38 -94 -32 -153 -53c-25 -8 -43 -30 -65 -54l-46 36c-9 7 -90 60 -153 88c-19 9 -1 0 26 29c9 10 9 33 9 34v292c89 -1 107 5 168 21c62 17 95 32 151 66c2 -1 61 -54 79 -95c12 -27 15 -62 14 -88zM324 131v247
c0 55 -43 87 -73 101c-17 7 -24 -15 -24 -15v-289l73 -62c24 -17 10 -5 16 -3c9 3 8 11 8 21zM430 709l-18 -31c-18 -31 -35 -51 -68 -54c-23 -1 -36 8 -57 19l-55 31c-17 10 -35 16 -53 6c-12 -6 -17 -15 -24 -25l-17 -24l-28 32l24 42c15 27 31 42 58 45
c21 3 42 -2 63 -14l53 -32c14 -10 27 -17 44 -13c20 5 29 19 41 36l9 14z" />
    <glyph glyph-name="uacute" unicode="&#xfa;" horiz-adv-x="597" 
d="M570 121c6 3 3 -7 -5 -14l-120 -107c-10 5 -35 19 -57 40c-32 29 -41 70 -43 76c-6 -4 -20 -9 -85 -58c-29 -22 -47 -35 -74 -58c-2 -1 -46 48 -111 92c-26 18 -1 0 21 33c12 17 7 26 7 28v218c0 29 -1 65 -34 67c-20 1 -55 -15 -37 1c10 9 10 10 11 11l127 121
c7 -4 29 -21 61 -69c17 -26 19 -92 19 -96v-228c0 -1 -11 -101 53 -73c39 17 47 25 47 76v224c0 30 -9 48 -49 72c-3 2 38 15 66 38c40 34 48 59 50 61c3 -4 27 -40 49 -59c46 -38 72 -49 67 -50c-44 -17 -42 -61 -42 -81v-205c0 -30 10 -51 24 -62c17 -14 46 -3 55 2z
M418 744c0 0 -53 -52 -93 -76c-34 -20 -93 -41 -93 -41l-32 37s48 38 73 67c30 36 67 102 67 102s23 -30 38 -47c14 -17 40 -42 40 -42z" />
    <glyph glyph-name="ugrave" unicode="&#xf9;" horiz-adv-x="600" 
d="M570 121c6 3 3 -7 -5 -14l-120 -107c-10 5 -35 19 -57 40c-32 29 -41 70 -43 76c-6 -4 -20 -9 -85 -58c-29 -22 -47 -35 -74 -58c-2 -1 -46 48 -111 92c-26 18 -1 0 21 33c12 17 7 26 7 28v218c0 29 -1 65 -34 67c-20 1 -55 -15 -37 1c10 9 10 10 11 11l127 121
c7 -4 29 -21 61 -69c17 -26 19 -92 19 -96v-228c0 -1 -11 -101 53 -73c39 17 47 25 47 76v224c0 30 -9 48 -49 72c-3 2 38 15 66 38c40 34 48 59 50 61c3 -4 27 -40 49 -59c46 -38 72 -49 67 -50c-44 -17 -42 -61 -42 -81v-205c0 -30 10 -51 24 -62c17 -14 46 -3 55 2z
M415 665l-32 -37s-59 21 -94 41c-40 24 -92 76 -92 76c16 15 26 26 40 42c15 17 24 29 38 47c0 0 36 -66 67 -101c25 -29 73 -68 73 -68z" />
    <glyph glyph-name="ucircumflex" unicode="&#xfb;" horiz-adv-x="597" 
d="M570 121c6 3 3 -7 -5 -14l-120 -107c-10 5 -35 19 -57 40c-32 29 -41 70 -43 76c-6 -4 -20 -9 -85 -58c-29 -22 -47 -35 -74 -58c-2 -1 -46 48 -111 92c-26 18 -1 0 21 33c12 17 7 26 7 28v218c0 29 -1 65 -34 67c-20 1 -55 -15 -37 1c10 9 10 10 11 11l127 121
c7 -4 29 -21 61 -69c17 -26 19 -92 19 -96v-228c0 -1 -11 -101 53 -73c39 17 47 25 47 76v224c0 30 -9 48 -49 72c-3 2 38 15 66 38c40 34 48 59 50 61c3 -4 27 -40 49 -59c46 -38 72 -49 67 -50c-44 -17 -42 -61 -42 -81v-205c0 -30 10 -51 24 -62c17 -14 46 -3 55 2z
M435 645l-51 -19s-37 27 -55 48c-17 20 -37 56 -37 56s-21 -34 -38 -54c-20 -22 -57 -49 -57 -49l-49 19s29 37 42 65c15 32 24 87 24 87h160s2 -49 13 -78c12 -33 48 -75 48 -75z" />
    <glyph glyph-name="udieresis" unicode="&#xfc;" horiz-adv-x="603" 
d="M570 121c6 3 3 -7 -5 -14l-120 -107c-10 5 -35 19 -57 40c-32 29 -41 70 -43 76c-6 -4 -20 -9 -85 -58c-29 -22 -47 -35 -74 -58c-2 -1 -46 48 -111 92c-26 18 -1 0 21 33c12 17 7 26 7 28v218c0 29 -1 65 -34 67c-20 1 -55 -15 -37 1c10 9 10 10 11 11l127 121
c7 -4 29 -21 61 -69c17 -26 19 -92 19 -96v-228c0 -1 -11 -101 53 -73c39 17 47 25 47 76v224c0 30 -9 48 -49 72c-3 2 38 15 66 38c40 34 48 59 50 61c3 -4 27 -40 49 -59c46 -38 72 -49 67 -50c-44 -17 -42 -61 -42 -81v-205c0 -30 10 -51 24 -62c17 -14 46 -3 55 2z
M456 685c-8 -7 -21 -18 -34 -30c-12 -13 -26 -29 -31 -35c-6 7 -17 19 -29 30c-13 12 -28 25 -36 31c7 6 22 19 34 32c14 15 27 34 32 41c3 -5 17 -23 29 -36s28 -27 35 -33zM284 685c-9 -7 -21 -18 -34 -30c-13 -13 -26 -29 -31 -35c-6 7 -18 19 -29 30
c-14 12 -29 25 -37 31c7 6 23 19 35 32c13 15 27 34 31 41c4 -5 18 -23 30 -36s27 -27 35 -33z" />
    <glyph glyph-name="degree" unicode="&#xb0;" horiz-adv-x="266" 
d="M242 653c0 -59 -42 -115 -102 -116c-62 -2 -109 57 -108 119c1 59 44 113 104 114c61 0 106 -56 106 -117zM215 653c0 45 -34 86 -79 86c-44 0 -76 -40 -76 -84c0 -46 33 -88 79 -87c44 0 76 41 76 85z" />
    <glyph glyph-name="registered" unicode="&#xae;" horiz-adv-x="829" 
d="M413 -5c-520 0 -520 780 0 780c519 0 519 -780 0 -780zM413 36c464 0 464 696 0 696s-464 -696 0 -696zM600 145h-49c-1 0 -3 -1 -4 1c-29 58 14 164 -51 200c-24 13 -43 11 -70 11h-125v-212h-46v468h172c82 0 164 -18 172 -122c4 -59 -28 -95 -78 -116
c20 -12 34 -16 45 -39c31 -59 -1 -104 23 -173c3 -7 7 -11 11 -18zM553 485c-2 73 -61 89 -118 89h-134v-177h131c59 0 124 15 121 88z" />
    <glyph glyph-name="copyright" unicode="&#xa9;" horiz-adv-x="827" 
d="M413 -8c-520 0 -520 780 0 780c519 0 519 -780 0 -780zM413 34c464 0 464 696 0 696s-464 -696 0 -696zM606 303c-19 -100 -98 -172 -204 -166c-146 9 -192 122 -193 242c0 125 69 253 207 248c87 -3 167 -46 181 -132l3 -18h-46l-4 15c-14 63 -75 94 -135 93
c-118 -3 -160 -105 -160 -205c0 -99 22 -190 149 -204c71 -8 140 51 155 127h47z" />
    <glyph glyph-name="trademark" unicode="&#x2122;" horiz-adv-x="725" 
d="M703 380h-38v345l-129 -345h-34l-124 346v-346h-38l-1 387h59l123 -340l126 340h56v-387zM310 737h-121v-357h-38v357h-121v33h280v-33z" />
    <glyph glyph-name="notequal" unicode="&#x2260;" horiz-adv-x="627" 
d="M602 343h-211l-90 -149l300 -1v-62l-332 -1l-97 -173l-54 32l79 141h-169v63l205 1l82 149h-287v64h324l99 178l55 -32l-82 -146h178v-64z" />
    <glyph glyph-name="infinity" unicode="&#x221e;" horiz-adv-x="858" 
d="M826 282c4 -107 -80 -175 -164 -174c-54 1 -126 26 -182 78l-51 49l-52 -49c-56 -52 -127 -77 -182 -78c-83 -1 -167 67 -164 174c2 90 77 155 167 160c57 3 114 -28 166 -76l65 -57l64 57c53 48 110 79 166 76c91 -5 165 -70 167 -160zM769 278c-5 60 -52 105 -114 102
c-47 -1 -75 -19 -114 -48l-77 -58l72 -66c36 -33 69 -46 118 -45c71 1 120 52 115 115zM393 274l-77 58c-38 29 -66 47 -113 48c-63 3 -110 -42 -114 -102c-5 -63 44 -114 114 -115c50 -1 83 12 118 45z" />
    <glyph glyph-name="plusminus" unicode="&#xb1;" horiz-adv-x="495" 
d="M464 320h-192v-191h-50v191h-189l1 54h188v191h52v-191h190v-54zM460 -2h-435v42h435v-42z" />
    <glyph glyph-name="lessequal" unicode="&#x2264;" horiz-adv-x="594" 
d="M567 139l-540 252v58l539 245v-73l-449 -201l450 -211v-70zM565 -1h-537v62h537v-62z" />
    <glyph glyph-name="greaterequal" unicode="&#x2265;" horiz-adv-x="597" 
d="M568 392l-539 -253v71l450 211l-449 201v72l538 -244v-58zM567 0h-537v61h537v-61z" />
    <glyph glyph-name="mu" unicode="&#xb5;" horiz-adv-x="667" 
d="M650 122l-7 -36c-13 -64 -93 -106 -137 -99c-48 6 -97 55 -100 112l-29 -28c-45 -45 -105 -81 -144 -81c-33 0 -97 22 -130 67v-40c0 -74 38 -101 40 -186c0 -36 -21 -75 -57 -74c-34 1 -54 34 -55 67c-2 73 28 92 34 152c1 11 3 19 3 31v569h95v-392
c0 -61 42 -122 103 -121c57 1 142 56 143 120v393h93v-442c0 -45 26 -101 69 -92c27 4 43 23 50 49l9 31h20z" />
    <glyph glyph-name="partialdiff" unicode="&#x2202;" horiz-adv-x="542" 
d="M514 422c15 -202 -101 -459 -280 -442c-131 13 -197 100 -203 214c-6 124 92 239 217 238c56 0 90 -18 137 -51l32 -23l9 54c23 148 -33 340 -182 340c-42 0 -66 -14 -106 -26l-19 -6l-41 50l46 14c38 11 62 16 101 16c185 -3 274 -194 289 -378zM409 318l-29 28
c-23 21 -41 32 -72 39c-87 18 -152 -63 -176 -149c-25 -90 -4 -197 85 -224c105 -32 156 114 176 222z" />
    <glyph glyph-name="summation" unicode="&#x2211;" horiz-adv-x="781" 
d="M755 114c-16 -47 -23 -76 -32 -125c-8 -44 -11 -71 -12 -116l-77 15h-623l386 425l-379 473l71 -7h589l1 -173h-23c2 40 -10 68 -40 94c-31 29 -64 30 -107 30h-317l305 -369l-327 -369h437c30 0 48 10 72 27c33 26 49 54 52 95h24z" />
    <glyph glyph-name="product" unicode="&#x220f;" horiz-adv-x="910" 
d="M878 -96h-339v20l28 2c25 1 44 1 62 18c20 20 16 45 16 74v717h-397v-710c0 -35 2 -63 28 -83c20 -15 38 -15 63 -15h21v-23h-339v24h27c24 0 41 1 60 15c26 20 24 49 24 83v646c0 33 -10 56 -35 77c-16 15 -29 23 -52 24l-18 2v22h851v-24l-23 -1c-22 -1 -35 -8 -52 -22
c-30 -24 -34 -56 -34 -94v-640c0 -29 1 -53 23 -73c18 -17 36 -20 62 -20l24 -1v-18z" />
    <glyph glyph-name="pi" unicode="&#x3c0;" horiz-adv-x="647" 
d="M627 184l-3 -26c-10 -84 -65 -165 -150 -159c-94 8 -108 131 -98 225l27 250h-135l-47 -369c-7 -55 -40 -125 -93 -110c-23 7 -42 18 -48 41c-15 61 49 74 69 125c9 22 18 34 20 58l28 251h-38c-22 0 -35 1 -55 -7c-30 -12 -55 -50 -59 -62l-19 8l7 17
c25 54 38 98 91 125c27 14 45 18 76 18h420v-95h-153l-16 -278c-2 -48 28 -100 76 -98c38 1 64 29 73 66l5 20h22z" />
    <glyph glyph-name="integral" unicode="&#x222b;" horiz-adv-x="327" 
d="M300 838c-3 -23 -23 -39 -46 -39c-18 0 -25 14 -41 21c-50 24 -10 -162 -10 -266v-336c0 -108 -9 -366 -135 -331c-20 5 -44 25 -41 50c3 21 19 38 41 39c25 2 24 -24 44 -30c45 -13 28 136 28 223v467c0 105 13 252 100 252c30 0 64 -20 60 -50z" />
    <glyph glyph-name="Omega" unicode="&#x3a9;" horiz-adv-x="814" 
d="M790 -2h-319l16 158c105 48 152 141 151 256c-1 127 -36 235 -227 237c-174 2 -230 -109 -231 -237c-2 -115 46 -209 151 -256l15 -158h-319v167h21c-1 -16 2 -26 10 -38c13 -20 32 -28 57 -28h174v33c-139 24 -228 140 -232 282c-7 171 151 268 353 268
c215 -1 358 -97 351 -268c-5 -142 -93 -258 -233 -282v-33h175c24 0 43 8 56 28c9 12 12 22 11 38h20v-167z" />
    <glyph glyph-name="logicalnot" unicode="&#xac;" horiz-adv-x="831" 
d="M803 0h-64v272h-716v61h780v-333z" />
    <glyph glyph-name="radical" unicode="&#x221a;" horiz-adv-x="564" 
d="M527 870l-149 -921l-246 487l-93 -48l-15 32l143 68l198 -388l129 775z" />
    <glyph glyph-name="approxequal" unicode="&#x2248;" horiz-adv-x="694" 
d="M664 418l-23 -27c-41 -47 -84 -66 -146 -69c-48 -3 -74 16 -119 28l-98 27c-38 10 -62 21 -101 14c-38 -8 -59 -21 -86 -49l-20 -21l-50 32l16 18c41 44 78 64 137 73c50 8 81 0 129 -15l85 -25c40 -12 63 -27 104 -24c44 4 75 13 104 44l21 23zM664 229l-23 -26
c-41 -48 -84 -66 -146 -70c-48 -2 -74 16 -119 29l-98 27c-38 10 -62 21 -101 14c-38 -8 -59 -22 -86 -50l-20 -21l-50 33l16 18c41 44 78 64 137 73c50 8 81 0 129 -15l85 -26c40 -12 63 -26 104 -23c44 3 75 12 104 44l21 23z" />
    <glyph glyph-name="Delta" unicode="&#x394;" horiz-adv-x="759" 
d="M737 -1h-709l379 796zM597 52l-235 554l-260 -554h495z" />
    <glyph glyph-name="nbspace" unicode="&#xa0;" horiz-adv-x="604" 
 />
    <glyph glyph-name="Agrave" unicode="&#xc0;" horiz-adv-x="843" 
d="M811 179c5 3 -3 -13 -8 -17l-157 -158l-57 51c-7 7 -27 25 -34 44c-11 35 -9 67 -9 75v33c-1 0 -57 -56 -91 -93c-39 -43 -62 -69 -99 -114c-17 45 -58 83 -111 96c-68 17 -120 -10 -150 -45c-29 -35 21 108 158 185c5 3 7 20 7 20l31 136c19 87 -16 336 -146 324
c-41 -4 -74 -24 -76 -63c-3 -48 55 -56 96 -82c121 -76 66 -293 -47 -297c-35 0 54 0 53 73c0 21 -15 32 -32 43l-56 36c-47 32 -62 77 -64 134c-3 113 100 212 231 212c161 0 218 -91 217 -242c-1 -91 -7 -165 -93 -215l-76 -44c-7 -3 -14 -6 -16 -14c-3 -15 -2 -16 0 -21
c21 -1 60 -9 95 -28c36 -19 55 -37 77 -70l91 88v315c0 25 -1 52 -7 88c-5 27 -36 104 -26 101c6 -2 15 -19 32 -59l14 -30c4 7 35 62 110 102c58 29 140 37 135 26c-3 -5 -58 -15 -72 -40c-10 -17 -14 -62 -14 -75v-410c0 -22 4 -63 27 -75s42 -2 67 10zM577 878l-31 -37
s-60 21 -94 41c-40 24 -92 76 -92 76c16 15 26 26 40 42c15 17 24 29 38 47c0 0 36 -66 67 -101c25 -29 72 -68 72 -68z" />
    <glyph glyph-name="Atilde" unicode="&#xc3;" horiz-adv-x="845" 
d="M823 179c6 3 -2 -13 -7 -17l-158 -158l-56 51c-8 7 -28 25 -34 44c-11 35 -10 67 -10 75v33s-56 -56 -90 -93c-39 -43 -62 -69 -99 -114c-18 45 -59 83 -112 96c-68 17 -120 -10 -149 -45c-30 -35 20 108 157 185c6 3 8 20 8 20l30 136c19 87 -15 336 -145 324
c-41 -4 -75 -24 -77 -63c-2 -48 56 -56 97 -82c120 -76 66 -293 -48 -297c-34 0 55 0 54 73c0 21 -15 32 -33 43l-55 36c-48 32 -62 77 -64 134c-4 113 100 212 230 212c162 0 219 -91 217 -242c0 -91 -6 -165 -93 -215l-76 -44c-6 -3 -13 -6 -15 -14c-3 -15 -2 -16 0 -21
c21 -1 59 -9 94 -28c37 -19 55 -37 78 -70l91 88v315c0 25 -2 52 -8 88c-4 27 -35 104 -25 101c6 -2 15 -19 32 -59l13 -30c4 7 36 62 111 102c57 29 140 37 135 26c-3 -5 -58 -15 -73 -40c-9 -17 -13 -62 -13 -75v-410c0 -22 4 -63 27 -75s42 -2 66 10zM647 927l-18 -31
c-18 -31 -35 -51 -68 -54c-23 -1 -36 8 -57 19l-55 31c-17 10 -35 16 -53 6c-12 -6 -17 -15 -24 -25l-17 -24l-28 32l24 42c15 27 31 42 58 45c21 3 42 -2 63 -14l53 -32c14 -10 27 -17 44 -13c20 5 29 19 41 36l9 14z" />
    <glyph glyph-name="Otilde" unicode="&#xd5;" horiz-adv-x="858" 
d="M844 370c7 -180 -107 -355 -348 -368c-54 -3 -87 8 -135 32l-113 58c-12 6 -76 36 -124 27c-33 -5 -87 -79 -74 -48c38 89 118 169 227 168c125 -2 212 -100 352 -108c123 -6 202 101 191 207c-29 293 -271 219 -389 219h-47c-31 0 -53 8 -76 28c-21 18 -36 35 -36 64v58
l-8 2c-8 3 -43 -23 -49 -70c-2 -21 11 -49 15 -53l54 -69c28 -36 35 -69 37 -113c3 -91 -79 -150 -165 -150c-113 2 -128 172 -102 106c15 -40 29 -67 71 -82c20 -6 46 7 44 40c-1 21 -9 33 -20 51l-34 53c-8 13 -34 51 -30 90c13 152 179 258 356 252
c265 -8 395 -167 403 -394zM611 926l-18 -31c-18 -31 -34 -52 -68 -54c-23 -2 -36 7 -57 18l-54 31c-18 11 -35 17 -54 7c-12 -6 -16 -15 -24 -25l-17 -25l-27 32l23 42c15 27 32 43 59 45c20 3 41 -2 62 -14l53 -32c14 -9 28 -16 44 -12c20 5 29 18 41 36l9 13z" />
    <glyph glyph-name="divide" unicode="&#xf7;" horiz-adv-x="706" 
d="M421 492c0 -39 -33 -72 -73 -71c-38 1 -69 34 -68 73c0 38 32 70 70 70c39 0 71 -32 71 -72zM685 286h-659v71h659v-71zM420 149c0 -39 -33 -73 -72 -72s-70 35 -69 73c1 39 32 70 70 70c39 0 71 -33 71 -71z" />
    <glyph glyph-name="lozenge" unicode="&#x25ca;" horiz-adv-x="527" 
d="M500 388l-203 -390h-67l-206 395l206 377h67zM438 388l-175 324l-176 -321l178 -343z" />
    <glyph glyph-name="ydieresis" unicode="&#xff;" horiz-adv-x="541" 
d="M514 142c0 -80 4 -136 -47 -186c-65 -64 -164 -135 -233 -138c-32 -1 71 16 99 102c25 76 18 106 18 205v259c0 36 -4 89 -52 70c-27 -10 -40 -28 -43 -37v-227c0 -98 50 -67 62 -71c6 -1 -40 -38 -63 -60c-33 -32 -67 -66 -69 -68c-23 30 -30 37 -52 54
c-36 30 -89 48 -85 51c32 22 46 22 46 71v261c0 2 7 16 -43 50c-9 7 -28 28 -20 84c16 104 145 129 178 108c15 -9 -70 3 -86 -44c-8 -20 18 -38 33 -43l32 -11c22 -7 33 -16 50 -34c18 -21 22 -83 20 -93c0 1 26 14 80 53c30 23 82 70 86 73l57 -60s21 -26 26 -41
c6 -20 6 -52 6 -58v-270zM434 795c-8 -7 -21 -18 -34 -30c-12 -13 -26 -29 -31 -35c-6 7 -17 19 -29 30c-13 12 -28 25 -36 31c7 6 22 19 34 32c14 15 27 34 32 41c3 -5 17 -23 29 -36s28 -27 35 -33zM262 795c-9 -7 -21 -18 -34 -30c-13 -13 -26 -29 -31 -35
c-6 7 -18 19 -29 30c-14 12 -29 25 -37 31c7 6 23 19 35 32c13 15 27 34 31 41c4 -5 18 -23 30 -36s27 -27 35 -33z" />
    <glyph glyph-name="Ydieresis" unicode="&#x178;" horiz-adv-x="814" 
d="M784 321c4 -271 -104 -566 -411 -566c-99 0 -228 43 -218 138c5 47 43 67 100 70c52 2 106 -29 107 -80c1 -47 -37 -57 -59 -61c-6 -2 -9 -6 -15 -8l-2 -11c-2 -8 35 -34 93 -34c213 -2 215 260 215 455v188c0 122 -6 322 -73 305c-49 -11 -54 -55 -51 -76
c5 -48 8 -91 8 -99v-102c0 -21 -5 -73 -27 -101c-24 -30 -63 -54 -64 -54l-65 -43c-7 -4 -12 -9 -15 -17c-1 -6 -1 -10 0 -16c31 -5 50 -11 78 -26c31 -15 69 -54 73 -54c6 1 6 1 13 5l37 26c4 3 19 14 16 8c-1 -6 -6 -12 -11 -16l-89 -71c-16 -12 -26 -21 -41 -33
c-19 -16 -30 -26 -47 -43l-45 58c-31 39 -58 49 -102 52c-84 7 -118 -90 -115 -78c7 47 19 76 53 109c42 40 106 62 139 63c21 48 40 178 37 253c-6 106 -12 269 -124 264c-65 -2 -81 -57 -83 -84c-4 -37 25 -57 53 -80l34 -26c38 -29 50 -66 52 -119
c3 -83 -62 -151 -117 -163c-22 -4 51 21 61 64c8 38 -42 61 -49 65l-47 31c-51 34 -59 75 -57 134c4 102 96 216 204 211c160 -5 192 -66 194 -69l24 -31c6 12 31 100 125 99c167 0 208 -249 211 -437zM600 871c-8 -7 -21 -18 -34 -30c-12 -13 -26 -29 -31 -35
c-6 7 -17 19 -29 30c-13 12 -28 25 -36 31c7 6 22 19 34 32c14 15 27 34 32 41c3 -5 17 -23 29 -36s28 -27 35 -33zM428 871c-9 -7 -21 -18 -34 -30c-13 -13 -26 -29 -31 -35c-6 7 -18 19 -29 30c-14 12 -29 25 -37 31c7 6 23 19 35 32c13 15 27 34 31 41
c4 -5 18 -23 30 -36s27 -27 35 -33z" />
    <glyph glyph-name="Acircumflex" unicode="&#xc2;" horiz-adv-x="846" 
d="M823 179c6 3 -2 -13 -7 -17l-158 -158l-56 51c-8 7 -28 25 -34 44c-11 35 -10 67 -10 75v33s-56 -56 -90 -93c-39 -43 -62 -69 -99 -114c-18 45 -59 83 -112 96c-68 17 -120 -10 -149 -45c-30 -35 20 108 157 185c6 3 8 20 8 20l30 136c19 87 -15 336 -145 324
c-41 -4 -75 -24 -77 -63c-2 -48 56 -56 97 -82c120 -76 66 -293 -48 -297c-34 0 55 0 54 73c0 21 -15 32 -33 43l-55 36c-48 32 -62 77 -64 134c-4 113 100 212 230 212c162 0 219 -91 217 -242c0 -91 -6 -165 -93 -215l-76 -44c-6 -3 -13 -6 -15 -14c-3 -15 -2 -16 0 -21
c21 -1 59 -9 94 -28c37 -19 55 -37 78 -70l91 88v315c0 25 -2 52 -8 88c-4 27 -35 104 -25 101c6 -2 15 -19 32 -59l13 -30c4 7 36 62 111 102c57 29 140 37 135 26c-3 -5 -58 -15 -73 -40c-9 -17 -13 -62 -13 -75v-410c0 -22 4 -63 27 -75s42 -2 66 10zM606 863l-51 -19
s-37 27 -55 48c-17 20 -37 56 -37 56s-21 -34 -38 -54c-20 -22 -57 -49 -57 -49l-49 19s29 37 42 65c15 32 24 87 24 87h160s2 -49 13 -78c12 -33 48 -75 48 -75z" />
    <glyph glyph-name="Ecircumflex" unicode="&#xca;" horiz-adv-x="846" 
d="M810 470c-5 -40 -25 -81 -66 -81c-37 0 -65 34 -66 71c0 22 9 35 20 54c8 13 11 35 -22 35s-52 -44 -54 -77c-3 -58 45 -88 40 -166c-4 -84 -69 -153 -150 -158c-72 -4 -121 35 -143 76c-24 48 -37 96 -28 98c11 2 19 -50 41 -90c16 -29 49 -60 86 -53c31 6 40 21 39 38
c-1 19 -16 42 -27 56l-117 159c-22 30 -27 57 -26 94c2 63 69 126 83 141l23 24c-31 39 -36 53 -80 55c-98 5 -120 -210 -119 -322c2 -130 61 -394 252 -396c242 0 271 188 284 177c8 -7 -43 -205 -328 -205c-228 0 -427 195 -420 421c6 182 151 366 307 355
c62 -3 79 -23 126 -73l151 89c8 -5 18 -11 22 -15c21 -19 24 -37 58 -47c42 -12 85 10 107 34c26 29 -21 -77 -102 -112c-56 -25 -137 -8 -166 18l-37 33l-15 -8c-18 -10 -24 -24 -27 -48c-2 -24 23 -59 29 -65l89 -99c7 -8 14 -15 23 -15s16 49 32 72c14 19 37 34 84 37
c56 3 103 -52 97 -107zM613 863l-51 -19s-37 27 -55 48c-17 20 -37 56 -37 56s-21 -34 -38 -54c-20 -22 -57 -49 -57 -49l-49 19s29 37 42 65c15 32 24 87 24 87h160s2 -49 13 -78c12 -33 48 -75 48 -75z" />
    <glyph glyph-name="Aacute" unicode="&#xc1;" horiz-adv-x="846" 
d="M823 179c6 3 -2 -13 -7 -17l-158 -158l-56 51c-8 7 -28 25 -34 44c-11 35 -10 67 -10 75v33s-56 -56 -90 -93c-39 -43 -62 -69 -99 -114c-18 45 -59 83 -112 96c-68 17 -120 -10 -149 -45c-30 -35 20 108 157 185c6 3 8 20 8 20l30 136c19 87 -15 336 -145 324
c-41 -4 -75 -24 -77 -63c-2 -48 56 -56 97 -82c120 -76 66 -293 -48 -297c-34 0 55 0 54 73c0 21 -15 32 -33 43l-55 36c-48 32 -62 77 -64 134c-4 113 100 212 230 212c162 0 219 -91 217 -242c0 -91 -6 -165 -93 -215l-76 -44c-6 -3 -13 -6 -15 -14c-3 -15 -2 -16 0 -21
c21 -1 59 -9 94 -28c37 -19 55 -37 78 -70l91 88v315c0 25 -2 52 -8 88c-4 27 -35 104 -25 101c6 -2 15 -19 32 -59l13 -30c4 7 36 62 111 102c57 29 140 37 135 26c-3 -5 -58 -15 -73 -40c-9 -17 -13 -62 -13 -75v-410c0 -22 4 -63 27 -75s42 -2 66 10zM586 963
c0 0 -53 -52 -93 -76c-34 -20 -93 -41 -93 -41l-32 37s48 38 73 67c30 36 67 102 67 102s23 -30 38 -47c14 -17 40 -42 40 -42z" />
    <glyph glyph-name="Edieresis" unicode="&#xcb;" horiz-adv-x="835" 
d="M810 470c-5 -40 -25 -81 -66 -81c-37 0 -65 34 -66 71c0 22 9 35 20 54c8 13 11 35 -22 35s-52 -44 -54 -77c-3 -58 45 -88 40 -166c-4 -84 -69 -153 -150 -158c-72 -4 -121 35 -143 76c-24 48 -37 96 -28 98c11 2 19 -50 41 -90c16 -29 49 -60 86 -53c31 6 40 21 39 38
c-1 19 -16 42 -27 56l-117 159c-22 30 -27 57 -26 94c2 63 69 126 83 141l23 24c-31 39 -36 53 -80 55c-98 5 -120 -210 -119 -322c2 -130 61 -394 252 -396c242 0 271 188 284 177c8 -7 -43 -205 -328 -205c-228 0 -427 195 -420 421c6 182 151 366 307 355
c62 -3 79 -23 126 -73l151 89c8 -5 18 -11 22 -15c21 -19 24 -37 58 -47c42 -12 85 10 107 34c26 29 -21 -77 -102 -112c-56 -25 -137 -8 -166 18l-37 33l-15 -8c-18 -10 -24 -24 -27 -48c-2 -24 23 -59 29 -65l89 -99c7 -8 14 -15 23 -15s16 49 32 72c14 19 37 34 84 37
c56 3 103 -52 97 -107zM639 909c-8 -7 -21 -18 -34 -30c-12 -13 -26 -29 -31 -35c-6 7 -17 19 -29 30c-13 12 -28 25 -36 31c7 6 22 19 34 32c14 15 27 34 32 41c3 -5 17 -23 29 -36s28 -27 35 -33zM467 909c-9 -7 -21 -18 -34 -30c-13 -13 -26 -29 -31 -35
c-6 7 -18 19 -29 30c-14 12 -29 25 -37 31c7 6 23 19 35 32c13 15 27 34 31 41c4 -5 18 -23 30 -36s27 -27 35 -33z" />
    <glyph glyph-name="Egrave" unicode="&#xc8;" horiz-adv-x="835" 
d="M810 470c-5 -40 -25 -81 -66 -81c-37 0 -65 34 -66 71c0 22 9 35 20 54c8 13 11 35 -22 35s-52 -44 -54 -77c-3 -58 45 -88 40 -166c-4 -84 -69 -153 -150 -158c-72 -4 -121 35 -143 76c-24 48 -37 96 -28 98c11 2 19 -50 41 -90c16 -29 49 -60 86 -53c31 6 40 21 39 38
c-1 19 -16 42 -27 56l-117 159c-22 30 -27 57 -26 94c2 63 69 126 83 141l23 24c-31 39 -36 53 -80 55c-98 5 -120 -210 -119 -322c2 -130 61 -394 252 -396c242 0 271 188 284 177c8 -7 -43 -205 -328 -205c-228 0 -427 195 -420 421c6 182 151 366 307 355
c62 -3 79 -23 126 -73l151 89c8 -5 18 -11 22 -15c21 -19 24 -37 58 -47c42 -12 85 10 107 34c26 29 -21 -77 -102 -112c-56 -25 -137 -8 -166 18l-37 33l-15 -8c-18 -10 -24 -24 -27 -48c-2 -24 23 -59 29 -65l89 -99c7 -8 14 -15 23 -15s16 49 32 72c14 19 37 34 84 37
c56 3 103 -52 97 -107zM587 879l-32 -37s-59 21 -94 41c-40 24 -92 76 -92 76c16 15 26 26 40 42c15 17 24 29 38 47c0 0 36 -66 67 -101c25 -29 73 -68 73 -68z" />
    <glyph glyph-name="Iacute" unicode="&#xcd;" horiz-adv-x="369" 
d="M331 179c5 3 -2 -13 -8 -17l-157 -158l-57 51c-7 7 -29 25 -35 44c-12 35 -10 67 -10 75l1 367c0 25 -1 52 -7 88c-5 27 -36 104 -25 101c5 -2 15 -19 31 -59l14 -30c4 7 35 62 111 102c56 29 139 37 134 26c-2 -5 -58 -15 -72 -40c-10 -17 -14 -62 -14 -75v-410
c0 -22 4 -63 28 -75c22 -12 41 -2 66 10zM292 963c0 0 -53 -52 -93 -76c-34 -20 -93 -41 -93 -41l-32 37s48 38 73 67c30 36 67 102 67 102s23 -30 38 -47c14 -17 40 -42 40 -42z" />
    <glyph glyph-name="Icircumflex" unicode="&#xce;" horiz-adv-x="369" 
d="M331 179c5 3 -2 -13 -8 -17l-157 -158l-57 51c-7 7 -29 25 -35 44c-12 35 -10 67 -10 75l1 367c0 25 -1 52 -7 88c-5 27 -36 104 -25 101c5 -2 15 -19 31 -59l14 -30c4 7 35 62 111 102c56 29 139 37 134 26c-2 -5 -58 -15 -72 -40c-10 -17 -14 -62 -14 -75v-410
c0 -22 4 -63 28 -75c22 -12 41 -2 66 10zM331 863l-51 -19s-37 27 -55 48c-17 20 -37 56 -37 56s-21 -34 -38 -54c-20 -22 -57 -49 -57 -49l-49 19s29 37 42 65c15 32 24 87 24 87h160s2 -49 13 -78c12 -33 48 -75 48 -75z" />
    <glyph glyph-name="Idieresis" unicode="&#xcf;" horiz-adv-x="369" 
d="M331 179c5 3 -2 -13 -8 -17l-157 -158l-57 51c-7 7 -29 25 -35 44c-12 35 -10 67 -10 75l1 367c0 25 -1 52 -7 88c-5 27 -36 104 -25 101c5 -2 15 -19 31 -59l14 -30c4 7 35 62 111 102c56 29 139 37 134 26c-2 -5 -58 -15 -72 -40c-10 -17 -14 -62 -14 -75v-410
c0 -22 4 -63 28 -75c22 -12 41 -2 66 10zM328 909c-8 -7 -21 -18 -34 -30c-12 -13 -26 -29 -31 -35c-6 7 -17 19 -29 30c-13 12 -28 25 -36 31c7 6 22 19 34 32c14 15 27 34 32 41c3 -5 17 -23 29 -36s28 -27 35 -33zM156 909c-9 -7 -21 -18 -34 -30
c-13 -13 -26 -29 -31 -35c-6 7 -18 19 -29 30c-14 12 -29 25 -37 31c7 6 23 19 35 32c13 15 27 34 31 41c4 -5 18 -23 30 -36s27 -27 35 -33z" />
    <glyph glyph-name="Igrave" unicode="&#xcc;" horiz-adv-x="369" 
d="M331 179c5 3 -2 -13 -8 -17l-157 -158l-57 51c-7 7 -29 25 -35 44c-12 35 -10 67 -10 75l1 367c0 25 -1 52 -7 88c-5 27 -36 104 -25 101c5 -2 15 -19 31 -59l14 -30c4 7 35 62 111 102c56 29 139 37 134 26c-2 -5 -58 -15 -72 -40c-10 -17 -14 -62 -14 -75v-410
c0 -22 4 -63 28 -75c22 -12 41 -2 66 10zM296 879l-32 -37s-59 21 -94 41c-40 24 -92 76 -92 76c16 15 26 26 40 42c15 17 24 29 38 47c0 0 36 -66 67 -101c25 -29 73 -68 73 -68z" />
    <glyph glyph-name="Oacute" unicode="&#xd3;" horiz-adv-x="852" 
d="M826 370c6 -180 -108 -355 -349 -368c-53 -3 -87 8 -135 32l-113 58c-12 6 -75 36 -124 27c-33 -5 -87 -79 -74 -48c38 89 118 169 227 168c125 -2 212 -100 352 -108c123 -6 202 101 192 207c-30 293 -272 219 -390 219h-47c-31 0 -53 8 -76 28c-21 18 -36 35 -36 64v58
l-8 2c-8 3 -43 -23 -48 -70c-3 -21 10 -49 14 -53l54 -69c29 -36 36 -69 38 -113c3 -91 -79 -150 -166 -150c-113 2 -128 172 -102 106c16 -40 29 -67 71 -82c21 -6 46 7 45 40c-2 21 -10 33 -21 51l-34 53c-7 13 -33 51 -30 90c14 152 179 258 356 252
c265 -8 395 -167 404 -394zM574 963c0 0 -53 -52 -93 -76c-34 -20 -93 -41 -93 -41l-32 37s48 38 73 67c30 36 67 102 67 102s23 -30 38 -47c14 -17 40 -42 40 -42z" />
    <glyph glyph-name="Ocircumflex" unicode="&#xd4;" horiz-adv-x="846" 
d="M826 370c6 -180 -108 -355 -349 -368c-53 -3 -87 8 -135 32l-113 58c-12 6 -75 36 -124 27c-33 -5 -87 -79 -74 -48c38 89 118 169 227 168c125 -2 212 -100 352 -108c123 -6 202 101 192 207c-30 293 -272 219 -390 219h-47c-31 0 -53 8 -76 28c-21 18 -36 35 -36 64v58
l-8 2c-8 3 -43 -23 -48 -70c-3 -21 10 -49 14 -53l54 -69c29 -36 36 -69 38 -113c3 -91 -79 -150 -166 -150c-113 2 -128 172 -102 106c16 -40 29 -67 71 -82c21 -6 46 7 45 40c-2 21 -10 33 -21 51l-34 53c-7 13 -33 51 -30 90c14 152 179 258 356 252
c265 -8 395 -167 404 -394zM573 863l-51 -19s-37 27 -55 48c-17 20 -37 56 -37 56s-21 -34 -38 -54c-20 -22 -57 -49 -57 -49l-49 19s29 37 42 65c15 32 24 87 24 87h160s2 -49 13 -78c12 -33 48 -75 48 -75z" />
    <glyph glyph-name="Ograve" unicode="&#xd2;" horiz-adv-x="852" 
d="M826 370c6 -180 -108 -355 -349 -368c-53 -3 -87 8 -135 32l-113 58c-12 6 -75 36 -124 27c-33 -5 -87 -79 -74 -48c38 89 118 169 227 168c125 -2 212 -100 352 -108c123 -6 202 101 192 207c-30 293 -272 219 -390 219h-47c-31 0 -53 8 -76 28c-21 18 -36 35 -36 64v58
l-8 2c-8 3 -43 -23 -48 -70c-3 -21 10 -49 14 -53l54 -69c29 -36 36 -69 38 -113c3 -91 -79 -150 -166 -150c-113 2 -128 172 -102 106c16 -40 29 -67 71 -82c21 -6 46 7 45 40c-2 21 -10 33 -21 51l-34 53c-7 13 -33 51 -30 90c14 152 179 258 356 252
c265 -8 395 -167 404 -394zM543 892l-32 -37s-59 21 -94 41c-40 24 -92 76 -92 76c16 15 26 26 40 42c15 17 24 29 38 47c0 0 36 -66 67 -101c25 -29 73 -68 73 -68z" />
    <glyph glyph-name="Uacute" unicode="&#xda;" horiz-adv-x="781" 
d="M749 154c-2 -11 -52 -49 -76 -69s-59 -56 -61 -58l-28 -27l-47 36c-26 21 -42 36 -58 65c-17 35 -22 60 -19 98l-205 -200c-33 36 -57 53 -93 86c-41 37 -125 67 -112 74c7 4 36 4 55 24c15 15 20 29 20 50v307c0 11 -4 64 -37 75c-23 9 -32 -2 -56 -7
c-33 -7 49 56 50 57l103 105l60 -45c18 -14 28 -24 39 -43c15 -24 16 -65 16 -71v-417c0 -19 11 -41 33 -51c20 -7 43 -6 58 9l69 64v320c0 9 -9 44 -29 62c-13 12 -55 21 -39 28c41 20 43 13 91 52c33 25 60 101 66 89c37 -70 28 -58 54 -88c38 -44 88 -56 94 -60
c10 -5 -29 -19 -42 -37c-12 -17 -16 -36 -16 -51l-1 -322c0 -36 23 -61 56 -67c21 -4 58 24 55 12zM520 963c0 0 -53 -52 -93 -76c-34 -20 -93 -41 -93 -41l-32 37s48 38 73 67c30 36 67 102 67 102s23 -30 38 -47c14 -17 40 -42 40 -42z" />
    <glyph glyph-name="Ucircumflex" unicode="&#xdb;" horiz-adv-x="787" 
d="M749 154c-2 -11 -52 -49 -76 -69s-59 -56 -61 -58l-28 -27l-47 36c-26 21 -42 36 -58 65c-17 35 -22 60 -19 98l-205 -200c-33 36 -57 53 -93 86c-41 37 -125 67 -112 74c7 4 36 4 55 24c15 15 20 29 20 50v307c0 11 -4 64 -37 75c-23 9 -32 -2 -56 -7
c-33 -7 49 56 50 57l103 105l60 -45c18 -14 28 -24 39 -43c15 -24 16 -65 16 -71v-417c0 -19 11 -41 33 -51c20 -7 43 -6 58 9l69 64v320c0 9 -9 44 -29 62c-13 12 -55 21 -39 28c41 20 43 13 91 52c33 25 60 101 66 89c37 -70 28 -58 54 -88c38 -44 88 -56 94 -60
c10 -5 -29 -19 -42 -37c-12 -17 -16 -36 -16 -51l-1 -322c0 -36 23 -61 56 -67c21 -4 58 24 55 12zM536 863l-51 -19s-37 27 -55 48c-17 20 -37 56 -37 56s-21 -34 -38 -54c-20 -22 -57 -49 -57 -49l-49 19s29 37 42 65c15 32 24 87 24 87h160s2 -49 13 -78
c12 -33 48 -75 48 -75z" />
    <glyph glyph-name="Ugrave" unicode="&#xd9;" horiz-adv-x="787" 
d="M749 154c-2 -11 -52 -49 -76 -69s-59 -56 -61 -58l-28 -27l-47 36c-26 21 -42 36 -58 65c-17 35 -22 60 -19 98l-205 -200c-33 36 -57 53 -93 86c-41 37 -125 67 -112 74c7 4 36 4 55 24c15 15 20 29 20 50v307c0 11 -4 64 -37 75c-23 9 -32 -2 -56 -7
c-33 -7 49 56 50 57l103 105l60 -45c18 -14 28 -24 39 -43c15 -24 16 -65 16 -71v-417c0 -19 11 -41 33 -51c20 -7 43 -6 58 9l69 64v320c0 9 -9 44 -29 62c-13 12 -55 21 -39 28c41 20 43 13 91 52c33 25 60 101 66 89c37 -70 28 -58 54 -88c38 -44 88 -56 94 -60
c10 -5 -29 -19 -42 -37c-12 -17 -16 -36 -16 -51l-1 -322c0 -36 23 -61 56 -67c21 -4 58 24 55 12zM516 892l-32 -37s-59 21 -94 41c-40 24 -92 76 -92 76c16 15 26 26 40 42c15 17 24 29 38 47c0 0 36 -66 67 -101c25 -29 73 -68 73 -68z" />
  </font>
</defs>
</svg>
