<svg version="1.1" viewBox="0.0 0.0 1174.0 255.0" fill="none" stroke="none" stroke-linecap="square" stroke-miterlimit="10" xmlns:xlink="http://www.w3.org/1999/xlink" xmlns="http://www.w3.org/2000/svg"><clipPath id="p.0"><path d="m0 0l1174.0 0l0 255.0l-1174.0 0l0 -255.0z" clip-rule="nonzero"/></clipPath><g clip-path="url(#p.0)"><path fill="#000000" fill-opacity="0.0" d="m0 0l1174.0 0l0 255.0l-1174.0 0z" fill-rule="evenodd"/><path fill="#000000" d="m53.942257 105.244095l20.199474 0l-10.099739 16.29921z" fill-rule="evenodd"/><path stroke="#000000" stroke-width="1.0" stroke-linejoin="round" stroke-linecap="butt" d="m53.942257 105.244095l20.199474 0l-10.099739 16.29921z" fill-rule="evenodd"/><path fill="#000000" fill-opacity="0.0" d="m10.377953 92.28346l883.9055 0l0 29.259842l-883.9055 0z" fill-rule="evenodd"/><path fill="#000000" d="m35.737328 105.29971l0 11.34375l-1.359375 0l0 -8.125l-2.953125 0l0 -1.09375l0.046875 0q1.4375 0 2.21875 -0.515625q0.796875 -0.515625 1.0 -1.609375l1.046875 0zm6.3046875 9.5625l0 1.78125l-1.78125 0l0 -1.78125l1.78125 0z" fill-rule="nonzero"/><path fill="#000000" d="m90.25295 104.94034q1.90625 0 3.015625 0.921875q1.125 0.921875 1.1875 2.703125l-1.4375 0q-0.125 -1.171875 -0.84375 -1.75q-0.703125 -0.59375 -1.984375 -0.59375q-1.21875 0 -1.890625 0.515625q-0.671875 0.5 -0.671875 1.4375q0 0.671875 0.5625 1.109375q0.578125 0.421875 3.109375 0.921875q1.828125 0.375 2.734375 1.15625q0.90625 0.765625 0.90625 2.140625q0 1.59375 -1.3125 2.515625q-1.296875 0.90625 -3.15625 0.90625q-2.078125 0 -3.390625 -1.046875q-1.3125 -1.046875 -1.328125 -3.0l1.4375 0q0.015625 1.3125 0.9375 2.03125q0.921875 0.71875 2.390625 0.71875q1.390625 0 2.140625 -0.53125q0.765625 -0.53125 0.765625 -1.546875q0 -0.8125 -0.703125 -1.296875q-0.6875 -0.5 -2.515625 -0.84375q-2.4375 -0.46875 -3.265625 -1.1875q-0.828125 -0.734375 -0.828125 -1.9375q0 -1.53125 1.15625 -2.4375q1.171875 -0.90625 2.984375 -0.90625zm9.7578125 3.234375q1.515625 0 2.453125 0.71875q0.953125 0.71875 1.109375 2.125l-1.40625 0q-0.15625 -0.796875 -0.703125 -1.21875q-0.53125 -0.421875 -1.34375 -0.421875q-1.265625 0 -1.921875 0.84375q-0.65625 0.84375 -0.65625 2.390625q0 1.375 0.640625 2.203125q0.65625 0.8125 1.78125 0.8125q0.984375 0 1.5625 -0.53125q0.578125 -0.53125 0.703125 -1.484375l1.390625 0q-0.21875 1.546875 -1.15625 2.390625q-0.9375 0.84375 -2.484375 0.84375q-1.8125 0 -2.84375 -1.140625q-1.03125 -1.140625 -1.03125 -3.09375q0 -2.03125 1.046875 -3.234375q1.046875 -1.203125 2.859375 -1.203125zm9.25 0q0.046875 0 0.078125 0q0.046875 0 0.109375 0l0 1.4375q-1.53125 0 -2.265625 0.8125q-0.71875 0.8125 -0.71875 2.515625l0 3.703125l-1.359375 0l0 -8.28125l1.28125 0l0 1.75l0.03125 0q0.46875 -0.984375 1.171875 -1.453125q0.703125 -0.484375 1.671875 -0.484375zm4.4921875 0q1.875 0 2.9375 1.21875q1.078125 1.203125 1.078125 3.125q0 1.921875 -1.09375 3.125q-1.09375 1.203125 -2.921875 1.203125q-1.796875 0 -2.90625 -1.171875q-1.109375 -1.1875 -1.109375 -3.15625q0 -1.96875 1.078125 -3.15625q1.09375 -1.1875 2.9375 -1.1875zm-2.578125 4.34375q0 1.421875 0.71875 2.265625q0.734375 0.84375 1.859375 0.84375q1.125 0 1.84375 -0.84375q0.734375 -0.859375 0.734375 -2.265625q0 -1.421875 -0.734375 -2.28125q-0.71875 -0.859375 -1.859375 -0.859375q-1.09375 0 -1.828125 0.84375q-0.734375 0.84375 -0.734375 2.296875zm9.640625 -7.296875l0 11.421875l-1.359375 0l0 -11.421875l1.359375 0zm3.5546875 0l0 11.421875l-1.359375 0l0 -11.421875l1.359375 0zm13.953133 0l0 11.421875l-1.359375 0l0 -1.125l-0.03125 0q-0.328125 0.640625 -1.03125 0.984375q-0.6875 0.34375 -1.609375 0.34375q-1.734375 0 -2.78125 -1.203125q-1.03125 -1.21875 -1.03125 -3.15625q0 -1.921875 1.0 -3.109375q1.015625 -1.203125 2.765625 -1.203125q0.8125 0 1.546875 0.328125q0.734375 0.328125 1.140625 0.96875l0.03125 0l0 -4.25l1.359375 0zm-6.40625 7.34375q0 1.34375 0.6875 2.203125q0.703125 0.859375 1.875 0.859375q1.203125 0 1.859375 -0.859375q0.671875 -0.859375 0.671875 -2.25q0 -1.421875 -0.6875 -2.28125q-0.671875 -0.859375 -1.9375 -0.859375q-1.171875 0 -1.828125 0.859375q-0.640625 0.84375 -0.640625 2.328125zm12.0625 -4.390625q1.875 0 2.9375 1.21875q1.078125 1.203125 1.078125 3.125q0 1.921875 -1.09375 3.125q-1.09375 1.203125 -2.921875 1.203125q-1.796875 0 -2.90625 -1.171875q-1.109375 -1.1875 -1.109375 -3.15625q0 -1.96875 1.078125 -3.15625q1.09375 -1.1875 2.9375 -1.1875zm-2.578125 4.34375q0 1.421875 0.71875 2.265625q0.734375 0.84375 1.859375 0.84375q1.125 0 1.84375 -0.84375q0.734375 -0.859375 0.734375 -2.265625q0 -1.421875 -0.734375 -2.28125q-0.71875 -0.859375 -1.859375 -0.859375q-1.09375 0 -1.828125 0.84375q-0.734375 0.84375 -0.734375 2.296875zm8.953125 -4.15625l1.875 6.765625l0.03125 0l1.65625 -6.765625l1.484375 0l1.734375 6.734375l0.015625 0.03125l0.015625 0l1.859375 -6.765625l1.40625 0l-2.625 8.25l-0.015625 0.03125l-1.4375 0l-1.671875 -6.546875l-0.015625 -0.03125l-0.03125 0l-1.65625 6.578125l-1.46875 0l-2.65625 -8.28125l1.5 0zm15.375 -0.1875q1.5 0 2.171875 0.765625q0.671875 0.765625 0.671875 2.1875l0 5.515625l-1.359375 0l0 -5.65625q0 -0.703125 -0.453125 -1.15625q-0.4375 -0.453125 -1.234375 -0.453125q-1.15625 0 -1.796875 0.703125q-0.640625 0.703125 -0.640625 1.828125l0 4.734375l-1.359375 0l0 -8.28125l1.28125 0l0 1.3125l0.03125 0q0.453125 -0.765625 1.109375 -1.125q0.65625 -0.375 1.578125 -0.375zm11.234375 -2.28125l0 2.46875l1.640625 0l0 1.203125l-1.640625 0l0 5.1875q0 0.609375 0.40625 0.65625q0.40625 0.03125 0.859375 0.03125l0.375 0l0 1.203125l-1.125 0q-1.109375 0 -1.5 -0.390625q-0.375 -0.40625 -0.375 -1.34375l0 -5.34375l-1.421875 0l0 -1.203125l1.421875 0l0 -2.46875l1.359375 0zm6.515625 2.28125q1.875 0 2.9375 1.21875q1.078125 1.203125 1.078125 3.125q0 1.921875 -1.09375 3.125q-1.09375 1.203125 -2.921875 1.203125q-1.796875 0 -2.90625 -1.171875q-1.109375 -1.1875 -1.109375 -3.15625q0 -1.96875 1.078125 -3.15625q1.09375 -1.1875 2.9375 -1.1875zm-2.578125 4.34375q0 1.421875 0.71875 2.265625q0.734375 0.84375 1.859375 0.84375q1.125 0 1.84375 -0.84375q0.734375 -0.859375 0.734375 -2.265625q0 -1.421875 -0.734375 -2.28125q-0.71875 -0.859375 -1.859375 -0.859375q-1.09375 0 -1.828125 0.84375q-0.734375 0.84375 -0.734375 2.296875zm14.0546875 -7.296875l0 4.265625l0.03125 0q0.3125 -0.640625 1.0 -0.96875q0.6875 -0.34375 1.640625 -0.34375q1.765625 0 2.78125 1.21875q1.03125 1.21875 1.03125 3.140625q0 1.921875 -1.015625 3.125q-1.015625 1.1875 -2.765625 1.1875q-0.765625 0 -1.515625 -0.328125q-0.734375 -0.328125 -1.15625 -0.984375l-0.03125 0l0 1.109375l-1.359375 0l0 -11.421875l1.359375 0zm-0.046875 7.28125q0 1.4375 0.6875 2.28125q0.703125 0.84375 1.921875 0.84375q1.171875 0 1.8125 -0.84375q0.65625 -0.84375 0.65625 -2.34375q0 -1.34375 -0.6875 -2.203125q-0.671875 -0.859375 -1.875 -0.859375q-1.203125 0 -1.859375 0.875q-0.65625 0.875 -0.65625 2.25zm11.5625 -4.328125q1.78125 0 2.765625 1.28125q0.984375 1.28125 0.984375 3.296875l0 0.15625l-6.203125 0l0 0.109375q0 1.171875 0.6875 1.890625q0.6875 0.71875 1.890625 0.71875q0.90625 0 1.4375 -0.421875q0.546875 -0.421875 0.703125 -1.1875l1.34375 0q-0.265625 1.375 -1.203125 2.109375q-0.921875 0.71875 -2.328125 0.71875q-1.296875 0 -2.203125 -0.59375q-0.90625 -0.59375 -1.34375 -1.640625q-0.421875 -1.0625 -0.421875 -2.15625q0 -1.828125 1.09375 -3.046875q1.109375 -1.234375 2.796875 -1.234375zm-2.453125 3.53125l4.75 0q-0.0625 -1.0 -0.734375 -1.65625q-0.65625 -0.671875 -1.65625 -0.671875q-0.9375 0 -1.609375 0.640625q-0.65625 0.625 -0.75 1.6875zm10.96875 -3.53125q0.875 0 1.5 0.375q0.640625 0.375 0.984375 1.0l0.015625 0l0 -1.1875l1.265625 0l0 7.65625q0 1.953125 -0.9375 2.96875q-0.9375 1.015625 -2.890625 1.015625q-1.421875 0 -2.390625 -0.625q-0.96875 -0.625 -1.03125 -1.796875l1.359375 0q0.03125 0.625 0.671875 0.984375q0.640625 0.359375 1.46875 0.359375q1.203125 0 1.84375 -0.796875q0.640625 -0.796875 0.640625 -2.375l0 -0.515625l-0.03125 0q-0.328125 0.6875 -1.015625 1.09375q-0.6875 0.40625 -1.578125 0.40625q-1.671875 0 -2.6875 -1.15625q-1.0 -1.15625 -1.0 -3.03125q0 -1.90625 1.0 -3.140625q1.015625 -1.234375 2.8125 -1.234375zm-2.375 4.203125q0 1.484375 0.609375 2.328125q0.625 0.828125 1.734375 0.828125q1.125 0 1.78125 -0.859375q0.671875 -0.875 0.671875 -2.34375q0 -1.328125 -0.625 -2.140625q-0.609375 -0.8125 -1.734375 -0.8125q-1.140625 0 -1.796875 0.828125q-0.640625 0.8125 -0.640625 2.171875zm9.640625 -7.15625l0 1.65625l-1.359375 0l0 -1.65625l1.359375 0zm0 3.140625l0 8.28125l-1.359375 0l0 -8.28125l1.359375 0zm6.1171875 -0.1875q1.5 0 2.171875 0.765625q0.671875 0.765625 0.671875 2.1875l0 5.515625l-1.359375 0l0 -5.65625q0 -0.703125 -0.453125 -1.15625q-0.4375 -0.453125 -1.234375 -0.453125q-1.15625 0 -1.796875 0.703125q-0.640625 0.703125 -0.640625 1.828125l0 4.734375l-1.359375 0l0 -8.28125l1.28125 0l0 1.3125l0.03125 0q0.453125 -0.765625 1.109375 -1.125q0.65625 -0.375 1.578125 -0.375z" fill-rule="nonzero"/><path fill="#000000" d="m346.98734 115.28409l0 1.359375l-7.578125 0q-0.015625 -0.515625 0.171875 -0.984375q0.28125 -0.765625 0.921875 -1.515625q0.640625 -0.75 1.84375 -1.734375q1.859375 -1.53125 2.515625 -2.421875q0.65625 -0.90625 0.65625 -1.703125q0 -0.828125 -0.59375 -1.40625q-0.59375 -0.578125 -1.5625 -0.578125q-1.015625 0 -1.625 0.609375q-0.609375 0.609375 -0.609375 1.6875l-1.453125 -0.140625q0.15625 -1.625 1.125 -2.46875q0.96875 -0.84375 2.59375 -0.84375q1.65625 0 2.609375 0.921875q0.96875 0.90625 0.96875 2.25q0 0.6875 -0.28125 1.359375q-0.28125 0.65625 -0.9375 1.390625q-0.65625 0.734375 -2.171875 2.015625q-1.265625 1.0625 -1.625 1.453125q-0.359375 0.375 -0.59375 0.75l5.625 0zm2.2890625 1.359375l0 -1.609375l1.609375 0l0 1.609375l-1.609375 0z" fill-rule="nonzero"/><path fill="#000000" d="m415.7842 116.64346l0 -11.453125l1.515625 0l0 4.703125l5.953125 0l0 -4.703125l1.515625 0l0 11.453125l-1.515625 0l0 -5.40625l-5.953125 0l0 5.40625l-1.515625 0zm10.8046875 -4.15625q0 -2.296875 1.28125 -3.40625q1.078125 -0.921875 2.609375 -0.921875q1.71875 0 2.796875 1.125q1.09375 1.109375 1.09375 3.09375q0 1.59375 -0.484375 2.515625q-0.484375 0.921875 -1.40625 1.4375q-0.90625 0.5 -2.0 0.5q-1.734375 0 -2.8125 -1.109375q-1.078125 -1.125 -1.078125 -3.234375zm1.453125 0q0 1.59375 0.6875 2.390625q0.703125 0.796875 1.75 0.796875q1.046875 0 1.734375 -0.796875q0.703125 -0.796875 0.703125 -2.4375q0 -1.53125 -0.703125 -2.328125q-0.6875 -0.796875 -1.734375 -0.796875q-1.046875 0 -1.75 0.796875q-0.6875 0.78125 -0.6875 2.375zm10.2734375 4.15625l-3.15625 -8.296875l1.484375 0l1.78125 4.96875q0.296875 0.796875 0.53125 1.671875q0.1875 -0.65625 0.53125 -1.578125l1.84375 -5.0625l1.4375 0l-3.140625 8.296875l-1.3125 0zm11.375 -2.671875l1.453125 0.171875q-0.34375 1.28125 -1.28125 1.984375q-0.921875 0.703125 -2.359375 0.703125q-1.828125 0 -2.890625 -1.125q-1.0625 -1.125 -1.0625 -3.140625q0 -2.09375 1.078125 -3.25q1.078125 -1.15625 2.796875 -1.15625q1.65625 0 2.703125 1.140625q1.0625 1.125 1.0625 3.171875q0 0.125 0 0.375l-6.1875 0q0.078125 1.375 0.765625 2.109375q0.703125 0.71875 1.734375 0.71875q0.78125 0 1.328125 -0.40625q0.546875 -0.40625 0.859375 -1.296875zm-4.609375 -2.28125l4.625 0q-0.09375 -1.046875 -0.53125 -1.5625q-0.671875 -0.8125 -1.734375 -0.8125q-0.96875 0 -1.640625 0.65625q-0.65625 0.640625 -0.71875 1.71875zm7.8203125 4.953125l0 -8.296875l1.265625 0l0 1.25q0.484375 -0.875 0.890625 -1.15625q0.40625 -0.28125 0.90625 -0.28125q0.703125 0 1.4375 0.453125l-0.484375 1.296875q-0.515625 -0.296875 -1.03125 -0.296875q-0.453125 0 -0.828125 0.28125q-0.359375 0.265625 -0.515625 0.765625q-0.234375 0.75 -0.234375 1.640625l0 4.34375l-1.40625 0zm9.7890625 0l0 -8.296875l1.265625 0l0 1.171875q0.90625 -1.359375 2.640625 -1.359375q0.75 0 1.375 0.265625q0.625 0.265625 0.9375 0.703125q0.3125 0.4375 0.4375 1.046875q0.078125 0.390625 0.078125 1.359375l0 5.109375l-1.40625 0l0 -5.046875q0 -0.859375 -0.171875 -1.28125q-0.15625 -0.4375 -0.578125 -0.6875q-0.40625 -0.25 -0.96875 -0.25q-0.90625 0 -1.5625 0.578125q-0.640625 0.5625 -0.640625 2.15625l0 4.53125l-1.40625 0zm8.3671875 -4.15625q0 -2.296875 1.28125 -3.40625q1.078125 -0.921875 2.609375 -0.921875q1.71875 0 2.796875 1.125q1.09375 1.109375 1.09375 3.09375q0 1.59375 -0.484375 2.515625q-0.484375 0.921875 -1.40625 1.4375q-0.90625 0.5 -2.0 0.5q-1.734375 0 -2.8125 -1.109375q-1.078125 -1.125 -1.078125 -3.234375zm1.453125 0q0 1.59375 0.6875 2.390625q0.703125 0.796875 1.75 0.796875q1.046875 0 1.734375 -0.796875q0.703125 -0.796875 0.703125 -2.4375q0 -1.53125 -0.703125 -2.328125q-0.6875 -0.796875 -1.734375 -0.796875q-1.046875 0 -1.75 0.796875q-0.6875 0.78125 -0.6875 2.375zm13.3515625 4.15625l0 -1.046875q-0.78125 1.234375 -2.3125 1.234375q-1.0 0 -1.828125 -0.546875q-0.828125 -0.546875 -1.296875 -1.53125q-0.453125 -0.984375 -0.453125 -2.25q0 -1.25 0.40625 -2.25q0.421875 -1.015625 1.25 -1.546875q0.828125 -0.546875 1.859375 -0.546875q0.75 0 1.328125 0.3125q0.59375 0.3125 0.953125 0.828125l0 -4.109375l1.40625 0l0 11.453125l-1.3125 0zm-4.4375 -4.140625q0 1.59375 0.671875 2.390625q0.671875 0.78125 1.578125 0.78125q0.921875 0 1.5625 -0.75q0.65625 -0.765625 0.65625 -2.3125q0 -1.703125 -0.65625 -2.5q-0.65625 -0.796875 -1.625 -0.796875q-0.9375 0 -1.5625 0.765625q-0.625 0.765625 -0.625 2.421875zm13.6328125 1.46875l1.453125 0.171875q-0.34375 1.28125 -1.28125 1.984375q-0.921875 0.703125 -2.359375 0.703125q-1.828125 0 -2.890625 -1.125q-1.0625 -1.125 -1.0625 -3.140625q0 -2.09375 1.078125 -3.25q1.078125 -1.15625 2.796875 -1.15625q1.65625 0 2.703125 1.140625q1.0625 1.125 1.0625 3.171875q0 0.125 0 0.375l-6.1875 0q0.078125 1.375 0.765625 2.109375q0.703125 0.71875 1.734375 0.71875q0.78125 0 1.328125 -0.40625q0.546875 -0.40625 0.859375 -1.296875zm-4.609375 -2.28125l4.625 0q-0.09375 -1.046875 -0.53125 -1.5625q-0.671875 -0.8125 -1.734375 -0.8125q-0.96875 0 -1.640625 0.65625q-0.65625 0.640625 -0.71875 1.71875zm12.609375 4.953125l0 -7.203125l-1.234375 0l0 -1.09375l1.234375 0l0 -0.890625q0 -0.828125 0.15625 -1.234375q0.203125 -0.546875 0.703125 -0.890625q0.515625 -0.34375 1.4375 -0.34375q0.59375 0 1.3125 0.140625l-0.203125 1.234375q-0.4375 -0.078125 -0.828125 -0.078125q-0.640625 0 -0.90625 0.28125q-0.265625 0.265625 -0.265625 1.015625l0 0.765625l1.609375 0l0 1.09375l-1.609375 0l0 7.203125l-1.40625 0zm3.5859375 -4.15625q0 -2.296875 1.28125 -3.40625q1.078125 -0.921875 2.609375 -0.921875q1.7187195 0 2.7968445 1.125q1.09375 1.109375 1.09375 3.09375q0 1.59375 -0.484375 2.515625q-0.484375 0.921875 -1.40625 1.4375q-0.9062195 0.5 -1.9999695 0.5q-1.734375 0 -2.8125 -1.109375q-1.078125 -1.125 -1.078125 -3.234375zm1.453125 0q0 1.59375 0.6875 2.390625q0.703125 0.796875 1.75 0.796875q1.046875 0 1.7343445 -0.796875q0.703125 -0.796875 0.703125 -2.4375q0 -1.53125 -0.703125 -2.328125q-0.6874695 -0.796875 -1.7343445 -0.796875q-1.046875 0 -1.75 0.796875q-0.6875 0.78125 -0.6875 2.375zm7.960907 4.15625l0 -8.296875l1.265625 0l0 1.25q0.484375 -0.875 0.890625 -1.15625q0.40625 -0.28125 0.90625 -0.28125q0.703125 0 1.4375 0.453125l-0.484375 1.296875q-0.515625 -0.296875 -1.03125 -0.296875q-0.453125 0 -0.828125 0.28125q-0.359375 0.265625 -0.515625 0.765625q-0.234375 0.75 -0.234375 1.640625l0 4.34375l-1.40625 0zm9.7890625 0l0 -8.296875l1.25 0l0 1.15625q0.390625 -0.609375 1.03125 -0.96875q0.65625 -0.375 1.484375 -0.375q0.921875 0 1.515625 0.390625q0.59375 0.375 0.828125 1.0625q0.984375 -1.453125 2.5625 -1.453125q1.234375 0 1.890625 0.6875q0.671875 0.671875 0.671875 2.09375l0 5.703125l-1.390625 0l0 -5.234375q0 -0.84375 -0.140625 -1.203125q-0.140625 -0.375 -0.5 -0.59375q-0.359375 -0.234375 -0.84375 -0.234375q-0.875 0 -1.453125 0.578125q-0.578125 0.578125 -0.578125 1.859375l0 4.828125l-1.40625 0l0 -5.390625q0 -0.9375 -0.34375 -1.40625q-0.34375 -0.46875 -1.125 -0.46875q-0.59375 0 -1.09375 0.3125q-0.5 0.3125 -0.734375 0.921875q-0.21875 0.59375 -0.21875 1.71875l0 4.3125l-1.40625 0zm12.796875 -4.15625q0 -2.296875 1.28125 -3.40625q1.078125 -0.921875 2.609375 -0.921875q1.71875 0 2.796875 1.125q1.09375 1.109375 1.09375 3.09375q0 1.59375 -0.484375 2.515625q-0.484375 0.921875 -1.40625 1.4375q-0.90625 0.5 -2.0 0.5q-1.734375 0 -2.8125 -1.109375q-1.078125 -1.125 -1.078125 -3.234375zm1.453125 0q0 1.59375 0.6875 2.390625q0.703125 0.796875 1.75 0.796875q1.046875 0 1.734375 -0.796875q0.703125 -0.796875 0.703125 -2.4375q0 -1.53125 -0.703125 -2.328125q-0.6875 -0.796875 -1.734375 -0.796875q-1.046875 0 -1.75 0.796875q-0.6875 0.78125 -0.6875 2.375zm7.9609375 4.15625l0 -8.296875l1.265625 0l0 1.25q0.484375 -0.875 0.890625 -1.15625q0.40625 -0.28125 0.90625 -0.28125q0.703125 0 1.4375 0.453125l-0.484375 1.296875q-0.515625 -0.296875 -1.03125 -0.296875q-0.453125 0 -0.828125 0.28125q-0.359375 0.265625 -0.515625 0.765625q-0.234375 0.75 -0.234375 1.640625l0 4.34375l-1.40625 0zm11.015625 -2.671875l1.453125 0.171875q-0.34375 1.28125 -1.28125 1.984375q-0.921875 0.703125 -2.359375 0.703125q-1.828125 0 -2.890625 -1.125q-1.0625 -1.125 -1.0625 -3.140625q0 -2.09375 1.078125 -3.25q1.078125 -1.15625 2.796875 -1.15625q1.65625 0 2.703125 1.140625q1.0625 1.125 1.0625 3.171875q0 0.125 0 0.375l-6.1875 0q0.078125 1.375 0.765625 2.109375q0.703125 0.71875 1.734375 0.71875q0.78125 0 1.328125 -0.40625q0.546875 -0.40625 0.859375 -1.296875zm-4.609375 -2.28125l4.625 0q-0.09375 -1.046875 -0.53125 -1.5625q-0.671875 -0.8125 -1.734375 -0.8125q-0.96875 0 -1.640625 0.65625q-0.65625 0.640625 -0.71875 1.71875zm12.28125 -4.890625l0 -1.609375l1.40625 0l0 1.609375l-1.40625 0zm0 9.84375l0 -8.296875l1.40625 0l0 8.296875l-1.40625 0zm3.5546875 0l0 -8.296875l1.265625 0l0 1.171875q0.90625 -1.359375 2.640625 -1.359375q0.75 0 1.375 0.265625q0.625 0.265625 0.9375 0.703125q0.3125 0.4375 0.4375 1.046875q0.078125 0.390625 0.078125 1.359375l0 5.109375l-1.40625 0l0 -5.046875q0 -0.859375 -0.171875 -1.28125q-0.15625 -0.4375 -0.578125 -0.6875q-0.40625 -0.25 -0.96875 -0.25q-0.90625 0 -1.5625 0.578125q-0.640625 0.5625 -0.640625 2.15625l0 4.53125l-1.40625 0zm9.2265625 0l0 -7.203125l-1.234375 0l0 -1.09375l1.234375 0l0 -0.890625q0 -0.828125 0.15625 -1.234375q0.203125 -0.546875 0.703125 -0.890625q0.515625 -0.34375 1.4375 -0.34375q0.59375 0 1.3125 0.140625l-0.203125 1.234375q-0.4375 -0.078125 -0.828125 -0.078125q-0.640625 0 -0.90625 0.28125q-0.265625 0.265625 -0.265625 1.015625l0 0.765625l1.609375 0l0 1.09375l-1.609375 0l0 7.203125l-1.40625 0zm3.5859375 -4.15625q0 -2.296875 1.28125 -3.40625q1.078125 -0.921875 2.609375 -0.921875q1.71875 0 2.796875 1.125q1.09375 1.109375 1.09375 3.09375q0 1.59375 -0.484375 2.515625q-0.484375 0.921875 -1.40625 1.4375q-0.90625 0.5 -2.0 0.5q-1.734375 0 -2.8125 -1.109375q-1.078125 -1.125 -1.078125 -3.234375zm1.453125 0q0 1.59375 0.6875 2.390625q0.703125 0.796875 1.75 0.796875q1.046875 0 1.734375 -0.796875q0.703125 -0.796875 0.703125 -2.4375q0 -1.53125 -0.703125 -2.328125q-0.6875 -0.796875 -1.734375 -0.796875q-1.046875 0 -1.75 0.796875q-0.6875 0.78125 -0.6875 2.375z" fill-rule="nonzero"/><path fill="#000000" d="m680.1592 105.29971q1.640625 0 2.546875 0.8125q0.90625 0.796875 0.90625 2.21875q0 0.6875 -0.40625 1.296875q-0.390625 0.59375 -1.15625 0.96875l0 0.03125q1.0 0.21875 1.515625 0.9375q0.53125 0.71875 0.53125 1.8125q0 1.578125 -1.09375 2.53125q-1.078125 0.9375 -2.8125 0.9375q-1.703125 0 -2.75 -0.953125q-1.03125 -0.953125 -1.03125 -2.703125l0 -0.0625l1.375 0q0.046875 1.21875 0.6875 1.859375q0.640625 0.640625 1.71875 0.640625q1.0625 0 1.765625 -0.609375q0.703125 -0.625 0.703125 -1.578125q0 -1.0 -0.671875 -1.578125q-0.65625 -0.59375 -1.796875 -0.59375q-0.171875 0 -0.375 0.015625q-0.1875 0 -0.390625 0.03125l0 -1.15625q0.171875 0.015625 0.5 0.015625q0.78125 0 1.25 -0.25q0.46875 -0.25 0.734375 -0.640625q0.265625 -0.40625 0.265625 -0.96875q0 -0.84375 -0.546875 -1.328125q-0.546875 -0.484375 -1.46875 -0.484375q-0.984375 0 -1.5625 0.65625q-0.5625 0.640625 -0.578125 1.796875l-1.359375 0q0.078125 -1.765625 0.984375 -2.703125q0.921875 -0.953125 2.515625 -0.953125zm7.7890625 9.5625l0 1.78125l-1.78125 0l0 -1.78125l1.78125 0zm14.953125 -9.640625l0 1.28125l-3.8125 0l0 10.140625l-1.515625 0l0 -10.140625l-3.8125 0l0 -1.28125l9.140625 0zm3.6171875 2.953125q0.046875 0 0.078125 0q0.046875 0 0.109375 0l0 1.4375q-1.53125 0 -2.265625 0.8125q-0.71875 0.8125 -0.71875 2.515625l0 3.703125l-1.359375 0l0 -8.28125l1.28125 0l0 1.75l0.03125 0q0.46875 -0.984375 1.171875 -1.453125q0.703125 -0.484375 1.671875 -0.484375zm2.578125 0.1875l0 5.640625q0 0.703125 0.4375 1.171875q0.453125 0.453125 1.25 0.453125q1.171875 0 1.796875 -0.703125q0.640625 -0.71875 0.640625 -1.828125l0 -4.734375l1.359375 0l0 8.28125l-1.28125 0l0 -1.3125l-0.03125 0q-0.453125 0.78125 -1.140625 1.15625q-0.671875 0.359375 -1.546875 0.359375q-1.453125 0 -2.15625 -0.75q-0.6875 -0.75 -0.6875 -2.21875l0 -5.515625l1.359375 0zm10.2890625 -0.1875q1.671875 0 2.484375 0.65625q0.8125 0.640625 0.890625 1.9375l-1.359375 0l0 -0.015625q-0.0625 -0.65625 -0.578125 -1.015625q-0.515625 -0.359375 -1.34375 -0.359375q-0.8125 0 -1.296875 0.28125q-0.46875 0.265625 -0.46875 0.765625q0 0.453125 0.421875 0.75q0.421875 0.28125 1.265625 0.46875l1.28125 0.28125q1.203125 0.265625 1.828125 0.828125q0.625 0.546875 0.625 1.46875q0 1.21875 -0.953125 1.921875q-0.9375 0.703125 -2.578125 0.703125q-1.578125 0 -2.515625 -0.71875q-0.921875 -0.71875 -0.984375 -2.09375l1.359375 0q0.03125 0.765625 0.609375 1.1875q0.59375 0.40625 1.609375 0.40625q0.984375 0 1.484375 -0.3125q0.515625 -0.3125 0.515625 -0.921875q0 -0.546875 -0.5 -0.875q-0.5 -0.328125 -2.0625 -0.640625q-1.5625 -0.296875 -2.203125 -0.859375q-0.640625 -0.5625 -0.640625 -1.484375q0 -1.09375 0.875 -1.71875q0.890625 -0.640625 2.234375 -0.640625zm7.140625 -2.28125l0 2.46875l1.640625 0l0 1.203125l-1.640625 0l0 5.1875q0 0.609375 0.40625 0.65625q0.40625 0.03125 0.859375 0.03125l0.375 0l0 1.203125l-1.125 0q-1.109375 0 -1.5 -0.390625q-0.375 -0.40625 -0.375 -1.34375l0 -5.34375l-1.421875 0l0 -1.203125l1.421875 0l0 -2.46875l1.359375 0zm9.484375 0l0 2.46875l1.640625 0l0 1.203125l-1.640625 0l0 5.1875q0 0.609375 0.40625 0.65625q0.40625 0.03125 0.859375 0.03125l0.375 0l0 1.203125l-1.125 0q-1.109375 0 -1.5 -0.390625q-0.375 -0.40625 -0.375 -1.34375l0 -5.34375l-1.421875 0l0 -1.203125l1.421875 0l0 -2.46875l1.359375 0zm4.5078125 -0.671875l0 4.359375l0.03125 0q0.296875 -0.65625 1.0 -1.03125q0.71875 -0.375 1.609375 -0.375q1.5 0 2.171875 0.765625q0.671875 0.765625 0.671875 2.1875l0 5.515625l-1.359375 0l0 -5.65625q0 -0.703125 -0.453125 -1.15625q-0.4375 -0.453125 -1.234375 -0.453125q-1.15625 0 -1.796875 0.703125q-0.640625 0.703125 -0.640625 1.828125l0 4.734375l-1.359375 0l0 -11.421875l1.359375 0zm10.9765625 2.953125q1.78125 0 2.765625 1.28125q0.984375 1.28125 0.984375 3.296875l0 0.15625l-6.203125 0l0 0.109375q0 1.171875 0.6875 1.890625q0.6875 0.71875 1.890625 0.71875q0.90625 0 1.4375 -0.421875q0.546875 -0.421875 0.703125 -1.1875l1.34375 0q-0.265625 1.375 -1.203125 2.109375q-0.921875 0.71875 -2.328125 0.71875q-1.296875 0 -2.203125 -0.59375q-0.90625 -0.59375 -1.34375 -1.640625q-0.421875 -1.0625 -0.421875 -2.15625q0 -1.828125 1.09375 -3.046875q1.109375 -1.234375 2.796875 -1.234375zm-2.453125 3.53125l4.75 0q-0.0625 -1.0 -0.734375 -1.65625q-0.65625 -0.671875 -1.65625 -0.671875q-0.9375 0 -1.609375 0.640625q-0.65625 0.625 -0.75 1.6875zm10.359375 -3.53125q1.671875 0 2.484375 0.65625q0.8125 0.640625 0.890625 1.9375l-1.359375 0l0 -0.015625q-0.0625 -0.65625 -0.578125 -1.015625q-0.515625 -0.359375 -1.34375 -0.359375q-0.8125 0 -1.296875 0.28125q-0.46875 0.265625 -0.46875 0.765625q0 0.453125 0.421875 0.75q0.421875 0.28125 1.265625 0.46875l1.28125 0.28125q1.203125 0.265625 1.828125 0.828125q0.625 0.546875 0.625 1.46875q0 1.21875 -0.953125 1.921875q-0.9375 0.703125 -2.578125 0.703125q-1.578125 0 -2.515625 -0.71875q-0.921875 -0.71875 -0.984375 -2.09375l1.359375 0q0.03125 0.765625 0.609375 1.1875q0.59375 0.40625 1.609375 0.40625q0.984375 0 1.484375 -0.3125q0.515625 -0.3125 0.515625 -0.921875q0 -0.546875 -0.5 -0.875q-0.5 -0.328125 -2.0625 -0.640625q-1.5625 -0.296875 -2.203125 -0.859375q-0.640625 -0.5625 -0.640625 -1.484375q0 -1.09375 0.875 -1.71875q0.890625 -0.640625 2.234375 -0.640625zm8.6875 0q1.78125 0 2.765625 1.28125q0.984375 1.28125 0.984375 3.296875l0 0.15625l-6.203125 0l0 0.109375q0 1.171875 0.6875 1.890625q0.6875 0.71875 1.890625 0.71875q0.90625 0 1.4375 -0.421875q0.546875 -0.421875 0.703125 -1.1875l1.34375 0q-0.265625 1.375 -1.203125 2.109375q-0.921875 0.71875 -2.328125 0.71875q-1.296875 0 -2.203125 -0.59375q-0.90625 -0.59375 -1.34375 -1.640625q-0.421875 -1.0625 -0.421875 -2.15625q0 -1.828125 1.09375 -3.046875q1.109375 -1.234375 2.796875 -1.234375zm-2.453125 3.53125l4.75 0q-0.0625 -1.0 -0.734375 -1.65625q-0.65625 -0.671875 -1.65625 -0.671875q-0.9375 0 -1.609375 0.640625q-0.65625 0.625 -0.75 1.6875zm13.4140625 -6.484375l0 4.359375l0.03125 0q0.296875 -0.65625 1.0 -1.03125q0.71875 -0.375 1.609375 -0.375q1.5 0 2.171875 0.765625q0.671875 0.765625 0.671875 2.1875l0 5.515625l-1.359375 0l0 -5.65625q0 -0.703125 -0.453125 -1.15625q-0.4375 -0.453125 -1.234375 -0.453125q-1.15625 0 -1.796875 0.703125q-0.640625 0.703125 -0.640625 1.828125l0 4.734375l-1.359375 0l0 -11.421875l1.359375 0zm10.9140625 2.953125q1.6875 0 2.390625 0.609375q0.71875 0.59375 0.71875 1.609375q0 4.296875 0 4.765625q0 0.46875 0.421875 0.46875q0.09375 0 0.203125 -0.015625q0.109375 -0.03125 0.21875 -0.0625l0 1.0625q-0.1875 0.109375 -0.4375 0.171875q-0.25 0.0625 -0.53125 0.0625q-0.5625 0 -0.859375 -0.3125q-0.296875 -0.328125 -0.296875 -0.984375q-0.546875 0.640625 -1.28125 0.96875q-0.734375 0.328125 -1.640625 0.328125q-1.28125 0 -2.015625 -0.609375q-0.71875 -0.609375 -0.71875 -1.71875q0 -1.125 0.703125 -1.765625q0.71875 -0.65625 3.359375 -0.984375q0.890625 -0.125 1.203125 -0.34375q0.3125 -0.234375 0.3125 -0.6875q0 -0.6875 -0.4375 -1.015625q-0.4375 -0.34375 -1.40625 -0.34375q-1.0 0 -1.515625 0.390625q-0.5 0.375 -0.53125 1.171875l-1.359375 0q0.0625 -1.375 0.96875 -2.0625q0.90625 -0.703125 2.53125 -0.703125zm-2.390625 6.234375q0 0.578125 0.421875 0.90625q0.421875 0.3125 1.1875 0.3125q1.140625 0 1.828125 -0.5625q0.6875 -0.578125 0.6875 -1.28125l0 -1.421875q-0.34375 0.25 -0.890625 0.34375q-0.546875 0.078125 -1.453125 0.203125q-0.90625 0.125 -1.34375 0.484375q-0.4375 0.359375 -0.4375 1.015625zm11.609375 -6.234375q1.5 0 2.171875 0.765625q0.671875 0.765625 0.671875 2.1875l0 5.515625l-1.359375 0l0 -5.65625q0 -0.703125 -0.453125 -1.15625q-0.4375 -0.453125 -1.234375 -0.453125q-1.15625 0 -1.796875 0.703125q-0.640625 0.703125 -0.640625 1.828125l0 4.734375l-1.359375 0l0 -8.28125l1.28125 0l0 1.3125l0.03125 0q0.453125 -0.765625 1.109375 -1.125q0.65625 -0.375 1.578125 -0.375zm12.2890625 -2.953125l0 11.421875l-1.359375 0l0 -1.125l-0.03125 0q-0.328125 0.640625 -1.03125 0.984375q-0.6875 0.34375 -1.609375 0.34375q-1.734375 0 -2.78125 -1.203125q-1.03125 -1.21875 -1.03125 -3.15625q0 -1.921875 1.0 -3.109375q1.015625 -1.203125 2.765625 -1.203125q0.8125 0 1.546875 0.328125q0.734375 0.328125 1.140625 0.96875l0.03125 0l0 -4.25l1.359375 0zm-6.40625 7.34375q0 1.34375 0.6875 2.203125q0.703125 0.859375 1.875 0.859375q1.203125 0 1.859375 -0.859375q0.671875 -0.859375 0.671875 -2.25q0 -1.421875 -0.6875 -2.28125q-0.671875 -0.859375 -1.9375 -0.859375q-1.171875 0 -1.828125 0.859375q-0.640625 0.84375 -0.640625 2.328125zm9.140625 -4.203125l2.40625 6.765625l0.03125 0l2.328125 -6.765625l1.4375 0l-3.515625 9.171875q-0.546875 1.421875 -1.0625 1.921875q-0.515625 0.5 -1.421875 0.5q-0.25 0 -0.484375 -0.03125q-0.234375 -0.03125 -0.453125 -0.109375l0 -1.25q0.1875 0.0625 0.390625 0.125q0.203125 0.0625 0.40625 0.0625q0.828125 0 1.15625 -0.828125q0.328125 -0.828125 0.515625 -1.328125l-3.28125 -8.234375l1.546875 0zm13.2421875 -3.140625l0 11.421875l-1.359375 0l0 -11.421875l1.359375 0zm5.5546875 2.953125q1.78125 0 2.765625 1.28125q0.984375 1.28125 0.984375 3.296875l0 0.15625l-6.203125 0l0 0.109375q0 1.171875 0.6875 1.890625q0.6875 0.71875 1.890625 0.71875q0.90625 0 1.4375 -0.421875q0.546875 -0.421875 0.703125 -1.1875l1.34375 0q-0.265625 1.375 -1.203125 2.109375q-0.921875 0.71875 -2.328125 0.71875q-1.296875 0 -2.203125 -0.59375q-0.90625 -0.59375 -1.34375 -1.640625q-0.421875 -1.0625 -0.421875 -2.15625q0 -1.828125 1.09375 -3.046875q1.109375 -1.234375 2.796875 -1.234375zm-2.453125 3.53125l4.75 0q-0.0625 -1.0 -0.734375 -1.65625q-0.65625 -0.671875 -1.65625 -0.671875q-0.9375 0 -1.609375 0.640625q-0.65625 0.625 -0.75 1.6875zm10.96875 -3.53125q0.875 0 1.5 0.375q0.640625 0.375 0.984375 1.0l0.015625 0l0 -1.1875l1.265625 0l0 7.65625q0 1.953125 -0.9375 2.96875q-0.9375 1.015625 -2.890625 1.015625q-1.421875 0 -2.390625 -0.625q-0.96875 -0.625 -1.03125 -1.796875l1.359375 0q0.03125 0.625 0.671875 0.984375q0.640625 0.359375 1.46875 0.359375q1.203125 0 1.84375 -0.796875q0.640625 -0.796875 0.640625 -2.375l0 -0.515625l-0.03125 0q-0.328125 0.6875 -1.015625 1.09375q-0.6875 0.40625 -1.578125 0.40625q-1.671875 0 -2.6875 -1.15625q-1.0 -1.15625 -1.0 -3.03125q0 -1.90625 1.0 -3.140625q1.015625 -1.234375 2.8125 -1.234375zm-2.375 4.203125q0 1.484375 0.609375 2.328125q0.625 0.828125 1.734375 0.828125q1.125 0 1.78125 -0.859375q0.671875 -0.875 0.671875 -2.34375q0 -1.328125 -0.625 -2.140625q-0.609375 -0.8125 -1.734375 -0.8125q-1.140625 0 -1.796875 0.828125q-0.640625 0.8125 -0.640625 2.171875zm11.640625 -4.203125q1.78125 0 2.765625 1.28125q0.984375 1.28125 0.984375 3.296875l0 0.15625l-6.203125 0l0 0.109375q0 1.171875 0.6875 1.890625q0.6875 0.71875 1.890625 0.71875q0.90625 0 1.4375 -0.421875q0.546875 -0.421875 0.703125 -1.1875l1.34375 0q-0.265625 1.375 -1.203125 2.109375q-0.921875 0.71875 -2.328125 0.71875q-1.296875 0 -2.203125 -0.59375q-0.90625 -0.59375 -1.34375 -1.640625q-0.421875 -1.0625 -0.421875 -2.15625q0 -1.828125 1.09375 -3.046875q1.109375 -1.234375 2.796875 -1.234375zm-2.453125 3.53125l4.75 0q-0.0625 -1.0 -0.734375 -1.65625q-0.65625 -0.671875 -1.65625 -0.671875q-0.9375 0 -1.609375 0.640625q-0.65625 0.625 -0.75 1.6875zm11.609375 -3.53125q1.5 0 2.171875 0.765625q0.671875 0.765625 0.671875 2.1875l0 5.515625l-1.359375 0l0 -5.65625q0 -0.703125 -0.453125 -1.15625q-0.4375 -0.453125 -1.234375 -0.453125q-1.15625 0 -1.796875 0.703125q-0.640625 0.703125 -0.640625 1.828125l0 4.734375l-1.359375 0l0 -8.28125l1.28125 0l0 1.3125l0.03125 0q0.453125 -0.765625 1.109375 -1.125q0.65625 -0.375 1.578125 -0.375zm12.2890625 -2.953125l0 11.421875l-1.359375 0l0 -1.125l-0.03125 0q-0.328125 0.640625 -1.03125 0.984375q-0.6875 0.34375 -1.609375 0.34375q-1.734375 0 -2.78125 -1.203125q-1.03125 -1.21875 -1.03125 -3.15625q0 -1.921875 1.0 -3.109375q1.015625 -1.203125 2.765625 -1.203125q0.8125 0 1.546875 0.328125q0.734375 0.328125 1.140625 0.96875l0.03125 0l0 -4.25l1.359375 0zm-6.40625 7.34375q0 1.34375 0.6875 2.203125q0.703125 0.859375 1.875 0.859375q1.203125 0 1.859375 -0.859375q0.671875 -0.859375 0.671875 -2.25q0 -1.421875 -0.6875 -2.28125q-0.671875 -0.859375 -1.9375 -0.859375q-1.171875 0 -1.828125 0.859375q-0.640625 0.84375 -0.640625 2.328125zm11.25 -4.390625q1.671875 0 2.484375 0.65625q0.8125 0.640625 0.890625 1.9375l-1.359375 0l0 -0.015625q-0.0625 -0.65625 -0.578125 -1.015625q-0.515625 -0.359375 -1.34375 -0.359375q-0.8125 0 -1.296875 0.28125q-0.46875 0.265625 -0.46875 0.765625q0 0.453125 0.421875 0.75q0.421875 0.28125 1.265625 0.46875l1.28125 0.28125q1.203125 0.265625 1.828125 0.828125q0.625 0.546875 0.625 1.46875q0 1.21875 -0.953125 1.921875q-0.9375 0.703125 -2.578125 0.703125q-1.578125 0 -2.515625 -0.71875q-0.921875 -0.71875 -0.984375 -2.09375l1.359375 0q0.03125 0.765625 0.609375 1.1875q0.59375 0.40625 1.609375 0.40625q0.984375 0 1.484375 -0.3125q0.515625 -0.3125 0.515625 -0.921875q0 -0.546875 -0.5 -0.875q-0.5 -0.328125 -2.0625 -0.640625q-1.5625 -0.296875 -2.203125 -0.859375q-0.640625 -0.5625 -0.640625 -1.484375q0 -1.09375 0.875 -1.71875q0.890625 -0.640625 2.234375 -0.640625z" fill-rule="nonzero"/><path fill="#000000" d="m362.38715 113.3937l0 0c0 -5.6620026 4.5758667 -10.251968 10.220459 -10.251968l0 0c2.7106323 0 5.310272 1.0801163 7.226959 3.0027313c1.9167175 1.922615 2.9935303 4.5302505 2.9935303 7.249237l0 0c0 5.66201 -4.5758667 10.251968 -10.2204895 10.251968l0 0c-5.6445923 0 -10.220459 -4.589958 -10.220459 -10.251968z" fill-rule="evenodd"/><path stroke="#000000" stroke-width="1.0" stroke-linejoin="round" stroke-linecap="butt" d="m362.38715 113.3937l0 0c0 -5.6620026 4.5758667 -10.251968 10.220459 -10.251968l0 0c2.7106323 0 5.310272 1.0801163 7.226959 3.0027313c1.9167175 1.922615 2.9935303 4.5302505 2.9935303 7.249237l0 0c0 5.66201 -4.5758667 10.251968 -10.2204895 10.251968l0 0c-5.6445923 0 -10.220459 -4.589958 -10.220459 -10.251968z" fill-rule="evenodd"/><path fill="#000000" fill-opacity="0.0" d="m1022.0315 249.64305c-35.276672 0 -63.874023 -24.033936 -63.874023 -53.681305l0 -29.558289c0 -29.64737 -28.597351 -53.681297 -63.874023 -53.681297l0 0c35.276672 0 63.874023 -24.033928 63.874023 -53.68129l0 0l0 0c0 -29.647358 28.597351 -53.68129 63.874023 -53.68129z" fill-rule="evenodd"/><path fill="#000000" fill-opacity="0.0" d="m1022.0315 249.64305c-35.276672 0 -63.874023 -24.033936 -63.874023 -53.681305l0 -29.558289c0 -29.64737 -28.597351 -53.681297 -63.874023 -53.681297l0 0c35.276672 0 63.874023 -24.033928 63.874023 -53.68129l0 0l0 0c0 -29.647358 28.597351 -53.68129 63.874023 -53.68129" fill-rule="evenodd"/><path stroke="#000000" stroke-width="1.0" stroke-linejoin="round" stroke-linecap="butt" d="m1022.0315 249.64305c-35.276672 0 -63.874023 -24.033936 -63.874023 -53.681305l0 -29.558289c0 -29.64737 -28.597351 -53.681297 -63.874023 -53.681297l0 0c35.276672 0 63.874023 -24.033928 63.874023 -53.68129l0 0l0 0c0 -29.647358 28.597351 -53.68129 63.874023 -53.68129" fill-rule="evenodd"/><path fill="#000000" fill-opacity="0.0" d="m423.31235 33.43307l0 0" fill-rule="evenodd"/><path stroke="#000000" stroke-width="1.0" stroke-linejoin="round" stroke-linecap="butt" d="m423.31235 33.43307l0 0" fill-rule="evenodd"/><path fill="#000000" fill-opacity="0.0" d="m408.7953 113.55905l-17.952759 -0.15747833" fill-rule="evenodd"/><path stroke="#000000" stroke-width="1.0" stroke-linejoin="round" stroke-linecap="butt" d="m408.7953 113.55905l-11.953003 -0.10485077" fill-rule="evenodd"/><path fill="#000000" stroke="#000000" stroke-width="1.0" stroke-linecap="butt" d="m396.85678 111.802536l-4.552429 1.6118622l4.5234375 1.6914749z" fill-rule="evenodd"/></g></svg>