<?xml version="1.0" standalone="no"?>
<!DOCTYPE svg PUBLIC "-//W3C//DTD SVG 1.1//EN" "http://www.w3.org/Graphics/SVG/1.1/DTD/svg11.dtd" >
<svg>
<metadata>
Created by FontForge 20120731 at Mon Jul  1 11:21:24 2019
 By www
Copyright (c) 2103 by P22 type foundry/Hamilton Wood Type Foundry. All rights reserved.
</metadata>
<defs>
<font id="HWTSlabW00-Antique" horiz-adv-x="608" >
  <font-face 
    font-family="HWTSlabW00-Antique"
    font-weight="400"
    font-stretch="normal"
    units-per-em="1000"
    panose-1="1 0 0 0 0 0 0 0 0 0"
    ascent="800"
    descent="-200"
    x-height="528"
    cap-height="700"
    bbox="-60 -291 1254 981"
    underline-thickness="50"
    underline-position="-75"
    unicode-range="U+0020-FB04"
  />
<missing-glyph horiz-adv-x="300" 
 />
    <glyph glyph-name="uniFB00" unicode="ff" horiz-adv-x="661" 
d="M15 0v120h70v288h-70v120h70q0 174 198 174q51 0 84.5 -8t49.5 -31q39 39 97 39q72 0 102 -24t30 -68q0 -27 -17.5 -44t-46.5 -17q-20 0 -35 13.5t-19 13.5q-3 0 -6 -3t-3 -9v-36h80v-120h-71v-288h71v-120h-285v120h55v288h-125v-288h54v-120h-283zM369 528v9
q-31 5 -41 35q-5 13 -33 13q-25 0 -38 -15.5t-13 -41.5h125z" />
    <glyph glyph-name="uniFB01" unicode="fi" 
d="M593 0h-275v120h48v288h-122v-288h56v-120h-285v120h70v288h-70v120h70q0 45 13.5 78t37 52t62.5 31.5t139 12.5q40 0 78.5 -10.5t62.5 -30.5t24 -51q0 -27 -20 -47t-49 -20q-12 0 -24 3t-24.5 18t-24.5 20.5t-26.5 6.5t-20.5 1q-22 0 -41.5 -8t-28 -21t-8.5 -25v-10h290
v-408h68v-120z" />
    <glyph glyph-name="uniFB02" unicode="fl" horiz-adv-x="646" 
d="M565 700v-580h66v-120h-296v120h71v431l-21 -2q-20 0 -34.5 13.5t-18.5 13.5l-24 1q-41 0 -57 -12.5t-16 -29.5v-7h80v-120h-71v-288h71v-120h-300v120h70v288h-70v120h70q0 58 19.5 97.5t62.5 57t131 17.5h267z" />
    <glyph glyph-name="uniFB03" unicode="ffi" horiz-adv-x="893" 
d="M878 0h-276v120h49v288h-122v-288h49v-120h-260v120h51v288h-125v-288h54v-120h-283v120h70v288h-70v120h70q0 174 198 174q68 0 96 -10.5t43 -31.5q26 21 70 31.5t130 10.5q40 0 78.5 -10.5t62.5 -30.5t24 -51q0 -27 -20 -47t-49 -20q-12 0 -24 3t-24.5 18t-24.5 20.5
t-26.5 6.5t-20.5 1q-28 0 -52 -10.5t-24 -29.5v-26l288 2v-408h68v-120zM369 528v9q-31 5 -41 35q-5 13 -33 13q-25 0 -38 -15.5t-13 -41.5h125z" />
    <glyph glyph-name="uniFB04" unicode="ffl" horiz-adv-x="930" 
d="M15 0v120h70v288h-70v120h70q0 37 8 62q11 39 40 66.5t70 36.5l37 7l28 1l43 1q41 0 64.5 -8t41.5 -31q17 17 42 27.5t49 11.5h341v-582h66v-120h-294v120h69v431l-21 -2q-20 0 -34.5 13.5t-18.5 13.5l-24 1q-41 0 -57 -12.5t-16 -29.5v-7h80v-120h-71v-288h71v-120h-282
v120h52v288h-125v-288h51v-120h-280zM369 528v9h-4q-15 3 -30.5 24.5t-28.5 22.5l-11 1q-20 0 -35.5 -15.5t-15.5 -37.5v-4h125z" />
    <glyph glyph-name=".notdef" horiz-adv-x="300" 
 />
    <glyph glyph-name=".null" horiz-adv-x="0" 
 />
    <glyph glyph-name="nonmarkingreturn" horiz-adv-x="333" 
 />
    <glyph glyph-name="space" unicode=" " horiz-adv-x="300" 
 />
    <glyph glyph-name="exclam" unicode="!" horiz-adv-x="262" 
d="M142 188h-22q-1 3 -48 149.5t-47 229.5q0 56 27.5 95.5t78.5 39.5t78.5 -39.5t27.5 -95.5q0 -83 -47 -229.5t-48 -149.5zM55 74q0 32 22.5 54.5t53.5 22.5t53.5 -22.5t22.5 -54.5q0 -30 -22.5 -53t-53.5 -23t-53.5 23t-22.5 53z" />
    <glyph glyph-name="quotedbl" unicode="&#x22;" horiz-adv-x="362" 
d="M195 623q0 32 22.5 54.5t53.5 22.5t53.5 -22.5t22.5 -54.5q0 -27 -20.5 -60t-57 -65.5t-76.5 -48.5v24q20 18 38 40t22 36q-25 6 -41.5 27t-16.5 47zM27 623q0 32 22.5 54.5t53.5 22.5t53.5 -22.5t22.5 -54.5q0 -27 -20.5 -60t-57 -65.5t-76.5 -48.5v24q20 18 38 40
t22 36q-25 6 -41.5 27t-16.5 47z" />
    <glyph glyph-name="numbersign" unicode="#" horiz-adv-x="725" 
d="M308 0l63 208h-115l-64 -208h-111l63 208h-114l23 90h119l40 131h-127l22 90h132l55 181h113l-56 -181h115l56 181h113l-56 -181h116l-23 -90h-120l-40 -131h128l-22 -90h-134l-63 -208h-113zM323 429l-40 -131h116l40 131h-116z" />
    <glyph glyph-name="dollar" unicode="$" horiz-adv-x="639" 
d="M346 702v-15q59 -4 124 -25t104.5 -60.5t39.5 -87.5q0 -42 -23.5 -75t-66.5 -33q-28 0 -47.5 16t-26 33.5t-6.5 26.5q0 11 3.5 19.5t3.5 11.5q0 10 -14 18.5t-40.5 14.5t-50.5 7v-113l8 -1q74 -12 135 -42.5t92.5 -76t31.5 -101.5q0 -65 -31.5 -110t-90.5 -71t-145 -30
v-13h-59v14q-42 4 -90 18.5t-87 39t-62 57.5t-23 72q0 20 9.5 44.5t27 40t44.5 15.5q20 0 43 -10t34 -28t11 -36q0 -12 -3.5 -20t-3.5 -12q0 -42 100 -44v112q-27 5 -48 12q-117 37 -165 92t-48 128q0 82 66.5 136.5t194.5 60.5v15h59zM435 189q0 36 -89 56v-99
q52 2 70.5 14t18.5 29zM207 513q0 -17 22 -32t58 -27v99q-80 -6 -80 -40z" />
    <glyph glyph-name="percent" unicode="%" horiz-adv-x="889" 
d="M166 0l452 700h105l-453 -700h-104zM859 199q0 -92 -46 -145.5t-129 -53.5q-41 0 -74 14t-55.5 40t-34 63t-11.5 82q0 93 46 147t129 54q84 0 129.5 -53.5t45.5 -147.5zM684 82q22 0 36 18t18 45.5t4 53.5q0 121 -58 121q-59 0 -59 -121q0 -117 59 -117zM380 500
q0 -33 -7.5 -67.5t-27.5 -64t-54.5 -49t-85.5 -19.5q-83 0 -129 53.5t-46 145.5q0 94 45.5 147.5t129.5 53.5q83 0 129 -53.5t46 -146.5zM205 382q22 0 36 18t18 45.5t4 53.5q0 121 -58 121q-59 0 -59 -121q0 -117 59 -117z" />
    <glyph glyph-name="ampersand" unicode="&#x26;" horiz-adv-x="823" 
d="M550 329v87h243v-87h-63q-38 -96 -93 -159q7 -5 24 -13t26 -8q20 0 35 18t16 47h55v-24q0 -60 -19.5 -102.5t-57 -67t-90.5 -24.5q-25 0 -51.5 5.5t-53.5 22.5t-31 19q-34 -23 -88 -34t-117 -11q-51 0 -98 9.5t-85 31t-60 56t-22 80.5q0 38 11.5 71.5t33.5 63.5t62 59
t90 46q-17 40 -17 85q0 93 52 147.5t140 54.5q48 0 83 -16t55.5 -41.5t28.5 -54.5t8 -52q0 -25 -12.5 -57t-41 -60.5t-56.5 -40.5q1 -6 43.5 -64.5t53.5 -69.5q41 39 54 83h-58zM274 294q-12 -6 -25.5 -18.5t-20 -29t-6.5 -30.5q0 -15 12 -33.5t39 -32t50 -13.5q32 0 53 12
q-4 5 -27.5 36t-43.5 60t-31 49zM394 494q41 17 41 40q0 9 -8 17t-19 8q-9 0 -17.5 -6.5t-8.5 -20.5q0 -19 12 -38z" />
    <glyph glyph-name="quotesingle" unicode="'" horiz-adv-x="174" 
d="M17 623q0 32 22.5 54.5t53.5 22.5t53.5 -22.5t22.5 -54.5q0 -27 -20.5 -60t-57 -65.5t-76.5 -48.5v24q20 18 38 40t22 36q-25 6 -41.5 27t-16.5 47z" />
    <glyph glyph-name="parenleft" unicode="(" horiz-adv-x="401" 
d="M376 801v-95q-34 -1 -69 -23.5t-66.5 -78t-46.5 -132.5t-15 -147q0 -89 18.5 -163t47 -123.5t63 -72t68.5 -23.5v-95q-39 0 -84.5 15.5t-90 47.5t-86 86.5t-68.5 138.5t-27 190q0 46 5.5 89t17.5 87.5t37.5 94.5t72 99t108 77t115.5 28z" />
    <glyph glyph-name="parenright" unicode=")" horiz-adv-x="401" 
d="M25 703v98q39 0 84.5 -15.5t90 -47t86 -85.5t68.5 -137.5t27 -189.5t-27 -190t-68.5 -138.5t-86 -86.5t-90 -47.5t-84.5 -15.5v98q32 0 66.5 22t63 71.5t48 124t19.5 162.5q0 68 -16 144.5t-48 132.5t-66.5 78t-66.5 22z" />
    <glyph glyph-name="asterisk" unicode="*" horiz-adv-x="334" 
d="M211 714q0 -15 -17 -55t-20 -52q8 8 34 42.5t40 42.5q14 7 28 7q11 0 21 -5.5t16 -16.5q5 -9 5 -20q0 -12 -8.5 -24t-18.5 -17q-12 -7 -55 -12t-55 -9q9 -2 52.5 -7t57.5 -13q10 -6 18.5 -17.5t8.5 -23.5q0 -10 -6 -21q-5 -10 -15.5 -15.5t-20.5 -5.5q-14 0 -28 8
q-13 7 -38.5 40t-34.5 41q3 -11 19.5 -50t16.5 -53q0 -12 -6 -25t-16.5 -18.5t-20.5 -5.5q-21 0 -32.5 15.5t-11.5 33.5q0 16 16.5 55t19.5 50q-9 -9 -35.5 -42.5t-38.5 -40.5q-14 -8 -28 -8q-10 0 -20.5 5.5t-15.5 15.5q-6 11 -6 21q0 12 8.5 23.5t18.5 17.5q14 8 57 13
t52 7q-12 4 -54.5 9t-54.5 12q-10 5 -18.5 17t-8.5 24q0 11 5 20q6 11 16 16.5t21 5.5q14 0 28 -7q14 -8 40 -43t34 -43q-3 11 -19.5 51t-16.5 57q0 18 11.5 33.5t32.5 15.5q10 0 20.5 -5.5t16.5 -18.5t6 -25z" />
    <glyph glyph-name="plus" unicode="+" horiz-adv-x="440" 
d="M170 550h100v-150h150v-100h-150v-150h-100v150h-150v100h150v150z" />
    <glyph glyph-name="comma" unicode="," horiz-adv-x="184" 
d="M17 74q0 32 22.5 54.5t53.5 22.5t53.5 -22.5t22.5 -54.5q0 -27 -20.5 -60t-57 -65.5t-76.5 -48.5v24q20 18 38 40t22 36q-25 6 -41.5 27t-16.5 47z" />
    <glyph glyph-name="hyphen" unicode="-" horiz-adv-x="191" 
d="M15 171v138h161v-138h-161z" />
    <glyph glyph-name="period" unicode="." horiz-adv-x="182" 
d="M15 74q0 32 22.5 54.5t53.5 22.5t53.5 -22.5t22.5 -54.5q0 -30 -22.5 -53t-53.5 -23t-53.5 23t-22.5 53z" />
    <glyph glyph-name="slash" unicode="/" horiz-adv-x="474" 
d="M20 -50l334 770h100l-334 -770h-100z" />
    <glyph glyph-name="zero" unicode="0" horiz-adv-x="664" 
d="M634 350q0 -81 -20 -147t-58.5 -112t-95.5 -70.5t-128 -24.5t-128 24.5t-95.5 70.5t-58.5 112t-20 147t20 147t58.5 112t95.5 70.5t128 24.5t128 -24.5t95.5 -70.5t58.5 -112t20 -147zM332 132q27 0 43 15.5t24.5 50t8.5 152.5q0 90 -5 131t-21.5 64t-49.5 23
q-27 0 -43 -15.5t-24.5 -50t-8.5 -152.5q0 -90 5 -131t21.5 -64t49.5 -23z" />
    <glyph glyph-name="one" unicode="1" horiz-adv-x="453" 
d="M327 700v-545h96v-155h-393v155h96v345h-96v152h62q22 0 43 6t31.5 18.5t10.5 23.5h150z" />
    <glyph glyph-name="two" unicode="2" 
d="M130 0h-75q-25 36 -25 98q0 47 15 89.5t51.5 82t121 84.5t104 63t27.5 33.5t8 33.5q0 36 -25.5 60.5t-64.5 24.5q-14 0 -31.5 -6.5t-25.5 -16t-8 -18.5q0 -8 6 -24t6 -30q0 -39 -25.5 -65t-64.5 -26q-42 0 -66.5 34t-24.5 77q0 70 32.5 115.5t91.5 69t142 23.5
q96 0 157 -26t91.5 -72t30.5 -113q0 -38 -9 -66t-24.5 -52t-57 -54t-139 -56.5t-118.5 -35.5q-32 -13 -60.5 -33.5t-41 -43t-12.5 -40.5l2 -16q12 35 37.5 58.5t61.5 36t78 12.5q20 0 63.5 -9.5t63.5 -9.5q78 0 78 98h77v-55q0 -105 -19.5 -149t-60 -61t-98.5 -17
q-36 0 -64.5 8t-76 28.5t-77.5 22.5q-26 0 -39.5 -8t-13.5 -29z" />
    <glyph glyph-name="three" unicode="3" horiz-adv-x="599" 
d="M569 513q0 -33 -11 -66t-42 -58t-78 -39q47 -14 75.5 -37t42 -53.5t13.5 -72.5q0 -48 -22 -84.5t-59 -59.5t-84.5 -34t-97.5 -11q-52 0 -101.5 12t-89 37t-62.5 65t-23 92q0 47 24 80.5t71 33.5q15 0 35 -7.5t36 -27t16 -42.5q0 -25 -6.5 -41.5t-6.5 -25.5
q0 -17 23 -28.5t42 -11.5q37 0 58.5 16.5t25.5 35t4 25.5q0 22 -11 46t-37 39.5t-55 15.5v76q29 0 55 15.5t37 39.5t11 46q0 28 -15 46.5t-35.5 24.5t-37.5 6q-19 0 -42 -11.5t-23 -28.5q0 -9 6.5 -25.5t6.5 -41.5q0 -15 -9.5 -33t-31.5 -31t-46 -13q-44 0 -66.5 35.5
t-22.5 78.5q0 39 15 76.5t54 69.5t94 46t107 14q50 0 97.5 -11t84.5 -34t59 -59.5t22 -84.5z" />
    <glyph glyph-name="four" unicode="4" horiz-adv-x="651" 
d="M30 308l332 392h172v-362h87v-134h-87v-49h87v-155h-375v155h87v49h-303v104zM207 338h126v146z" />
    <glyph glyph-name="five" unicode="5" horiz-adv-x="599" 
d="M73 701q59 -11 113.5 -17t124.5 -6q54 0 127.5 7t100.5 15q-6 -42 -25 -81t-51.5 -66.5t-72 -42.5t-75.5 -15q-41 0 -123 20l-11 -103q28 28 68 43t83 15q42 0 84.5 -14.5t80 -49t55 -79t17.5 -79.5q0 -55 -21 -101.5t-59 -80t-89 -51t-108 -17.5q-54 0 -102.5 14.5
t-84 41.5t-55.5 64t-20 80q0 28 12 53t35.5 39.5t43.5 14.5q26 0 45.5 -15t26.5 -33t7 -29q0 -18 -5.5 -34t-5.5 -20q0 -16 17 -25.5t35 -12.5t28 -3q38 0 60 30.5t22 91.5q0 48 -33 78t-73 30q-20 0 -40.5 -12t-33.5 -27l-139 14z" />
    <glyph glyph-name="six" unicode="6" horiz-adv-x="607" 
d="M577 223q0 -38 -13 -77.5t-44.5 -72t-81 -54t-114.5 -21.5q-73 0 -129.5 27.5t-92.5 76t-54 112t-18 134.5q0 69 16 132t51.5 113t94.5 79.5t139 29.5q48 0 92.5 -13t77.5 -37.5t52 -59t19 -75.5q0 -46 -23 -72t-69 -26q-18 0 -37.5 8.5t-30 25.5t-10.5 39q0 7 2.5 17.5
t2.5 19.5q0 17 -21 29t-42 12q-15 0 -31.5 -6t-28.5 -22t-21 -48.5t-10 -142.5q23 33 57.5 51t73.5 18q30 0 62.5 -9.5t65 -36t49 -67.5t16.5 -84zM253 213q0 -38 21 -65.5t50 -27.5t50.5 27.5t21.5 65.5t-21.5 65.5t-50.5 27.5t-50 -27.5t-21 -65.5z" />
    <glyph glyph-name="seven" unicode="7" horiz-adv-x="561" 
d="M379 38q-34 -40 -113 -40q-73 0 -106.5 24t-33.5 84q0 53 28.5 114t102.5 137q6 6 21.5 21t64 56.5t65 61.5t23.5 32.5t13 28.5t6 37q-12 -19 -34 -39.5t-55.5 -33t-66.5 -12.5q-25 0 -45 4t-31 4q-49 0 -71.5 -31.5t-22.5 -78.5l-94 4l22 284h104q0 -11 1 -17t8 -6
q4 0 17.5 9.5t36 12.5t44.5 3q25 0 52.5 -5t60.5 -22t47 -17q7 0 13.5 5.5t6.5 11.5q0 12 -9 30h61q18 -19 27 -43.5t9 -71.5q0 -49 -16.5 -97t-37 -83.5t-79.5 -124.5t-59 -141q0 -37 8.5 -58.5t31.5 -42.5z" />
    <glyph glyph-name="eight" unicode="8" horiz-adv-x="649" 
d="M115 328q-15 10 -34 34t-31 61t-12 80q0 59 33.5 103.5t95.5 70t154 25.5q63 0 115.5 -13t90 -38t58 -61.5t20.5 -80.5q0 -38 -20 -75t-46 -58q31 -14 55.5 -57t24.5 -105q0 -37 -16.5 -75.5t-51 -70t-90 -51t-129.5 -19.5q-63 0 -118.5 13.5t-96.5 39t-64 62t-23 80.5
q0 46 26.5 82.5t58.5 52.5zM248 265q-41 -15 -55.5 -29.5t-14.5 -33.5q0 -18 14.5 -34t44.5 -25.5t61 -9.5q72 0 101 15.5t29 43.5q0 7 -6 15t-24 17t-44.5 16t-62 15t-43.5 10zM396 434q30 20 36.5 26t11.5 13t7 14.5t2 13.5q0 16 -13.5 31.5t-41 26t-51.5 10.5
q-35 0 -62.5 -5t-40.5 -16.5t-13 -25.5q0 -19 39.5 -40t125.5 -48z" />
    <glyph glyph-name="nine" unicode="9" horiz-adv-x="635" 
d="M30 477q0 106 69.5 165t194.5 59q55 0 102.5 -16t84.5 -44.5t67 -74.5t43.5 -104t13.5 -110q0 -68 -16.5 -131.5t-52 -113.5t-95 -79.5t-139.5 -29.5q-43 0 -87.5 12t-80.5 35.5t-58 57.5t-22 74q0 30 11.5 52t32.5 30.5t43 8.5q40 0 60.5 -18t20.5 -48q0 -7 -2.5 -17.5
t-2.5 -19.5q0 -17 21 -27.5t42 -10.5q24 0 45.5 14t34 57t13.5 152q-23 -33 -58.5 -51.5t-74.5 -18.5q-40 0 -78 14t-68 40.5t-47 63.5t-17 79zM230 486q0 -38 21 -65.5t50 -27.5t50.5 27.5t21.5 65.5t-21.5 65.5t-50.5 27.5t-50 -27.5t-21 -65.5z" />
    <glyph glyph-name="colon" unicode=":" horiz-adv-x="182" 
d="M15 74q0 32 22.5 54.5t53.5 22.5t53.5 -22.5t22.5 -54.5q0 -30 -22.5 -53t-53.5 -23t-53.5 23t-22.5 53zM15 290q0 32 22.5 54.5t53.5 22.5t53.5 -22.5t22.5 -54.5q0 -30 -22.5 -53t-53.5 -23t-53.5 23t-22.5 53z" />
    <glyph glyph-name="semicolon" unicode=";" horiz-adv-x="184" 
d="M17 74q0 32 22.5 54.5t53.5 22.5t53.5 -22.5t22.5 -54.5q0 -27 -20.5 -60t-57 -65.5t-76.5 -48.5v24q20 18 38 40t22 36q-25 6 -41.5 27t-16.5 47zM17 291q0 32 22.5 54.5t53.5 22.5t53.5 -22.5t22.5 -54.5q0 -30 -22.5 -53t-53.5 -23t-53.5 23t-22.5 53z" />
    <glyph glyph-name="less" unicode="&#x3c;" horiz-adv-x="440" 
d="M420 47l-400 253v100l400 253v-100l-245 -203l245 -203v-100z" />
    <glyph glyph-name="equal" unicode="=" horiz-adv-x="450" 
d="M25 380v100h400v-100h-400zM25 220v100h400v-100h-400z" />
    <glyph glyph-name="greater" unicode="&#x3e;" horiz-adv-x="440" 
d="M420 300l-400 -253v100l245 203l-245 203v100l400 -253v-100z" />
    <glyph glyph-name="question" unicode="?" horiz-adv-x="517" 
d="M167 74q0 32 22.5 54.5t53.5 22.5t53.5 -22.5t22.5 -54.5q0 -30 -22.5 -53t-53.5 -23t-53.5 23t-22.5 53zM276 183h-65q0 37 7 68t16.5 54t17 36t38.5 63.5t31 91.5q0 24 -10 48.5t-34 39t-53 14.5q-33 0 -62.5 -11.5t-45 -38t-15.5 -53.5q0 -13 4.5 -21t11.5 -8
q8 0 14 12.5t15.5 18t24.5 5.5q14 0 27 -7.5t19 -23t6 -28.5q0 -30 -22.5 -50t-54.5 -20q-21 0 -49.5 11.5t-52.5 43.5t-24 78q0 38 14.5 74.5t47 63.5t78 42.5t96.5 15.5q45 0 88.5 -15.5t76.5 -42.5t52 -62.5t19 -74.5q0 -50 -24.5 -89.5t-73.5 -79.5t-66.5 -55.5
t-29.5 -33t-17 -33.5t-5 -33z" />
    <glyph glyph-name="at" unicode="@" horiz-adv-x="890" 
d="M277 263q16 57 48.5 97.5t76.5 64t92 23.5q38 0 63 -17t35 -47l16 55h75q-32 -110 -57 -193.5t-26 -86t-1 -12.5q0 -11 8 -17t30 -6q27 0 54.5 28t45 80t17.5 129q0 35 -13 72t-44 67t-81 50t-118 20q-44 0 -94.5 -19t-93.5 -53.5t-69.5 -83.5t-35.5 -102q-7 -36 -7 -73
q0 -59 19.5 -107.5t57.5 -82.5t93 -52.5t124 -18.5q72 0 132.5 11.5t97.5 33.5l43 -58q-43 -30 -126 -48.5t-151 -18.5q-91 0 -175.5 21t-150.5 64.5t-104 111t-38 154.5q0 24 3 49q5 47 22 98.5t47.5 101t81 95.5t128 75.5t176.5 29.5q79 0 149.5 -19t125 -59.5t86 -106
t31.5 -153.5q0 -56 -19 -111t-53.5 -97.5t-82.5 -67.5t-101 -25q-21 0 -42.5 8.5t-33.5 27t-13 38.5q-49 -52 -133 -52q-24 0 -52.5 13t-49 46t-20.5 74q0 25 7 49zM423 263q-5 -15 -5 -33q0 -24 11 -40t29 -16q23 0 47 26t35 63q5 22 5 35q0 24 -10.5 39.5t-27.5 15.5
q-23 0 -48.5 -27t-35.5 -63z" />
    <glyph glyph-name="A" unicode="A" horiz-adv-x="786" 
d="M15 0v155h74l208 545h183l208 -545h83v-155h-388v155h93l-21 54h-181l-20 -54h93v-155h-332zM365 446l-43 -112h85z" />
    <glyph glyph-name="B" unicode="B" horiz-adv-x="715" 
d="M15 155h96v390h-96v155h424q113 0 182.5 -52.5t69.5 -138.5q0 -64 -36 -104t-90 -55q135 -42 135 -162q0 -40 -13.5 -71.5t-39 -56t-74 -42.5t-112.5 -18h-446v155zM400 271h-88v-116h88q19 0 38 6t29.5 20.5t10.5 31.5t-10.5 31.5t-29.5 20.5t-38 6zM385 545h-73v-115
h73q39 0 60 17t21 40t-21 40.5t-60 17.5z" />
    <glyph glyph-name="C" unicode="C" horiz-adv-x="685" 
d="M670 391h-149q0 62 -42 105.5t-101 43.5q-64 0 -97 -50.5t-33 -139.5q0 -93 33 -144t97 -51q59 0 101 43.5t42 105.5h149q0 -72 -21.5 -129.5t-62.5 -97.5t-99.5 -60.5t-130.5 -20.5q-71 0 -133 25t-107.5 72t-70.5 111.5t-25 140.5q0 97 43.5 181.5t120.5 131t172 46.5
q42 0 89 -15t78 -34l1 45h146v-309z" />
    <glyph glyph-name="D" unicode="D" horiz-adv-x="723" 
d="M17 700h374q57 0 105 -17.5t84 -45t63.5 -68t43.5 -97t16 -122.5q0 -43 -9 -94t-33 -96.5t-63 -82t-94.5 -57t-112.5 -20.5h-376v155h96v390h-94v155zM312 155h32q49 0 77 14t42.5 53t14.5 128q0 74 -11 115.5t-37.5 60.5t-85.5 19h-32v-390z" />
    <glyph glyph-name="E" unicode="E" horiz-adv-x="708" 
d="M15 545v155h678v-305h-142q0 28 -13 62.5t-45.5 61t-72.5 26.5h-108v-112h129v-166h-129v-112h108q40 0 72.5 26.5t45.5 61t13 62.5h142v-305h-678v155h96v390h-96z" />
    <glyph glyph-name="F" unicode="F" horiz-adv-x="708" 
d="M15 545v155h678v-305h-142q0 28 -13 62.5t-45.5 61t-72.5 26.5h-108v-112h129v-166h-129v-112h96v-155h-393v155h96v390h-96z" />
    <glyph glyph-name="G" unicode="G" horiz-adv-x="798" 
d="M559 0l-35 50q-32 -23 -66.5 -37.5t-106.5 -14.5q-70 0 -131.5 27t-106 75.5t-69 113.5t-24.5 136q0 66 25 130t71 114t109 79t133 29q52 0 103 -12.5t79 -34.5v45h149v-304h-153q-9 44 -27.5 76t-53.5 51t-89 19q-31 0 -60 -19.5t-45 -65.5t-16 -107q0 -35 9 -81
t39 -79.5t77 -33.5q36 0 60.5 20t24.5 46h-92v143h420v-143h-91v-222h-133z" />
    <glyph glyph-name="H" unicode="H" horiz-adv-x="782" 
d="M307 429h168v116h-76v155h368v-155h-93v-390h93v-155h-368v155h76v116h-168v-116h76v-155h-368v155h93v390h-93v155h368v-155h-76v-116z" />
    <glyph glyph-name="I" unicode="I" horiz-adv-x="423" 
d="M312 545v-390h96v-155h-393v155h96v390h-96v155h393v-155h-96z" />
    <glyph glyph-name="J" unicode="J" horiz-adv-x="622" 
d="M15 218q0 34 13.5 62t36 40.5t48.5 12.5q43 0 71.5 -26.5t28.5 -68.5q0 -16 -4 -28.5t-4 -18.5q0 -13 13.5 -22.5t28.5 -9.5q26 0 40 20t14 50v316h-96v155h402v-155h-96v-319q0 -53 -17 -96t-49 -73t-78 -45.5t-101 -15.5q-48 0 -93.5 16t-81 45.5t-56 71t-20.5 89.5z
" />
    <glyph glyph-name="K" unicode="K" horiz-adv-x="793" 
d="M760 545h-79l-149 -135l175 -255h71v-155h-373v155h69l-87 125l-75 -68v-57h76v-155h-373v155h95v390h-95v155h385v-155h-88v-199l220 199h-115v155h343v-155z" />
    <glyph glyph-name="L" unicode="L" horiz-adv-x="662" 
d="M15 545v155h392v-155h-91v-390h58q40 0 72.5 26.5t45.5 61t13 62.5h142v-305h-632v155h96v390h-96z" />
    <glyph glyph-name="M" unicode="M" horiz-adv-x="875" 
d="M577 475l-152 -475h-12l-153 475v-320h81v-155h-326v155h98v390h-98v155h366l65 -175l53 175h361v-155h-85v-390h85v-155h-367v155h84v320z" />
    <glyph glyph-name="N" unicode="N" horiz-adv-x="808" 
d="M705 545l2 -545h-185l-257 405v-250h100v-155h-350v155h98v390h-98v155h299l234 -369v214h-95v155h340v-155h-88z" />
    <glyph glyph-name="O" unicode="O" horiz-adv-x="738" 
d="M369 704q80 0 146 -29t111 -78.5t68.5 -114t23.5 -132.5t-23.5 -132.5t-68.5 -114t-111 -78.5t-146 -29t-146 29t-111 78.5t-68.5 114t-23.5 132.5t23.5 132.5t68.5 114t111 78.5t146 29zM369 550q-63 0 -91.5 -46t-28.5 -154t28.5 -154t91.5 -46q62 0 91 49t29 151
t-29 151t-91 49z" />
    <glyph glyph-name="P" unicode="P" horiz-adv-x="731" 
d="M419 262h-107v-107h96v-155h-393v155h96v390h-96v155h404q297 0 297 -219t-297 -219zM312 423h94q38 0 58 18.5t20 42.5t-20 42.5t-58 18.5h-94v-122z" />
    <glyph glyph-name="Q" unicode="Q" horiz-adv-x="825" 
d="M724 350q0 -45 -9 -86.5t-25 -76.5q21 -13 33 -13q14 0 23.5 14t9.5 29h54v-48q0 -91 -30.5 -133t-89.5 -42q-62 0 -116 59q-88 -57 -202 -57q-72 0 -136.5 24.5t-112.5 71t-75.5 113t-27.5 145.5q0 72 27.5 137.5t76 114t113 75.5t135.5 27t135.5 -27t113 -75.5t76 -114
t27.5 -137.5zM375 543q-65 0 -93 -50t-28 -148q0 -54 7 -88q24 50 43.5 70t43 30t55.5 10q40 0 93 -33v11q0 98 -28 148t-93 50zM375 147q64 0 93 49q-54 65 -109 65q-27 0 -48.5 -16t-21.5 -42q0 -22 22 -39q27 -17 64 -17z" />
    <glyph glyph-name="R" unicode="R" horiz-adv-x="796" 
d="M552 351q43 -15 76 -39q25 -21 38 -51t13 -63q0 -10 3 -21.5t12 -11.5q7 0 14.5 8.5t7.5 51.5h65v-66q0 -77 -41.5 -120.5t-118.5 -43.5q-38 0 -67.5 8.5t-53.5 32.5q-16 16 -26 38t-18.5 82t-31.5 87q-8 9 -26 16.5t-41 10t-38 2.5h-7v-117h96v-155h-393v155h96v390h-96
v155h447q36 0 85.5 -10t88 -38t54 -64t15.5 -76q0 -44 -18.5 -76.5t-53.5 -54t-81 -30.5zM312 429h88q19 0 38 6t29.5 20.5t10.5 31.5t-10.5 31.5t-29.5 20.5t-38 6h-88v-116z" />
    <glyph glyph-name="S" unicode="S" horiz-adv-x="616" 
d="M16 0v255h150q21 -49 67.5 -76t103.5 -27q84 0 84 39q0 15 -13 25.5t-35.5 17.5t-93 20.5t-97.5 22.5q-78 25 -122.5 74.5t-44.5 120.5q0 54 18 97.5t52 73t81 44.5t103 15q35 0 64.5 -4.5t79.5 -27.5v30h159v-247h-149q-1 21 -20 42.5t-58.5 36.5t-69.5 15
q-35 0 -56 -10.5t-21 -28.5q0 -14 19.5 -26t98 -26t107.5 -23q36 -11 79 -35t73.5 -69t30.5 -108q0 -72 -33 -121t-94.5 -75.5t-150.5 -26.5q-91 0 -151 44v-42h-161z" />
    <glyph glyph-name="T" unicode="T" horiz-adv-x="697" 
d="M15 393v307h667v-307h-146q0 35 -7 69t-22.5 56.5t-41.5 23.5h-16v-387h96v-155h-393v155h96v387h-16q-26 -1 -41.5 -23.5t-22.5 -56.5t-7 -69h-146z" />
    <glyph glyph-name="U" unicode="U" horiz-adv-x="729" 
d="M114 225v320h-99v155h365v-155h-66v-321q0 -33 15 -52.5t67 -19.5q26 0 44.5 7t27 24.5t8.5 40.5v321h-78v155h316v-155h-83v-320q0 -116 -64 -173.5t-183 -57.5q-55 0 -104 12t-86 39.5t-58.5 72.5t-21.5 107z" />
    <glyph glyph-name="V" unicode="V" horiz-adv-x="702" 
d="M15 545v155h355v-155h-80l88 -268l89 268h-82v155h302v-155h-52l-195 -545h-175l-195 545h-55z" />
    <glyph glyph-name="W" unicode="W" horiz-adv-x="994" 
d="M15 545v155h341v-155h-63l70 -211l71 211h-62v155h300v-155h-57l70 -211l71 211h-68v155h291v-155h-63l-182 -545h-149l-87 259l-86 -259h-149l-182 545h-66z" />
    <glyph glyph-name="X" unicode="X" horiz-adv-x="772" 
d="M15 545v155h416v-155h-75l77 -92l101 92h-89v155h312v-155h-76l-184 -168l187 -222h73v-155h-396v155h62l-74 87l-95 -87h88v-155h-312v155h77l178 163l-190 227h-80z" />
    <glyph glyph-name="Y" unicode="Y" horiz-adv-x="778" 
d="M434 545v155h329v-155h-77l-194 -286v-104h93v-155h-392v155h97v101l-199 289h-76v155h401v-155h-79l90 -131l89 131h-82z" />
    <glyph glyph-name="Z" unicode="Z" horiz-adv-x="710" 
d="M15 0l347 545h-64q-62 0 -89 -39.5t-27 -112.5h-150v307h663l-347 -545h64q62 0 89 39.5t27 112.5h150v-307h-663z" />
    <glyph glyph-name="bracketleft" unicode="[" horiz-adv-x="280" 
d="M179 745v-841h81v-56h-240v953h240v-56h-81z" />
    <glyph glyph-name="backslash" unicode="\" horiz-adv-x="474" 
d="M120 720l334 -770h-100l-334 770h100z" />
    <glyph glyph-name="bracketright" unicode="]" horiz-adv-x="280" 
d="M101 -96v841h-81v56h240v-953h-240v56h81z" />
    <glyph glyph-name="asciicircum" unicode="^" horiz-adv-x="666" 
d="M383 493l253 -400h-100l-203 245l-203 -245h-100l253 400h100z" />
    <glyph glyph-name="underscore" unicode="_" horiz-adv-x="494" 
d="M20 -110h454v-80h-454v80z" />
    <glyph glyph-name="grave" unicode="`" horiz-adv-x="288" 
d="M167 681l101 -157h-45l-203 157h147z" />
    <glyph glyph-name="a" unicode="a" horiz-adv-x="562" 
d="M15 131q0 32 9.5 56.5t25.5 41.5t40.5 31t67.5 29.5t51 18.5q43 17 64.5 35.5t21.5 36.5t-19.5 26t-44.5 8q-15 0 -29.5 -7t-17 -14t-2.5 -10q0 -2 1.5 -8t1.5 -12q0 -29 -21 -49.5t-49 -20.5q-40 0 -61 21.5t-21 57.5q0 51 27.5 85.5t78 53.5t122.5 19q95 0 144.5 -42
t49.5 -144v-214q0 -8 4.5 -12.5t9.5 -4.5q8 0 14 7t6 19v52h57l1 -49q0 -53 -16 -86q-28 -58 -110 -58q-78 0 -107 60q-24 -26 -54.5 -43t-90.5 -17q-42 0 -79 15.5t-56 47.5t-19 70zM170 155q0 -17 13.5 -29t29.5 -12q30 0 57.5 25.5t30.5 55.5v51q-25 -20 -59 -36
q-4 -2 -26.5 -10t-34 -19t-11.5 -26z" />
    <glyph glyph-name="b" unicode="b" horiz-adv-x="550" 
d="M85 0v580h-70v120h229v-235q47 65 109 65q34 0 66.5 -15.5t57 -49.5t39 -83.5t14.5 -108.5q0 -62 -12 -113.5t-37 -89t-62.5 -55t-79.5 -17.5q-26 0 -45 5t-41 21.5t-45 40.5l-52 -65h-71zM371 266q0 74 -15.5 109t-47.5 35t-48 -32t-16 -112q0 -77 16 -110.5t48 -33.5
q31 0 46.5 30t16.5 114z" />
    <glyph glyph-name="c" unicode="c" horiz-adv-x="474" 
d="M20 265q0 85 28.5 144t79.5 90t125 31q26 0 58 -9.5t66.5 -35t53.5 -62.5t19 -72q0 -37 -21.5 -59t-62.5 -22q-28 0 -49.5 20t-21.5 48q0 7 3 19t3 18q0 31 -46 31q-36 0 -55 -34t-19 -119q0 -70 17.5 -101.5t51.5 -31.5q36 0 58.5 35t22.5 69h123q-3 -59 -25 -103
t-53 -72t-68 -39.5t-71 -11.5q-68 0 -115.5 32t-74.5 91.5t-27 143.5z" />
    <glyph glyph-name="d" unicode="d" horiz-adv-x="551" 
d="M471 700v-580h65v-120h-224v60q-45 -62 -121 -62q-23 0 -53.5 10.5t-60 48.5t-43.5 96.5t-14 117.5q0 41 9.5 85.5t30.5 84t56 64.5t82 25q32 0 68 -21t46 -40v111h-70v120h229zM312 261q0 74 -15.5 109t-47.5 35t-48 -32t-16 -112q0 -77 16 -110.5t48 -33.5
q31 0 46.5 30t16.5 114z" />
    <glyph glyph-name="e" unicode="e" horiz-adv-x="494" 
d="M20 253q0 54 15 104t44.5 89t73.5 61.5t99 22.5q50 0 91.5 -19.5t70.5 -54.5t44.5 -81.5t15.5 -97.5v-17h-293q0 -69 16.5 -104t57.5 -35q20 0 43.5 11t40 38t18.5 56h117q0 -42 -15.5 -83t-44 -74t-68 -52t-84.5 -19q-56 0 -102 21t-77 57.5t-47 82.5t-16 94zM184 319
h128q0 48 -18.5 68t-45.5 20q-16 0 -32 -9.5t-24 -31.5t-8 -47z" />
    <glyph glyph-name="f" unicode="f" horiz-adv-x="332" 
d="M15 0v120h70v288h-70v120h70q0 54 19.5 93.5t51.5 60t74 20.5q72 0 102 -24t30 -68q0 -27 -17.5 -44t-46.5 -17q-20 0 -34.5 13.5t-18.5 13.5q-3 0 -6 -3t-3 -9v-36h79v-120h-70v-288h70v-120h-300z" />
    <glyph glyph-name="g" unicode="g" horiz-adv-x="605" 
d="M435 -174h-296q-24 0 -49.5 8.5t-42.5 29.5t-17 46q0 22 15 43.5t42 36.5q-31 14 -48.5 46t-17.5 68q0 34 15.5 63.5t44.5 44.5q-61 52 -61 128q0 83 63 136.5t163 53.5q56 0 90 -10.5t74 -39.5q28 34 51.5 42t50.5 8q39 0 60.5 -23t21.5 -53q0 -26 -14.5 -44.5
t-39.5 -18.5q-21 0 -34 8t-20 24t-11 16t-23 -11q20 -51 20 -99q0 -31 -11.5 -62t-38.5 -56t-70.5 -41t-101.5 -16q-22 0 -43.5 1.5t-36 6t-22.5 4.5q-3 0 -10 -3t-7 -14q0 -13 14.5 -21t45.5 -8h247q27 0 55 -8.5t53.5 -31t37 -54t11.5 -57.5q0 -25 -9.5 -51.5t-30 -47
t-51 -32.5t-69.5 -12zM186 343q0 -29 17 -49t44 -20t44.5 20t17.5 49t-18.5 50.5t-43.5 21.5t-43 -21.5t-18 -50.5zM429 -43h-261q-43 0 -43 -23t43 -23h261q43 0 43 23t-43 23z" />
    <glyph glyph-name="h" unicode="h" horiz-adv-x="613" 
d="M15 0v120h70v460h-70v120h229v-242q13 18 34 37t50 30t57 11q21 0 45 -7t46 -25.5t38 -50.5t16 -78v-255h68v-120h-282v120h55v211q0 38 -16 58t-45 20q-18 0 -35 -11.5t-24 -30.5t-7 -36v-211h55v-120h-284z" />
    <glyph glyph-name="i" unicode="i" horiz-adv-x="327" 
d="M312 0h-297v120h70v288h-68v120h227v-408h68v-120zM94 621q0 29 20.5 49.5t49.5 20.5t49.5 -20.5t20.5 -49.5t-20.5 -49.5t-49.5 -20.5t-49.5 20.5t-20.5 49.5z" />
    <glyph glyph-name="j" unicode="j" horiz-adv-x="301" 
d="M281 528v-562q0 -70 -33.5 -105t-112.5 -35q-70 0 -102.5 23.5t-32.5 71.5q0 28 16.5 46t43.5 18q15 0 28.5 -5t24.5 -15t15 -10q6 0 9 4.5t3 10.5q0 8 -6 17.5t-12 10.5v410h-68v120h227zM131 621q0 29 20.5 49.5t49.5 20.5t49.5 -20.5t20.5 -49.5t-20.5 -49.5
t-49.5 -20.5t-49.5 20.5t-20.5 49.5z" />
    <glyph glyph-name="k" unicode="k" horiz-adv-x="615" 
d="M249 167v-47h41v-120h-275v120h75v460h-73v120h232v-433l156 141h-90v120h273v-120h-72l-101 -91l136 -197h49v-120h-293v120h61l-66 95z" />
    <glyph glyph-name="l" unicode="l" horiz-adv-x="326" 
d="M245 700v-580h66v-120h-296v120h71v460h-71v120h230z" />
    <glyph glyph-name="m" unicode="m" horiz-adv-x="885" 
d="M528 307v-187h56v-120h-271v120h56v202q0 81 -54 81q-29 0 -49.5 -27t-20.5 -69v-187h52v-120h-282v120h71v288h-71v120h230v-74q28 36 65 56t74 20q39 0 74.5 -21.5t50.5 -60.5q22 39 61.5 60.5t83.5 21.5q27 0 56 -9.5t51.5 -29t35.5 -48.5t13 -64v-259h60v-120h-271
v120h52v202q0 81 -54 81q-29 0 -49 -27t-20 -69z" />
    <glyph glyph-name="n" unicode="n" horiz-adv-x="614" 
d="M528 376v-256h71v-120h-286v120h56v202q0 81 -54 81q-29 0 -49.5 -27t-20.5 -69v-187h52v-120h-282v120h71v288h-71v120h230v-69q23 34 59.5 52.5t74.5 18.5q26 0 53.5 -10t46.5 -27.5t30 -37t15 -41t4 -38.5z" />
    <glyph glyph-name="o" unicode="o" horiz-adv-x="566" 
d="M283 533q56 0 105 -21.5t84 -59t54.5 -86.5t19.5 -102q0 -50 -19.5 -98.5t-55.5 -86.5t-84.5 -60t-103.5 -22q-41 0 -85.5 15t-88.5 54t-66.5 93.5t-22.5 104.5q0 53 19.5 102t54.5 86.5t84 59t105 21.5zM196 264q0 -84 22 -115.5t65 -31.5t65 31.5t22 115.5
q0 75 -22 108.5t-65 33.5t-65 -33.5t-22 -108.5z" />
    <glyph glyph-name="p" unicode="p" horiz-adv-x="551" 
d="M85 -52v460h-65v120h224v-68q25 34 51.5 52t62.5 18q47 0 81.5 -24.5t54.5 -64.5t28.5 -87.5t8.5 -88.5q0 -38 -8 -85t-28 -88.5t-54.5 -67.5t-82.5 -26q-32 0 -68 19.5t-46 37.5v-107h70v-120h-299v120h70zM308 402q-31 0 -45.5 -29.5t-15.5 -108.5q0 -71 15 -104.5
t46 -33.5t46 33.5t15 104.5q-1 79 -15.5 108.5t-45.5 29.5z" />
    <glyph glyph-name="q" unicode="q" horiz-adv-x="548" 
d="M469 528v-580h64v-120h-293v120h70v107q-10 -19 -42 -38t-64 -19q-43 0 -78 22.5t-58.5 60.5t-35.5 86.5t-12 98.5q0 45 11 92t34.5 86t60.5 62.5t85 23.5q53 0 81.5 -13.5t53.5 -39.5l41 51h82zM246 402q-31 0 -45.5 -29.5t-15.5 -108.5q0 -71 15 -104.5t46 -33.5
t46 33.5t15 104.5q-1 79 -15.5 108.5t-45.5 29.5z" />
    <glyph glyph-name="r" unicode="r" horiz-adv-x="508" 
d="M312 0h-297v120h70v288h-68v120h227v-75q52 77 117 77q54 0 93 -41.5t39 -98.5q0 -40 -25 -70.5t-64 -30.5q-25 0 -46.5 16t-28.5 41q-1 5 -3 20t-7.5 21.5t-19.5 6.5q-13 0 -26.5 -11.5t-21 -41t-7.5 -69.5v-152h68v-120z" />
    <glyph glyph-name="s" unicode="s" horiz-adv-x="479" 
d="M15 0v190h120q15 -37 47.5 -56.5t75.5 -19.5q27 0 46 8t19 20q0 10 -15 20.5t-78 22t-79 16.5q-58 19 -96.5 60t-38.5 104q0 70 55.5 117.5t138.5 47.5q75 0 113 -51v49h119v-191l-117 3q-11 34 -40.5 50.5t-68.5 16.5q-19 0 -37 -7t-18 -24q0 -8 13 -17t69 -17.5
t68 -11.5q27 -7 54.5 -20t51.5 -36t35.5 -54.5t11.5 -60.5q0 -45 -27 -83.5t-73.5 -58t-90.5 -19.5q-43 0 -74.5 9.5t-60.5 35.5v-43h-123z" />
    <glyph glyph-name="t" unicode="t" horiz-adv-x="358" 
d="M201 -2q-117 0 -117 149v261h-69v120h23q112 0 112 138v34h93v-172h71v-120h-71v-253q0 -13 5 -21t16 -8q8 0 14.5 9t6.5 22v37h34l23 -10l1 -39q0 -75 -32.5 -111t-109.5 -36z" />
    <glyph glyph-name="u" unicode="u" 
d="M86 144v264h-71v120h230v-331q0 -38 13.5 -57.5t34.5 -19.5q12 0 29.5 9t32 33t14.5 53v193h-67v120h226v-408h65v-120h-224v69q-23 -35 -61 -53.5t-78 -18.5q-27 0 -57.5 11t-50.5 34t-28 49.5t-8 52.5z" />
    <glyph glyph-name="v" unicode="v" horiz-adv-x="576" 
d="M15 408v120h293v-120h-67l69 -185l67 185h-55v120h239v-120h-55l-147 -408h-129l-154 408h-61z" />
    <glyph glyph-name="w" unicode="w" horiz-adv-x="766" 
d="M15 408v120h259v-120h-48l52 -161l52 161h-42v120h232v-120h-49l53 -163l52 163h-42v120h217v-120h-50l-135 -408h-125l-61 187l-60 -187h-124l-133 408h-48z" />
    <glyph glyph-name="x" unicode="x" horiz-adv-x="586" 
d="M15 408v120h310v-120h-56l54 -64l72 64h-54v120h230v-120h-60l-139 -123l140 -165h55v-120h-306v120h53l-55 64l-72 -64h58v-120h-230v120h56l139 123l-139 165h-56z" />
    <glyph glyph-name="y" unicode="y" horiz-adv-x="580" 
d="M15 -38q0 36 20.5 59.5t52.5 23.5q25 0 41 -12t24 -29q2 -5 6.5 -22t10.5 -21.5t14 -4.5q11 0 22.5 9t11.5 25q0 8 -3 17l-132 401h-66v120h289v-120h-60l70 -213l61 213h-54v120h242v-120h-60l-145 -448q-21 -66 -65.5 -100t-117.5 -34q-28 0 -58.5 9.5t-53.5 27
t-36.5 43t-13.5 56.5z" />
    <glyph glyph-name="z" unicode="z" horiz-adv-x="548" 
d="M524 0h-509q0 2 129 203.5t129 204.5q-44 0 -72.5 -9t-39.5 -35t-11 -70h-119v234h502l-258 -408h48q40 0 64 24t24 88h113v-232z" />
    <glyph glyph-name="braceleft" unicode="{" horiz-adv-x="361" 
d="M20 306v37q34 0 58 12.5t38 34.5t23 61t9 150q0 93 52 146.5t141 53.5v-35q-32 -5 -49.5 -50.5t-17.5 -149.5q0 -61 -19 -112t-55.5 -83t-78.5 -47q52 -19 85.5 -53t50.5 -80.5t17 -107.5q0 -104 17.5 -149.5t49.5 -50.5v-35q-89 0 -141 53.5t-52 146.5q0 95 -7 138.5
t-23 69t-40 38t-58 12.5z" />
    <glyph glyph-name="bar" unicode="|" horiz-adv-x="120" 
d="M20 -190v988h80v-988h-80z" />
    <glyph glyph-name="braceright" unicode="}" horiz-adv-x="361" 
d="M341 343v-37q-34 0 -58 -12.5t-38 -34.5t-23 -61t-9 -150q0 -93 -52 -146.5t-141 -53.5v35q32 5 49.5 50.5t17.5 149.5q0 96 41 156t111 85q-70 25 -111 85.5t-41 156.5q0 104 -17.5 149.5t-49.5 50.5v35q89 0 141 -53.5t52 -146.5q0 -95 7 -138.5t23 -69t40 -38
t58 -12.5z" />
    <glyph glyph-name="asciitilde" unicode="~" horiz-adv-x="603" 
d="M512 363h71q0 -73 -51.5 -120t-131.5 -47q-26 0 -49 6t-44.5 17t-55.5 33t-44 28.5t-24.5 11.5t-26.5 5q-27 0 -46 -19.5t-19 -36.5h-71q0 72 51.5 119t131.5 47q62 0 132 -39.5t85.5 -44t26.5 -4.5q28 0 46.5 14t18.5 30z" />
    <glyph glyph-name="exclamdown" unicode="&#xa1;" horiz-adv-x="262" 
d="M120 340h22q1 -3 48 -149.5t47 -229.5q0 -56 -27.5 -95.5t-78.5 -39.5t-78.5 39.5t-27.5 95.5q0 83 47 229.5t48 149.5zM55 454q0 30 22.5 53t53.5 23t53.5 -23t22.5 -53q0 -32 -22.5 -54.5t-53.5 -22.5t-53.5 22.5t-22.5 54.5z" />
    <glyph glyph-name="cent" unicode="&#xa2;" horiz-adv-x="484" 
d="M75 -18l32 62q-20 17 -39.5 47.5t-31 76.5t-11.5 97q0 85 28.5 144t79.5 90t125 31q44 0 88 -22l19 38h51l-32 -62q32 -25 51.5 -60.5t19.5 -72.5t-21.5 -59t-62.5 -22q-25 0 -45 15t-25 38l-93 -181q17 -22 47 -22q36 0 58.5 35t22.5 69h123q-3 -59 -25 -103t-53 -72
t-68 -39.5t-71 -11.5q-56 0 -97 21l-19 -37h-51zM186 253q0 -33 2 -51l102 199q-13 5 -30 5q-36 0 -55 -34t-19 -119z" />
    <glyph glyph-name="sterling" unicode="&#xa3;" horiz-adv-x="499" 
d="M25 281v79h88q-54 78 -70.5 118t-16.5 71q0 25 11.5 51.5t39 51.5t65 37.5t65.5 12.5q77 0 124 -39t47 -110q0 -37 -25 -63t-61 -26q-13 0 -26 7.5t-21 23.5t-8 30q0 21 12.5 35t23.5 14l20 -3q11 0 11 15q0 20 -15 33t-36 13q-11 0 -24.5 -8t-24.5 -27.5t-11 -38.5
q0 -27 12 -71t47 -127h152v-79h-120q31 -82 31 -116q0 -32 -12 -65q31 -18 54 -18q5 0 13.5 2.5t8.5 11.5q0 4 -5.5 12t-5.5 16q0 20 13.5 30.5t30.5 10.5q28 0 45 -21t17 -51q0 -22 -13 -44t-42 -36.5t-60 -14.5q-45 0 -96 44q-23 -21 -53.5 -32.5t-58.5 -11.5
q-45 0 -85.5 28t-40.5 70q0 19 10 41.5t37.5 39t63.5 16.5q34 0 80 -31q-10 53 -51 119h-140zM151 133q-36 0 -36 -29q0 -15 15.5 -24t28.5 -9q15 0 28.5 6t20.5 16q-19 19 -33 29.5t-24 10.5z" />
    <glyph glyph-name="yen" unicode="&#xa5;" horiz-adv-x="798" 
d="M81 324v68h125l-105 153h-76v155h401v-155h-79l90 -131l89 131h-82v155h329v-155h-77l-104 -153h118v-68h-164l-44 -65v-104h93v-155h-392v155h97v101l-47 68h-172z" />
    <glyph glyph-name="section" unicode="&#xa7;" horiz-adv-x="501" 
d="M53 544q0 40 27 78t78 58.5t106 20.5q32 0 66.5 -10.5t60.5 -28t41.5 -42.5t15.5 -54q0 -37 -20.5 -58.5t-47.5 -21.5q-22 0 -38.5 15.5t-16.5 44.5q0 18 11 34t11 26q0 8 -8 16.5t-26 14t-37 5.5q-32 0 -58 -14t-36 -34t-10 -36q0 -18 9 -38.5t36 -41.5t91.5 -53.5
t95.5 -55.5t49 -52.5t18 -68.5q0 -30 -13 -58.5t-39 -50t-56 -33.5q85 -69 85 -151q0 -65 -59.5 -110.5t-150.5 -45.5q-32 0 -75.5 13t-76.5 46t-33 76q0 27 13 46.5t29 26.5t27 7q22 0 39 -16.5t17 -43.5q0 -18 -12 -33.5t-12 -25.5q0 -17 23 -27t50 -10q20 0 44.5 8.5
t41.5 29.5t17 46q0 22 -9 39t-23.5 31t-35 26.5t-76 40.5t-78 43.5t-39 32.5t-28 41t-11.5 56q0 41 20.5 72t44.5 46.5t42 23.5q-84 67 -84 150zM355 219q0 12 -9 27.5t-32.5 32.5t-59 38.5t-47.5 28.5q-27 -9 -43.5 -26t-16.5 -38q0 -12 9 -28t32 -33.5t59.5 -39
t45.5 -27.5q28 9 45 26t17 39z" />
    <glyph glyph-name="dieresis" unicode="&#xa8;" horiz-adv-x="365" 
d="M30 839q0 26 18.5 44.5t44.5 18.5t44 -18.5t18 -44.5q0 -25 -18 -43.5t-44 -18.5t-44.5 18.5t-18.5 43.5zM210 839q0 26 18.5 44.5t44.5 18.5t44 -18.5t18 -44.5q0 -25 -18 -43.5t-44 -18.5t-44.5 18.5t-18.5 43.5z" />
    <glyph glyph-name="copyright" unicode="&#xa9;" horiz-adv-x="758" 
d="M30 347q0 71 27 136.5t75.5 114.5t112.5 76.5t134 27.5t134 -27.5t112.5 -76.5t75.5 -114.5t27 -136.5q0 -69 -27.5 -133t-75.5 -112.5t-112.5 -76t-133.5 -27.5t-133.5 27.5t-112.5 76t-75.5 112.5t-27.5 133zM205 345q0 64 23.5 109t64 69t96.5 24q27 0 61.5 -14
t62 -48.5t27.5 -74.5q0 -28 -16 -44.5t-48 -16.5q-22 0 -38 15t-16 36l4 28q0 24 -35 24q-28 0 -42 -27t-14 -90q0 -100 53 -100q14 0 28.5 9.5t23.5 30t9 39.5h94q-2 -45 -23 -86.5t-59.5 -64t-82.5 -22.5q-52 0 -90 24.5t-60.5 70.5t-22.5 109zM120 346q0 -50 20.5 -97
t56.5 -82.5t83.5 -55.5t99.5 -20t98.5 20t81.5 55.5t54.5 82.5t19.5 97q0 52 -19.5 99.5t-54 83.5t-81.5 56t-99 20t-99.5 -20t-83.5 -56t-56.5 -83.5t-20.5 -99.5z" />
    <glyph glyph-name="guillemotleft" unicode="&#xab;" horiz-adv-x="680" 
d="M376 70l-346 237v86l346 237v-87l-212 -193l212 -193v-87zM650 70l-346 237v86l346 237v-87l-212 -193l212 -193v-87z" />
    <glyph glyph-name="registered" unicode="&#xae;" horiz-adv-x="385" 
d="M72 536q0 -22 12 -50t42.5 -48.5t66.5 -20.5q23 0 51 12t48 42t20 65q0 36 -20 66.5t-48 42.5t-51 12t-51.5 -12t-49 -42.5t-20.5 -66.5zM30 537q0 68 48 116.5t115 48.5q41 0 80 -22t60.5 -62t21.5 -81q0 -40 -21.5 -79.5t-61 -61.5t-79.5 -22q-41 0 -80.5 22t-61 61.5
t-21.5 79.5zM181 554h19q3 0 9 2.5t6 9.5q0 5 -4 9t-11 4h-19v-25zM231 538l16 -9q11 -8 11 -22q0 -7 3 -7q5 0 5 11h12v-13q0 -33 -32 -33q-17 0 -25 9q-7 6 -9.5 21t-6.5 20q-5 6 -24 6v-24h20v-32h-82v32h20v82h-20v32h94q25 0 37 -12t12 -28q0 -15 -9.5 -23t-21.5 -10z
" />
    <glyph glyph-name="macron" unicode="&#xaf;" horiz-adv-x="387" 
d="M37 595v73h313v-73h-313z" />
    <glyph glyph-name="degree" unicode="&#xb0;" horiz-adv-x="331" 
d="M96 616q0 -27 20.5 -47.5t48.5 -20.5q29 0 49 20t20 48q0 29 -20 49t-49 20q-28 0 -48.5 -20t-20.5 -49zM20 616q0 61 43 104.5t102 43.5q60 0 103 -43.5t43 -104.5q0 -58 -43.5 -102t-102.5 -44q-58 0 -101.5 44t-43.5 102z" />
    <glyph glyph-name="acute" unicode="&#xb4;" horiz-adv-x="288" 
d="M20 524l101 157h147l-203 -157h-45z" />
    <glyph glyph-name="paragraph" unicode="&#xb6;" horiz-adv-x="865" 
d="M434 262h-107q-101 0 -167.5 25.5t-98 75t-31.5 118.5q0 219 297 219h508v-155h-96v-390h96v-155h-496v155h95v107zM341 423h93v122h-93q-19 0 -38 -6.5t-30 -22t-11 -32.5q0 -24 20 -42.5t59 -18.5zM594 545v-545h40v545h-40z" />
    <glyph glyph-name="periodcentered" unicode="&#xb7;" horiz-adv-x="182" 
d="M15 361q0 32 22.5 54.5t53.5 22.5t53.5 -22.5t22.5 -54.5q0 -30 -22.5 -53t-53.5 -23t-53.5 23t-22.5 53z" />
    <glyph glyph-name="cedilla" unicode="&#xb8;" horiz-adv-x="254" 
d="M117 5h43l-14 -32q18 6 32 6q24 0 40 -15.5t16 -46.5q0 -22 -17.5 -43t-43.5 -30t-50 -9q-29 0 -57.5 7t-45.5 16l22 38q14 -6 36 -11t41 -5q18 0 29.5 10t11.5 21q0 10 -8.5 17t-22.5 7q-22 0 -45 -9z" />
    <glyph glyph-name="guillemotright" unicode="&#xbb;" horiz-adv-x="680" 
d="M650 307l-346 -237v87l212 193l-212 193v87l346 -237v-86zM376 307l-346 -237v87l212 193l-212 193v87l346 -237v-86z" />
    <glyph glyph-name="questiondown" unicode="&#xbf;" horiz-adv-x="517" 
d="M350 454q0 -32 -22.5 -54.5t-53.5 -22.5t-53.5 22.5t-22.5 54.5q0 30 22.5 53t53.5 23t53.5 -23t22.5 -53zM241 345h65q0 -37 -7 -68t-16.5 -54t-17 -36t-38.5 -63.5t-31 -91.5q0 -24 10 -48.5t34 -39t53 -14.5q33 0 62.5 11.5t45 38t15.5 53.5q0 13 -4.5 21t-11.5 8
q-8 0 -14 -12.5t-15.5 -18t-24.5 -5.5q-14 0 -27 7.5t-19 23t-6 28.5q0 30 22.5 50t54.5 20q21 0 49.5 -11.5t52.5 -43.5t24 -78q0 -38 -14.5 -74.5t-47 -63.5t-78 -42.5t-96.5 -15.5q-45 0 -88.5 15.5t-76.5 42.5t-52 62.5t-19 74.5q0 50 24.5 89.5t73.5 79.5t66.5 55.5
t29.5 33t17 33.5t5 33z" />
    <glyph glyph-name="Agrave" unicode="&#xc0;" horiz-adv-x="786" 
d="M15 0v155h74l208 545h183l208 -545h83v-155h-388v155h93l-21 54h-181l-20 -54h93v-155h-332zM365 446l-43 -112h85zM416 912l101 -157h-45l-203 157h147z" />
    <glyph glyph-name="Aacute" unicode="&#xc1;" horiz-adv-x="786" 
d="M15 0v155h74l208 545h183l208 -545h83v-155h-388v155h93l-21 54h-181l-20 -54h93v-155h-332zM365 446l-43 -112h85zM337 755l101 157h147l-203 -157h-45z" />
    <glyph glyph-name="Acircumflex" unicode="&#xc2;" horiz-adv-x="786" 
d="M15 0v155h74l208 545h183l208 -545h83v-155h-388v155h93l-21 54h-181l-20 -54h93v-155h-332zM365 446l-43 -112h85zM426 912l101 -157h-45l-90 69l-90 -69h-45l101 157h68z" />
    <glyph glyph-name="Atilde" unicode="&#xc3;" horiz-adv-x="786" 
d="M513 889h45q0 -22 -11 -50t-40 -50t-65 -22q-24 0 -46 9t-56.5 32t-52.5 23q-17 0 -29 -12.5t-12 -23.5h-45q0 22 11 50t40 50t65 22q23 0 45.5 -9t57.5 -32t52 -23t29 12.5t12 23.5zM15 0v155h74l208 545h183l208 -545h83v-155h-388v155h93l-21 54h-181l-20 -54h93v-155
h-332zM365 446l-43 -112h85z" />
    <glyph glyph-name="Adieresis" unicode="&#xc4;" horiz-adv-x="786" 
d="M233 839q0 26 18.5 44.5t44.5 18.5t44 -18.5t18 -44.5q0 -25 -18 -43.5t-44 -18.5t-44.5 18.5t-18.5 43.5zM413 839q0 26 18.5 44.5t44.5 18.5t44 -18.5t18 -44.5q0 -25 -18 -43.5t-44 -18.5t-44.5 18.5t-18.5 43.5zM15 0v155h74l208 545h183l208 -545h83v-155h-388v155
h93l-21 54h-181l-20 -54h93v-155h-332zM365 446l-43 -112h85z" />
    <glyph glyph-name="Aring" unicode="&#xc5;" horiz-adv-x="786" 
d="M15 0v155h74l208 545h183l208 -545h83v-155h-388v155h93l-21 54h-181l-20 -54h93v-155h-332zM365 446l-43 -112h85zM333 866q0 -21 16 -37t38 -16t37.5 15.5t15.5 37.5t-15.5 38t-37.5 16t-38 -16t-16 -38zM274 866q0 34 19.5 63t46 40.5t47.5 11.5t47.5 -11.5t46 -40.5
t19.5 -63q0 -21 -11.5 -47.5t-40 -46t-61.5 -19.5q-21 0 -47.5 11.5t-46 40t-19.5 61.5z" />
    <glyph glyph-name="AE" unicode="&#xc6;" horiz-adv-x="1180" 
d="M588 209h-182l-29 -54h72v-155h-339v155h102l210 390h-100v155h848v-305h-142q0 28 -13 62.5t-45.5 61t-72.5 26.5h-108v-112h129v-166h-129v-112h108q40 0 72.5 26.5t45.5 61t13 62.5h142v-305h-685v155h103v54zM588 545l-115 -211h115v211z" />
    <glyph glyph-name="Ccedilla" unicode="&#xc7;" horiz-adv-x="685" 
d="M670 391h-149q0 62 -42 105.5t-101 43.5q-64 0 -97 -50.5t-33 -139.5q0 -93 33 -144t97 -51q59 0 101 43.5t42 105.5h149q0 -145 -83 -226t-229 -82l-10 -23q18 6 32 6q24 0 40 -15.5t16 -46.5q0 -22 -17.5 -43t-43.5 -30t-50 -9q-29 0 -57.5 7t-45.5 16l22 38
q14 -6 36 -11t41 -5q18 0 29.5 10t11.5 21q0 10 -8.5 17t-22.5 7q-22 0 -45 -9l30 72q-63 7 -118 34.5t-95 73.5t-61.5 107.5t-21.5 131.5q0 97 43.5 181.5t120.5 131t172 46.5q42 0 89 -15t78 -34v45h147v-309z" />
    <glyph glyph-name="Egrave" unicode="&#xc8;" horiz-adv-x="708" 
d="M15 545v155h678v-305h-142q0 28 -13 62.5t-45.5 61t-72.5 26.5h-108v-112h129v-166h-129v-112h108q40 0 72.5 26.5t45.5 61t13 62.5h142v-305h-678v155h96v390h-96zM326 912l101 -157h-45l-203 157h147z" />
    <glyph glyph-name="Eacute" unicode="&#xc9;" horiz-adv-x="708" 
d="M15 545v155h678v-305h-142q0 28 -13 62.5t-45.5 61t-72.5 26.5h-108v-112h129v-166h-129v-112h108q40 0 72.5 26.5t45.5 61t13 62.5h142v-305h-678v155h96v390h-96zM318 755l101 157h147l-203 -157h-45z" />
    <glyph glyph-name="Ecircumflex" unicode="&#xca;" horiz-adv-x="708" 
d="M15 545v155h678v-305h-142q0 28 -13 62.5t-45.5 61t-72.5 26.5h-108v-112h129v-166h-129v-112h108q40 0 72.5 26.5t45.5 61t13 62.5h142v-305h-678v155h96v390h-96zM388 912l101 -157h-45l-90 69l-90 -69h-45l101 157h68z" />
    <glyph glyph-name="Edieresis" unicode="&#xcb;" horiz-adv-x="708" 
d="M213 815q0 26 18.5 44.5t44.5 18.5t44 -18.5t18 -44.5q0 -25 -18 -43.5t-44 -18.5t-44.5 18.5t-18.5 43.5zM393 815q0 26 18.5 44.5t44.5 18.5t44 -18.5t18 -44.5q0 -25 -18 -43.5t-44 -18.5t-44.5 18.5t-18.5 43.5zM15 545v155h678v-305h-142q0 28 -13 62.5t-45.5 61
t-72.5 26.5h-108v-112h129v-166h-129v-112h108q40 0 72.5 26.5t45.5 61t13 62.5h142v-305h-678v155h96v390h-96z" />
    <glyph glyph-name="Igrave" unicode="&#xcc;" horiz-adv-x="423" 
d="M312 545v-390h96v-155h-393v155h96v390h-96v155h393v-155h-96zM175 912l101 -157h-45l-203 157h147z" />
    <glyph glyph-name="Iacute" unicode="&#xcd;" horiz-adv-x="422" 
d="M312 545v-390h96v-155h-393v155h96v390h-96v155h393v-155h-96zM176 755l101 157h147l-203 -157h-45z" />
    <glyph glyph-name="Icircumflex" unicode="&#xce;" horiz-adv-x="423" 
d="M312 545v-390h96v-155h-393v155h96v390h-96v155h393v-155h-96zM246 913l101 -157h-45l-90 69l-90 -69h-45l101 157h68z" />
    <glyph glyph-name="Idieresis" unicode="&#xcf;" horiz-adv-x="423" 
d="M59 815q0 26 18.5 44.5t44.5 18.5t44 -18.5t18 -44.5q0 -25 -18 -43.5t-44 -18.5t-44.5 18.5t-18.5 43.5zM239 815q0 26 18.5 44.5t44.5 18.5t44 -18.5t18 -44.5q0 -25 -18 -43.5t-44 -18.5t-44.5 18.5t-18.5 43.5zM312 545v-390h96v-155h-393v155h96v390h-96v155h393
v-155h-96z" />
    <glyph glyph-name="Eth" unicode="&#xd0;" horiz-adv-x="723" 
d="M15 310v82h96v153h-94v155h374q57 0 105 -17.5t84 -45t63.5 -68t43.5 -97t16 -122.5q0 -43 -9 -94t-33 -96.5t-63 -82t-94.5 -57t-112.5 -20.5h-376v155h96v155h-96zM312 155q40 0 73 6t53.5 24.5t30 54.5t9.5 110q0 59 -6 95.5t-23.5 58.5t-50 31.5t-86.5 9.5v-153h84
v-82h-84v-155z" />
    <glyph glyph-name="Ntilde" unicode="&#xd1;" horiz-adv-x="808" 
d="M533 875h45q0 -22 -11 -50t-40 -50t-65 -22q-24 0 -46 9t-56.5 32t-52.5 23q-17 0 -29 -12.5t-12 -23.5h-45q0 22 11 50t40 50t65 22q23 0 45.5 -9t57.5 -32t52 -23t29 12.5t12 23.5zM705 545l2 -545h-185l-257 405v-250h100v-155h-350v155h98v390h-98v155h299l234 -369
v214h-95v155h340v-155h-88z" />
    <glyph glyph-name="Ograve" unicode="&#xd2;" horiz-adv-x="738" 
d="M369 704q80 0 146 -29t111 -78.5t68.5 -114t23.5 -132.5t-23.5 -132.5t-68.5 -114t-111 -78.5t-146 -29t-146 29t-111 78.5t-68.5 114t-23.5 132.5t23.5 132.5t68.5 114t111 78.5t146 29zM369 550q-63 0 -91.5 -46t-28.5 -154t28.5 -154t91.5 -46q62 0 91 49t29 151
t-29 151t-91 49zM327 912l101 -157h-45l-203 157h147z" />
    <glyph glyph-name="Oacute" unicode="&#xd3;" horiz-adv-x="738" 
d="M369 704q80 0 146 -29t111 -78.5t68.5 -114t23.5 -132.5t-23.5 -132.5t-68.5 -114t-111 -78.5t-146 -29t-146 29t-111 78.5t-68.5 114t-23.5 132.5t23.5 132.5t68.5 114t111 78.5t146 29zM369 550q-63 0 -91.5 -46t-28.5 -154t28.5 -154t91.5 -46q62 0 91 49t29 151
t-29 151t-91 49zM306 755l101 157h147l-203 -157h-45z" />
    <glyph glyph-name="Ocircumflex" unicode="&#xd4;" horiz-adv-x="738" 
d="M369 704q80 0 146 -29t111 -78.5t68.5 -114t23.5 -132.5t-23.5 -132.5t-68.5 -114t-111 -78.5t-146 -29t-146 29t-111 78.5t-68.5 114t-23.5 132.5t23.5 132.5t68.5 114t111 78.5t146 29zM369 550q-63 0 -91.5 -46t-28.5 -154t28.5 -154t91.5 -46q62 0 91 49t29 151
t-29 151t-91 49zM403 912l101 -157h-45l-90 69l-90 -69h-45l101 157h68z" />
    <glyph glyph-name="Otilde" unicode="&#xd5;" horiz-adv-x="738" 
d="M501 889h45q0 -22 -11 -50t-40 -50t-65 -22q-24 0 -46 9t-56.5 32t-52.5 23q-17 0 -29 -12.5t-12 -23.5h-45q0 22 11 50t40 50t65 22q23 0 45.5 -9t57.5 -32t52 -23t29 12.5t12 23.5zM369 704q80 0 146 -29t111 -78.5t68.5 -114t23.5 -132.5t-23.5 -132.5t-68.5 -114
t-111 -78.5t-146 -29t-146 29t-111 78.5t-68.5 114t-23.5 132.5t23.5 132.5t68.5 114t111 78.5t146 29zM369 550q-63 0 -91.5 -46t-28.5 -154t28.5 -154t91.5 -46q62 0 91 49t29 151t-29 151t-91 49z" />
    <glyph glyph-name="Odieresis" unicode="&#xd6;" horiz-adv-x="738" 
d="M216 815q0 26 18.5 44.5t44.5 18.5t44 -18.5t18 -44.5q0 -25 -18 -43.5t-44 -18.5t-44.5 18.5t-18.5 43.5zM396 815q0 26 18.5 44.5t44.5 18.5t44 -18.5t18 -44.5q0 -25 -18 -43.5t-44 -18.5t-44.5 18.5t-18.5 43.5zM369 704q80 0 146 -29t111 -78.5t68.5 -114
t23.5 -132.5t-23.5 -132.5t-68.5 -114t-111 -78.5t-146 -29t-146 29t-111 78.5t-68.5 114t-23.5 132.5t23.5 132.5t68.5 114t111 78.5t146 29zM369 550q-63 0 -91.5 -46t-28.5 -154t28.5 -154t91.5 -46q62 0 91 49t29 151t-29 151t-91 49z" />
    <glyph glyph-name="Oslash" unicode="&#xd8;" horiz-adv-x="738" 
d="M369 704q67 0 124 -20l27 52h100l-47 -93q69 -49 107 -127t38 -166q0 -68 -23.5 -132.5t-68.5 -114t-111 -78.5t-146 -29q-64 0 -118 17l-27 -52h-100l47 91q-54 36 -89.5 90t-48.5 110t-13 98q0 68 23.5 132.5t68.5 114t111 78.5t146 29zM369 550q-63 0 -91.5 -46
t-28.5 -154q0 -80 13 -120l157 309q-22 11 -50 11zM489 350q0 63 -11 108l-154 -301q18 -7 45 -7q62 0 91 49t29 151z" />
    <glyph glyph-name="Ugrave" unicode="&#xd9;" horiz-adv-x="729" 
d="M114 225v320h-99v155h365v-155h-66v-321q0 -33 15 -52.5t67 -19.5q26 0 44.5 7t27 24.5t8.5 40.5v321h-78v155h316v-155h-83v-320q0 -116 -64 -173.5t-183 -57.5q-55 0 -104 12t-86 39.5t-58.5 72.5t-21.5 107zM343 912l101 -157h-45l-203 157h147z" />
    <glyph glyph-name="Uacute" unicode="&#xda;" horiz-adv-x="729" 
d="M114 225v320h-99v155h365v-155h-66v-321q0 -33 15 -52.5t67 -19.5q26 0 44.5 7t27 24.5t8.5 40.5v321h-78v155h316v-155h-83v-320q0 -116 -64 -173.5t-183 -57.5q-55 0 -104 12t-86 39.5t-58.5 72.5t-21.5 107zM335 755l101 157h147l-203 -157h-45z" />
    <glyph glyph-name="Ucircumflex" unicode="&#xdb;" horiz-adv-x="729" 
d="M114 225v320h-99v155h365v-155h-66v-321q0 -33 15 -52.5t67 -19.5q26 0 44.5 7t27 24.5t8.5 40.5v321h-78v155h316v-155h-83v-320q0 -116 -64 -173.5t-183 -57.5q-55 0 -104 12t-86 39.5t-58.5 72.5t-21.5 107zM417 912l101 -157h-45l-90 69l-90 -69h-45l101 157h68z" />
    <glyph glyph-name="Udieresis" unicode="&#xdc;" horiz-adv-x="729" 
d="M234 815q0 26 18.5 44.5t44.5 18.5t44 -18.5t18 -44.5q0 -25 -18 -43.5t-44 -18.5t-44.5 18.5t-18.5 43.5zM414 815q0 26 18.5 44.5t44.5 18.5t44 -18.5t18 -44.5q0 -25 -18 -43.5t-44 -18.5t-44.5 18.5t-18.5 43.5zM114 225v320h-99v155h365v-155h-66v-321
q0 -33 15 -52.5t67 -19.5q26 0 44.5 7t27 24.5t8.5 40.5v321h-78v155h316v-155h-83v-320q0 -116 -64 -173.5t-183 -57.5q-55 0 -104 12t-86 39.5t-58.5 72.5t-21.5 107z" />
    <glyph glyph-name="Yacute" unicode="&#xdd;" horiz-adv-x="778" 
d="M434 545v155h329v-155h-77l-194 -286v-104h93v-155h-392v155h97v101l-199 289h-76v155h401v-155h-79l90 -131l89 131h-82zM349 755l101 157h147l-203 -157h-45z" />
    <glyph glyph-name="Thorn" unicode="&#xde;" horiz-adv-x="595" 
d="M292 556v-29h75q29 0 66 -8.5t69.5 -29t52.5 -55.5t20 -84q0 -36 -14 -70.5t-43.5 -58.5t-69 -37.5t-81.5 -13.5h-75v-27h66v-143h-343v143h76v413h-76v144h343v-144h-66zM358 401h-66v-98h66q26 0 40 15.5t14 33.5t-14 33.5t-40 15.5z" />
    <glyph glyph-name="germandbls" unicode="&#xdf;" horiz-adv-x="594" 
d="M354 80q0 -5 4 -9t9 -4q21 0 32.5 19.5t11.5 80.5q0 67 -5.5 97.5t-22.5 50.5t-48.5 28.5t-71.5 8.5v104q105 0 105 89q0 21 -15 37t-45 16q-27 0 -47 -10t-28 -29t-8 -38v-521h-210v120h49v382q0 67 28.5 110.5t83.5 66.5t142 23q108 0 163 -39.5t55 -112.5
q0 -55 -43.5 -95t-98.5 -56q94 -22 142 -72.5t48 -137.5q0 -67 -24 -108.5t-71.5 -62t-127.5 -20.5q-55 0 -81.5 32t-26.5 90q0 37 20.5 58.5t47.5 21.5q22 0 38.5 -15.5t16.5 -44.5q0 -18 -11 -34t-11 -26z" />
    <glyph glyph-name="agrave" unicode="&#xe0;" horiz-adv-x="562" 
d="M15 131q0 32 9.5 56.5t25.5 41.5t40.5 31t67.5 29.5t51 18.5q43 17 64.5 35.5t21.5 36.5t-19.5 26t-44.5 8q-15 0 -29.5 -7t-17 -14t-2.5 -10q0 -2 1.5 -8t1.5 -12q0 -29 -21 -49.5t-49 -20.5q-40 0 -61 21.5t-21 57.5q0 51 27.5 85.5t78 53.5t122.5 19q95 0 144.5 -42
t49.5 -144v-214q0 -8 4.5 -12.5t9.5 -4.5q8 0 14 7t6 19v52h57l1 -49q0 -53 -16 -86q-28 -58 -110 -58q-78 0 -107 60q-24 -26 -54.5 -43t-90.5 -17q-42 0 -79 15.5t-56 47.5t-19 70zM170 155q0 -17 13.5 -29t29.5 -12q30 0 57.5 25.5t30.5 55.5v51q-25 -20 -59 -36
q-4 -2 -26.5 -10t-34 -19t-11.5 -26zM197 732l101 -157h-45l-203 157h147z" />
    <glyph glyph-name="aacute" unicode="&#xe1;" horiz-adv-x="562" 
d="M15 131q0 32 9.5 56.5t25.5 41.5t40.5 31t67.5 29.5t51 18.5q43 17 64.5 35.5t21.5 36.5t-19.5 26t-44.5 8q-15 0 -29.5 -7t-17 -14t-2.5 -10q0 -2 1.5 -8t1.5 -12q0 -29 -21 -49.5t-49 -20.5q-40 0 -61 21.5t-21 57.5q0 51 27.5 85.5t78 53.5t122.5 19q95 0 144.5 -42
t49.5 -144v-214q0 -8 4.5 -12.5t9.5 -4.5q8 0 14 7t6 19v52h57l1 -49q0 -53 -16 -86q-28 -58 -110 -58q-78 0 -107 60q-24 -26 -54.5 -43t-90.5 -17q-42 0 -79 15.5t-56 47.5t-19 70zM170 155q0 -17 13.5 -29t29.5 -12q30 0 57.5 25.5t30.5 55.5v51q-25 -20 -59 -36
q-4 -2 -26.5 -10t-34 -19t-11.5 -26zM226 575l101 157h147l-203 -157h-45z" />
    <glyph glyph-name="acircumflex" unicode="&#xe2;" horiz-adv-x="562" 
d="M15 131q0 32 9.5 56.5t25.5 41.5t40.5 31t67.5 29.5t51 18.5q43 17 64.5 35.5t21.5 36.5t-19.5 26t-44.5 8q-15 0 -29.5 -7t-17 -14t-2.5 -10q0 -2 1.5 -8t1.5 -12q0 -29 -21 -49.5t-49 -20.5q-40 0 -61 21.5t-21 57.5q0 51 27.5 85.5t78 53.5t122.5 19q95 0 144.5 -42
t49.5 -144v-214q0 -8 4.5 -12.5t9.5 -4.5q8 0 14 7t6 19v52h57l1 -49q0 -53 -16 -86q-28 -58 -110 -58q-78 0 -107 60q-24 -26 -54.5 -43t-90.5 -17q-42 0 -79 15.5t-56 47.5t-19 70zM170 155q0 -17 13.5 -29t29.5 -12q30 0 57.5 25.5t30.5 55.5v51q-25 -20 -59 -36
q-4 -2 -26.5 -10t-34 -19t-11.5 -26zM302 732l101 -157h-45l-90 69l-90 -69h-45l101 157h68z" />
    <glyph glyph-name="atilde" unicode="&#xe3;" horiz-adv-x="562" 
d="M382 695h45q0 -22 -11 -50t-40 -50t-65 -22q-24 0 -46 9t-56.5 32t-52.5 23q-17 0 -29 -12.5t-12 -23.5h-45q0 22 11 50t40 50t65 22q23 0 45.5 -9t57.5 -32t52 -23t29 12.5t12 23.5zM15 131q0 32 9.5 56.5t25.5 41.5t40.5 31t67.5 29.5t51 18.5q43 17 64.5 35.5
t21.5 36.5t-19.5 26t-44.5 8q-15 0 -29.5 -7t-17 -14t-2.5 -10q0 -2 1.5 -8t1.5 -12q0 -29 -21 -49.5t-49 -20.5q-40 0 -61 21.5t-21 57.5q0 51 27.5 85.5t78 53.5t122.5 19q95 0 144.5 -42t49.5 -144v-214q0 -8 4.5 -12.5t9.5 -4.5q8 0 14 7t6 19v52h57l1 -49
q0 -53 -16 -86q-28 -58 -110 -58q-78 0 -107 60q-24 -26 -54.5 -43t-90.5 -17q-42 0 -79 15.5t-56 47.5t-19 70zM170 155q0 -17 13.5 -29t29.5 -12q30 0 57.5 25.5t30.5 55.5v51q-25 -20 -59 -36q-4 -2 -26.5 -10t-34 -19t-11.5 -26z" />
    <glyph glyph-name="adieresis" unicode="&#xe4;" horiz-adv-x="562" 
d="M97 635q0 26 18.5 44.5t44.5 18.5t44 -18.5t18 -44.5q0 -25 -18 -43.5t-44 -18.5t-44.5 18.5t-18.5 43.5zM277 635q0 26 18.5 44.5t44.5 18.5t44 -18.5t18 -44.5q0 -25 -18 -43.5t-44 -18.5t-44.5 18.5t-18.5 43.5zM15 131q0 32 9.5 56.5t25.5 41.5t40.5 31t67.5 29.5
t51 18.5q43 17 64.5 35.5t21.5 36.5t-19.5 26t-44.5 8q-15 0 -29.5 -7t-17 -14t-2.5 -10q0 -2 1.5 -8t1.5 -12q0 -29 -21 -49.5t-49 -20.5q-40 0 -61 21.5t-21 57.5q0 51 27.5 85.5t78 53.5t122.5 19q95 0 144.5 -42t49.5 -144v-214q0 -8 4.5 -12.5t9.5 -4.5q8 0 14 7t6 19
v52h57l1 -49q0 -53 -16 -86q-28 -58 -110 -58q-78 0 -107 60q-24 -26 -54.5 -43t-90.5 -17q-42 0 -79 15.5t-56 47.5t-19 70zM170 155q0 -17 13.5 -29t29.5 -12q30 0 57.5 25.5t30.5 55.5v51q-25 -20 -59 -36q-4 -2 -26.5 -10t-34 -19t-11.5 -26z" />
    <glyph glyph-name="aring" unicode="&#xe5;" horiz-adv-x="562" 
d="M15 131q0 32 9.5 56.5t25.5 41.5t40.5 31t67.5 29.5t51 18.5q43 17 64.5 35.5t21.5 36.5t-19.5 26t-44.5 8q-15 0 -29.5 -7t-17 -14t-2.5 -10q0 -2 1.5 -8t1.5 -12q0 -29 -21 -49.5t-49 -20.5q-40 0 -61 21.5t-21 57.5q0 51 27.5 85.5t78 53.5t122.5 19q95 0 144.5 -42
t49.5 -144v-214q0 -8 4.5 -12.5t9.5 -4.5q8 0 14 7t6 19v52h57l1 -49q0 -53 -16 -86q-28 -58 -110 -58q-78 0 -107 60q-24 -26 -54.5 -43t-90.5 -17q-42 0 -79 15.5t-56 47.5t-19 70zM170 155q0 -17 13.5 -29t29.5 -12q30 0 57.5 25.5t30.5 55.5v51q-25 -20 -59 -36
q-4 -2 -26.5 -10t-34 -19t-11.5 -26zM209 686q0 -21 16 -37t38 -16t37.5 15.5t15.5 37.5t-15.5 38t-37.5 16t-38 -16t-16 -38zM150 686q0 34 19.5 63t46 40.5t47.5 11.5t47.5 -11.5t46 -40.5t19.5 -63q0 -21 -11.5 -47.5t-40 -46t-61.5 -19.5q-21 0 -47.5 11.5t-46 40
t-19.5 61.5z" />
    <glyph glyph-name="ae" unicode="&#xe6;" horiz-adv-x="776" 
d="M10 131q0 32 9.5 56.5t25.5 41.5t40.5 31t67.5 29.5t51 18.5q43 17 64.5 35.5t21.5 36.5t-19.5 26t-44.5 8q-15 0 -29.5 -7t-17 -14t-2.5 -10q0 -2 1.5 -8t1.5 -12q0 -29 -21 -49.5t-49 -20.5q-40 0 -61 21.5t-21 57.5q0 51 27.5 85.5t78 53.5t122.5 19q101 0 148 -45
q58 45 135 45q50 0 91.5 -19.5t70.5 -54.5t44.5 -81.5t15.5 -97.5v-17h-293q0 -69 16.5 -104t57.5 -35q20 0 43.5 11t40 38t18.5 56h117q0 -42 -15.5 -83t-44 -74t-68 -52t-84.5 -19q-60 0 -108 24t-80 64q-33 -45 -81 -66.5t-116 -21.5q-42 0 -79 15.5t-56 47.5t-19 70z
M165 155q0 -17 13.5 -29t29.5 -12q30 0 57.5 25.5t30.5 55.5v51q-25 -20 -59 -36q-4 -2 -26.5 -10t-34 -19t-11.5 -26zM471 319h128q0 48 -18.5 68t-45.5 20q-16 0 -32 -9.5t-24 -31.5t-8 -47z" />
    <glyph glyph-name="ccedilla" unicode="&#xe7;" horiz-adv-x="474" 
d="M20 265q0 85 28.5 144t79.5 90t125 31q26 0 58 -9.5t66.5 -35t53.5 -62.5t19 -72q0 -37 -21.5 -59t-62.5 -22q-28 0 -49.5 20t-21.5 48q0 7 3 19t3 18q0 31 -46 31q-36 0 -55 -34t-19 -119q0 -70 17.5 -101.5t51.5 -31.5q36 0 58.5 35t22.5 69h123q-5 -90 -57.5 -153.5
t-136.5 -71.5l-11 -26q18 6 32 6q24 0 40 -15.5t16 -46.5q0 -22 -17.5 -43t-43.5 -30t-50 -9q-29 0 -57.5 7t-45.5 16l22 38q14 -6 36 -11t41 -5q18 0 29.5 10t11.5 21q0 10 -8.5 17t-22.5 7q-22 0 -45 -9l30 73q-62 4 -105 37t-67.5 91t-24.5 138z" />
    <glyph glyph-name="egrave" unicode="&#xe8;" horiz-adv-x="494" 
d="M20 253q0 54 15 104t44.5 89t73.5 61.5t99 22.5q50 0 91.5 -19.5t70.5 -54.5t44.5 -81.5t15.5 -97.5v-17h-293q0 -69 16.5 -104t57.5 -35q20 0 43.5 11t40 38t18.5 56h117q0 -42 -15.5 -83t-44 -74t-68 -52t-84.5 -19q-56 0 -102 21t-77 57.5t-47 82.5t-16 94zM184 319
h128q0 48 -18.5 68t-45.5 20q-16 0 -32 -9.5t-24 -31.5t-8 -47zM202 732l101 -157h-45l-203 157h147z" />
    <glyph glyph-name="eacute" unicode="&#xe9;" horiz-adv-x="494" 
d="M20 253q0 54 15 104t44.5 89t73.5 61.5t99 22.5q50 0 91.5 -19.5t70.5 -54.5t44.5 -81.5t15.5 -97.5v-17h-293q0 -69 16.5 -104t57.5 -35q20 0 43.5 11t40 38t18.5 56h117q0 -42 -15.5 -83t-44 -74t-68 -52t-84.5 -19q-56 0 -102 21t-77 57.5t-47 82.5t-16 94zM184 319
h128q0 48 -18.5 68t-45.5 20q-16 0 -32 -9.5t-24 -31.5t-8 -47zM209 575l101 157h147l-203 -157h-45z" />
    <glyph glyph-name="ecircumflex" unicode="&#xea;" horiz-adv-x="494" 
d="M20 253q0 54 15 104t44.5 89t73.5 61.5t99 22.5q50 0 91.5 -19.5t70.5 -54.5t44.5 -81.5t15.5 -97.5v-17h-293q0 -69 16.5 -104t57.5 -35q20 0 43.5 11t40 38t18.5 56h117q0 -42 -15.5 -83t-44 -74t-68 -52t-84.5 -19q-56 0 -102 21t-77 57.5t-47 82.5t-16 94zM184 319
h128q0 48 -18.5 68t-45.5 20q-16 0 -32 -9.5t-24 -31.5t-8 -47zM285 732l101 -157h-45l-90 69l-90 -69h-45l101 157h68z" />
    <glyph glyph-name="edieresis" unicode="&#xeb;" horiz-adv-x="494" 
d="M101 635q0 26 18.5 44.5t44.5 18.5t44 -18.5t18 -44.5q0 -25 -18 -43.5t-44 -18.5t-44.5 18.5t-18.5 43.5zM281 635q0 26 18.5 44.5t44.5 18.5t44 -18.5t18 -44.5q0 -25 -18 -43.5t-44 -18.5t-44.5 18.5t-18.5 43.5zM20 253q0 54 15 104t44.5 89t73.5 61.5t99 22.5
q50 0 91.5 -19.5t70.5 -54.5t44.5 -81.5t15.5 -97.5v-17h-293q0 -69 16.5 -104t57.5 -35q20 0 43.5 11t40 38t18.5 56h117q0 -42 -15.5 -83t-44 -74t-68 -52t-84.5 -19q-56 0 -102 21t-77 57.5t-47 82.5t-16 94zM184 319h128q0 48 -18.5 68t-45.5 20q-16 0 -32 -9.5
t-24 -31.5t-8 -47z" />
    <glyph glyph-name="igrave" unicode="&#xec;" horiz-adv-x="326" 
d="M311 0h-297v120h70v288h-68v120h227v-408h68v-120zM87 732l101 -157h-45l-203 157h147z" />
    <glyph glyph-name="iacute" unicode="&#xed;" horiz-adv-x="328" 
d="M312 0h-297v120h70v288h-68v120h227v-408h68v-120zM100 575l101 157h147l-203 -157h-45z" />
    <glyph glyph-name="icircumflex" unicode="&#xee;" horiz-adv-x="334" 
d="M319 0h-297v120h70v288h-68v120h227v-408h68v-120zM184 732l101 -157h-45l-90 69l-90 -69h-45l101 157h68z" />
    <glyph glyph-name="idieresis" unicode="&#xef;" horiz-adv-x="337" 
d="M322 0h-297v120h70v288h-68v120h227v-408h68v-120zM5 635q0 26 18.5 44.5t44.5 18.5t44 -18.5t18 -44.5q0 -25 -18 -43.5t-44 -18.5t-44.5 18.5t-18.5 43.5zM185 635q0 26 18.5 44.5t44.5 18.5t44 -18.5t18 -44.5q0 -25 -18 -43.5t-44 -18.5t-44.5 18.5t-18.5 43.5z" />
    <glyph glyph-name="eth" unicode="&#xf0;" horiz-adv-x="556" 
d="M170 556l-18 41l125 50q-39 39 -78 58l39 32q65 -29 110 -61l136 56l18 -40l-114 -47q153 -138 153 -381q0 -50 -20 -98t-56 -86t-84.5 -60t-102.5 -22t-102.5 22t-84.5 60t-56 86t-20 98q0 53 19.5 102t55 86t84.5 58.5t104 21.5q18 0 40.5 -3.5t36.5 -8.5
q-15 50 -47 92zM191 264q0 -84 22 -115.5t65 -31.5t65 31.5t22 115.5q0 75 -22 108.5t-65 33.5t-65 -33.5t-22 -108.5z" />
    <glyph glyph-name="ntilde" unicode="&#xf1;" horiz-adv-x="614" 
d="M411 695h45q0 -22 -11 -50t-40 -50t-65 -22q-24 0 -46 9t-56.5 32t-52.5 23q-17 0 -29 -12.5t-12 -23.5h-45q0 22 11 50t40 50t65 22q23 0 45.5 -9t57.5 -32t52 -23t29 12.5t12 23.5zM528 376v-256h71v-120h-286v120h56v202q0 81 -54 81q-29 0 -49.5 -27t-20.5 -69v-187
h52v-120h-282v120h71v288h-71v120h230v-69q23 34 59.5 52.5t74.5 18.5q26 0 53.5 -10t46.5 -27.5t30 -37t15 -41t4 -38.5z" />
    <glyph glyph-name="ograve" unicode="&#xf2;" horiz-adv-x="566" 
d="M283 533q56 0 105 -21.5t84 -59t54.5 -86.5t19.5 -102q0 -50 -19.5 -98.5t-55.5 -86.5t-84.5 -60t-103.5 -22q-41 0 -85.5 15t-88.5 54t-66.5 93.5t-22.5 104.5q0 53 19.5 102t54.5 86.5t84 59t105 21.5zM196 264q0 -84 22 -115.5t65 -31.5t65 31.5t22 115.5
q0 75 -22 108.5t-65 33.5t-65 -33.5t-22 -108.5zM258 732l101 -157h-45l-203 157h147z" />
    <glyph glyph-name="oacute" unicode="&#xf3;" horiz-adv-x="566" 
d="M283 533q56 0 105 -21.5t84 -59t54.5 -86.5t19.5 -102q0 -50 -19.5 -98.5t-55.5 -86.5t-84.5 -60t-103.5 -22q-41 0 -85.5 15t-88.5 54t-66.5 93.5t-22.5 104.5q0 53 19.5 102t54.5 86.5t84 59t105 21.5zM196 264q0 -84 22 -115.5t65 -31.5t65 31.5t22 115.5
q0 75 -22 108.5t-65 33.5t-65 -33.5t-22 -108.5zM223 575l101 157h147l-203 -157h-45z" />
    <glyph glyph-name="ocircumflex" unicode="&#xf4;" horiz-adv-x="566" 
d="M283 533q56 0 105 -21.5t84 -59t54.5 -86.5t19.5 -102q0 -50 -19.5 -98.5t-55.5 -86.5t-84.5 -60t-103.5 -22q-41 0 -85.5 15t-88.5 54t-66.5 93.5t-22.5 104.5q0 53 19.5 102t54.5 86.5t84 59t105 21.5zM196 264q0 -84 22 -115.5t65 -31.5t65 31.5t22 115.5
q0 75 -22 108.5t-65 33.5t-65 -33.5t-22 -108.5zM317 732l101 -157h-45l-90 69l-90 -69h-45l101 157h68z" />
    <glyph glyph-name="otilde" unicode="&#xf5;" horiz-adv-x="566" 
d="M417 695h45q0 -22 -11 -50t-40 -50t-65 -22q-24 0 -46 9t-56.5 32t-52.5 23q-17 0 -29 -12.5t-12 -23.5h-45q0 22 11 50t40 50t65 22q23 0 45.5 -9t57.5 -32t52 -23t29 12.5t12 23.5zM283 533q56 0 105 -21.5t84 -59t54.5 -86.5t19.5 -102q0 -50 -19.5 -98.5t-55.5 -86.5
t-84.5 -60t-103.5 -22q-41 0 -85.5 15t-88.5 54t-66.5 93.5t-22.5 104.5q0 53 19.5 102t54.5 86.5t84 59t105 21.5zM196 264q0 -84 22 -115.5t65 -31.5t65 31.5t22 115.5q0 75 -22 108.5t-65 33.5t-65 -33.5t-22 -108.5z" />
    <glyph glyph-name="odieresis" unicode="&#xf6;" horiz-adv-x="566" 
d="M128 635q0 26 18.5 44.5t44.5 18.5t44 -18.5t18 -44.5q0 -25 -18 -43.5t-44 -18.5t-44.5 18.5t-18.5 43.5zM308 635q0 26 18.5 44.5t44.5 18.5t44 -18.5t18 -44.5q0 -25 -18 -43.5t-44 -18.5t-44.5 18.5t-18.5 43.5zM283 533q56 0 105 -21.5t84 -59t54.5 -86.5t19.5 -102
q0 -50 -19.5 -98.5t-55.5 -86.5t-84.5 -60t-103.5 -22q-41 0 -85.5 15t-88.5 54t-66.5 93.5t-22.5 104.5q0 53 19.5 102t54.5 86.5t84 59t105 21.5zM196 264q0 -84 22 -115.5t65 -31.5t65 31.5t22 115.5q0 75 -22 108.5t-65 33.5t-65 -33.5t-22 -108.5z" />
    <glyph glyph-name="oslash" unicode="&#xf8;" horiz-adv-x="566" 
d="M252 533q49 0 96 -18l14 27h69l-28 -56q52 -37 82 -96t30 -126q0 -50 -19.5 -98.5t-55.5 -86.5t-84.5 -60t-103.5 -22q-49 0 -90 16l-12 -25h-70l27 53q-54 37 -86 98t-32 125q0 53 19.5 102t54.5 86.5t84 59t105 21.5zM165 264q0 -59 10 -90l114 224q-16 8 -37 8
q-43 0 -65 -33.5t-22 -108.5zM339 264q0 45 -9 79l-112 -220q15 -6 34 -6q43 0 65 31.5t22 115.5z" />
    <glyph glyph-name="ugrave" unicode="&#xf9;" 
d="M86 144v264h-71v120h230v-331q0 -38 13.5 -57.5t34.5 -19.5q12 0 29.5 9t32 33t14.5 53v193h-67v120h226v-408h65v-120h-224v69q-23 -35 -61 -53.5t-78 -18.5q-27 0 -57.5 11t-50.5 34t-28 49.5t-8 52.5zM275 732l101 -157h-45l-203 157h147z" />
    <glyph glyph-name="uacute" unicode="&#xfa;" 
d="M86 144v264h-71v120h230v-331q0 -38 13.5 -57.5t34.5 -19.5q12 0 29.5 9t32 33t14.5 53v193h-67v120h226v-408h65v-120h-224v69q-23 -35 -61 -53.5t-78 -18.5q-27 0 -57.5 11t-50.5 34t-28 49.5t-8 52.5zM226 575l101 157h147l-203 -157h-45z" />
    <glyph glyph-name="ucircumflex" unicode="&#xfb;" 
d="M86 144v264h-71v120h230v-331q0 -38 13.5 -57.5t34.5 -19.5q12 0 29.5 9t32 33t14.5 53v193h-67v120h226v-408h65v-120h-224v69q-23 -35 -61 -53.5t-78 -18.5q-27 0 -57.5 11t-50.5 34t-28 49.5t-8 52.5zM322 732l101 -157h-45l-90 69l-90 -69h-45l101 157h68z" />
    <glyph glyph-name="udieresis" unicode="&#xfc;" 
d="M132 635q0 26 18.5 44.5t44.5 18.5t44 -18.5t18 -44.5q0 -25 -18 -43.5t-44 -18.5t-44.5 18.5t-18.5 43.5zM312 635q0 26 18.5 44.5t44.5 18.5t44 -18.5t18 -44.5q0 -25 -18 -43.5t-44 -18.5t-44.5 18.5t-18.5 43.5zM86 144v264h-71v120h230v-331q0 -38 13.5 -57.5
t34.5 -19.5q12 0 29.5 9t32 33t14.5 53v193h-67v120h226v-408h65v-120h-224v69q-23 -35 -61 -53.5t-78 -18.5q-27 0 -57.5 11t-50.5 34t-28 49.5t-8 52.5z" />
    <glyph glyph-name="yacute" unicode="&#xfd;" horiz-adv-x="580" 
d="M15 -38q0 36 20.5 59.5t52.5 23.5q25 0 41 -12t24 -29q2 -5 6.5 -22t10.5 -21.5t14 -4.5q11 0 22.5 9t11.5 25q0 8 -3 17l-132 401h-66v120h289v-120h-60l70 -213l61 213h-54v120h242v-120h-60l-145 -448q-21 -66 -65.5 -100t-117.5 -34q-28 0 -58.5 9.5t-53.5 27
t-36.5 43t-13.5 56.5zM248 575l101 157h147l-203 -157h-45z" />
    <glyph glyph-name="thorn" unicode="&#xfe;" horiz-adv-x="551" 
d="M85 -52v632h-70v120h229v-240q25 34 51.5 52t62.5 18q47 0 81.5 -24.5t54.5 -64.5t28.5 -87.5t8.5 -88.5q0 -38 -8 -85t-28 -88.5t-54.5 -67.5t-82.5 -26q-32 0 -68 19.5t-46 37.5v-107h70v-120h-299v120h70zM371 266q0 74 -15.5 109t-47.5 35t-48 -32t-16 -112
q0 -77 16 -110.5t48 -33.5q31 0 46.5 30t16.5 114z" />
    <glyph glyph-name="ydieresis" unicode="&#xff;" horiz-adv-x="580" 
d="M140 635q0 26 18.5 44.5t44.5 18.5t44 -18.5t18 -44.5q0 -25 -18 -43.5t-44 -18.5t-44.5 18.5t-18.5 43.5zM320 635q0 26 18.5 44.5t44.5 18.5t44 -18.5t18 -44.5q0 -25 -18 -43.5t-44 -18.5t-44.5 18.5t-18.5 43.5zM15 -38q0 36 20.5 59.5t52.5 23.5q25 0 41 -12t24 -29
q2 -5 6.5 -22t10.5 -21.5t14 -4.5q11 0 22.5 9t11.5 25q0 8 -3 17l-132 401h-66v120h289v-120h-60l70 -213l61 213h-54v120h242v-120h-60l-145 -448q-21 -66 -65.5 -100t-117.5 -34q-28 0 -58.5 9.5t-53.5 27t-36.5 43t-13.5 56.5z" />
    <glyph glyph-name="Amacron" unicode="&#x100;" horiz-adv-x="786" 
d="M15 0v155h74l208 545h183l208 -545h83v-155h-388v155h93l-21 54h-181l-20 -54h93v-155h-332zM365 446l-43 -112h85zM231 754v73h313v-73h-313z" />
    <glyph glyph-name="amacron" unicode="&#x101;" horiz-adv-x="562" 
d="M15 131q0 32 9.5 56.5t25.5 41.5t40.5 31t67.5 29.5t51 18.5q43 17 64.5 35.5t21.5 36.5t-19.5 26t-44.5 8q-15 0 -29.5 -7t-17 -14t-2.5 -10q0 -2 1.5 -8t1.5 -12q0 -29 -21 -49.5t-49 -20.5q-40 0 -61 21.5t-21 57.5q0 51 27.5 85.5t78 53.5t122.5 19q95 0 144.5 -42
t49.5 -144v-214q0 -8 4.5 -12.5t9.5 -4.5q8 0 14 7t6 19v52h57l1 -49q0 -53 -16 -86q-28 -58 -110 -58q-78 0 -107 60q-24 -26 -54.5 -43t-90.5 -17q-42 0 -79 15.5t-56 47.5t-19 70zM170 155q0 -17 13.5 -29t29.5 -12q30 0 57.5 25.5t30.5 55.5v51q-25 -20 -59 -36
q-4 -2 -26.5 -10t-34 -19t-11.5 -26zM96 575v73h313v-73h-313z" />
    <glyph glyph-name="Abreve" unicode="&#x102;" horiz-adv-x="786" 
d="M15 0v155h74l208 545h183l208 -545h83v-155h-388v155h93l-21 54h-181l-20 -54h93v-155h-332zM365 446l-43 -112h85zM280 866h59q0 -21 16 -37t38 -16t37.5 15.5t15.5 37.5h60q0 -21 -11.5 -47.5t-40 -46t-61.5 -19.5q-21 0 -47.5 11.5t-46 40t-19.5 61.5z" />
    <glyph glyph-name="abreve" unicode="&#x103;" horiz-adv-x="562" 
d="M15 131q0 32 9.5 56.5t25.5 41.5t40.5 31t67.5 29.5t51 18.5q43 17 64.5 35.5t21.5 36.5t-19.5 26t-44.5 8q-15 0 -29.5 -7t-17 -14t-2.5 -10q0 -2 1.5 -8t1.5 -12q0 -29 -21 -49.5t-49 -20.5q-40 0 -61 21.5t-21 57.5q0 51 27.5 85.5t78 53.5t122.5 19q95 0 144.5 -42
t49.5 -144v-214q0 -8 4.5 -12.5t9.5 -4.5q8 0 14 7t6 19v52h57l1 -49q0 -53 -16 -86q-28 -58 -110 -58q-78 0 -107 60q-24 -26 -54.5 -43t-90.5 -17q-42 0 -79 15.5t-56 47.5t-19 70zM170 155q0 -17 13.5 -29t29.5 -12q30 0 57.5 25.5t30.5 55.5v51q-25 -20 -59 -36
q-4 -2 -26.5 -10t-34 -19t-11.5 -26zM168 686h59q0 -21 16 -37t38 -16t37.5 15.5t15.5 37.5h60q0 -21 -11.5 -47.5t-40 -46t-61.5 -19.5q-21 0 -47.5 11.5t-46 40t-19.5 61.5z" />
    <glyph glyph-name="Aogonek" unicode="&#x104;" horiz-adv-x="786" 
d="M527 0h-144v155h93l-21 54h-181l-20 -54h93v-155h-332v155h74l208 545h183l208 -545h83v-155h-210q-13 -17 -28.5 -46t-15.5 -50q0 -10 7 -15.5t16 -5.5q5 0 11.5 2t9.5 5l8 -8q-15 -31 -30.5 -40.5t-33.5 -9.5q-27 0 -46 12.5t-19 40.5q0 20 10.5 39t23.5 32t23 21.5
t19.5 15t10.5 7.5zM365 446l-43 -112h85z" />
    <glyph glyph-name="aogonek" unicode="&#x105;" horiz-adv-x="562" 
d="M15 131q0 32 9.5 56.5t25.5 41.5t40.5 31t67.5 29.5t51 18.5q43 17 64.5 35.5t21.5 36.5t-19.5 26t-44.5 8q-15 0 -29.5 -7t-17 -14t-2.5 -10q0 -2 1.5 -8t1.5 -12q0 -29 -21 -49.5t-49 -20.5q-40 0 -61 21.5t-21 57.5q0 51 27.5 85.5t78 53.5t122.5 19q95 0 144.5 -42
t49.5 -144v-214q0 -8 4.5 -12.5t9.5 -4.5q8 0 14 7t6 19v52h57l1 -49q0 -53 -16 -86q-28 -58 -110 -58l-13 1q-36 -54 -36 -86q0 -10 7 -15.5t16 -5.5q5 0 11.5 2t9.5 5l8 -8q-15 -31 -30.5 -40.5t-33.5 -9.5q-27 0 -46 12.5t-19 40.5q0 54 80 110q-15 5 -32 17t-29 37
q-24 -26 -54.5 -43t-90.5 -17q-42 0 -79 15.5t-56 47.5t-19 70zM170 155q0 -17 13.5 -29t29.5 -12q30 0 57.5 25.5t30.5 55.5v51q-25 -20 -59 -36q-4 -2 -26.5 -10t-34 -19t-11.5 -26z" />
    <glyph glyph-name="Cacute" unicode="&#x106;" horiz-adv-x="685" 
d="M670 391h-149q0 62 -42 105.5t-101 43.5q-64 0 -97 -50.5t-33 -139.5q0 -93 33 -144t97 -51q59 0 101 43.5t42 105.5h149q0 -72 -21.5 -129.5t-62.5 -97.5t-99.5 -60.5t-130.5 -20.5q-71 0 -133 25t-107.5 72t-70.5 111.5t-25 140.5q0 97 43.5 181.5t120.5 131t172 46.5
q42 0 89 -15t78 -34l1 45h146v-309zM313 755l101 157h147l-203 -157h-45z" />
    <glyph glyph-name="cacute" unicode="&#x107;" horiz-adv-x="474" 
d="M20 265q0 85 28.5 144t79.5 90t125 31q26 0 58 -9.5t66.5 -35t53.5 -62.5t19 -72q0 -37 -21.5 -59t-62.5 -22q-28 0 -49.5 20t-21.5 48q0 7 3 19t3 18q0 31 -46 31q-36 0 -55 -34t-19 -119q0 -70 17.5 -101.5t51.5 -31.5q36 0 58.5 35t22.5 69h123q-3 -59 -25 -103
t-53 -72t-68 -39.5t-71 -11.5q-68 0 -115.5 32t-74.5 91.5t-27 143.5zM206 575l101 157h147l-203 -157h-45z" />
    <glyph glyph-name="Ccircumflex" unicode="&#x108;" horiz-adv-x="685" 
d="M670 391h-149q0 62 -42 105.5t-101 43.5q-64 0 -97 -50.5t-33 -139.5q0 -93 33 -144t97 -51q59 0 101 43.5t42 105.5h149q0 -72 -21.5 -129.5t-62.5 -97.5t-99.5 -60.5t-130.5 -20.5q-71 0 -133 25t-107.5 72t-70.5 111.5t-25 140.5q0 97 43.5 181.5t120.5 131t172 46.5
q42 0 89 -15t78 -34l1 45h146v-309zM390 912l101 -157h-45l-90 69l-90 -69h-45l101 157h68z" />
    <glyph glyph-name="ccircumflex" unicode="&#x109;" horiz-adv-x="474" 
d="M20 265q0 85 28.5 144t79.5 90t125 31q26 0 58 -9.5t66.5 -35t53.5 -62.5t19 -72q0 -37 -21.5 -59t-62.5 -22q-28 0 -49.5 20t-21.5 48q0 7 3 19t3 18q0 31 -46 31q-36 0 -55 -34t-19 -119q0 -70 17.5 -101.5t51.5 -31.5q36 0 58.5 35t22.5 69h123q-3 -59 -25 -103
t-53 -72t-68 -39.5t-71 -11.5q-68 0 -115.5 32t-74.5 91.5t-27 143.5zM278 732l101 -157h-45l-90 69l-90 -69h-45l101 157h68z" />
    <glyph glyph-name="Cdotaccent" unicode="&#x10a;" horiz-adv-x="685" 
d="M670 391h-149q0 62 -42 105.5t-101 43.5q-64 0 -97 -50.5t-33 -139.5q0 -93 33 -144t97 -51q59 0 101 43.5t42 105.5h149q0 -72 -21.5 -129.5t-62.5 -97.5t-99.5 -60.5t-130.5 -20.5q-71 0 -133 25t-107.5 72t-70.5 111.5t-25 140.5q0 97 43.5 181.5t120.5 131t172 46.5
q42 0 89 -15t78 -34l1 45h146v-309zM298 815q0 26 18.5 44.5t44.5 18.5t44 -18.5t18 -44.5q0 -25 -18 -43.5t-44 -18.5t-44.5 18.5t-18.5 43.5z" />
    <glyph glyph-name="cdotaccent" unicode="&#x10b;" horiz-adv-x="474" 
d="M20 265q0 85 28.5 144t79.5 90t125 31q26 0 58 -9.5t66.5 -35t53.5 -62.5t19 -72q0 -37 -21.5 -59t-62.5 -22q-28 0 -49.5 20t-21.5 48q0 7 3 19t3 18q0 31 -46 31q-36 0 -55 -34t-19 -119q0 -70 17.5 -101.5t51.5 -31.5q36 0 58.5 35t22.5 69h123q-3 -59 -25 -103
t-53 -72t-68 -39.5t-71 -11.5q-68 0 -115.5 32t-74.5 91.5t-27 143.5zM182 635q0 26 18.5 44.5t44.5 18.5t44 -18.5t18 -44.5q0 -25 -18 -43.5t-44 -18.5t-44.5 18.5t-18.5 43.5z" />
    <glyph glyph-name="Ccaron" unicode="&#x10c;" horiz-adv-x="685" 
d="M670 391h-149q0 62 -42 105.5t-101 43.5q-64 0 -97 -50.5t-33 -139.5q0 -93 33 -144t97 -51q59 0 101 43.5t42 105.5h149q0 -72 -21.5 -129.5t-62.5 -97.5t-99.5 -60.5t-130.5 -20.5q-71 0 -133 25t-107.5 72t-70.5 111.5t-25 140.5q0 97 43.5 181.5t120.5 131t172 46.5
q42 0 89 -15t78 -34l1 45h146v-309zM495 912l-101 -157h-68l-101 157h45l90 -70l90 70h45z" />
    <glyph glyph-name="ccaron" unicode="&#x10d;" horiz-adv-x="474" 
d="M20 265q0 85 28.5 144t79.5 90t125 31q26 0 58 -9.5t66.5 -35t53.5 -62.5t19 -72q0 -37 -21.5 -59t-62.5 -22q-28 0 -49.5 20t-21.5 48q0 7 3 19t3 18q0 31 -46 31q-36 0 -55 -34t-19 -119q0 -70 17.5 -101.5t51.5 -31.5q36 0 58.5 35t22.5 69h123q-3 -59 -25 -103
t-53 -72t-68 -39.5t-71 -11.5q-68 0 -115.5 32t-74.5 91.5t-27 143.5zM372 732l-101 -157h-68l-101 157h45l90 -70l90 70h45z" />
    <glyph glyph-name="Dcaron" unicode="&#x10e;" horiz-adv-x="723" 
d="M17 700h374q57 0 105 -17.5t84 -45t63.5 -68t43.5 -97t16 -122.5q0 -43 -9 -94t-33 -96.5t-63 -82t-94.5 -57t-112.5 -20.5h-376v155h96v390h-94v155zM312 155h32q49 0 77 14t42.5 53t14.5 128q0 74 -11 115.5t-37.5 60.5t-85.5 19h-32v-390zM456 912l-101 -157h-68
l-101 157h45l90 -70l90 70h45z" />
    <glyph glyph-name="dcaron" unicode="&#x10f;" horiz-adv-x="680" 
d="M471 700v-580h65v-120h-224v60q-45 -62 -121 -62q-23 0 -53.5 10.5t-60 48.5t-43.5 96.5t-14 117.5q0 41 9.5 85.5t30.5 84t56 64.5t82 25q32 0 68 -21t46 -40v111h-70v120h229zM312 261q0 74 -15.5 109t-47.5 35t-48 -32t-16 -112q0 -77 16 -110.5t48 -33.5
q31 0 46.5 30t16.5 114zM513 625q0 32 22.5 54.5t53.5 22.5t53.5 -22.5t22.5 -54.5q0 -27 -20.5 -60t-57 -65.5t-76.5 -48.5v24q20 18 38 40t22 36q-25 6 -41.5 27t-16.5 47z" />
    <glyph glyph-name="Dcroat" unicode="&#x110;" horiz-adv-x="723" 
d="M15 332v37h96v176h-94v155h374q57 0 105 -17.5t84 -45t63.5 -68t43.5 -97t16 -122.5q0 -43 -9 -94t-33 -96.5t-63 -82t-94.5 -57t-112.5 -20.5h-376v155h96v177h-96zM312 155q40 0 73 6t53.5 24.5t30 54.5t9.5 110q0 59 -6 95.5t-23.5 58.5t-50 31.5t-86.5 9.5v-176h84
v-37h-84v-177z" />
    <glyph glyph-name="dcroat" unicode="&#x111;" horiz-adv-x="551" 
d="M471 700v-139h36v-37h-36v-404h65v-120h-224v60q-45 -62 -121 -62q-23 0 -53.5 10.5t-60 48.5t-43.5 96.5t-14 117.5q0 41 9.5 85.5t30.5 84t56 64.5t82 25q32 0 68 -21t46 -40v55h-37v37h37v19h-70v120h229zM312 261q0 74 -15.5 109t-47.5 35t-48 -32t-16 -112
q0 -77 16 -110.5t48 -33.5q31 0 46.5 30t16.5 114z" />
    <glyph glyph-name="Emacron" unicode="&#x112;" horiz-adv-x="708" 
d="M15 545v155h678v-305h-142q0 28 -13 62.5t-45.5 61t-72.5 26.5h-108v-112h129v-166h-129v-112h108q40 0 72.5 26.5t45.5 61t13 62.5h142v-305h-678v155h96v390h-96zM197 754v73h313v-73h-313z" />
    <glyph glyph-name="emacron" unicode="&#x113;" horiz-adv-x="494" 
d="M20 253q0 54 15 104t44.5 89t73.5 61.5t99 22.5q50 0 91.5 -19.5t70.5 -54.5t44.5 -81.5t15.5 -97.5v-17h-293q0 -69 16.5 -104t57.5 -35q20 0 43.5 11t40 38t18.5 56h117q0 -42 -15.5 -83t-44 -74t-68 -52t-84.5 -19q-56 0 -102 21t-77 57.5t-47 82.5t-16 94zM184 319
h128q0 48 -18.5 68t-45.5 20q-16 0 -32 -9.5t-24 -31.5t-8 -47zM90 574v73h313v-73h-313z" />
    <glyph glyph-name="Ebreve" unicode="&#x114;" horiz-adv-x="708" 
d="M15 545v155h678v-305h-142q0 28 -13 62.5t-45.5 61t-72.5 26.5h-108v-112h129v-166h-129v-112h108q40 0 72.5 26.5t45.5 61t13 62.5h142v-305h-678v155h96v390h-96zM245 866h59q0 -21 16 -37t38 -16t37.5 15.5t15.5 37.5h60q0 -21 -11.5 -47.5t-40 -46t-61.5 -19.5
q-21 0 -47.5 11.5t-46 40t-19.5 61.5z" />
    <glyph glyph-name="ebreve" unicode="&#x115;" horiz-adv-x="494" 
d="M20 253q0 54 15 104t44.5 89t73.5 61.5t99 22.5q50 0 91.5 -19.5t70.5 -54.5t44.5 -81.5t15.5 -97.5v-17h-293q0 -69 16.5 -104t57.5 -35q20 0 43.5 11t40 38t18.5 56h117q0 -42 -15.5 -83t-44 -74t-68 -52t-84.5 -19q-56 0 -102 21t-77 57.5t-47 82.5t-16 94zM184 319
h128q0 48 -18.5 68t-45.5 20q-16 0 -32 -9.5t-24 -31.5t-8 -47zM134 686h59q0 -21 16 -37t38 -16t37.5 15.5t15.5 37.5h60q0 -21 -11.5 -47.5t-40 -46t-61.5 -19.5q-21 0 -47.5 11.5t-46 40t-19.5 61.5z" />
    <glyph glyph-name="Edotaccent" unicode="&#x116;" horiz-adv-x="708" 
d="M15 545v155h678v-305h-142q0 28 -13 62.5t-45.5 61t-72.5 26.5h-108v-112h129v-166h-129v-112h108q40 0 72.5 26.5t45.5 61t13 62.5h142v-305h-678v155h96v390h-96zM291 815q0 26 18.5 44.5t44.5 18.5t44 -18.5t18 -44.5q0 -25 -18 -43.5t-44 -18.5t-44.5 18.5
t-18.5 43.5z" />
    <glyph glyph-name="edotaccent" unicode="&#x117;" horiz-adv-x="494" 
d="M20 253q0 54 15 104t44.5 89t73.5 61.5t99 22.5q50 0 91.5 -19.5t70.5 -54.5t44.5 -81.5t15.5 -97.5v-17h-293q0 -69 16.5 -104t57.5 -35q20 0 43.5 11t40 38t18.5 56h117q0 -42 -15.5 -83t-44 -74t-68 -52t-84.5 -19q-56 0 -102 21t-77 57.5t-47 82.5t-16 94zM184 319
h128q0 48 -18.5 68t-45.5 20q-16 0 -32 -9.5t-24 -31.5t-8 -47zM184 635q0 26 18.5 44.5t44.5 18.5t44 -18.5t18 -44.5q0 -25 -18 -43.5t-44 -18.5t-44.5 18.5t-18.5 43.5z" />
    <glyph glyph-name="Eogonek" unicode="&#x118;" horiz-adv-x="708" 
d="M452 0h-437v155h96v390h-96v155h678v-305h-142q0 28 -13 62.5t-45.5 61t-72.5 26.5h-108v-112h129v-166h-129v-112h108q40 0 72.5 26.5t45.5 61t13 62.5h142v-305h-207q-13 -17 -28.5 -46t-15.5 -50q0 -10 7 -15.5t16 -5.5q5 0 11.5 2t9.5 5l8 -8q-15 -31 -30.5 -40.5
t-33.5 -9.5q-27 0 -46 12.5t-19 40.5q0 20 10.5 39t23.5 32t23 21.5t19.5 15t10.5 7.5z" />
    <glyph glyph-name="eogonek" unicode="&#x119;" horiz-adv-x="494" 
d="M20 253q0 54 15 104t44.5 89t73.5 61.5t99 22.5q50 0 91.5 -19.5t70.5 -54.5t44.5 -81.5t15.5 -97.5v-17h-293q0 -69 16.5 -104t57.5 -35q20 0 43.5 11t40 38t18.5 56h117q0 -39 -13.5 -77.5t-39 -70.5t-60.5 -52.5t-76 -25.5q-14 -19 -28.5 -47t-14.5 -49q0 -10 7 -15.5
t16 -5.5q5 0 11.5 2t9.5 5l8 -8q-15 -31 -30.5 -40.5t-33.5 -9.5q-27 0 -46 12.5t-19 40.5q0 17 12.5 42.5t71.5 70.5q-40 2 -81 17t-73.5 48t-53.5 81.5t-21 108.5zM184 319h128q0 48 -18.5 68t-45.5 20q-16 0 -32 -9.5t-24 -31.5t-8 -47z" />
    <glyph glyph-name="Ecaron" unicode="&#x11a;" horiz-adv-x="708" 
d="M15 545v155h678v-305h-142q0 28 -13 62.5t-45.5 61t-72.5 26.5h-108v-112h129v-166h-129v-112h108q40 0 72.5 26.5t45.5 61t13 62.5h142v-305h-678v155h96v390h-96zM482 912l-101 -157h-68l-101 157h45l90 -70l90 70h45z" />
    <glyph glyph-name="ecaron" unicode="&#x11b;" horiz-adv-x="494" 
d="M20 253q0 54 15 104t44.5 89t73.5 61.5t99 22.5q50 0 91.5 -19.5t70.5 -54.5t44.5 -81.5t15.5 -97.5v-17h-293q0 -69 16.5 -104t57.5 -35q20 0 43.5 11t40 38t18.5 56h117q0 -42 -15.5 -83t-44 -74t-68 -52t-84.5 -19q-56 0 -102 21t-77 57.5t-47 82.5t-16 94zM184 319
h128q0 48 -18.5 68t-45.5 20q-16 0 -32 -9.5t-24 -31.5t-8 -47zM383 732l-101 -157h-68l-101 157h45l90 -70l90 70h45z" />
    <glyph glyph-name="Gcircumflex" unicode="&#x11c;" horiz-adv-x="798" 
d="M559 0l-35 50q-32 -23 -66.5 -37.5t-106.5 -14.5q-70 0 -131.5 27t-106 75.5t-69 113.5t-24.5 136q0 66 25 130t71 114t109 79t133 29q52 0 103 -12.5t79 -34.5v45h149v-304h-153q-9 44 -27.5 76t-53.5 51t-89 19q-31 0 -60 -19.5t-45 -65.5t-16 -107q0 -35 9 -81
t39 -79.5t77 -33.5q36 0 60.5 20t24.5 46h-92v143h420v-143h-91v-222h-133zM413 932l101 -157h-45l-90 69l-90 -69h-45l101 157h68z" />
    <glyph glyph-name="gcircumflex" unicode="&#x11d;" horiz-adv-x="605" 
d="M435 -174h-296q-24 0 -49.5 8.5t-42.5 29.5t-17 46q0 22 15 43.5t42 36.5q-31 14 -48.5 46t-17.5 68q0 34 15.5 63.5t44.5 44.5q-61 52 -61 128q0 83 63 136.5t163 53.5q56 0 90 -10.5t74 -39.5q28 34 51.5 42t50.5 8q39 0 60.5 -23t21.5 -53q0 -26 -14.5 -44.5
t-39.5 -18.5q-21 0 -34 8t-20 24t-11 16t-23 -11q20 -51 20 -99q0 -31 -11.5 -62t-38.5 -56t-70.5 -41t-101.5 -16q-22 0 -43.5 1.5t-36 6t-22.5 4.5q-3 0 -10 -3t-7 -14q0 -13 14.5 -21t45.5 -8h247q27 0 55 -8.5t53.5 -31t37 -54t11.5 -57.5q0 -25 -9.5 -51.5t-30 -47
t-51 -32.5t-69.5 -12zM186 343q0 -29 17 -49t44 -20t44.5 20t17.5 49t-18.5 50.5t-43.5 21.5t-43 -21.5t-18 -50.5zM429 -43h-261q-43 0 -43 -23t43 -23h261q43 0 43 23t-43 23zM312 732l101 -157h-45l-90 69l-90 -69h-45l101 157h68z" />
    <glyph glyph-name="Gbreve" unicode="&#x11e;" horiz-adv-x="798" 
d="M559 0l-35 50q-32 -23 -66.5 -37.5t-106.5 -14.5q-70 0 -131.5 27t-106 75.5t-69 113.5t-24.5 136q0 66 25 130t71 114t109 79t133 29q52 0 103 -12.5t79 -34.5v45h149v-304h-153q-9 44 -27.5 76t-53.5 51t-89 19q-31 0 -60 -19.5t-45 -65.5t-16 -107q0 -35 9 -81
t39 -79.5t77 -33.5q36 0 60.5 20t24.5 46h-92v143h420v-143h-91v-222h-133zM269 866h59q0 -21 16 -37t38 -16t37.5 15.5t15.5 37.5h60q0 -21 -11.5 -47.5t-40 -46t-61.5 -19.5q-21 0 -47.5 11.5t-46 40t-19.5 61.5z" />
    <glyph glyph-name="gbreve" unicode="&#x11f;" horiz-adv-x="605" 
d="M435 -174h-296q-24 0 -49.5 8.5t-42.5 29.5t-17 46q0 22 15 43.5t42 36.5q-31 14 -48.5 46t-17.5 68q0 34 15.5 63.5t44.5 44.5q-61 52 -61 128q0 83 63 136.5t163 53.5q56 0 90 -10.5t74 -39.5q28 34 51.5 42t50.5 8q39 0 60.5 -23t21.5 -53q0 -26 -14.5 -44.5
t-39.5 -18.5q-21 0 -34 8t-20 24t-11 16t-23 -11q20 -51 20 -99q0 -31 -11.5 -62t-38.5 -56t-70.5 -41t-101.5 -16q-22 0 -43.5 1.5t-36 6t-22.5 4.5q-3 0 -10 -3t-7 -14q0 -13 14.5 -21t45.5 -8h247q27 0 55 -8.5t53.5 -31t37 -54t11.5 -57.5q0 -25 -9.5 -51.5t-30 -47
t-51 -32.5t-69.5 -12zM186 343q0 -29 17 -49t44 -20t44.5 20t17.5 49t-18.5 50.5t-43.5 21.5t-43 -21.5t-18 -50.5zM429 -43h-261q-43 0 -43 -23t43 -23h261q43 0 43 23t-43 23zM190 686h59q0 -21 16 -37t38 -16t37.5 15.5t15.5 37.5h60q0 -21 -11.5 -47.5t-40 -46
t-61.5 -19.5q-21 0 -47.5 11.5t-46 40t-19.5 61.5z" />
    <glyph glyph-name="Gdotaccent" unicode="&#x120;" horiz-adv-x="798" 
d="M559 0l-35 50q-32 -23 -66.5 -37.5t-106.5 -14.5q-70 0 -131.5 27t-106 75.5t-69 113.5t-24.5 136q0 66 25 130t71 114t109 79t133 29q52 0 103 -12.5t79 -34.5v45h149v-304h-153q-9 44 -27.5 76t-53.5 51t-89 19q-31 0 -60 -19.5t-45 -65.5t-16 -107q0 -35 9 -81
t39 -79.5t77 -33.5q36 0 60.5 20t24.5 46h-92v143h420v-143h-91v-222h-133zM326 815q0 26 18.5 44.5t44.5 18.5t44 -18.5t18 -44.5q0 -25 -18 -43.5t-44 -18.5t-44.5 18.5t-18.5 43.5z" />
    <glyph glyph-name="gdotaccent" unicode="&#x121;" horiz-adv-x="605" 
d="M435 -174h-296q-24 0 -49.5 8.5t-42.5 29.5t-17 46q0 22 15 43.5t42 36.5q-31 14 -48.5 46t-17.5 68q0 34 15.5 63.5t44.5 44.5q-61 52 -61 128q0 83 63 136.5t163 53.5q56 0 90 -10.5t74 -39.5q28 34 51.5 42t50.5 8q39 0 60.5 -23t21.5 -53q0 -26 -14.5 -44.5
t-39.5 -18.5q-21 0 -34 8t-20 24t-11 16t-23 -11q20 -51 20 -99q0 -31 -11.5 -62t-38.5 -56t-70.5 -41t-101.5 -16q-22 0 -43.5 1.5t-36 6t-22.5 4.5q-3 0 -10 -3t-7 -14q0 -13 14.5 -21t45.5 -8h247q27 0 55 -8.5t53.5 -31t37 -54t11.5 -57.5q0 -25 -9.5 -51.5t-30 -47
t-51 -32.5t-69.5 -12zM186 343q0 -29 17 -49t44 -20t44.5 20t17.5 49t-18.5 50.5t-43.5 21.5t-43 -21.5t-18 -50.5zM429 -43h-261q-43 0 -43 -23t43 -23h261q43 0 43 23t-43 23zM230 635q0 26 18.5 44.5t44.5 18.5t44 -18.5t18 -44.5q0 -25 -18 -43.5t-44 -18.5t-44.5 18.5
t-18.5 43.5z" />
    <glyph glyph-name="Gcommaaccent" unicode="&#x122;" horiz-adv-x="798" 
d="M559 0l-35 50q-32 -23 -66.5 -37.5t-106.5 -14.5q-70 0 -131.5 27t-106 75.5t-69 113.5t-24.5 136q0 66 25 130t71 114t109 79t133 29q52 0 103 -12.5t79 -34.5v45h149v-304h-153q-9 44 -27.5 76t-53.5 51t-89 19q-31 0 -60 -19.5t-45 -65.5t-16 -107q0 -35 9 -81
t39 -79.5t77 -33.5q36 0 60.5 20t24.5 46h-92v143h420v-143h-91v-222h-133zM323 -117q0 32 22.5 54.5t53.5 22.5t53.5 -22.5t22.5 -54.5q0 -27 -20.5 -60t-57 -65.5t-76.5 -48.5v24q20 18 38 40t22 36q-25 6 -41.5 27t-16.5 47z" />
    <glyph glyph-name="gcommaaccent" unicode="&#x123;" horiz-adv-x="615" 
d="M435 -174h-296q-24 0 -49.5 8.5t-42.5 29.5t-17 46q0 22 15 43.5t42 36.5q-31 14 -48.5 46t-17.5 68q0 34 15.5 63.5t44.5 44.5q-61 52 -61 128q0 83 63 136.5t163 53.5q56 0 90 -10.5t74 -39.5q28 34 51.5 42t50.5 8q39 0 60.5 -23t21.5 -53q0 -26 -14.5 -44.5
t-39.5 -18.5q-21 0 -34 8t-20 24t-11 16t-23 -11q20 -51 20 -99q0 -31 -11.5 -62t-38.5 -56t-70.5 -41t-101.5 -16q-22 0 -43.5 1.5t-36 6t-22.5 4.5q-3 0 -10 -3t-7 -14q0 -13 14.5 -21t45.5 -8h247q27 0 55 -8.5t53.5 -31t37 -54t11.5 -57.5q0 -25 -9.5 -51.5t-30 -47
t-51 -32.5t-69.5 -12zM186 343q0 -29 17 -49t44 -20t44.5 20t17.5 49t-18.5 50.5t-43.5 21.5t-43 -21.5t-18 -50.5zM429 -43h-261q-43 0 -43 -23t43 -23h261q43 0 43 23t-43 23zM372 642q0 -32 -22.5 -54.5t-53.5 -22.5t-53.5 22.5t-22.5 54.5q0 27 20.5 60t57 65.5
t76.5 48.5v-24q-20 -18 -38 -40t-22 -36q25 -6 41.5 -27t16.5 -47z" />
    <glyph glyph-name="Hcircumflex" unicode="&#x124;" horiz-adv-x="782" 
d="M307 429h168v116h-76v155h368v-155h-93v-390h93v-155h-368v155h76v116h-168v-116h76v-155h-368v155h93v390h-93v155h368v-155h-76v-116zM425 912l101 -157h-45l-90 69l-90 -69h-45l101 157h68z" />
    <glyph glyph-name="hcircumflex" unicode="&#x125;" horiz-adv-x="613" 
d="M15 0v120h70v460h-70v120h229v-242q13 18 34 37t50 30t57 11q21 0 45 -7t46 -25.5t38 -50.5t16 -78v-255h68v-120h-282v120h55v211q0 38 -16 58t-45 20q-18 0 -35 -11.5t-24 -30.5t-7 -36v-211h55v-120h-284zM330 912l101 -157h-45l-90 69l-90 -69h-45l101 157h68z" />
    <glyph glyph-name="Hbar" unicode="&#x126;" horiz-adv-x="782" 
d="M20 468v37h88v40h-93v155h368v-155h-76v-40h168v40h-76v155h368v-155h-93v-40h87v-37h-87v-313h93v-155h-368v155h76v116h-168v-116h76v-155h-368v155h93v313h-88zM307 429h168v39h-168v-39z" />
    <glyph glyph-name="hbar" unicode="&#x127;" horiz-adv-x="613" 
d="M18 519v37h67v24h-70v120h229v-144h51v-37h-51v-61q13 18 34 37t50 30t57 11q21 0 45 -7t46 -25.5t38 -50.5t16 -78v-255h68v-120h-282v120h55v211q0 38 -16 58t-45 20q-18 0 -35 -11.5t-24 -30.5t-7 -36v-211h55v-120h-284v120h70v399h-67z" />
    <glyph glyph-name="Itilde" unicode="&#x128;" horiz-adv-x="423" 
d="M312 545v-390h96v-155h-393v155h96v390h-96v155h393v-155h-96zM345 875h45q0 -22 -11 -50t-40 -50t-65 -22q-24 0 -46 9t-56.5 32t-52.5 23q-17 0 -29 -12.5t-12 -23.5h-45q0 22 11 50t40 50t65 22q23 0 45.5 -9t57.5 -32t52 -23t29 12.5t12 23.5z" />
    <glyph glyph-name="itilde" unicode="&#x129;" horiz-adv-x="327" 
d="M312 0h-297v120h70v288h-68v120h227v-408h68v-120zM284 695h45q0 -22 -11 -50t-40 -50t-65 -22q-24 0 -46 9t-56.5 32t-52.5 23q-17 0 -29 -12.5t-12 -23.5h-45q0 22 11 50t40 50t65 22q23 0 45.5 -9t57.5 -32t52 -23t29 12.5t12 23.5z" />
    <glyph glyph-name="Imacron" unicode="&#x12a;" horiz-adv-x="423" 
d="M312 545v-390h96v-155h-393v155h96v390h-96v155h393v-155h-96zM55 754v73h313v-73h-313z" />
    <glyph glyph-name="imacron" unicode="&#x12b;" horiz-adv-x="327" 
d="M312 0h-297v120h70v288h-68v120h227v-408h68v-120zM-12 575v73h313v-73h-313z" />
    <glyph glyph-name="Iogonek" unicode="&#x12e;" horiz-adv-x="423" 
d="M266 0h-251v155h96v390h-96v155h393v-155h-96v-390h96v-155h-108q-13 -17 -28.5 -46t-15.5 -50q0 -10 7 -15.5t16 -5.5q5 0 11.5 2t9.5 5l8 -8q-15 -31 -30.5 -40.5t-33.5 -9.5q-27 0 -46 12.5t-19 40.5q0 20 10.5 39t23.5 32t23 21.5t19.5 15t10.5 7.5z" />
    <glyph glyph-name="iogonek" unicode="&#x12f;" horiz-adv-x="327" 
d="M312 0h-82q-13 -17 -28.5 -46t-15.5 -50q0 -10 7 -15.5t16 -5.5q5 0 11.5 2t9.5 5l8 -8q-15 -31 -30.5 -40.5t-33.5 -9.5q-27 0 -46 12.5t-19 40.5q0 20 10.5 39t23.5 32t23 21.5t19.5 15t10.5 7.5h-181v120h70v288h-68v120h227v-408h68v-120zM94 621q0 29 20.5 49.5
t49.5 20.5t49.5 -20.5t20.5 -49.5t-20.5 -49.5t-49.5 -20.5t-49.5 20.5t-20.5 49.5z" />
    <glyph glyph-name="Idotaccent" unicode="&#x130;" horiz-adv-x="423" 
d="M312 545v-390h96v-155h-393v155h96v390h-96v155h393v-155h-96zM149 815q0 26 18.5 44.5t44.5 18.5t44 -18.5t18 -44.5q0 -25 -18 -43.5t-44 -18.5t-44.5 18.5t-18.5 43.5z" />
    <glyph glyph-name="dotlessi" unicode="&#x131;" horiz-adv-x="327" 
d="M312 0h-297v120h70v288h-68v120h227v-408h68v-120z" />
    <glyph glyph-name="IJ" unicode="&#x132;" horiz-adv-x="982" 
d="M308 545v-390h43v-155h-340v155h96v390h-96v155h393v-155h-96zM371 218q0 34 13.5 62t36 40.5t48.5 12.5q43 0 71.5 -26.5t28.5 -68.5q0 -16 -4 -28.5t-4 -18.5q0 -13 13.5 -22.5t28.5 -9.5q26 0 40 20t14 50v316h-96v155h402v-155h-96v-319q0 -53 -17 -96t-49 -73
t-78 -45.5t-101 -15.5q-48 0 -93.5 16t-81 45.5t-56 71t-20.5 89.5z" />
    <glyph glyph-name="ij" unicode="&#x133;" horiz-adv-x="538" 
d="M312 0h-297v120h70v288h-68v120h227v-408h68v-120zM94 621q0 29 20.5 49.5t49.5 20.5t49.5 -20.5t20.5 -49.5t-20.5 -49.5t-49.5 -20.5t-49.5 20.5t-20.5 49.5zM518 528v-562q0 -70 -33.5 -105t-112.5 -35q-70 0 -102.5 23.5t-32.5 71.5q0 28 16.5 46t43.5 18
q15 0 28.5 -5t24.5 -15t15 -10q6 0 9 4.5t3 10.5q0 8 -6 17.5t-12 10.5v410h-68v120h227zM368 621q0 29 20.5 49.5t49.5 20.5t49.5 -20.5t20.5 -49.5t-20.5 -49.5t-49.5 -20.5t-49.5 20.5t-20.5 49.5z" />
    <glyph glyph-name="Jcircumflex" unicode="&#x134;" horiz-adv-x="622" 
d="M15 218q0 34 13.5 62t36 40.5t48.5 12.5q43 0 71.5 -26.5t28.5 -68.5q0 -16 -4 -28.5t-4 -18.5q0 -13 13.5 -22.5t28.5 -9.5q26 0 40 20t14 50v316h-96v155h402v-155h-96v-319q0 -53 -17 -96t-49 -73t-78 -45.5t-101 -15.5q-48 0 -93.5 16t-81 45.5t-56 71t-20.5 89.5z
M418 912l101 -157h-45l-90 69l-90 -69h-45l101 157h68z" />
    <glyph glyph-name="jcircumflex" unicode="&#x135;" horiz-adv-x="304" 
d="M281 528v-562q0 -70 -33.5 -105t-112.5 -35q-70 0 -102.5 23.5t-32.5 71.5q0 28 16.5 46t43.5 18q15 0 28.5 -5t24.5 -15t15 -10q6 0 9 4.5t3 10.5q0 8 -6 17.5t-12 10.5v410h-68v120h227zM203 732l101 -157h-45l-90 69l-90 -69h-45l101 157h68z" />
    <glyph glyph-name="Kcommaaccent" unicode="&#x136;" horiz-adv-x="793" 
d="M760 545h-79l-149 -135l175 -255h71v-155h-373v155h69l-87 125l-75 -68v-57h76v-155h-373v155h95v390h-95v155h385v-155h-88v-199l220 199h-115v155h343v-155zM312 -117q0 32 22.5 54.5t53.5 22.5t53.5 -22.5t22.5 -54.5q0 -27 -20.5 -60t-57 -65.5t-76.5 -48.5v24
q20 18 38 40t22 36q-25 6 -41.5 27t-16.5 47z" />
    <glyph glyph-name="kcommaaccent" unicode="&#x137;" horiz-adv-x="615" 
d="M226 -117q0 32 22.5 54.5t53.5 22.5t53.5 -22.5t22.5 -54.5q0 -27 -20.5 -60t-57 -65.5t-76.5 -48.5v24q20 18 38 40t22 36q-25 6 -41.5 27t-16.5 47zM249 167v-47h41v-120h-275v120h75v460h-73v120h232v-433l156 141h-90v120h273v-120h-72l-101 -91l136 -197h49v-120
h-293v120h61l-66 95z" />
    <glyph glyph-name="kgreenlandic" unicode="&#x138;" horiz-adv-x="615" 
d="M249 167v-47h41v-120h-275v120h75v288h-73v120h232v-261l156 141h-90v120h273v-120h-72l-101 -91l136 -197h49v-120h-293v120h61l-66 95z" />
    <glyph glyph-name="Lacute" unicode="&#x139;" horiz-adv-x="662" 
d="M15 545v155h392v-155h-91v-390h58q40 0 72.5 26.5t45.5 61t13 62.5h142v-305h-632v155h96v390h-96zM189 755l101 157h147l-203 -157h-45z" />
    <glyph glyph-name="lacute" unicode="&#x13a;" horiz-adv-x="358" 
d="M245 700v-580h66v-120h-296v120h71v460h-71v120h230zM110 754l101 157h147l-203 -157h-45z" />
    <glyph glyph-name="Lcommaaccent" unicode="&#x13b;" horiz-adv-x="662" 
d="M245 -117q0 32 22.5 54.5t53.5 22.5t53.5 -22.5t22.5 -54.5q0 -27 -20.5 -60t-57 -65.5t-76.5 -48.5v24q20 18 38 40t22 36q-25 6 -41.5 27t-16.5 47zM15 545v155h392v-155h-91v-390h58q40 0 72.5 26.5t45.5 61t13 62.5h142v-305h-632v155h96v390h-96z" />
    <glyph glyph-name="lcommaaccent" unicode="&#x13c;" horiz-adv-x="326" 
d="M96 -117q0 32 22.5 54.5t53.5 22.5t53.5 -22.5t22.5 -54.5q0 -27 -20.5 -60t-57 -65.5t-76.5 -48.5v24q20 18 38 40t22 36q-25 6 -41.5 27t-16.5 47zM245 700v-580h66v-120h-296v120h71v460h-71v120h230z" />
    <glyph glyph-name="Lcaron" unicode="&#x13d;" horiz-adv-x="662" 
d="M357 912l-101 -157h-68l-101 157h45l90 -70l90 70h45zM15 545v155h392v-155h-91v-390h58q40 0 72.5 26.5t45.5 61t13 62.5h142v-305h-632v155h96v390h-96z" />
    <glyph glyph-name="lcaron" unicode="&#x13e;" horiz-adv-x="454" 
d="M245 700v-580h66v-120h-296v120h71v460h-71v120h230zM287 625q0 32 22.5 54.5t53.5 22.5t53.5 -22.5t22.5 -54.5q0 -27 -20.5 -60t-57 -65.5t-76.5 -48.5v24q20 18 38 40t22 36q-25 6 -41.5 27t-16.5 47z" />
    <glyph glyph-name="Ldot" unicode="&#x13f;" horiz-adv-x="662" 
d="M15 545v155h392v-155h-91v-390h58q40 0 72.5 26.5t45.5 61t13 62.5h142v-305h-632v155h96v390h-96zM451 455q0 32 22.5 54.5t53.5 22.5t53.5 -22.5t22.5 -54.5q0 -30 -22.5 -53t-53.5 -23t-53.5 23t-22.5 53z" />
    <glyph glyph-name="ldot" unicode="&#x140;" horiz-adv-x="431" 
d="M245 700v-580h66v-120h-296v120h71v460h-71v120h230zM269 379q0 32 22.5 54.5t53.5 22.5t53.5 -22.5t22.5 -54.5q0 -30 -22.5 -53t-53.5 -23t-53.5 23t-22.5 53z" />
    <glyph glyph-name="Lslash" unicode="&#x141;" horiz-adv-x="662" 
d="M15 545v155h392v-155h-91v-107l106 59v-66l-106 -59v-217h58q40 0 72.5 26.5t45.5 61t13 62.5h142v-305h-632v155h96v103l-108 -60v65l108 60v222h-96z" />
    <glyph glyph-name="lslash" unicode="&#x142;" horiz-adv-x="326" 
d="M245 700v-209l61 44v-57l-61 -44v-314h66v-120h-296v120h71v199l-66 -47v56l66 48v204h-71v120h230z" />
    <glyph glyph-name="Nacute" unicode="&#x143;" horiz-adv-x="808" 
d="M705 545l2 -545h-185l-257 405v-250h100v-155h-350v155h98v390h-98v155h299l234 -369v214h-95v155h340v-155h-88zM354 755l101 157h147l-203 -157h-45z" />
    <glyph glyph-name="nacute" unicode="&#x144;" horiz-adv-x="614" 
d="M528 376v-256h71v-120h-286v120h56v202q0 81 -54 81q-29 0 -49.5 -27t-20.5 -69v-187h52v-120h-282v120h71v288h-71v120h230v-69q23 34 59.5 52.5t74.5 18.5q26 0 53.5 -10t46.5 -27.5t30 -37t15 -41t4 -38.5zM239 575l101 157h147l-203 -157h-45z" />
    <glyph glyph-name="Ncommaaccent" unicode="&#x145;" horiz-adv-x="808" 
d="M705 545l2 -545h-185l-257 405v-250h100v-155h-350v155h98v390h-98v155h299l234 -369v214h-95v155h340v-155h-88zM328 -117q0 32 22.5 54.5t53.5 22.5t53.5 -22.5t22.5 -54.5q0 -27 -20.5 -60t-57 -65.5t-76.5 -48.5v24q20 18 38 40t22 36q-25 6 -41.5 27t-16.5 47z" />
    <glyph glyph-name="ncommaaccent" unicode="&#x146;" horiz-adv-x="614" 
d="M230 -117q0 32 22.5 54.5t53.5 22.5t53.5 -22.5t22.5 -54.5q0 -27 -20.5 -60t-57 -65.5t-76.5 -48.5v24q20 18 38 40t22 36q-25 6 -41.5 27t-16.5 47zM528 376v-256h71v-120h-286v120h56v202q0 81 -54 81q-29 0 -49.5 -27t-20.5 -69v-187h52v-120h-282v120h71v288h-71
v120h230v-69q23 34 59.5 52.5t74.5 18.5q26 0 53.5 -10t46.5 -27.5t30 -37t15 -41t4 -38.5z" />
    <glyph glyph-name="Ncaron" unicode="&#x147;" horiz-adv-x="808" 
d="M705 545l2 -545h-185l-257 405v-250h100v-155h-350v155h98v390h-98v155h299l234 -369v214h-95v155h340v-155h-88zM534 912l-101 -157h-68l-101 157h45l90 -70l90 70h45z" />
    <glyph glyph-name="ncaron" unicode="&#x148;" horiz-adv-x="614" 
d="M528 376v-256h71v-120h-286v120h56v202q0 81 -54 81q-29 0 -49.5 -27t-20.5 -69v-187h52v-120h-282v120h71v288h-71v120h230v-69q23 34 59.5 52.5t74.5 18.5q26 0 53.5 -10t46.5 -27.5t30 -37t15 -41t4 -38.5zM431 732l-101 -157h-68l-101 157h45l90 -70l90 70h45z" />
    <glyph glyph-name="napostrophe" unicode="&#x149;" horiz-adv-x="614" 
d="M36 723q0 32 22.5 54.5t53.5 22.5t53.5 -22.5t22.5 -54.5q0 -27 -20.5 -60t-57 -65.5t-76.5 -48.5v24q20 18 38 40t22 36q-25 6 -41.5 27t-16.5 47zM528 376v-256h71v-120h-286v120h56v202q0 81 -54 81q-29 0 -49.5 -27t-20.5 -69v-187h52v-120h-282v120h71v288h-71v120
h230v-69q23 34 59.5 52.5t74.5 18.5q26 0 53.5 -10t46.5 -27.5t30 -37t15 -41t4 -38.5z" />
    <glyph glyph-name="Omacron" unicode="&#x14c;" horiz-adv-x="738" 
d="M369 704q80 0 146 -29t111 -78.5t68.5 -114t23.5 -132.5t-23.5 -132.5t-68.5 -114t-111 -78.5t-146 -29t-146 29t-111 78.5t-68.5 114t-23.5 132.5t23.5 132.5t68.5 114t111 78.5t146 29zM369 550q-63 0 -91.5 -46t-28.5 -154t28.5 -154t91.5 -46q62 0 91 49t29 151
t-29 151t-91 49zM212 754v73h313v-73h-313z" />
    <glyph glyph-name="omacron" unicode="&#x14d;" horiz-adv-x="566" 
d="M283 533q56 0 105 -21.5t84 -59t54.5 -86.5t19.5 -102q0 -50 -19.5 -98.5t-55.5 -86.5t-84.5 -60t-103.5 -22q-41 0 -85.5 15t-88.5 54t-66.5 93.5t-22.5 104.5q0 53 19.5 102t54.5 86.5t84 59t105 21.5zM196 264q0 -84 22 -115.5t65 -31.5t65 31.5t22 115.5
q0 75 -22 108.5t-65 33.5t-65 -33.5t-22 -108.5zM124 574v73h313v-73h-313z" />
    <glyph glyph-name="Obreve" unicode="&#x14e;" horiz-adv-x="738" 
d="M369 704q80 0 146 -29t111 -78.5t68.5 -114t23.5 -132.5t-23.5 -132.5t-68.5 -114t-111 -78.5t-146 -29t-146 29t-111 78.5t-68.5 114t-23.5 132.5t23.5 132.5t68.5 114t111 78.5t146 29zM369 550q-63 0 -91.5 -46t-28.5 -154t28.5 -154t91.5 -46q62 0 91 49t29 151
t-29 151t-91 49zM256 866h59q0 -21 16 -37t38 -16t37.5 15.5t15.5 37.5h60q0 -21 -11.5 -47.5t-40 -46t-61.5 -19.5q-21 0 -47.5 11.5t-46 40t-19.5 61.5z" />
    <glyph glyph-name="obreve" unicode="&#x14f;" horiz-adv-x="566" 
d="M283 533q56 0 105 -21.5t84 -59t54.5 -86.5t19.5 -102q0 -50 -19.5 -98.5t-55.5 -86.5t-84.5 -60t-103.5 -22q-41 0 -85.5 15t-88.5 54t-66.5 93.5t-22.5 104.5q0 53 19.5 102t54.5 86.5t84 59t105 21.5zM196 264q0 -84 22 -115.5t65 -31.5t65 31.5t22 115.5
q0 75 -22 108.5t-65 33.5t-65 -33.5t-22 -108.5zM167 686h59q0 -21 16 -37t38 -16t37.5 15.5t15.5 37.5h60q0 -21 -11.5 -47.5t-40 -46t-61.5 -19.5q-21 0 -47.5 11.5t-46 40t-19.5 61.5z" />
    <glyph glyph-name="Ohungarumlaut" unicode="&#x150;" horiz-adv-x="738" 
d="M369 704q80 0 146 -29t111 -78.5t68.5 -114t23.5 -132.5t-23.5 -132.5t-68.5 -114t-111 -78.5t-146 -29t-146 29t-111 78.5t-68.5 114t-23.5 132.5t23.5 132.5t68.5 114t111 78.5t146 29zM369 550q-63 0 -91.5 -46t-28.5 -154t28.5 -154t91.5 -46q62 0 91 49t29 151
t-29 151t-91 49zM259 755l101 157h147l-203 -157h-45zM464 755l101 157h147l-203 -157h-45z" />
    <glyph glyph-name="ohungarumlaut" unicode="&#x151;" horiz-adv-x="576" 
d="M283 533q56 0 105 -21.5t84 -59t54.5 -86.5t19.5 -102q0 -50 -19.5 -98.5t-55.5 -86.5t-84.5 -60t-103.5 -22q-41 0 -85.5 15t-88.5 54t-66.5 93.5t-22.5 104.5q0 53 19.5 102t54.5 86.5t84 59t105 21.5zM196 264q0 -84 22 -115.5t65 -31.5t65 31.5t22 115.5
q0 75 -22 108.5t-65 33.5t-65 -33.5t-22 -108.5zM183 575l101 157h147l-203 -157h-45zM388 575l101 157h147l-203 -157h-45z" />
    <glyph glyph-name="OE" unicode="&#x152;" horiz-adv-x="1062" 
d="M369 700h678v-305h-142q0 28 -13 62.5t-45.5 61t-72.5 26.5h-108v-112h129v-166h-129v-112h108q40 0 72.5 26.5t45.5 61t13 62.5h142v-305h-678q-80 0 -145.5 28.5t-111 77.5t-69 112.5t-23.5 131.5t23.5 131.5t69 112.5t111 77.5t145.5 28.5zM369 545q-63 0 -91.5 -44
t-28.5 -151t28.5 -151t91.5 -44h7q59 2 86 46.5t27 148.5q0 107 -28.5 151t-91.5 44z" />
    <glyph glyph-name="oe" unicode="&#x153;" horiz-adv-x="862" 
d="M283 532q50 0 96.5 -18.5t80.5 -50.5q63 68 160 68q50 0 91.5 -19.5t70.5 -54.5t44.5 -81.5t15.5 -97.5v-17h-293q0 -69 16.5 -104t57.5 -35q20 0 43.5 11t40 38t18.5 56h117q0 -42 -15.5 -83t-44 -74t-68 -52t-84.5 -19q-52 0 -96 18.5t-75 50.5q-35 -33 -80.5 -51.5
t-95.5 -18.5q-54 0 -102.5 22t-84.5 60t-56 86t-20 98q0 53 19.5 102t55 86t84.5 58.5t104 21.5zM196 264q0 -84 22 -115.5t65 -31.5t65 31.5t22 115.5q0 75 -22 108.5t-65 33.5t-65 -33.5t-22 -108.5zM552 320h128q0 48 -18.5 68t-45.5 20q-16 0 -32 -9.5t-24 -31.5t-8 -47
z" />
    <glyph glyph-name="Racute" unicode="&#x154;" horiz-adv-x="796" 
d="M552 351q43 -15 76 -39q25 -21 38 -51t13 -63q0 -10 3 -21.5t12 -11.5q7 0 14.5 8.5t7.5 51.5h65v-66q0 -77 -41.5 -120.5t-118.5 -43.5q-38 0 -67.5 8.5t-53.5 32.5q-16 16 -26 38t-18.5 82t-31.5 87q-8 9 -26 16.5t-41 10t-38 2.5h-7v-117h96v-155h-393v155h96v390h-96
v155h447q36 0 85.5 -10t88 -38t54 -64t15.5 -76q0 -44 -18.5 -76.5t-53.5 -54t-81 -30.5zM312 429h88q19 0 38 6t29.5 20.5t10.5 31.5t-10.5 31.5t-29.5 20.5t-38 6h-88v-116zM294 755l101 157h147l-203 -157h-45z" />
    <glyph glyph-name="racute" unicode="&#x155;" horiz-adv-x="508" 
d="M312 0h-297v120h70v288h-68v120h227v-75q52 77 117 77q54 0 93 -41.5t39 -98.5q0 -40 -25 -70.5t-64 -30.5q-25 0 -46.5 16t-28.5 41q-1 5 -3 20t-7.5 21.5t-19.5 6.5q-13 0 -26.5 -11.5t-21 -41t-7.5 -69.5v-152h68v-120zM149 575l101 157h147l-203 -157h-45z" />
    <glyph glyph-name="Rcommaaccent" unicode="&#x156;" horiz-adv-x="796" 
d="M552 351q43 -15 76 -39q25 -21 38 -51t13 -63q0 -10 3 -21.5t12 -11.5q7 0 14.5 8.5t7.5 51.5h65v-66q0 -77 -41.5 -120.5t-118.5 -43.5q-38 0 -67.5 8.5t-53.5 32.5q-16 16 -26 38t-18.5 82t-31.5 87q-8 9 -26 16.5t-41 10t-38 2.5h-7v-117h96v-155h-393v155h96v390h-96
v155h447q36 0 85.5 -10t88 -38t54 -64t15.5 -76q0 -44 -18.5 -76.5t-53.5 -54t-81 -30.5zM312 429h88q19 0 38 6t29.5 20.5t10.5 31.5t-10.5 31.5t-29.5 20.5t-38 6h-88v-116zM298 -117q0 32 22.5 54.5t53.5 22.5t53.5 -22.5t22.5 -54.5q0 -27 -20.5 -60t-57 -65.5
t-76.5 -48.5v24q20 18 38 40t22 36q-25 6 -41.5 27t-16.5 47z" />
    <glyph glyph-name="rcommaaccent" unicode="&#x157;" horiz-adv-x="508" 
d="M116 -117q0 32 22.5 54.5t53.5 22.5t53.5 -22.5t22.5 -54.5q0 -27 -20.5 -60t-57 -65.5t-76.5 -48.5v24q20 18 38 40t22 36q-25 6 -41.5 27t-16.5 47zM312 0h-297v120h70v288h-68v120h227v-75q52 77 117 77q54 0 93 -41.5t39 -98.5q0 -40 -25 -70.5t-64 -30.5
q-25 0 -46.5 16t-28.5 41q-1 5 -3 20t-7.5 21.5t-19.5 6.5q-13 0 -26.5 -11.5t-21 -41t-7.5 -69.5v-152h68v-120z" />
    <glyph glyph-name="Rcaron" unicode="&#x158;" horiz-adv-x="796" 
d="M552 351q43 -15 76 -39q25 -21 38 -51t13 -63q0 -10 3 -21.5t12 -11.5q7 0 14.5 8.5t7.5 51.5h65v-66q0 -77 -41.5 -120.5t-118.5 -43.5q-38 0 -67.5 8.5t-53.5 32.5q-16 16 -26 38t-18.5 82t-31.5 87q-8 9 -26 16.5t-41 10t-38 2.5h-7v-117h96v-155h-393v155h96v390h-96
v155h447q36 0 85.5 -10t88 -38t54 -64t15.5 -76q0 -44 -18.5 -76.5t-53.5 -54t-81 -30.5zM312 429h88q19 0 38 6t29.5 20.5t10.5 31.5t-10.5 31.5t-29.5 20.5t-38 6h-88v-116zM486 912l-101 -157h-68l-101 157h45l90 -70l90 70h45z" />
    <glyph glyph-name="rcaron" unicode="&#x159;" horiz-adv-x="508" 
d="M312 0h-297v120h70v288h-68v120h227v-75q52 77 117 77q54 0 93 -41.5t39 -98.5q0 -40 -25 -70.5t-64 -30.5q-25 0 -46.5 16t-28.5 41q-1 5 -3 20t-7.5 21.5t-19.5 6.5q-13 0 -26.5 -11.5t-21 -41t-7.5 -69.5v-152h68v-120zM353 732l-101 -157h-68l-101 157h45l90 -70
l90 70h45z" />
    <glyph glyph-name="Sacute" unicode="&#x15a;" horiz-adv-x="616" 
d="M16 0v255h150q21 -49 67.5 -76t103.5 -27q84 0 84 39q0 15 -13 25.5t-35.5 17.5t-93 20.5t-97.5 22.5q-78 25 -122.5 74.5t-44.5 120.5q0 54 18 97.5t52 73t81 44.5t103 15q35 0 64.5 -4.5t79.5 -27.5v30h159v-247h-149q-1 21 -20 42.5t-58.5 36.5t-69.5 15
q-35 0 -56 -10.5t-21 -28.5q0 -14 19.5 -26t98 -26t107.5 -23q36 -11 79 -35t73.5 -69t30.5 -108q0 -72 -33 -121t-94.5 -75.5t-150.5 -26.5q-91 0 -151 44v-42h-161zM251 755l101 157h147l-203 -157h-45z" />
    <glyph glyph-name="sacute" unicode="&#x15b;" horiz-adv-x="479" 
d="M15 0v190h120q15 -37 47.5 -56.5t75.5 -19.5q27 0 46 8t19 20q0 10 -15 20.5t-78 22t-79 16.5q-58 19 -96.5 60t-38.5 104q0 70 55.5 117.5t138.5 47.5q75 0 113 -51v49h119v-191l-117 3q-11 34 -40.5 50.5t-68.5 16.5q-19 0 -37 -7t-18 -24q0 -8 13 -17t69 -17.5
t68 -11.5q27 -7 54.5 -20t51.5 -36t35.5 -54.5t11.5 -60.5q0 -45 -27 -83.5t-73.5 -58t-90.5 -19.5q-43 0 -74.5 9.5t-60.5 35.5v-43h-123zM171 575l101 157h147l-203 -157h-45z" />
    <glyph glyph-name="Scircumflex" unicode="&#x15c;" horiz-adv-x="616" 
d="M16 0v255h150q21 -49 67.5 -76t103.5 -27q84 0 84 39q0 15 -13 25.5t-35.5 17.5t-93 20.5t-97.5 22.5q-78 25 -122.5 74.5t-44.5 120.5q0 54 18 97.5t52 73t81 44.5t103 15q35 0 64.5 -4.5t79.5 -27.5v30h159v-247h-149q-1 21 -20 42.5t-58.5 36.5t-69.5 15
q-35 0 -56 -10.5t-21 -28.5q0 -14 19.5 -26t98 -26t107.5 -23q36 -11 79 -35t73.5 -69t30.5 -108q0 -72 -33 -121t-94.5 -75.5t-150.5 -26.5q-91 0 -151 44v-42h-161zM345 912l101 -157h-45l-90 69l-90 -69h-45l101 157h68z" />
    <glyph glyph-name="scircumflex" unicode="&#x15d;" horiz-adv-x="479" 
d="M15 0v190h120q15 -37 47.5 -56.5t75.5 -19.5q27 0 46 8t19 20q0 10 -15 20.5t-78 22t-79 16.5q-58 19 -96.5 60t-38.5 104q0 70 55.5 117.5t138.5 47.5q75 0 113 -51v49h119v-191l-117 3q-11 34 -40.5 50.5t-68.5 16.5q-19 0 -37 -7t-18 -24q0 -8 13 -17t69 -17.5
t68 -11.5q27 -7 54.5 -20t51.5 -36t35.5 -54.5t11.5 -60.5q0 -45 -27 -83.5t-73.5 -58t-90.5 -19.5q-43 0 -74.5 9.5t-60.5 35.5v-43h-123zM271 732l101 -157h-45l-90 69l-90 -69h-45l101 157h68z" />
    <glyph glyph-name="Scedilla" unicode="&#x15e;" horiz-adv-x="616" 
d="M16 0v255h150q21 -49 67.5 -76t103.5 -27q84 0 84 39q0 15 -13 25.5t-35.5 17.5t-93 20.5t-97.5 22.5q-78 25 -122.5 74.5t-44.5 120.5q0 54 18 97.5t52 73t81 44.5t103 15q35 0 64.5 -4.5t79.5 -27.5v30h159v-247h-149q-1 21 -20 42.5t-58.5 36.5t-69.5 15
q-35 0 -56 -10.5t-21 -28.5q0 -14 19.5 -26t98 -26t107.5 -23q36 -11 79 -35t73.5 -69t30.5 -108q0 -72 -33 -121t-94.5 -75.5t-150.5 -26.5h-5l-11 -25q18 6 32 6q24 0 40 -15.5t16 -46.5q0 -22 -17.5 -43t-43.5 -30t-50 -9q-29 0 -57.5 7t-45.5 16l22 38q14 -6 36 -11
t41 -5q18 0 29.5 10t11.5 21q0 10 -8.5 17t-22.5 7q-22 0 -45 -9l31 75q-59 8 -104 41v-42h-161z" />
    <glyph glyph-name="scedilla" unicode="&#x15f;" horiz-adv-x="479" 
d="M204 5q-35 9 -66 38v-43h-123v190h120q15 -37 47.5 -56.5t75.5 -19.5q27 0 46 8t19 20q0 10 -15 20.5t-78 22t-79 16.5q-58 19 -96.5 60t-38.5 104q0 70 55.5 117.5t138.5 47.5q75 0 113 -51v49h119v-191l-117 3q-11 34 -40.5 50.5t-68.5 16.5q-19 0 -37 -7t-18 -24
q0 -8 13 -17t69 -17.5t68 -11.5q27 -7 54.5 -20t51.5 -36t35.5 -54.5t11.5 -60.5q0 -45 -27 -83.5t-73.5 -58t-90.5 -19.5l-29 1l-11 -26q18 6 32 6q24 0 40 -15.5t16 -46.5q0 -22 -17.5 -43t-43.5 -30t-50 -9q-29 0 -57.5 7t-45.5 16l22 38q14 -6 36 -11t41 -5
q18 0 29.5 10t11.5 21q0 10 -8.5 17t-22.5 7q-22 0 -45 -9z" />
    <glyph glyph-name="Scaron" unicode="&#x160;" horiz-adv-x="616" 
d="M16 0v255h150q21 -49 67.5 -76t103.5 -27q84 0 84 39q0 15 -13 25.5t-35.5 17.5t-93 20.5t-97.5 22.5q-78 25 -122.5 74.5t-44.5 120.5q0 54 18 97.5t52 73t81 44.5t103 15q35 0 64.5 -4.5t79.5 -27.5v30h159v-247h-149q-1 21 -20 42.5t-58.5 36.5t-69.5 15
q-35 0 -56 -10.5t-21 -28.5q0 -14 19.5 -26t98 -26t107.5 -23q36 -11 79 -35t73.5 -69t30.5 -108q0 -72 -33 -121t-94.5 -75.5t-150.5 -26.5q-91 0 -151 44v-42h-161zM439 912l-101 -157h-68l-101 157h45l90 -70l90 70h45z" />
    <glyph glyph-name="scaron" unicode="&#x161;" horiz-adv-x="479" 
d="M15 0v190h120q15 -37 47.5 -56.5t75.5 -19.5q27 0 46 8t19 20q0 10 -15 20.5t-78 22t-79 16.5q-58 19 -96.5 60t-38.5 104q0 70 55.5 117.5t138.5 47.5q75 0 113 -51v49h119v-191l-117 3q-11 34 -40.5 50.5t-68.5 16.5q-19 0 -37 -7t-18 -24q0 -8 13 -17t69 -17.5
t68 -11.5q27 -7 54.5 -20t51.5 -36t35.5 -54.5t11.5 -60.5q0 -45 -27 -83.5t-73.5 -58t-90.5 -19.5q-43 0 -74.5 9.5t-60.5 35.5v-43h-123zM373 732l-101 -157h-68l-101 157h45l90 -70l90 70h45z" />
    <glyph glyph-name="Tcommaaccent" unicode="&#x162;" horiz-adv-x="697" 
d="M15 393v307h667v-307h-146q0 35 -7 69t-22.5 56.5t-41.5 23.5h-16v-387h96v-155h-171l-12 -27q18 6 32 6q24 0 40 -15.5t16 -46.5q0 -22 -17.5 -43t-43.5 -30t-50 -9q-29 0 -57.5 7t-45.5 16l22 38q14 -6 36 -11t41 -5q18 0 29.5 10t11.5 21q0 10 -8.5 17t-22.5 7
q-22 0 -45 -9l31 74h-179v155h96v387h-16q-26 -1 -41.5 -23.5t-22.5 -56.5t-7 -69h-146z" />
    <glyph glyph-name="tcommaaccent" unicode="&#x163;" horiz-adv-x="358" 
d="M175 -65q-22 0 -45 -9l32 77q-78 21 -78 144v261h-69v120h23q112 0 112 138v34h93v-172h71v-120h-71v-253q0 -13 5 -21t16 -8q8 0 14.5 9t6.5 22v37h34l23 -10l1 -39q0 -55 -17.5 -89t-51 -46t-71.5 -12l-11 -25q18 6 32 6q24 0 40 -15.5t16 -46.5q0 -22 -17.5 -43
t-43.5 -30t-50 -9q-29 0 -57.5 7t-45.5 16l22 38q14 -6 36 -11t41 -5q18 0 29.5 10t11.5 21q0 10 -8.5 17t-22.5 7z" />
    <glyph glyph-name="Tcaron" unicode="&#x164;" horiz-adv-x="697" 
d="M15 393v307h667v-307h-146q0 35 -7 69t-22.5 56.5t-41.5 23.5h-16v-387h96v-155h-393v155h96v387h-16q-26 -1 -41.5 -23.5t-22.5 -56.5t-7 -69h-146zM483 912l-101 -157h-68l-101 157h45l90 -70l90 70h45z" />
    <glyph glyph-name="tcaron" unicode="&#x165;" horiz-adv-x="518" 
d="M201 -2q-117 0 -117 149v261h-69v120h23q112 0 112 138v34h93v-172h71v-120h-71v-253q0 -13 5 -21t16 -8q8 0 14.5 9t6.5 22v37h34l23 -10l1 -39q0 -75 -32.5 -111t-109.5 -36zM351 625q0 32 22.5 54.5t53.5 22.5t53.5 -22.5t22.5 -54.5q0 -27 -20.5 -60t-57 -65.5
t-76.5 -48.5v24q20 18 38 40t22 36q-25 6 -41.5 27t-16.5 47z" />
    <glyph glyph-name="Tbar" unicode="&#x166;" horiz-adv-x="697" 
d="M192 277v37h56v228h-16q-26 -1 -41.5 -23.5t-22.5 -56.5t-7 -69h-146v307h667v-307h-146q0 35 -7 69t-22.5 56.5t-41.5 23.5h-16v-228h56v-37h-56v-122h96v-155h-393v155h96v122h-56z" />
    <glyph glyph-name="tbar" unicode="&#x167;" horiz-adv-x="358" 
d="M33 292v37h51v79h-69v120h23q112 0 112 138v34h93v-172h71v-120h-71v-79h53v-37h-53v-137q0 -13 5 -21t16 -8q8 0 14.5 9t6.5 22v37h34l23 -10l1 -39q0 -75 -32.5 -111t-109.5 -36q-117 0 -117 149v145h-51z" />
    <glyph glyph-name="Utilde" unicode="&#x168;" horiz-adv-x="729" 
d="M114 225v320h-99v155h365v-155h-66v-321q0 -33 15 -52.5t67 -19.5q26 0 44.5 7t27 24.5t8.5 40.5v321h-78v155h316v-155h-83v-320q0 -116 -64 -173.5t-183 -57.5q-55 0 -104 12t-86 39.5t-58.5 72.5t-21.5 107zM508 875h45q0 -22 -11 -50t-40 -50t-65 -22q-24 0 -46 9
t-56.5 32t-52.5 23q-17 0 -29 -12.5t-12 -23.5h-45q0 22 11 50t40 50t65 22q23 0 45.5 -9t57.5 -32t52 -23t29 12.5t12 23.5z" />
    <glyph glyph-name="utilde" unicode="&#x169;" 
d="M86 144v264h-71v120h230v-331q0 -38 13.5 -57.5t34.5 -19.5q12 0 29.5 9t32 33t14.5 53v193h-67v120h226v-408h65v-120h-224v69q-23 -35 -61 -53.5t-78 -18.5q-27 0 -57.5 11t-50.5 34t-28 49.5t-8 52.5zM426 695h45q0 -22 -11 -50t-40 -50t-65 -22q-24 0 -46 9t-56.5 32
t-52.5 23q-17 0 -29 -12.5t-12 -23.5h-45q0 22 11 50t40 50t65 22q23 0 45.5 -9t57.5 -32t52 -23t29 12.5t12 23.5z" />
    <glyph glyph-name="Umacron" unicode="&#x16a;" horiz-adv-x="729" 
d="M114 225v320h-99v155h365v-155h-66v-321q0 -33 15 -52.5t67 -19.5q26 0 44.5 7t27 24.5t8.5 40.5v321h-78v155h316v-155h-83v-320q0 -116 -64 -173.5t-183 -57.5q-55 0 -104 12t-86 39.5t-58.5 72.5t-21.5 107zM208 754v73h313v-73h-313z" />
    <glyph glyph-name="umacron" unicode="&#x16b;" 
d="M86 144v264h-71v120h230v-331q0 -38 13.5 -57.5t34.5 -19.5q12 0 29.5 9t32 33t14.5 53v193h-67v120h226v-408h65v-120h-224v69q-23 -35 -61 -53.5t-78 -18.5q-27 0 -57.5 11t-50.5 34t-28 49.5t-8 52.5zM137 574v73h313v-73h-313z" />
    <glyph glyph-name="Ubreve" unicode="&#x16c;" horiz-adv-x="729" 
d="M114 225v320h-99v155h365v-155h-66v-321q0 -33 15 -52.5t67 -19.5q26 0 44.5 7t27 24.5t8.5 40.5v321h-78v155h316v-155h-83v-320q0 -116 -64 -173.5t-183 -57.5q-55 0 -104 12t-86 39.5t-58.5 72.5t-21.5 107zM263 866h59q0 -21 16 -37t38 -16t37.5 15.5t15.5 37.5h60
q0 -21 -11.5 -47.5t-40 -46t-61.5 -19.5q-21 0 -47.5 11.5t-46 40t-19.5 61.5z" />
    <glyph glyph-name="ubreve" unicode="&#x16d;" 
d="M86 144v264h-71v120h230v-331q0 -38 13.5 -57.5t34.5 -19.5q12 0 29.5 9t32 33t14.5 53v193h-67v120h226v-408h65v-120h-224v69q-23 -35 -61 -53.5t-78 -18.5q-27 0 -57.5 11t-50.5 34t-28 49.5t-8 52.5zM170 686h59q0 -21 16 -37t38 -16t37.5 15.5t15.5 37.5h60
q0 -21 -11.5 -47.5t-40 -46t-61.5 -19.5q-21 0 -47.5 11.5t-46 40t-19.5 61.5z" />
    <glyph glyph-name="Uring" unicode="&#x16e;" horiz-adv-x="729" 
d="M114 225v320h-99v155h365v-155h-66v-321q0 -33 15 -52.5t67 -19.5q26 0 44.5 7t27 24.5t8.5 40.5v321h-78v155h316v-155h-83v-320q0 -116 -64 -173.5t-183 -57.5q-55 0 -104 12t-86 39.5t-58.5 72.5t-21.5 107zM328 866q0 -21 16 -37t38 -16t37.5 15.5t15.5 37.5
t-15.5 38t-37.5 16t-38 -16t-16 -38zM269 866q0 34 19.5 63t46 40.5t47.5 11.5t47.5 -11.5t46 -40.5t19.5 -63q0 -21 -11.5 -47.5t-40 -46t-61.5 -19.5q-21 0 -47.5 11.5t-46 40t-19.5 61.5z" />
    <glyph glyph-name="uring" unicode="&#x16f;" 
d="M86 144v264h-71v120h230v-331q0 -38 13.5 -57.5t34.5 -19.5q12 0 29.5 9t32 33t14.5 53v193h-67v120h226v-408h65v-120h-224v69q-23 -35 -61 -53.5t-78 -18.5q-27 0 -57.5 11t-50.5 34t-28 49.5t-8 52.5zM240 686q0 -21 16 -37t38 -16t37.5 15.5t15.5 37.5t-15.5 38
t-37.5 16t-38 -16t-16 -38zM181 686q0 34 19.5 63t46 40.5t47.5 11.5t47.5 -11.5t46 -40.5t19.5 -63q0 -21 -11.5 -47.5t-40 -46t-61.5 -19.5q-21 0 -47.5 11.5t-46 40t-19.5 61.5z" />
    <glyph glyph-name="Uhungarumlaut" unicode="&#x170;" horiz-adv-x="729" 
d="M114 225v320h-99v155h365v-155h-66v-321q0 -33 15 -52.5t67 -19.5q26 0 44.5 7t27 24.5t8.5 40.5v321h-78v155h316v-155h-83v-320q0 -116 -64 -173.5t-183 -57.5q-55 0 -104 12t-86 39.5t-58.5 72.5t-21.5 107zM204 755l101 157h147l-203 -157h-45zM409 755l101 157h147
l-203 -157h-45z" />
    <glyph glyph-name="uhungarumlaut" unicode="&#x171;" 
d="M86 144v264h-71v120h230v-331q0 -38 13.5 -57.5t34.5 -19.5q12 0 29.5 9t32 33t14.5 53v193h-67v120h226v-408h65v-120h-224v69q-23 -35 -61 -53.5t-78 -18.5q-27 0 -57.5 11t-50.5 34t-28 49.5t-8 52.5zM128 575l101 157h147l-203 -157h-45zM333 575l101 157h147
l-203 -157h-45z" />
    <glyph glyph-name="Uogonek" unicode="&#x172;" horiz-adv-x="729" 
d="M114 225v320h-99v155h365v-155h-66v-321q0 -33 15 -52.5t67 -19.5q26 0 44.5 7t27 24.5t8.5 40.5v321h-78v155h316v-155h-83v-320q0 -103 -50.5 -160t-145.5 -68q-14 -20 -27.5 -46.5t-13.5 -46.5q0 -10 7 -15.5t16 -5.5q5 0 11.5 2t9.5 5l8 -8q-15 -31 -30.5 -40.5
t-33.5 -9.5q-27 0 -46 12.5t-19 40.5q0 26 19.5 54t59.5 55h-12q-55 0 -104 12t-86 39.5t-58.5 72.5t-21.5 107z" />
    <glyph glyph-name="uogonek" unicode="&#x173;" 
d="M458 0h-89v69q-23 -35 -61 -53.5t-78 -18.5q-27 0 -57.5 11t-50.5 34t-28 49.5t-8 52.5v264h-71v120h230v-331q0 -38 13.5 -57.5t34.5 -19.5q12 0 29.5 9t32 33t14.5 53v193h-67v120h226v-408h65v-120h-101q-13 -17 -28.5 -46t-15.5 -50q0 -10 7 -15.5t16 -5.5
q5 0 11.5 2t9.5 5l8 -8q-15 -31 -30.5 -40.5t-33.5 -9.5q-27 0 -46 12.5t-19 40.5q0 20 10.5 39t23.5 32t23 21.5t19.5 15t10.5 7.5z" />
    <glyph glyph-name="Wcircumflex" unicode="&#x174;" horiz-adv-x="994" 
d="M15 545v155h341v-155h-63l70 -211l71 211h-62v155h300v-155h-57l70 -211l71 211h-68v155h291v-155h-63l-182 -545h-149l-87 259l-86 -259h-149l-182 545h-66zM549 912l101 -157h-45l-90 69l-90 -69h-45l101 157h68z" />
    <glyph glyph-name="wcircumflex" unicode="&#x175;" horiz-adv-x="766" 
d="M15 408v120h259v-120h-48l52 -161l52 161h-42v120h232v-120h-49l53 -163l52 163h-42v120h217v-120h-50l-135 -408h-125l-61 187l-60 -187h-124l-133 408h-48zM417 732l101 -157h-45l-90 69l-90 -69h-45l101 157h68z" />
    <glyph glyph-name="Ycircumflex" unicode="&#x176;" horiz-adv-x="778" 
d="M434 545v155h329v-155h-77l-194 -286v-104h93v-155h-392v155h97v101l-199 289h-76v155h401v-155h-79l90 -131l89 131h-82zM421 912l101 -157h-45l-90 69l-90 -69h-45l101 157h68z" />
    <glyph glyph-name="ycircumflex" unicode="&#x177;" horiz-adv-x="580" 
d="M15 -38q0 36 20.5 59.5t52.5 23.5q25 0 41 -12t24 -29q2 -5 6.5 -22t10.5 -21.5t14 -4.5q11 0 22.5 9t11.5 25q0 8 -3 17l-132 401h-66v120h289v-120h-60l70 -213l61 213h-54v120h242v-120h-60l-145 -448q-21 -66 -65.5 -100t-117.5 -34q-28 0 -58.5 9.5t-53.5 27
t-36.5 43t-13.5 56.5zM324 732l101 -157h-45l-90 69l-90 -69h-45l101 157h68z" />
    <glyph glyph-name="Ydieresis" unicode="&#x178;" horiz-adv-x="778" 
d="M249 815q0 26 18.5 44.5t44.5 18.5t44 -18.5t18 -44.5q0 -25 -18 -43.5t-44 -18.5t-44.5 18.5t-18.5 43.5zM429 815q0 26 18.5 44.5t44.5 18.5t44 -18.5t18 -44.5q0 -25 -18 -43.5t-44 -18.5t-44.5 18.5t-18.5 43.5zM434 545v155h329v-155h-77l-194 -286v-104h93v-155
h-392v155h97v101l-199 289h-76v155h401v-155h-79l90 -131l89 131h-82z" />
    <glyph glyph-name="Zacute" unicode="&#x179;" horiz-adv-x="710" 
d="M15 0l347 545h-64q-62 0 -89 -39.5t-27 -112.5h-150v307h663l-347 -545h64q62 0 89 39.5t27 112.5h150v-307h-663zM320 755l101 157h147l-203 -157h-45z" />
    <glyph glyph-name="zacute" unicode="&#x17a;" horiz-adv-x="548" 
d="M524 0h-509q0 2 129 203.5t129 204.5q-44 0 -72.5 -9t-39.5 -35t-11 -70h-119v234h502l-258 -408h48q40 0 64 24t24 88h113v-232zM235 575l101 157h147l-203 -157h-45z" />
    <glyph glyph-name="Zdotaccent" unicode="&#x17b;" horiz-adv-x="710" 
d="M15 0l347 545h-64q-62 0 -89 -39.5t-27 -112.5h-150v307h663l-347 -545h64q62 0 89 39.5t27 112.5h150v-307h-663zM298 815q0 26 18.5 44.5t44.5 18.5t44 -18.5t18 -44.5q0 -25 -18 -43.5t-44 -18.5t-44.5 18.5t-18.5 43.5z" />
    <glyph glyph-name="zdotaccent" unicode="&#x17c;" horiz-adv-x="548" 
d="M524 0h-509q0 2 129 203.5t129 204.5q-44 0 -72.5 -9t-39.5 -35t-11 -70h-119v234h502l-258 -408h48q40 0 64 24t24 88h113v-232zM215 635q0 26 18.5 44.5t44.5 18.5t44 -18.5t18 -44.5q0 -25 -18 -43.5t-44 -18.5t-44.5 18.5t-18.5 43.5z" />
    <glyph glyph-name="Zcaron" unicode="&#x17d;" horiz-adv-x="710" 
d="M15 0l347 545h-64q-62 0 -89 -39.5t-27 -112.5h-150v307h663l-347 -545h64q62 0 89 39.5t27 112.5h150v-307h-663zM497 912l-101 -157h-68l-101 157h45l90 -70l90 70h45z" />
    <glyph glyph-name="zcaron" unicode="&#x17e;" horiz-adv-x="548" 
d="M524 0h-509q0 2 129 203.5t129 204.5q-44 0 -72.5 -9t-39.5 -35t-11 -70h-119v234h502l-258 -408h48q40 0 64 24t24 88h113v-232zM411 732l-101 -157h-68l-101 157h45l90 -70l90 70h45z" />
    <glyph glyph-name="Scommaaccent" unicode="&#x218;" horiz-adv-x="621" 
d="M16 0v255h150q21 -49 67.5 -76t103.5 -27q84 0 84 39q0 15 -13 25.5t-35.5 17.5t-93 20.5t-97.5 22.5q-78 25 -122.5 74.5t-44.5 120.5q0 54 18 97.5t52 73t81 44.5t103 15q35 0 64.5 -4.5t79.5 -27.5v30h159v-247h-149q-1 21 -20 42.5t-58.5 36.5t-69.5 15
q-35 0 -56 -10.5t-21 -28.5q0 -14 19.5 -26t98 -26t107.5 -23q36 -11 79 -35t73.5 -69t30.5 -108q0 -72 -33 -121t-94.5 -75.5t-150.5 -26.5q-91 0 -151 44v-42h-161zM253 -117q0 32 22.5 54.5t53.5 22.5t53.5 -22.5t22.5 -54.5q0 -27 -20.5 -60t-57 -65.5t-76.5 -48.5v24
q20 18 38 40t22 36q-25 6 -41.5 27t-16.5 47z" />
    <glyph glyph-name="scommaaccent" unicode="&#x219;" horiz-adv-x="479" 
d="M184 -117q0 32 22.5 54.5t53.5 22.5t53.5 -22.5t22.5 -54.5q0 -27 -20.5 -60t-57 -65.5t-76.5 -48.5v24q20 18 38 40t22 36q-25 6 -41.5 27t-16.5 47zM15 0v190h120q15 -37 47.5 -56.5t75.5 -19.5q27 0 46 8t19 20q0 10 -15 20.5t-78 22t-79 16.5q-58 19 -96.5 60
t-38.5 104q0 70 55.5 117.5t138.5 47.5q75 0 113 -51v49h119v-191l-117 3q-11 34 -40.5 50.5t-68.5 16.5q-19 0 -37 -7t-18 -24q0 -8 13 -17t69 -17.5t68 -11.5q27 -7 54.5 -20t51.5 -36t35.5 -54.5t11.5 -60.5q0 -45 -27 -83.5t-73.5 -58t-90.5 -19.5q-43 0 -74.5 9.5
t-60.5 35.5v-43h-123z" />
    <glyph glyph-name="uni021A" unicode="&#x21a;" horiz-adv-x="697" 
d="M273 -117q0 32 22.5 54.5t53.5 22.5t53.5 -22.5t22.5 -54.5q0 -27 -20.5 -60t-57 -65.5t-76.5 -48.5v24q20 18 38 40t22 36q-25 6 -41.5 27t-16.5 47zM15 393v307h667v-307h-146q0 35 -7 69t-22.5 56.5t-41.5 23.5h-16v-387h96v-155h-393v155h96v387h-16
q-26 -1 -41.5 -23.5t-22.5 -56.5t-7 -69h-146z" />
    <glyph glyph-name="uni021B" unicode="&#x21b;" horiz-adv-x="358" 
d="M132 -117q0 32 22.5 54.5t53.5 22.5t53.5 -22.5t22.5 -54.5q0 -27 -20.5 -60t-57 -65.5t-76.5 -48.5v24q20 18 38 40t22 36q-25 6 -41.5 27t-16.5 47zM201 -2q-117 0 -117 149v261h-69v120h23q112 0 112 138v34h93v-172h71v-120h-71v-253q0 -13 5 -21t16 -8q8 0 14.5 9
t6.5 22v37h34l23 -10l1 -39q0 -75 -32.5 -111t-109.5 -36z" />
    <glyph glyph-name="circumflex" unicode="&#x2c6;" horiz-adv-x="310" 
d="M189 732l101 -157h-45l-90 69l-90 -69h-45l101 157h68z" />
    <glyph glyph-name="caron" unicode="&#x2c7;" horiz-adv-x="310" 
d="M290 732l-101 -157h-68l-101 157h45l90 -70l90 70h45z" />
    <glyph glyph-name="breve" unicode="&#x2d8;" horiz-adv-x="266" 
d="M20 686h59q0 -21 16 -37t38 -16t37.5 15.5t15.5 37.5h60q0 -21 -11.5 -47.5t-40 -46t-61.5 -19.5q-21 0 -47.5 11.5t-46 40t-19.5 61.5z" />
    <glyph glyph-name="dotaccent" unicode="&#x2d9;" horiz-adv-x="165" 
d="M20 635q0 26 18.5 44.5t44.5 18.5t44 -18.5t18 -44.5q0 -25 -18 -43.5t-44 -18.5t-44.5 18.5t-18.5 43.5z" />
    <glyph glyph-name="ring" unicode="&#x2da;" horiz-adv-x="266" 
d="M79 686q0 -21 16 -37t38 -16t37.5 15.5t15.5 37.5t-15.5 38t-37.5 16t-38 -16t-16 -38zM20 686q0 34 19.5 63t46 40.5t47.5 11.5t47.5 -11.5t46 -40.5t19.5 -63q0 -21 -11.5 -47.5t-40 -46t-61.5 -19.5q-21 0 -47.5 11.5t-46 40t-19.5 61.5z" />
    <glyph glyph-name="ogonek" unicode="&#x2db;" horiz-adv-x="169" 
d="M107 0h34q-13 -17 -28.5 -46t-15.5 -50q0 -10 7 -15.5t16 -5.5q5 0 11.5 2t9.5 5l8 -8q-15 -31 -30.5 -40.5t-33.5 -9.5q-27 0 -46 12.5t-19 40.5q0 20 10.5 39t23.5 32t23 21.5t19.5 15t10.5 7.5z" />
    <glyph glyph-name="tilde" unicode="&#x2dc;" horiz-adv-x="397" 
d="M332 695h45q0 -22 -11 -50t-40 -50t-65 -22q-24 0 -46 9t-56.5 32t-52.5 23q-17 0 -29 -12.5t-12 -23.5h-45q0 22 11 50t40 50t65 22q23 0 45.5 -9t57.5 -32t52 -23t29 12.5t12 23.5z" />
    <glyph glyph-name="hungarumlaut" unicode="&#x2dd;" horiz-adv-x="493" 
d="M20 524l101 157h147l-203 -157h-45zM225 524l101 157h147l-203 -157h-45z" />
    <glyph glyph-name="Wgrave" unicode="&#x1e80;" horiz-adv-x="994" 
d="M15 545v155h341v-155h-63l70 -211l71 211h-62v155h300v-155h-57l70 -211l71 211h-68v155h291v-155h-63l-182 -545h-149l-87 259l-86 -259h-149l-182 545h-66zM470 912l101 -157h-45l-203 157h147z" />
    <glyph glyph-name="wgrave" unicode="&#x1e81;" horiz-adv-x="766" 
d="M15 408v120h259v-120h-48l52 -161l52 161h-42v120h232v-120h-49l53 -163l52 163h-42v120h217v-120h-50l-135 -408h-125l-61 187l-60 -187h-124l-133 408h-48zM325 732l101 -157h-45l-203 157h147z" />
    <glyph glyph-name="Wacute" unicode="&#x1e82;" horiz-adv-x="994" 
d="M15 545v155h341v-155h-63l70 -211l71 211h-62v155h300v-155h-57l70 -211l71 211h-68v155h291v-155h-63l-182 -545h-149l-87 259l-86 -259h-149l-182 545h-66zM476 755l101 157h147l-203 -157h-45z" />
    <glyph glyph-name="wacute" unicode="&#x1e83;" horiz-adv-x="766" 
d="M15 408v120h259v-120h-48l52 -161l52 161h-42v120h232v-120h-49l53 -163l52 163h-42v120h217v-120h-50l-135 -408h-125l-61 187l-60 -187h-124l-133 408h-48zM358 575l101 157h147l-203 -157h-45z" />
    <glyph glyph-name="Wdieresis" unicode="&#x1e84;" horiz-adv-x="994" 
d="M15 545v155h341v-155h-63l70 -211l71 211h-62v155h300v-155h-57l70 -211l71 211h-68v155h291v-155h-63l-182 -545h-149l-87 259l-86 -259h-149l-182 545h-66zM354 815q0 26 18.5 44.5t44.5 18.5t44 -18.5t18 -44.5q0 -25 -18 -43.5t-44 -18.5t-44.5 18.5t-18.5 43.5z
M534 815q0 26 18.5 44.5t44.5 18.5t44 -18.5t18 -44.5q0 -25 -18 -43.5t-44 -18.5t-44.5 18.5t-18.5 43.5z" />
    <glyph glyph-name="wdieresis" unicode="&#x1e85;" horiz-adv-x="766" 
d="M15 408v120h259v-120h-48l52 -161l52 161h-42v120h232v-120h-49l53 -163l52 163h-42v120h217v-120h-50l-135 -408h-125l-61 187l-60 -187h-124l-133 408h-48zM240 635q0 26 18.5 44.5t44.5 18.5t44 -18.5t18 -44.5q0 -25 -18 -43.5t-44 -18.5t-44.5 18.5t-18.5 43.5z
M420 635q0 26 18.5 44.5t44.5 18.5t44 -18.5t18 -44.5q0 -25 -18 -43.5t-44 -18.5t-44.5 18.5t-18.5 43.5z" />
    <glyph glyph-name="endash" unicode="&#x2013;" horiz-adv-x="457" 
d="M25 171v138h407v-138h-407z" />
    <glyph glyph-name="emdash" unicode="&#x2014;" horiz-adv-x="880" 
d="M25 171v138h830v-138h-830z" />
    <glyph glyph-name="quoteleft" unicode="&#x2018;" horiz-adv-x="184" 
d="M167 526q0 -32 -22.5 -54.5t-53.5 -22.5t-53.5 22.5t-22.5 54.5q0 27 20.5 60t57 65.5t76.5 48.5v-24q-20 -18 -38 -40t-22 -36q25 -6 41.5 -27t16.5 -47z" />
    <glyph glyph-name="quoteright" unicode="&#x2019;" horiz-adv-x="184" 
d="M17 623q0 32 22.5 54.5t53.5 22.5t53.5 -22.5t22.5 -54.5q0 -27 -20.5 -60t-57 -65.5t-76.5 -48.5v24q20 18 38 40t22 36q-25 6 -41.5 27t-16.5 47z" />
    <glyph glyph-name="quotesinglbase" unicode="&#x201a;" horiz-adv-x="194" 
d="M22 72q0 32 22.5 54.5t53.5 22.5t53.5 -22.5t22.5 -54.5q0 -27 -20.5 -60t-57 -65.5t-76.5 -48.5v24q20 18 38 40t22 36q-25 6 -41.5 27t-16.5 47z" />
    <glyph glyph-name="quotedblleft" unicode="&#x201c;" horiz-adv-x="357" 
d="M167 526q0 -32 -22.5 -54.5t-53.5 -22.5t-53.5 22.5t-22.5 54.5q0 27 20.5 60t57 65.5t76.5 48.5v-24q-20 -18 -38 -40t-22 -36q25 -6 41.5 -27t16.5 -47zM335 526q0 -32 -22.5 -54.5t-53.5 -22.5t-53.5 22.5t-22.5 54.5q0 27 20.5 60t57 65.5t76.5 48.5v-24
q-20 -18 -38 -40t-22 -36q25 -6 41.5 -27t16.5 -47z" />
    <glyph glyph-name="quotedblright" unicode="&#x201d;" horiz-adv-x="357" 
d="M190 623q0 32 22.5 54.5t53.5 22.5t53.5 -22.5t22.5 -54.5q0 -27 -20.5 -60t-57 -65.5t-76.5 -48.5v24q20 18 38 40t22 36q-25 6 -41.5 27t-16.5 47zM22 623q0 32 22.5 54.5t53.5 22.5t53.5 -22.5t22.5 -54.5q0 -27 -20.5 -60t-57 -65.5t-76.5 -48.5v24q20 18 38 40
t22 36q-25 6 -41.5 27t-16.5 47z" />
    <glyph glyph-name="quotedblbase" unicode="&#x201e;" horiz-adv-x="362" 
d="M190 72q0 32 22.5 54.5t53.5 22.5t53.5 -22.5t22.5 -54.5q0 -27 -20.5 -60t-57 -65.5t-76.5 -48.5v24q20 18 38 40t22 36q-25 6 -41.5 27t-16.5 47zM22 72q0 32 22.5 54.5t53.5 22.5t53.5 -22.5t22.5 -54.5q0 -27 -20.5 -60t-57 -65.5t-76.5 -48.5v24q20 18 38 40t22 36
q-25 6 -41.5 27t-16.5 47z" />
    <glyph glyph-name="dagger" unicode="&#x2020;" horiz-adv-x="504" 
d="M233 302q0 50 -9 106q-42 -4 -61 -13q-5 -2 -20.5 -11.5t-26 -12.5t-21.5 -3q-17 0 -33.5 7.5t-24 20t-7.5 25.5t7.5 25.5t24 20t33.5 7.5q5 0 16.5 -1.5t29 -12.5t22.5 -13q21 -11 57 -15q-4 18 -16 68t-16 82.5t-4 59.5q0 18 5.5 45t19 45t25 22.5t20.5 4.5
q18 0 34 -14t25.5 -44t9.5 -59q0 -26 -4 -58t-16 -82.5t-16 -69.5q38 6 55 15q5 2 20 11.5t25.5 12.5t21.5 3q16 0 33 -7.5t24.5 -20t7.5 -25.5t-7.5 -25.5t-24.5 -20t-33 -7.5q-11 0 -21.5 3t-25.5 12t-20 11q-21 10 -60 14q-8 -50 -8 -106q0 -78 21 -166.5t24.5 -120.5
t3.5 -54q0 -29 -9.5 -59t-25.5 -44t-34 -14q-25 0 -42 22.5t-22.5 49.5t-5.5 45q0 22 3.5 54.5t19.5 100.5t21 108t5 78z" />
    <glyph glyph-name="daggerdbl" unicode="&#x2021;" horiz-adv-x="504" 
d="M213 302q18 45 18 71q0 25 -4 71q-42 -4 -64 -14q-5 -2 -20.5 -11.5t-26 -12.5t-21.5 -3q-17 0 -33.5 7.5t-24 20t-7.5 25.5t7.5 25.5t24 20t33.5 7.5q5 0 16.5 -1.5t29 -12.5t22.5 -13q19 -11 61 -15q-7 37 -12 54q-1 4 -14.5 39.5t-13.5 81.5q0 18 5.5 45t19 45
t25 22.5t20.5 4.5q18 0 34 -14t25.5 -44t9.5 -59q0 -45 -13.5 -79.5t-15.5 -41.5q-7 -19 -12 -54q38 4 60 15q5 2 20 11.5t25.5 12.5t21.5 3q16 0 33 -7.5t24.5 -20t7.5 -25.5t-7.5 -25.5t-24.5 -20t-33 -7.5q-11 0 -21.5 3t-25.5 12t-20 11q-22 10 -63 14q-3 -33 -3 -72
q0 -24 18 -69q-18 -45 -18 -71q0 -36 3 -71q39 4 63 16q5 2 20 11.5t25.5 12.5t21.5 3q16 0 33 -7.5t24.5 -20t7.5 -25.5t-7.5 -25.5t-24.5 -20t-33 -7.5q-11 0 -21.5 3t-25.5 12t-20 11q-21 10 -60 14q5 -38 12 -55q2 -7 15.5 -41.5t13.5 -79.5q0 -29 -9.5 -59t-25.5 -44
t-34 -14q-25 0 -42 22.5t-22.5 49.5t-5.5 45q0 46 13.5 81.5t14.5 39.5q8 24 12 55q-43 -5 -61 -13q-5 -2 -20.5 -11.5t-26 -12.5t-21.5 -3q-17 0 -33.5 7.5t-24 20t-7.5 25.5t7.5 25.5t24 20t33.5 7.5q5 0 16.5 -1.5t29 -12.5t22.5 -13q22 -12 64 -16q4 46 4 73
q0 24 -18 69z" />
    <glyph glyph-name="bullet" unicode="&#x2022;" horiz-adv-x="351" 
d="M30 361q0 61 43 104.5t102 43.5q60 0 103 -43.5t43 -104.5q0 -58 -43.5 -102t-102.5 -44q-58 0 -101.5 44t-43.5 102z" />
    <glyph glyph-name="ellipsis" unicode="&#x2026;" horiz-adv-x="546" 
d="M15 74q0 32 22.5 54.5t53.5 22.5t53.5 -22.5t22.5 -54.5q0 -30 -22.5 -53t-53.5 -23t-53.5 23t-22.5 53zM197 74q0 32 22.5 54.5t53.5 22.5t53.5 -22.5t22.5 -54.5q0 -30 -22.5 -53t-53.5 -23t-53.5 23t-22.5 53zM379 74q0 32 22.5 54.5t53.5 22.5t53.5 -22.5t22.5 -54.5
q0 -30 -22.5 -53t-53.5 -23t-53.5 23t-22.5 53z" />
    <glyph glyph-name="perthousand" unicode="&#x2030;" horiz-adv-x="1284" 
d="M166 0l452 700h105l-453 -700h-104zM859 199q0 -92 -46 -145.5t-129 -53.5q-41 0 -74 14t-55.5 40t-34 63t-11.5 82q0 93 46 147t129 54q84 0 129.5 -53.5t45.5 -147.5zM684 82q22 0 36 18t18 45.5t4 53.5q0 121 -58 121q-59 0 -59 -121q0 -117 59 -117zM380 500
q0 -33 -7.5 -67.5t-27.5 -64t-54.5 -49t-85.5 -19.5q-83 0 -129 53.5t-46 145.5q0 94 45.5 147.5t129.5 53.5q83 0 129 -53.5t46 -146.5zM205 382q22 0 36 18t18 45.5t4 53.5q0 121 -58 121q-59 0 -59 -121q0 -117 59 -117zM1254 199q0 -92 -46 -145.5t-129 -53.5
q-41 0 -74 14t-55.5 40t-34 63t-11.5 82q0 93 46 147t129 54q84 0 129.5 -53.5t45.5 -147.5zM1079 82q22 0 36 18t18 45.5t4 53.5q0 121 -58 121q-59 0 -59 -121q0 -117 59 -117z" />
    <glyph glyph-name="guilsinglleft" unicode="&#x2039;" horiz-adv-x="406" 
d="M376 70l-346 237v86l346 237v-87l-212 -193l212 -193v-87z" />
    <glyph glyph-name="guilsinglright" unicode="&#x203a;" horiz-adv-x="406" 
d="M376 307l-346 -237v87l212 193l-212 193v87l346 -237v-86z" />
    <glyph glyph-name="fraction" unicode="&#x2044;" horiz-adv-x="474" 
d="M20 -50l334 770h100l-334 -770h-100z" />
    <glyph glyph-name="Euro" unicode="&#x20ac;" horiz-adv-x="655" 
d="M25 361l35 71h58q10 52 33.5 100t63.5 86.5t99 61t135 22.5q28 0 59.5 -6.5t64 -24.5t49.5 -45t17 -55t-10.5 -53t-32 -39.5t-40.5 -14.5q-17 0 -36.5 9t-33 29.5t-13.5 38.5q0 21 5 35.5t5 21.5q0 9 -7.5 14t-19.5 5q-29 0 -58.5 -21t-57 -64t-40.5 -100h253l-35 -71
h-227v-11l2 -41h195l-35 -71h-145q21 -67 63.5 -111t84.5 -44q12 0 19.5 5t7.5 14q0 7 -5 21.5t-5 35.5q0 18 13.5 38.5t33 29.5t36.5 9q19 0 40.5 -14.5t32 -39.5t10.5 -53q0 -21 -10 -43.5t-34 -41.5t-61 -32.5t-85 -13.5q-70 0 -126.5 19.5t-96 53t-64.5 76.5t-38 91h-99
l35 71h52q-2 14 -2 41v11h-85z" />
    <glyph glyph-name="uni2117" unicode="&#x2117;" horiz-adv-x="758" 
d="M120 346q0 -50 20.5 -97t56.5 -82.5t83.5 -55.5t99.5 -20t98.5 20t81.5 55.5t54.5 82.5t19.5 97q0 52 -19.5 99.5t-54 83.5t-81.5 56t-99 20t-99.5 -20t-83.5 -56t-56.5 -83.5t-20.5 -99.5zM30 347q0 71 27 136.5t75.5 114.5t112.5 76.5t134 27.5t134 -27.5t112.5 -76.5
t75.5 -114.5t27 -136.5q0 -69 -27.5 -133t-75.5 -112.5t-112.5 -76t-133.5 -27.5t-133.5 27.5t-112.5 76t-75.5 112.5t-27.5 133zM432 300h-51v-52h47v-74h-190v74h46v190h-46v74h194q34 0 65.5 -11t50.5 -34t19 -60q0 -15 -5.5 -35t-22.5 -36t-45 -26t-62 -10zM381 378h46
q18 0 27.5 9t9.5 21t-9.5 21t-27.5 9h-46v-60z" />
    <glyph glyph-name="trademark" unicode="&#x2122;" horiz-adv-x="779" 
d="M30 557v143h313v-143h-68q0 32 -10 50t-24 18h-7v-180h45v-73h-184v73h44v180h-7q-14 0 -23.5 -17.5t-9.5 -50.5h-69zM615 594l-71 -222h-4l-72 222v-149h36v-73h-151v73h44v182h-44v73h172l30 -82l24 82h170v-73h-41v-182h41v-73h-173v73h39v149z" />
    </font>
</defs>
</svg>
